<svg xmlns="http://www.w3.org/2000/svg" xmlns:xlink="http://www.w3.org/1999/xlink" aria-hidden="true" focusable="false" width="1em" height="1em" style="-ms-transform: rotate(360deg); -webkit-transform: rotate(360deg); transform: rotate(360deg);" preserveAspectRatio="xMidYMid meet" viewBox="0 0 24 24"><path d="M19 21v-2h-4v-2h4v-2l3 3l-3 3M10 4a4 4 0 0 1 4 4a4 4 0 0 1-4 4a4 4 0 0 1-4-4a4 4 0 0 1 4-4m0 10c1.15 0 2.25.12 3.24.34A5.964 5.964 0 0 0 12 18c0 .7.12 1.37.34 2H2v-2c0-2.21 3.58-4 8-4z" fill="currentColor" class="material"/></svg>
