<svg width="22" height="22" viewBox="0 0 22 22" fill="none" xmlns="http://www.w3.org/2000/svg">
  <path d="M12.009 0C11.4571 0 10.9828 0.189895 10.586 0.569684C10.1893 0.949473 9.97373 1.42421 9.93923 1.99389C9.90473 2.56358 10.0815 3.06421 10.4696 3.49579C10.8577 3.92737 11.3407 4.16042 11.9185 4.19495C12.4963 4.22947 13.0008 4.05253 13.432 3.6641C13.8632 3.27568 14.0961 2.79232 14.1306 2.214C14.1651 1.63568 13.9883 1.12642 13.6002 0.68621C13.2121 0.246 12.7248 0.0172632 12.1384 0H12.009ZM9.75812 2.46L3.75572 5.51558C4.10069 5.86084 4.31629 6.27516 4.40253 6.75852L10.3791 3.70295C10.0513 3.35768 9.84437 2.94337 9.75812 2.46ZM14.0788 3.15916C13.8546 3.59074 13.5269 3.91874 13.0957 4.14316L17.8303 8.90779C18.0545 8.47621 18.3909 8.14821 18.8393 7.92379L14.0788 3.15916ZM10.4049 3.72884L6.91216 10.5909L7.94705 11.6267L11.6468 4.37621C11.1639 4.28989 10.7499 4.0741 10.4049 3.72884ZM13.0957 4.14316C12.7162 4.33305 12.3195 4.41937 11.9055 4.4021L11.6986 4.37621L12.2419 7.79431L13.6907 8.02737L13.0957 4.14316ZM2.07402 5.02358C1.52207 5.02358 1.04774 5.21779 0.651034 5.60621C0.254324 5.99463 0.0387206 6.46937 0.00422407 7.03042C-0.0302725 7.59147 0.146522 8.0921 0.534609 8.53231C0.922695 8.97252 1.40996 9.20558 1.9964 9.23147C2.58284 9.25737 3.09167 9.0761 3.52287 8.68768C3.95408 8.29926 4.18262 7.81589 4.20849 7.23758C4.23436 6.65926 4.05326 6.15431 3.66517 5.72274C3.27708 5.29116 2.79844 5.0581 2.22925 5.02358H2.07402ZM4.40253 6.78442C4.41978 6.93979 4.42841 7.09516 4.42841 7.25052C4.41116 7.57852 4.32492 7.88063 4.16968 8.15684L7.58484 8.70063L8.25752 7.40589L4.40253 6.78442ZM10.2238 7.71663L9.55114 9.03726L17.5975 10.3061C17.5802 10.168 17.5716 10.0213 17.5716 9.86589C17.5888 9.53789 17.6751 9.22716 17.8303 8.93368L10.2238 7.71663ZM19.8484 7.872C19.2964 7.88926 18.8221 8.08779 18.4254 8.46758C18.0287 8.84737 17.8174 9.3221 17.7915 9.89179C17.7656 10.4615 17.9467 10.9621 18.3348 11.3937C18.7229 11.8253 19.2059 12.0583 19.7837 12.0928C20.3615 12.1274 20.866 11.9504 21.2972 11.562C21.7284 11.1736 21.9613 10.6859 21.9958 10.0989C22.0303 9.512 21.8535 9.00273 21.4654 8.57116C21.0773 8.13958 20.59 7.90652 20.0036 7.872H19.8484ZM4.16968 8.20863C3.94546 8.64021 3.60911 8.96821 3.16066 9.19263L8.59387 14.6305L9.91336 13.9832L4.16968 8.20863ZM3.13479 9.19263C2.77257 9.38252 2.39311 9.46884 1.9964 9.45158L1.76355 9.42568L2.79844 16.0547C3.16066 15.8821 3.54874 15.8044 3.9627 15.8217L4.16968 15.8476L3.13479 9.19263ZM12.5523 9.76231L13.7942 17.8156C14.1564 17.6429 14.5359 17.5653 14.9326 17.5825L15.1913 17.6084L14.0012 9.99537L12.5523 9.76231ZM17.5975 10.3579L14.5445 11.9116L14.7515 13.3617L18.2443 11.6008C17.8993 11.2556 17.6837 10.8413 17.5975 10.3579ZM18.2701 11.6267L15.1913 17.6084C15.6743 17.6947 16.0882 17.9105 16.4332 18.2558L19.512 12.2741C19.0291 12.1878 18.6151 11.972 18.2701 11.6267ZM5.98075 12.3777L4.22143 15.8476C4.70438 15.9339 5.11834 16.1497 5.4633 16.4949L7.01565 13.4135L5.98075 12.3777ZM12.7593 12.8179L5.48918 16.5208C5.81689 16.8661 6.02387 17.2804 6.11011 17.7638L12.9663 14.268L12.7593 12.8179ZM11.3363 15.4074L10.0168 16.0547L12.7593 18.8255C12.9836 18.3939 13.3199 18.0659 13.7683 17.8415L11.3363 15.4074ZM3.80747 16.0288C3.25552 16.0288 2.77688 16.223 2.37155 16.6115C1.96622 16.9999 1.75061 17.4746 1.72474 18.0357C1.69887 18.5967 1.87997 19.093 2.26806 19.5246C2.65615 19.9562 3.1391 20.1893 3.71692 20.2238C4.29473 20.2583 4.79924 20.0814 5.23045 19.6929C5.66166 19.3045 5.89451 18.8212 5.92901 18.2428C5.9635 17.6645 5.78671 17.1596 5.39862 16.728C5.01054 16.2964 4.52327 16.0634 3.93683 16.0288H3.80747ZM6.11011 17.7897C6.14461 17.945 6.15323 18.1004 6.13599 18.2558C6.11874 18.5838 6.04112 18.8859 5.90313 19.1621L12.5265 20.2238C12.5092 20.0684 12.5006 19.913 12.5006 19.7577C12.5178 19.4469 12.6041 19.1448 12.7593 18.8514L6.11011 17.7897ZM14.7774 17.7897C14.2254 17.7897 13.7511 17.9839 13.3544 18.3723C12.9577 18.7607 12.7464 19.2355 12.7205 19.7965C12.6946 20.3576 12.8714 20.8582 13.2509 21.2984C13.6304 21.7386 14.1133 21.9717 14.6998 21.9976C15.2862 22.0235 15.795 21.8422 16.2262 21.4538C16.6574 21.0654 16.8903 20.582 16.9248 20.0037C16.9593 19.4254 16.7825 18.9204 16.3944 18.4888C16.0063 18.0573 15.519 17.8242 14.9326 17.7897H14.7774Z" fill="currentColor"/>
</svg>
