<svg xmlns="http://www.w3.org/2000/svg" viewBox="-78 0 512 512">
  <defs/>
  <path d="M178.2 512A178.9 178.9 0 010 332.8c0-43 14.7-72.3 31.6-106.2 9.5-18.8 19.2-38.2 28.2-63l9.4-25.9 23 5.6-3.7 27.3c-3 22.2 1 47.5 11.1 69.2 4.3 9.3 9.5 17.4 15.2 24.3a316 316 0 0111-104 288 288 0 0146.8-94.7c26.4-35.2 56.7-58.1 70.8-60L283.3 0l-26.9 30a74 74 0 00-18.8 49.5c0 35.3 21.6 60.4 46.8 89.5a359.4 359.4 0 0148.1 65.7c16 30 23.8 62.1 23.8 98.1 0 98.8-79.9 179.2-178.1 179.2zm0 0" fill="currentColor"/>
</svg>
