<svg class="bi bi-arrows-angle-contract" width="1em" height="1em" viewBox="0 0 16 16" fill="currentColor" xmlns="http://www.w3.org/2000/svg">
  <path fill-rule="evenodd" d="M9.5 2.036a.5.5 0 01.5.5v3.5h3.5a.5.5 0 010 1h-4a.5.5 0 01-.5-.5v-4a.5.5 0 01.5-.5z" clip-rule="evenodd"/>
  <path fill-rule="evenodd" d="M14.354 1.646a.5.5 0 010 .708l-4.5 4.5a.5.5 0 11-.708-.708l4.5-4.5a.5.5 0 01.708 0zm-7.5 7.5a.5.5 0 010 .708l-4.5 4.5a.5.5 0 01-.708-.708l4.5-4.5a.5.5 0 01.708 0z" clip-rule="evenodd"/>
  <path fill-rule="evenodd" d="M2.036 9.5a.5.5 0 01.5-.5h4a.5.5 0 01.5.5v4a.5.5 0 01-1 0V10h-3.5a.5.5 0 01-.5-.5z" clip-rule="evenodd"/>
</svg>