<svg width="24px" height="24px" viewBox="0 0 24 24" version="1.1" xmlns="http://www.w3.org/2000/svg" xmlns:xlink="http://www.w3.org/1999/xlink">
    <g stroke="none" stroke-width="1" fill="none" fill-rule="evenodd" stroke-linecap="round" stroke-linejoin="round">
        <g transform="translate(-400.000000, -775.000000)" stroke="#000000" stroke-width="2">
            <g id="309" transform="translate(400.000000, 775.000000)">
                <path d="M7,18 L5,18 C2.790861,18 1,16.209139 1,14 C1,11.790861 2.790861,10 5,10 C5.35840468,10 5.70579988,10.0471371 6.03632437,10.1355501 C6.01233106,9.92702603 6,9.71495305 6,9.5 C6,6.46243388 8.46243388,4 11.5,4 C14.0673313,4 16.2238156,5.7590449 16.8299648,8.1376465 C17.2052921,8.04765874 17.5970804,8 18,8 C20.7614237,8 23,10.2385763 23,13 C23,15.7614237 20.7614237,18 18,18 L17,18" id="Combined-Shape"></path>
                <path d="M9,21 L15,15" id="Path-238"></path>
                <path d="M9,21 L15,15" id="Path-238" transform="translate(12.000000, 18.000000) scale(-1, 1) translate(-12.000000, -18.000000) "></path>
            </g>
        </g>
    </g>
</svg>
