<svg width="24px" height="24px" viewBox="0 0 24 24" version="1.1" xmlns="http://www.w3.org/2000/svg" xmlns:xlink="http://www.w3.org/1999/xlink">
    <g stroke="none" stroke-width="1" fill="none" fill-rule="evenodd" stroke-linecap="round">
        <g transform="translate(-356.000000, -775.000000)" stroke="#000000" stroke-width="2">
            <g id="308" transform="translate(356.000000, 775.000000)">
                <path d="M8,17 L5,17 L5,17 C2.790861,17 1,15.209139 1,13 C1,10.790861 2.790861,9 5,9 C5.35840468,9 5.70579988,9.04713713 6.03632437,9.13555013 C6.01233106,8.92702603 6,8.71495305 6,8.5 C6,5.46243388 8.46243388,3 11.5,3 C14.0673313,3 16.2238156,4.7590449 16.8299648,7.1376465 C17.2052921,7.04765874 17.5970804,7 18,7 C20.7614237,7 23,9.23857625 23,12 C23,14.7614237 20.7614237,17 18,17 L16,17" id="Combined-Shape" stroke-linejoin="round"></path>
                <path d="M12,13 L12,21" id="Path-58"></path>
                <polyline id="Path-59" stroke-linejoin="round" points="15 20 12 23 9 20"></polyline>
            </g>
        </g>
    </g>
</svg>
