<svg xmlns="http://www.w3.org/2000/svg" viewBox="0 0 24 24">
  <defs/>
  <path fill="none" fill-rule="evenodd" stroke="#000" stroke-linejoin="round" stroke-width="2" d="M7.2 4.4A9 9 0 0110 3.2V2c0-.6.4-1 1-1h2c.5 0 1 .4 1 1v1.2c1 .3 2 .6 2.8 1.2l.9-.9a1 1 0 011.4 0L20.5 5c.4.4.4 1 0 1.4l-.9 1a9 9 0 011.2 2.7H22c.6 0 1 .4 1 1v2c0 .5-.4 1-1 1h-1.2a9 9 0 01-1.2 2.8l.9.9c.4.3.4 1 0 1.4L19 20.5a1 1 0 01-1.4 0l-1-.9a9 9 0 01-2.7 1.2V22c0 .6-.4 1-1 1h-2a1 1 0 01-1-1v-1.2a9 9 0 01-2.8-1.2l-.9.9a1 1 0 01-1.4 0L3.5 19a1 1 0 010-1.4l.9-1A9 9 0 013.2 14H2a1 1 0 01-1-1v-2c0-.5.4-1 1-1h1.2c.3-1 .6-2 1.2-2.8l-.9-.9a1 1 0 010-1.4L5 3.5a1 1 0 011.4 0l1 .9zM12 16a4 4 0 100-8 4 4 0 000 8z"/>
</svg>
