<svg width="24px" height="24px" viewBox="0 0 24 24" version="1.1" xmlns="http://www.w3.org/2000/svg" xmlns:xlink="http://www.w3.org/1999/xlink">
    <g stroke="none" stroke-width="1" fill="none" fill-rule="evenodd">
        <g transform="translate(-224.000000, -159.000000)">
            <g id="25" transform="translate(224.000000, 159.000000)">
                <path d="M5,7 L5,20.0081158 C5,21.1082031 5.89706013,22 7.00585866,22 L16.9941413,22 C18.1019465,22 19,21.1066027 19,20.0081158 L19,7" id="Path-296" stroke="#000000" stroke-width="2"></path>
                <rect id="Rectangle-424" fill="#000000" x="2" y="4" width="20" height="2" rx="1"></rect>
                <path d="M9,10.9970301 C9,10.4463856 9.44386482,10 10,10 C10.5522847,10 11,10.4530363 11,10.9970301 L11,17.0029699 C11,17.5536144 10.5561352,18 10,18 C9.44771525,18 9,17.5469637 9,17.0029699 L9,10.9970301 Z M13,10.9970301 C13,10.4463856 13.4438648,10 14,10 C14.5522847,10 15,10.4530363 15,10.9970301 L15,17.0029699 C15,17.5536144 14.5561352,18 14,18 C13.4477153,18 13,17.5469637 13,17.0029699 L13,10.9970301 Z" id="Combined-Shape" fill="#000000"></path>
                <path d="M9,5 L9,2.99895656 C9,2.44724809 9.45097518,2 9.99077797,2 L14.009222,2 C14.5564136,2 15,2.44266033 15,2.99895656 L15,5" id="Path-33" stroke="#000000" stroke-width="2" stroke-linejoin="round"></path>
            </g>
        </g>
    </g>
</svg>
