<svg xmlns="http://www.w3.org/2000/svg" viewBox="0 0 24 24">
  <defs/>
  <g fill="none" fill-rule="evenodd">
    <circle cx="12" cy="12" r="10" stroke="#000" stroke-width="2"/>
    <path fill="#000" d="M12 14.5c.4 0 .6-.2.7-.6v-.7c1.8-.3 3.3-1.2 3.3-3.3 0-2-1.5-3.2-3.8-3.2-1.4 0-2.5.5-3.4 1.3-.2.2-.3.4-.3.7a.9.9 0 001.5.6c.7-.5 1.3-.9 2.2-.9 1.1 0 1.8.7 1.8 1.6 0 1-.8 1.6-2.3 1.7-.4 0-.7.4-.6.8l.1 1.4c0 .4.4.6.7.6h.1zm-1.2 2.3v.2a1 1 0 001.1 1 1 1 0 001.2-1v-.2a1 1 0 00-1.2-1 1 1 0 00-1.1 1z"/>
  </g>
</svg>
