<svg xmlns="http://www.w3.org/2000/svg" height="24px" width="24px" viewBox="0 0 24 24">
  <defs/>
  <g fill="none" fill-rule="evenodd">
    <path stroke="#333" stroke-linejoin="round" stroke-width="2" d="M7.4 14H2v6c0 1.1.9 2 2 2h16a2 2 0 002-2v-6H15.9l-.2.6a4 4 0 01-7.4 0l-.2-.6h-.7z"/>
    <path stroke="#333" stroke-linejoin="round" stroke-width="2" d="M2 15.5V13l3.6-9c.2-.6.8-1 1.4-1h10c.6 0 1.2.4 1.4 1l3.7 9-.1 2"/>
    <path fill="#333" d="M6 9h12v1H6V9zm-1 2h14v1H5v-1zm2-4h10v1H7V7zm1-2h8v1H8V5z"/>
  </g>
</svg>
