<svg width="24px" height="24px" viewBox="0 0 24 24" version="1.1" xmlns="http://www.w3.org/2000/svg" xmlns:xlink="http://www.w3.org/1999/xlink">
  <defs/>
  <g id="Page-1" stroke="none" stroke-width="1" fill="none" fill-rule="evenodd">
    <g id="Artboard-4" transform="translate(-224.000000, -1046.000000)" fill="#000000">
      <g id="Extras" transform="translate(48.000000, 1046.000000)">
        <g id="refresh" transform="translate(176.000000, 0.000000)">
          <path d="M20.9995201,13.0312796 L20.9999519,13.0312796 C20.9830843,17.9874565 16.960132,22 12,22 C7.02943725,22 3,17.9705627 3,13 C3,8.0398348 7.01259713,4.01686187 11.9688198,4.00005287 L11.9688198,6.00006796 C8.11716976,6.01686496 5,9.14440548 5,13 C5,16.8659932 8.13400675,20 12,20 C15.8555614,20 18.9830812,16.8828839 18.9999316,13.0312796 L19.0004799,13.0312796 C19.0001607,13.0208922 19,13.0104649 19,13 C19,12.4477153 19.4477153,12 20,12 C20.5522847,12 21,12.4477153 21,13 C21,13.0104649 20.9998393,13.0208922 20.9995201,13.0312796 Z M12,9 L12,1 L16,5 L12,9 Z" id="Combined-Shape"/>
        </g>
      </g>
    </g>
  </g>
</svg>
