<svg viewBox="0 0 1536 1536" width="1536" height="1536" xmlns="http://www.w3.org/2000/svg">
    <path fill="#000000" d="M640 1440c0 28 13 96-32 96H288c-159 0-288-129-288-288V544c0-159 129-288 288-288h320c17 0 32 15 32 32 0 28 13 96-32 96H288c-88 0-160 72-160 160v704c0 88 72 160 160 160h288c25 0 64-5 64 32zm928-544c0 17-7 33-19 45l-544 544c-12 12-28 19-45 19-35 0-64-29-64-64v-288H448c-35 0-64-29-64-64V704c0-35 29-64 64-64h448V352c0-35 29-64 64-64 17 0 33 7 45 19l544 544c12 12 19 28 19 45z"/>
</svg>
