<svg xmlns="http://www.w3.org/2000/svg" viewBox="0 0 24 24">
  <defs/>
  <g fill="none" fill-rule="evenodd" stroke="#000" stroke-linecap="round" stroke-linejoin="round" stroke-width="2">
    <path d="M10 9C8.5 7.5 8 3 8 3s-.5 4.5-2 6-4 2-4 2 2.5.5 4 2 2 6 2 6 .5-4.5 2-6 4-2 4-2-2.5-.5-4-2zM19.7 4.8c-1-1-1.2-3.8-1.2-3.8s-.3 2.8-1.2 3.8C16.5 5.7 15 6 15 6s1.5.3 2.3 1.3c1 .9 1.2 3.7 1.2 3.7s.3-2.8 1.2-3.8C20.5 6.3 22 6 22 6s-1.5-.3-2.3-1.3zM17 17c-.8-.8-1-3-1-3s-.3 2.3-1 3c-.8.8-2 1-2 1s1.3.3 2 1c.8.8 1 3 1 3s.3-2.3 1-3c.8-.8 2-1 2-1s-1.3-.3-2-1z"/>
  </g>
</svg>
