<?xml version="1.0" encoding="iso-8859-1"?>
<!-- Generator: Adobe Illustrator 18.1.1, SVG Export Plug-In . SVG Version: 6.00 Build 0)  -->
<svg version="1.1" id="Capa_1" xmlns="http://www.w3.org/2000/svg" xmlns:xlink="http://www.w3.org/1999/xlink" x="0px" y="0px"
	 viewBox="0 0 559.372 559.372" style="enable-background:new 0 0 559.372 559.372;" xml:space="preserve">
<g>
	<g>
		<path style="fill:#010002;" d="M53.244,0.002c46.512,0,91.29,6.018,134.334,18.054s83.334,29.07,120.869,51.102
			c37.537,22.032,71.707,48.45,102.514,79.254c30.803,30.804,57.221,64.974,79.254,102.51
			c22.029,37.539,39.063,77.828,51.102,120.873c12.037,43.043,18.055,87.818,18.055,134.334c0,14.688-5.201,27.23-15.605,37.637
			c-10.404,10.407-22.949,15.604-37.637,15.604c-14.689,0-27.234-5.199-37.641-15.604c-10.402-10.404-15.604-22.949-15.604-37.637
			c0-36.723-4.795-72.115-14.383-106.186c-9.588-34.064-23.055-65.891-40.395-95.471c-17.34-29.581-38.145-56.509-62.424-80.785
			c-24.277-24.276-51.203-45.084-80.784-62.424c-29.58-17.34-61.404-30.804-95.472-40.392s-69.462-14.382-106.182-14.382
			c-14.688,0-27.234-5.202-37.638-15.606S0.001,67.933,0.001,53.245s5.202-27.234,15.606-37.638
			C26.01,5.204,38.556,0.002,53.244,0.002z M53.244,201.35c42.024,0,81.498,8.058,118.422,24.174s69.156,37.944,96.696,65.484
			c27.541,27.541,49.369,59.771,65.484,96.693c16.117,36.928,24.174,76.398,24.174,118.426c0,14.688-5.201,27.23-15.604,37.637
			c-10.404,10.404-22.949,15.604-37.641,15.604c-14.688,0-27.233-5.199-37.637-15.604c-10.404-10.404-15.606-22.949-15.606-37.637
			c0-27.338-5.202-53.041-15.606-77.113c-10.404-24.072-24.582-45.084-42.534-63.035c-17.952-17.953-38.964-32.131-63.036-42.535
			c-24.072-10.402-49.776-15.604-77.112-15.604c-14.688,0-27.234-5.201-37.638-15.605C5.202,281.83,0,269.284,0,254.596
			s5.202-27.234,15.606-37.638C26.01,206.552,38.556,201.35,53.244,201.35z M151.164,481.033c0,10.609-1.938,20.4-5.814,29.377
			c-3.876,8.979-9.18,16.83-15.912,23.563c-6.732,6.729-14.688,12.035-23.868,15.912c-9.18,3.875-18.87,5.811-29.07,5.811
			c-10.608,0-20.4-1.938-29.376-5.811c-8.976-3.875-16.83-9.184-23.562-15.912c-6.732-6.732-12.036-14.586-15.912-23.563
			c-3.876-8.977-5.814-18.768-5.814-29.377c0-10.197,1.938-19.889,5.814-29.066c3.876-9.184,9.18-17.139,15.912-23.869
			c6.732-6.732,14.586-12.035,23.562-15.912c8.976-3.875,18.768-5.814,29.376-5.814c10.2,0,19.89,1.939,29.07,5.814
			c9.18,3.877,17.136,9.18,23.868,15.912c6.732,6.73,12.036,14.688,15.912,23.869C149.226,461.145,151.164,470.834,151.164,481.033z
			"/>
	</g>
</g>
<g>
</g>
<g>
</g>
<g>
</g>
<g>
</g>
<g>
</g>
<g>
</g>
<g>
</g>
<g>
</g>
<g>
</g>
<g>
</g>
<g>
</g>
<g>
</g>
<g>
</g>
<g>
</g>
<g>
</g>
</svg>
