<svg xmlns="http://www.w3.org/2000/svg" viewBox="0 0 559 559">
  <defs/>
  <path d="M53 0a497 497 0 01358 148 508 508 0 01148 358c0 15-5 27-15 38a51 51 0 01-38 15c-15 0-27-5-38-15a51 51 0 01-15-38 390 390 0 00-117-282A400 400 0 0053 106 52 52 0 010 53c0-14 5-27 16-37C26 5 39 0 53 0zm0 201c42 0 82 8 119 25s69 37 96 65a312 312 0 0190 215c0 15-5 27-16 38a51 51 0 01-37 15c-15 0-27-5-38-15a51 51 0 01-15-38 192 192 0 00-59-140 201 201 0 00-140-58c-14 0-27-5-37-16-11-10-16-23-16-37s5-28 16-38c10-10 23-16 37-16zm98 280a73 73 0 01-45 69c-10 4-19 6-30 6a73 73 0 01-68-46 74 74 0 0139-98 74 74 0 01104 69z"/>
</svg>
