<svg xmlns="http://www.w3.org/2000/svg" viewBox="0 0 24 24">
  <defs/>
  <g fill="none" fill-rule="evenodd">
    <path fill="#000" fill-rule="nonzero" d="M14.3 15H7c-2.8 0-4.6 1.2-5.5 3a6.2 6.2 0 00-.5 3.1 1 1 0 102-.2c0-.6 0-1.3.3-2C4 17.7 5 17 7 17h6.2c.2-.7.6-1.4 1-2z"/>
    <path fill="#000" d="M19 18v-1.5c0-.3-.2-.5-.5-.5s-.5.2-.5.5V18h-1.5c-.3 0-.5.2-.5.5s.2.5.5.5H18v1.5c0 .3.2.5.5.5s.5-.2.5-.5V19h1.5c.3 0 .5-.2.5-.5s-.2-.5-.5-.5H19zm-.5 5a4.5 4.5 0 110-9 4.5 4.5 0 010 9z"/>
    <circle cx="12" cy="8" r="5" stroke="#000" stroke-width="2"/>
  </g>
</svg>
