<svg xmlns="http://www.w3.org/2000/svg" transform="scale(1.1)" viewBox="0 0 24 24">
  <defs/>
  <g class="layer">
    <path fill="#fff" fill-rule="evenodd" stroke="#000" stroke-width="1.8" d="M20.5 6.7s-.2-1.4-.8-2c-.7-.8-1.6-.8-2-.9-2.7-.2-6.9-.2-6.9-.2h0s-4.2 0-7 .2c-.3 0-1.2 0-2 .9-.5.6-.7 2-.7 2L.9 10v1.6l.2 3.3s.2 1.4.8 2c.7.8 1.7.8 2.2.9 1.6.2 6.7.2 6.7.2s4.2 0 7-.2c.3 0 1.2 0 2-.9.5-.6.7-2 .7-2l.2-3.3V10l-.2-3.3h0z"/>
    <path d="M8.7 14.7a.7.7 0 01-.5-1.2l2.9-3H8.7a.7.7 0 010-1.3h4a.7.7 0 01.5 1.2l-4 4a.7.7 0 01-.5.3zM11.7 8.6h-2a.7.7 0 110-1.4h2a.7.7 0 010 1.4z"/>
  </g>
</svg>
