<svg width="24" height="24" xmlns="http://www.w3.org/2000/svg" xmlns:svg="http://www.w3.org/2000/svg" style="transform:scale(1.1);">
 <g class="layer" style="transform: scale(.9);">
  <g fill="none" fill-rule="evenodd">
   <g transform="translate(-884.000000, -863.000000)">
    <g transform="translate(884.000000, 863.000000)">
     <path d="m22.78031,7.45167c0,0 -0.21495,-1.56763 -0.87461,-2.25797c-0.83658,-0.90605 -1.7743,-0.91055 -2.20433,-0.96357c-3.07858,-0.23013 -7.69661,-0.23013 -7.69661,-0.23013l-0.00956,0c0,0 -4.61792,0 -7.69661,0.23013c-0.43005,0.05302 -1.36743,0.05752 -2.20431,0.96357c-0.65962,0.69034 -0.87427,2.25797 -0.87427,2.25797c0,0 -0.22001,1.84092 -0.22001,3.68182l0,1.72585c0,1.84087 0.22001,3.68177 0.22001,3.68177c0,0 0.21465,1.56766 0.87427,2.25799c0.83688,0.90608 1.93618,0.87741 2.42581,0.97238c1.76002,0.17451 7.47991,0.22852 7.47991,0.22852c0,0 4.62279,-0.00719 7.70137,-0.2373c0.43003,-0.05305 1.36775,-0.05752 2.20433,-0.9636c0.65966,-0.69033 0.87461,-2.25799 0.87461,-2.25799c0,0 0.21969,-1.8409 0.21969,-3.68177l0,-1.72585c0,-1.8409 -0.21969,-3.68182 -0.21969,-3.68182l0,0z" fill="#ffffff" stroke="#000000" stroke-width="2"/>
    </g>
   </g>
  </g>
  <g>
   <path d="m9.639451,16.289861a0.758829,0.758829 0 0 1 -0.537251,-1.296079l3.226539,-3.226539l-2.689289,0a0.758829,0.758829 0 0 1 0,-1.517657l4.521101,0a0.758829,0.758829 0 0 1 0.537251,1.296079l-4.522619,4.521101a0.758829,0.758829 0 0 1 -0.535733,0.223096z" fill="#000000" stroke="#000000" stroke-width="0"/>
   <path d="m13.029897,9.507451l-2.208191,0a0.758829,0.758829 0 1 1 0,-1.517657l2.21578,0a0.758829,0.758829 0 0 1 0,1.517657l-0.007588,0z" fill="#000000" stroke="#000000" stroke-width="0"/>
  </g>
 </g>
</svg>
