<svg width="24px" height="24px" viewBox="0 0 24 24" version="1.1" xmlns="http://www.w3.org/2000/svg" xmlns:xlink="http://www.w3.org/1999/xlink">
    <g stroke="none" stroke-width="1" fill="none" fill-rule="evenodd" stroke-linecap="round">
        <g transform="translate(-752.000000, -1090.000000)" stroke="#000000" stroke-width="2">
            <g id="Extras" transform="translate(48.000000, 1046.000000)">
                <g id="thumbs-down" transform="translate(704.000000, 44.000000)">
                    <path d="M6,16 C6,18.5 6.5,21 8,21 L16.9938335,21 C17.5495239,21 18.1819788,20.5956028 18.4072817,20.0949295 L20.8562951,14.6526776 C21.7640882,12.6353595 20.7154925,11 18.5092545,11 L15.5,11 C15.5,11 18.5,5 15,5 C12.5,5 11.5,11 8,11 C6.5,11 6,13.5 6,16 Z" id="Path-188" stroke-linejoin="round" transform="translate(13.591488, 13.000000) scale(1, -1) translate(-13.591488, -13.000000) "></path>
                    <path d="M4,4.5 C4,4.5 3,7 3,10 C3,13 4,15.5 4,15.5" id="Path-189" transform="translate(3.500000, 10.000000) scale(1, -1) translate(-3.500000, -10.000000) "></path>
                </g>
            </g>
        </g>
    </g>
</svg>
