<svg width="24" height="24" viewBox="0 0 24 24" fill="none" xmlns="http://www.w3.org/2000/svg">
<path d="M7 12.1C7 10.1 8.5 9 10.1 9C10.8 9 11.4 9.3 11.8 9.6L11 10.7C10.7 10.5 10.5 10.4 10.2 10.4C9.4 10.4 8.8 11.1 8.8 12.1C8.8 13.1 9.4 13.8 10.1 13.8C10.5 13.8 10.9 13.6 11.2 13.4L11.9 14.6C11.3 15.1 10.6 15.3 9.9 15.3C8.3 15.2 7 14.1 7 12.1Z" fill="currentColor"/>
<path d="M12.2998 12.1C12.2998 10.1 13.7998 9 15.3998 9C16.0998 9 16.6998 9.3 17.0998 9.6L16.2998 10.7C15.9998 10.5 15.7998 10.3 15.4998 10.3C14.6998 10.3 14.0998 11 14.0998 12C14.0998 13 14.6998 13.7 15.3998 13.7C15.7998 13.7 16.1998 13.5 16.4998 13.3L17.1998 14.5C16.5998 15 15.8998 15.2 15.1998 15.2C13.4998 15.2 12.2998 14.1 12.2998 12.1Z" fill="currentColor"/>
<path d="M12 23C5.9 23 1 18.1 1 12C1 5.9 5.9 1 12 1C18.1 1 23 5.9 23 12C23 18.1 18.1 23 12 23ZM12 3C7 3 3 7 3 12C3 17 7 21 12 21C17 21 21 17 21 12C21 7 17 3 12 3Z" fill="currentColor"/>
</svg>
