<svg xmlns="http://www.w3.org/2000/svg" width="24" height="24">
    <path fill="none" fill-rule="evenodd" stroke="#fff" stroke-linejoin="round" stroke-width="2" d="M7.209 4.38A9 9 0 0 1 10 3.223V2a1 1 0 0 1 1.01-1h1.98c.558 0 1.01.444 1.01 1v1.223a9 9 0 0 1 2.791 1.157l.866-.865a1 1 0 0 1 1.42.006l1.402 1.401c.394.394.4 1.028.006 1.421l-.865.866c.533.845.929 1.786 1.157 2.791H22a1 1 0 0 1 1 1.01v1.98c0 .558-.444 1.01-1 1.01h-1.223a9 9 0 0 1-1.157 2.791l.865.866a1 1 0 0 1-.006 1.42l-1.401 1.402c-.394.394-1.028.4-1.421.006l-.866-.865A9 9 0 0 1 14 20.777V22a1 1 0 0 1-1.01 1h-1.98c-.558 0-1.01-.444-1.01-1v-1.223a9 9 0 0 1-2.791-1.157l-.866.865a1 1 0 0 1-1.42-.006L3.52 19.078a1 1 0 0 1-.006-1.421l.865-.866A9 9 0 0 1 3.223 14H2a1 1 0 0 1-1-1.01v-1.98c0-.558.444-1.01 1-1.01h1.223A9 9 0 0 1 4.38 7.209l-.865-.866a1 1 0 0 1 .006-1.42L4.922 3.52a1 1 0 0 1 1.421-.006zM12 16a4 4 0 1 0 0-8 4 4 0 0 0 0 8Z"/>
</svg>
