<?xml version="1.0" encoding="UTF-8"?>
<svg width="24px" height="24px" viewBox="0 0 24 24" version="1.1" xmlns="http://www.w3.org/2000/svg" xmlns:xlink="http://www.w3.org/1999/xlink">
    <defs></defs>
    <g id="Page-1" stroke="none" stroke-width="1" fill="none" fill-rule="evenodd" stroke-linecap="round">
        <g id="Artboard-4" transform="translate(-884.000000, -115.000000)" stroke="#fff" stroke-width="2">
            <g id="20" transform="translate(884.000000, 115.000000)">
                <path d="M2,8.99703014 C2,8.4463856 2.44335318,8 3.0093689,8 L6,8 L12,4 L12,20 L6,16 L3.0093689,16 C2.45190985,16 2,15.5469637 2,15.0029699 L2,8.99703014 Z" id="Rectangle-415" stroke-linejoin="round"></path>
                <path d="M16,8 C16,8 18,9.5 18,12 C18,14.5 16,16 16,16" id="Path-26"></path>
                <path d="M16.0734116,20 C19.3093571,18.9698098 22.0000001,15.5773201 22.0000001,12 C22.0000001,8.43619491 19.2903975,5.04132966 16.0734116,4" id="Oval-33"></path>
            </g>
        </g>
    </g>
</svg>
