<svg width="642" height="560" viewBox="0 0 642 560" fill="none" xmlns="http://www.w3.org/2000/svg">
  <g clip-path="url(#clip0_136_129)">
    <path d="M641.693 264.671C649.314 383.58 514.019 497.751 399.642 537.17C293.9 573.603 100.671 582.446 26.5422 439.608C-43.8696 303.893 35.6543 113.02 149.887 39.2735C335.505 -80.6206 630.934 96.8982 641.693 264.671Z" fill="white" />
    <path opacity="0.16" d="M641.693 264.671C649.314 383.58 514.019 497.751 399.642 537.17C293.9 573.603 100.671 582.446 26.5422 439.608C-43.8696 303.893 35.6543 113.02 149.887 39.2735C335.505 -80.6206 630.934 96.8982 641.693 264.671Z" fill="currentColor" />
    <g opacity="0.6">
      <path opacity="0.6" d="M482.771 291.871C502.312 291.871 518.153 276.009 518.153 256.444C518.153 236.878 502.312 221.017 482.771 221.017C463.23 221.017 447.389 236.878 447.389 256.444C447.389 276.009 463.23 291.871 482.771 291.871Z" fill="currentColor" />
      <path opacity="0.6" d="M434.363 202.614C419.092 212.2 407.003 226.105 399.626 242.571C392.248 259.037 389.914 277.324 392.917 295.118C395.92 312.913 404.127 329.416 416.498 342.54C428.87 355.665 444.85 364.82 462.419 368.85C479.988 372.879 498.356 371.601 515.199 365.177C532.043 358.753 546.605 347.472 557.045 332.761C567.484 318.049 573.332 300.568 573.848 282.529C574.364 264.489 569.526 246.702 559.944 231.416C547.085 210.946 526.643 196.419 503.101 191.019C479.559 185.62 454.839 189.79 434.363 202.614V202.614ZM549.818 325.141C549.745 325.048 549.445 324.799 548.585 323.939L547.374 322.705C544.36 320.095 541.12 317.76 537.692 315.727C525.567 308.542 513.566 306.676 504.744 305.359C502.828 305.08 500.54 304.737 497.495 304.509C481.85 303.369 470.004 306.396 462.29 308.428C446.604 312.56 431.892 319.766 419.007 329.631C409.836 317.854 404.096 303.767 402.42 288.928C400.744 274.089 403.199 259.075 409.512 245.545C415.825 232.015 425.751 220.496 438.193 212.261C450.636 204.026 465.11 199.396 480.016 198.882C494.922 198.369 509.679 201.991 522.658 209.35C535.636 216.709 546.33 227.517 553.557 240.58C560.785 253.643 564.264 268.453 563.612 283.372C562.959 298.292 558.199 312.74 549.859 325.121L549.818 325.141Z" fill="currentColor" />
    </g>
    <g opacity="0.6">
      <path opacity="0.6" d="M64.8047 295.147C65.4048 294.545 66.1058 294.054 66.8757 293.695L117.614 269.911C119.277 269.136 121.179 269.052 122.905 269.677C124.63 270.303 126.037 271.588 126.819 273.25L150.572 324.053C151.167 325.327 151.36 326.752 151.127 328.139C150.894 329.525 150.246 330.809 149.268 331.818C148.671 332.423 147.969 332.915 147.197 333.27L96.4486 357.095C94.7852 357.87 92.8827 357.955 91.1575 357.329C89.4323 356.703 88.0249 355.419 87.2433 353.756L63.4897 302.954C62.8953 301.68 62.7017 300.255 62.9347 298.868C63.1677 297.481 63.8163 296.198 64.7944 295.188L64.8047 295.147ZM61.4084 291.912C59.776 293.614 58.6942 295.769 58.3044 298.096C57.9146 300.423 58.235 302.813 59.2236 304.955L82.9772 355.757C84.291 358.551 86.6563 360.709 89.5555 361.76C92.4547 362.811 95.6518 362.67 98.4471 361.366L149.185 337.583C150.569 336.934 151.812 336.019 152.843 334.89C153.873 333.761 154.672 332.439 155.192 331C155.712 329.562 155.944 328.035 155.875 326.506C155.805 324.978 155.436 323.478 154.787 322.093L131.033 271.29C129.726 268.494 127.363 266.332 124.463 265.281C121.564 264.229 118.367 264.373 115.574 265.681L64.8358 289.465C63.558 290.062 62.3999 290.888 61.4188 291.902L61.4084 291.912Z" fill="currentColor" />
      <path opacity="0.6" d="M121.88 304.271L91.0021 301.616C90.593 301.583 90.1821 301.656 89.8103 301.831C89.4386 302.005 89.119 302.274 88.8834 302.611C88.6477 302.948 88.5043 303.34 88.4672 303.75C88.4302 304.159 88.5009 304.571 88.6723 304.945L101.823 333.052C101.996 333.425 102.265 333.745 102.602 333.981C102.938 334.217 103.331 334.36 103.74 334.396C104.15 334.431 104.561 334.358 104.933 334.184C105.306 334.01 105.626 333.741 105.861 333.404L123.599 307.951C123.835 307.614 123.978 307.22 124.014 306.81C124.05 306.399 123.977 305.986 123.803 305.613C123.628 305.24 123.359 304.919 123.021 304.683C122.684 304.448 122.29 304.305 121.88 304.271V304.271Z" fill="currentColor" />
    </g>
    <path opacity="0.3" d="M461.689 165.984C482.351 165.984 499.1 149.213 499.1 128.525C499.1 107.836 482.351 91.0654 461.689 91.0654C441.027 91.0654 424.277 107.836 424.277 128.525C424.277 149.213 441.027 165.984 461.689 165.984Z" fill="currentColor" />
    <path opacity="0.16" d="M188.005 249.082C204.223 249.082 217.37 235.918 217.37 219.679C217.37 203.44 204.223 190.276 188.005 190.276C171.786 190.276 158.639 203.44 158.639 219.679C158.639 235.918 171.786 249.082 188.005 249.082Z" fill="currentColor" />
    <g opacity="0.2">
      <path opacity="0.2" d="M375.984 85.5262L356.617 76.5004C355.803 76.121 354.836 76.4742 354.457 77.2892L354.453 77.2986C354.074 78.1136 354.427 79.0819 355.241 79.4612L374.607 88.487C375.421 88.8664 376.388 88.5132 376.767 87.6982L376.772 87.6888C377.15 86.8738 376.798 85.9055 375.984 85.5262Z" fill="currentColor" />
      <path opacity="0.2" d="M349.652 77.2247C350.83 77.2247 351.785 76.2685 351.785 75.0889C351.785 73.9093 350.83 72.9531 349.652 72.9531C348.474 72.9531 347.519 73.9093 347.519 75.0889C347.519 76.2685 348.474 77.2247 349.652 77.2247Z" fill="currentColor" />
      <path opacity="0.2" d="M371.787 94.5443L352.42 85.5184C351.606 85.1391 350.639 85.4922 350.261 86.3073L350.256 86.3167C349.877 87.1317 350.23 88.0999 351.044 88.4793L370.411 97.5051C371.225 97.8845 372.192 97.5313 372.57 96.7163L372.575 96.7069C372.954 95.8919 372.601 94.9236 371.787 94.5443Z" fill="currentColor" />
      <path opacity="0.2" d="M345.458 86.2447C346.636 86.2447 347.591 85.2885 347.591 84.1089C347.591 82.9294 346.636 81.9731 345.458 81.9731C344.28 81.9731 343.325 82.9294 343.325 84.1089C343.325 85.2885 344.28 86.2447 345.458 86.2447Z" fill="currentColor" />
      <path opacity="0.2" d="M367.596 103.572L348.23 94.5463C347.416 94.1669 346.449 94.5201 346.07 95.3351L346.065 95.3445C345.686 96.1595 346.039 97.1278 346.853 97.5071L366.22 106.533C367.034 106.912 368.001 106.559 368.38 105.744L368.384 105.735C368.763 104.92 368.41 103.951 367.596 103.572Z" fill="currentColor" />
      <path opacity="0.2" d="M341.264 95.2647C342.442 95.2647 343.397 94.3085 343.397 93.1289C343.397 91.9494 342.442 90.9932 341.264 90.9932C340.086 90.9932 339.131 91.9494 339.131 93.1289C339.131 94.3085 340.086 95.2647 341.264 95.2647Z" fill="currentColor" />
      <path opacity="0.2" d="M384.184 70.133C388.739 75.9475 391.19 83.1363 391.138 90.5257C391.086 97.9151 388.533 105.068 383.896 110.818C379.26 116.567 372.814 120.573 365.611 122.181C358.407 123.788 350.872 122.904 344.236 119.671C339.397 117.423 335.165 114.05 331.893 109.832C327.331 104.013 324.875 96.8177 324.927 89.4206C324.978 82.0236 327.535 74.863 332.179 69.1096C336.822 63.3562 343.278 59.3504 350.49 57.7472C357.702 56.1439 365.244 57.0381 371.883 60.2835C376.724 62.5316 380.957 65.9092 384.226 70.133H384.184ZM387.498 67.5928L384.226 70.133L387.498 67.5928C383.81 62.8474 379.042 59.0543 373.592 56.5303C354.953 47.842 332.805 55.7735 324.231 74.2075C321.379 80.3526 320.279 87.1676 321.054 93.8991C321.829 100.631 324.448 107.017 328.621 112.351C332.302 117.089 337.054 120.884 342.486 123.424C351.416 127.621 361.642 128.109 370.93 124.782C376.409 122.84 381.347 119.619 385.335 115.387C389.324 111.155 392.249 106.032 393.868 100.443C395.487 94.8546 395.754 88.9602 394.646 83.2477C393.538 77.5352 391.088 72.1689 387.498 67.5928V67.5928Z" fill="currentColor" />
    </g>
    <path d="M301.005 456.223C368.892 456.223 423.926 440.255 423.926 420.557C423.926 400.86 368.892 384.892 301.005 384.892C233.118 384.892 178.085 400.86 178.085 420.557C178.085 440.255 233.118 456.223 301.005 456.223Z" fill="currentColor" />
    <path d="M242.19 322.726C238.942 321.859 235.917 320.307 233.317 318.174C230.795 315.968 229.034 313.022 228.284 309.755C227.311 306.044 227.466 302.436 227.673 298.651C227.86 295.074 227.818 291.394 228.926 287.931C229.374 286.441 230.116 285.057 231.109 283.86C232.101 282.663 233.324 281.678 234.704 280.964C237.471 279.725 240.447 279.022 243.474 278.89C248.165 278.486 254.616 277.646 258.675 280.622C261.327 277.349 264.716 274.751 268.564 273.043C273.151 270.994 277.931 269.41 282.833 268.315C286.829 267.278 290.806 266.241 294.792 265.205C304.529 262.615 314.473 260.881 324.51 260.021C333.829 259.378 343.936 259.793 352.281 264.375C356.405 266.611 359.806 269.977 362.087 274.079C363.46 276.716 364.29 279.601 364.53 282.564C364.77 285.527 364.415 288.508 363.485 291.332C362.672 293.817 361.466 296.155 359.913 298.257C359.954 298.352 359.975 298.455 359.975 298.558C359.975 299.315 360.078 300.061 360.151 300.808C360.192 301.35 360.192 301.894 360.151 302.436C361.043 305.225 361.371 308.165 361.114 311.082C360.92 313.138 360.51 315.167 359.892 317.137C359.458 319.244 359.134 321.373 358.919 323.513C358.441 325.582 357.747 327.594 356.848 329.516C356.039 331.482 355.119 333.399 354.093 335.26C353.063 337.129 351.893 338.918 350.594 340.61C349.958 341.282 349.453 342.066 349.102 342.922C348.895 343.963 348.989 345.042 349.372 346.032C349.935 347.923 350.864 349.684 352.108 351.214C353.352 352.744 354.885 354.013 356.62 354.949C359.457 356.483 362.688 357.136 364.769 359.801C366.56 362.113 367.14 365.203 367.472 368.095C367.65 369.923 367.435 371.768 366.842 373.507C366.249 375.245 365.292 376.836 364.034 378.173C361.777 380.63 357.821 383.357 354.445 381.625C351.07 379.894 348.647 375.467 348.75 371.755C346.493 371.423 344.163 372.916 341.844 372.367C341.07 372.171 340.378 371.736 339.865 371.124C339.352 370.511 339.044 369.753 338.986 368.956C338.884 368.176 338.839 367.389 338.851 366.602C338.93 365.904 338.856 365.196 338.634 364.529C337.795 363.015 334.73 365.566 333.736 365.897C331.738 366.582 328.911 365.669 327.347 364.332C327.212 364.208 327.084 364.077 326.964 363.938C327.031 364.129 327.031 364.338 326.964 364.529C326.909 364.648 326.83 364.755 326.732 364.842C326.634 364.93 326.519 364.996 326.395 365.037C326.064 365.163 325.713 365.226 325.359 365.223C325.254 365.326 325.125 365.398 324.983 365.435C324.841 365.471 324.693 365.47 324.552 365.431C324.438 365.398 324.333 365.343 324.242 365.268C324.152 365.193 324.077 365.1 324.023 364.995C323.039 364.557 322.138 363.95 321.362 363.202C321.362 363.202 321.362 363.202 321.362 363.15L321.186 363.077C321.038 362.99 320.919 362.86 320.844 362.706C320.768 362.551 320.74 362.377 320.762 362.206C320.786 362.036 320.858 361.876 320.97 361.746C321.082 361.616 321.229 361.52 321.393 361.47L321.704 361.398C321.594 361.253 321.507 361.092 321.445 360.921C319.022 361.864 316.713 359.884 314.994 358.422C313.785 357.412 312.738 356.224 311.888 354.897C311.318 353.964 310.987 352.44 310.159 351.6C309.03 351.6 307.901 351.693 306.783 351.797L306.566 351.89C305.447 352.38 304.2 352.489 303.014 352.201C302.237 351.994 302.123 350.657 303.014 350.511C300.416 349.888 298.093 348.432 296.397 346.364C295.885 345.689 295.438 344.967 295.061 344.208L294.161 344C294.128 344.04 294.089 344.075 294.047 344.104C294.052 345.099 293.958 346.093 293.767 347.069C293.73 347.197 293.664 347.316 293.575 347.415C293.485 347.514 293.375 347.591 293.251 347.641C293.127 347.691 292.994 347.712 292.861 347.703C292.728 347.694 292.599 347.654 292.483 347.588C291.273 346.897 290.291 345.869 289.656 344.627C289.021 343.386 288.762 341.986 288.911 340.6C288.787 340.372 288.662 340.154 288.559 339.926C288.476 339.68 288.476 339.414 288.559 339.169C288.226 338.126 288.021 337.047 287.948 335.955C280.169 333.151 272.89 329.115 266.389 324.001C265.094 322.927 263.869 321.771 262.724 320.538C261.637 320.89 260.56 321.315 259.472 321.689C257.612 322.274 255.697 322.67 253.757 322.871C249.915 323.389 245.96 323.7 242.19 322.726ZM169.853 402.714C170.447 402.082 171.111 401.518 171.83 401.034L171.717 400.92C171.605 400.718 171.574 400.48 171.632 400.257C171.69 400.033 171.831 399.84 172.027 399.717C173.295 398.903 174.698 398.32 176.169 397.996C176.889 397.745 177.631 397.562 178.385 397.447C178.98 397.379 179.581 397.379 180.176 397.447C180.31 397.364 180.465 397.321 180.622 397.322C180.88 397.322 181.129 397.374 181.377 397.405C181.52 397.295 181.694 397.234 181.875 397.229C183.467 397.269 185.053 397.439 186.617 397.737H186.772C187.14 397.782 187.51 397.806 187.88 397.81C188.01 397.82 188.136 397.856 188.253 397.913C189.413 398.058 190.572 398.204 191.711 398.411C193.457 398.808 195.168 399.345 196.827 400.018C198.494 400.599 200.151 401.21 201.787 401.884C208.869 404.829 215.848 408.105 223.024 410.769C226.999 412.336 231.189 413.287 235.45 413.59C235.6 413.598 235.746 413.647 235.871 413.731C235.997 413.815 236.098 413.931 236.164 414.067C236.936 413.967 237.699 413.801 238.442 413.569C239.7 413.018 241.067 412.763 242.439 412.822C242.439 412.822 242.439 412.822 242.491 412.822C242.718 412.553 242.968 412.304 243.236 412.076C243.982 411.454 244.79 410.925 245.494 410.261C246.198 409.598 247.565 410.718 246.726 411.495C245.887 412.273 245.111 412.76 244.334 413.424C243.567 414.169 242.845 414.958 242.17 415.788C240.778 417.226 239.014 418.249 237.075 418.742C236.123 419.022 235.149 419.178 234.186 419.427C233.157 419.719 232.169 420.141 231.246 420.681C230.225 421.246 229.145 421.694 228.025 422.019C227.986 422.192 227.884 422.346 227.738 422.449C227.593 422.552 227.415 422.598 227.238 422.579H227.011H226.772L226.244 422.506C226.045 422.48 225.843 422.48 225.644 422.506H225.333C225.206 422.508 225.08 422.478 224.966 422.421C224.852 422.363 224.755 422.278 224.681 422.174L224.018 422.039C223.518 421.926 223.027 421.777 222.548 421.594C222.386 421.647 222.212 421.647 222.051 421.594C221.747 421.499 221.453 421.377 221.171 421.231C218.768 420.868 217.111 417.778 216.252 415.767C216.052 415.059 215.803 414.366 215.507 413.693C215.434 413.575 215.339 413.473 215.227 413.393C214.844 413.341 214.471 413.279 214.088 413.237H213.922C212.765 413.52 211.63 413.888 210.526 414.336C209.18 414.963 207.755 415.406 206.291 415.653C205.002 415.72 203.736 415.285 202.76 414.44C200.865 412.853 199.788 410.355 199.012 408.063C199.006 408.022 199.006 407.98 199.012 407.939C198.308 408.057 197.615 408.234 196.941 408.468C196.174 408.675 195.398 408.914 194.621 409.121C193.161 409.536 191.642 409.701 190.127 409.608C188.733 409.547 187.404 409.001 186.368 408.063C185.121 406.854 184.072 405.454 183.262 403.916C182.237 404.513 181.131 404.96 179.98 405.243C179.297 405.402 178.606 405.517 177.909 405.586C177.89 405.745 177.817 405.893 177.702 406.004C177.587 406.116 177.437 406.184 177.277 406.197H177.049H176.946C176.571 406.244 176.192 406.244 175.817 406.197C174.911 406.273 174 406.185 173.125 405.938C171.931 405.437 170.832 404.736 169.873 403.864C169.733 403.707 169.653 403.504 169.65 403.293C169.646 403.082 169.718 402.876 169.853 402.714Z" fill="white" />
    <path d="M227.529 423.273L226.679 423.139L226.162 423.056C226.017 423.035 225.871 423.035 225.727 423.056H225.572H225.354C225.002 423.054 224.665 422.917 224.412 422.672L223.915 422.579C223.446 422.467 222.983 422.332 222.527 422.174C222.323 422.226 222.11 422.226 221.906 422.174C221.601 422.085 221.306 421.963 221.026 421.812C219.079 421.521 217.298 419.582 215.786 416.057C215.663 415.753 215.559 415.442 215.476 415.124C215.388 414.739 215.252 414.366 215.072 414.015L215.01 413.932L214.026 413.808V413.59L213.891 413.31L213.974 413.828C213.199 413.99 212.44 414.223 211.707 414.523C211.355 414.658 211.013 414.782 210.671 414.896C210.329 415.01 209.853 415.207 209.449 415.373C208.468 415.831 207.419 416.125 206.343 416.244C204.921 416.319 203.526 415.839 202.45 414.906C200.646 413.177 199.334 410.998 198.649 408.592C198.339 408.665 198.028 408.758 197.707 408.862L197.127 409.038L196.092 409.329L194.787 409.691C193.271 410.125 191.691 410.293 190.117 410.189C188.601 410.131 187.156 409.536 186.037 408.51C184.881 407.387 183.884 406.11 183.076 404.715C182.14 405.214 181.145 405.594 180.115 405.845C179.51 405.985 178.898 406.088 178.282 406.156C178.144 406.422 177.911 406.626 177.629 406.726V406.902L176.946 406.84C176.53 406.898 176.109 406.898 175.693 406.84H175.61C174.699 406.907 173.784 406.809 172.908 406.55C171.658 406.029 170.506 405.3 169.501 404.393C169.373 404.286 169.268 404.153 169.193 404.003C169.118 403.853 169.075 403.69 169.066 403.523C169.052 403.32 169.079 403.116 169.145 402.924C169.21 402.732 169.314 402.554 169.449 402.403C169.957 401.86 170.515 401.367 171.116 400.931C171.035 400.64 171.047 400.332 171.151 400.048C171.255 399.765 171.446 399.523 171.696 399.355C172.869 398.561 174.178 397.991 175.558 397.675L176.408 397.426C177.026 397.212 177.664 397.06 178.313 396.97C178.894 396.907 179.481 396.907 180.063 396.97C180.24 396.897 180.43 396.858 180.622 396.856L181.181 396.908H181.254C181.433 396.814 181.631 396.761 181.833 396.752C182.984 396.73 184.133 396.834 185.261 397.063L186.669 397.271H186.804C187.207 397.271 187.539 397.333 187.839 397.343C188.022 397.347 188.202 397.389 188.367 397.468C189.403 397.592 190.614 397.748 191.774 397.945C193.189 398.245 194.575 398.668 195.916 399.21L196.951 399.572C198.556 400.143 200.265 400.765 201.942 401.459C204.427 402.496 206.892 403.533 209.366 404.622C213.86 406.571 218.52 408.582 223.169 410.334C227.091 411.884 231.224 412.828 235.429 413.134C235.603 413.14 235.774 413.181 235.932 413.254C236.09 413.327 236.233 413.431 236.351 413.559C236.989 413.465 237.619 413.323 238.235 413.134L238.826 412.937C239.911 412.49 241.08 412.285 242.253 412.335C242.44 412.129 242.641 411.935 242.853 411.755C243.154 411.506 243.464 411.267 243.775 411.039C244.232 410.718 244.671 410.372 245.09 410.002C245.223 409.873 245.38 409.772 245.553 409.705C245.725 409.639 245.91 409.608 246.094 409.615C246.279 409.621 246.461 409.666 246.628 409.745C246.796 409.824 246.945 409.936 247.068 410.075C247.199 410.198 247.303 410.347 247.374 410.512C247.445 410.677 247.482 410.854 247.482 411.034C247.482 411.214 247.445 411.392 247.374 411.556C247.303 411.721 247.199 411.87 247.068 411.993C246.617 412.403 246.144 412.788 245.649 413.144C245.308 413.403 244.966 413.652 244.614 413.932C244.138 414.369 243.695 414.84 243.288 415.342C243.03 415.653 242.771 415.964 242.491 416.265C241.045 417.782 239.2 418.86 237.169 419.375C236.61 419.541 236.03 419.665 235.46 419.79C235.056 419.873 234.653 419.966 234.259 420.07C233.273 420.348 232.326 420.752 231.443 421.272C230.454 421.815 229.413 422.256 228.336 422.589C228.247 422.753 228.123 422.894 227.973 423.003C227.822 423.113 227.649 423.187 227.466 423.222L227.529 423.273ZM226.959 422.133H227.197C227.342 422.133 227.456 422.133 227.539 421.946L227.622 421.687L227.881 421.604C228.962 421.291 230.004 420.856 230.987 420.308C231.947 419.749 232.973 419.313 234.042 419.012L235.284 418.722C235.833 418.608 236.382 418.483 236.92 418.328C238.771 417.869 240.455 416.895 241.777 415.518C242.046 415.238 242.294 414.948 242.543 414.647C242.979 414.096 243.46 413.583 243.982 413.113C244.324 412.823 244.676 412.553 245.018 412.283C245.359 412.014 245.929 411.589 246.343 411.247C246.376 411.219 246.402 411.185 246.42 411.147C246.438 411.108 246.447 411.066 246.447 411.024C246.447 410.981 246.438 410.939 246.42 410.901C246.402 410.862 246.376 410.828 246.343 410.801C246.311 410.764 246.271 410.734 246.227 410.713C246.182 410.693 246.133 410.682 246.084 410.682C246.035 410.682 245.986 410.693 245.942 410.713C245.897 410.734 245.857 410.764 245.825 410.801C245.379 411.208 244.912 411.592 244.427 411.952C244.127 412.169 243.827 412.397 243.547 412.636C243.332 412.821 243.131 413.022 242.947 413.237L242.646 413.548L242.243 413.465C241.196 413.408 240.151 413.592 239.188 414.004L238.577 414.201C237.804 414.444 237.01 414.614 236.206 414.71L235.854 414.761L235.688 414.44C235.664 414.382 235.624 414.333 235.572 414.298C235.521 414.263 235.46 414.244 235.398 414.243C231.09 413.938 226.854 412.973 222.838 411.381C218.158 409.619 213.519 407.607 208.983 405.658C206.519 404.587 204.051 403.533 201.58 402.496C199.923 401.812 198.225 401.2 196.641 400.64L195.605 400.267C194.314 399.749 192.98 399.343 191.619 399.054C190.448 398.847 189.227 398.691 188.181 398.567L187.994 398.505L187.818 398.453C187.474 398.472 187.128 398.472 186.783 398.453H186.555C186.058 398.39 185.582 398.318 185.095 398.235C184.037 398.032 182.962 397.931 181.885 397.934C181.81 397.943 181.739 397.972 181.678 398.017L181.512 398.142H181.046L180.591 398.09C180.532 398.09 180.474 398.108 180.425 398.142L180.28 398.225H180.115C179.553 398.166 178.988 398.166 178.427 398.225C177.846 398.314 177.275 398.452 176.718 398.639L175.848 398.898C174.594 399.184 173.402 399.693 172.328 400.402C172.224 400.485 171.996 400.692 172.141 400.92L172.545 401.366L172.1 401.729C171.411 402.189 170.779 402.729 170.215 403.336V403.336C170.137 403.432 170.096 403.554 170.102 403.678C170.099 403.703 170.102 403.728 170.111 403.752C170.12 403.775 170.134 403.796 170.153 403.813C171.072 404.643 172.122 405.316 173.26 405.804C174.023 406.023 174.819 406.1 175.61 406.032H175.776C176.137 406.078 176.502 406.078 176.863 406.032H177.091C177.339 406.032 177.35 405.928 177.36 405.866L177.412 405.461H177.816C178.375 405.389 179.12 405.295 179.887 405.13C180.994 404.855 182.057 404.426 183.045 403.854L183.552 403.574L183.78 404.124C184.572 405.576 185.577 406.9 186.762 408.053C187.713 408.908 188.933 409.404 190.21 409.453C191.666 409.541 193.125 409.383 194.528 408.986L195.823 408.624L196.858 408.323C197.044 408.279 197.227 408.223 197.407 408.157C197.915 407.983 198.438 407.858 198.97 407.784L199.436 407.732L199.55 408.333C200.223 410.303 201.259 412.843 203.123 414.409C204.002 415.169 205.141 415.559 206.301 415.497C207.275 415.389 208.223 415.12 209.108 414.699C209.532 414.523 209.967 414.357 210.392 414.212L211.427 413.849C212.22 413.521 213.041 413.267 213.881 413.092H214.202C214.554 413.092 214.896 413.175 215.238 413.227H215.362L215.569 413.31C215.739 413.433 215.883 413.588 215.993 413.766C216.227 414.197 216.401 414.657 216.511 415.135C216.584 415.408 216.67 415.678 216.77 415.943C218.116 419.054 219.68 420.847 221.285 421.127H221.44C221.694 421.265 221.961 421.376 222.237 421.459C222.267 421.472 222.299 421.478 222.331 421.478C222.363 421.478 222.394 421.472 222.424 421.459L222.589 421.397L222.765 421.459C223.22 421.636 223.687 421.778 224.163 421.884L225.023 422.05L225.137 422.216C225.159 422.256 225.193 422.288 225.233 422.31C225.273 422.332 225.319 422.343 225.364 422.34H225.468H225.654C225.881 422.308 226.111 422.308 226.338 422.34L226.887 422.423L226.959 422.133ZM356.724 382.673C355.846 382.675 354.98 382.469 354.197 382.071C350.936 380.423 348.337 376.079 348.223 372.212C347.347 372.229 346.477 372.358 345.634 372.595C344.365 372.991 343.021 373.083 341.71 372.865C340.835 372.646 340.051 372.159 339.467 371.471C338.884 370.782 338.531 369.928 338.458 369.029C338.363 368.293 338.318 367.552 338.324 366.81V366.198C338.373 365.726 338.32 365.249 338.168 364.799C338.145 364.753 338.113 364.713 338.074 364.681C338.035 364.649 337.989 364.625 337.94 364.612C337.319 364.446 335.942 365.265 335.114 365.763C334.727 366.014 334.318 366.229 333.892 366.406C331.821 367.131 328.994 366.271 327.296 364.985C327.115 365.242 326.858 365.434 326.561 365.535C326.231 365.668 325.881 365.742 325.525 365.752C325.361 365.871 325.173 365.95 324.973 365.984C324.774 366.018 324.57 366.006 324.376 365.949C324.09 365.859 323.84 365.681 323.661 365.441C322.683 364.979 321.785 364.363 321 363.617H320.897C320.582 363.439 320.349 363.147 320.246 362.8C320.144 362.454 320.18 362.081 320.348 361.761C318.059 361.916 316.03 360.133 314.611 358.899C313.342 357.859 312.242 356.628 311.35 355.25C311.11 354.823 310.902 354.38 310.728 353.923C310.51 353.315 310.21 352.739 309.838 352.212C308.74 352.212 307.767 352.305 306.814 352.388L306.659 352.45C305.438 352.992 304.071 353.109 302.776 352.782C302.457 352.692 302.18 352.494 301.991 352.221C301.802 351.949 301.714 351.62 301.741 351.289C301.745 351.121 301.784 350.955 301.854 350.802C299.505 350.081 297.429 348.664 295.9 346.738C295.411 346.105 294.981 345.428 294.616 344.716H294.461C294.444 345.573 294.347 346.427 294.171 347.266C294.131 347.468 294.042 347.657 293.912 347.816C293.782 347.975 293.615 348.1 293.426 348.179C293.224 348.278 293.003 348.33 292.779 348.33C292.554 348.33 292.333 348.278 292.131 348.179C290.855 347.452 289.814 346.375 289.131 345.074C288.449 343.773 288.153 342.303 288.279 340.838V340.838C288.179 340.664 288.089 340.484 288.01 340.299C287.883 340.002 287.854 339.671 287.927 339.356C287.647 338.419 287.46 337.457 287.368 336.484C278.608 333.094 271.608 329.226 265.965 324.571C264.738 323.553 263.576 322.459 262.486 321.295L260.964 321.834L259.545 322.352C257.652 322.94 255.707 323.343 253.736 323.555C249.946 324.063 245.908 324.405 242.004 323.389C238.679 322.508 235.582 320.92 232.923 318.734C230.326 316.461 228.514 313.423 227.746 310.056C226.943 306.356 226.733 302.552 227.125 298.786C227.125 298.195 227.125 297.615 227.197 297.024C227.191 293.956 227.599 290.901 228.409 287.941C228.873 286.387 229.646 284.943 230.681 283.696C231.717 282.449 232.994 281.424 234.435 280.684C237.264 279.435 240.303 278.731 243.392 278.61L244.376 278.517C248.952 278.102 254.606 277.574 258.541 280.155C261.201 277 264.539 274.487 268.305 272.804C272.93 270.74 277.748 269.139 282.688 268.025C284.759 267.527 286.737 266.988 288.766 266.47C290.796 265.951 292.68 265.433 294.648 264.956C304.411 262.36 314.383 260.626 324.448 259.772C332.09 259.254 343.304 259.14 352.509 264.189C356.719 266.474 360.192 269.912 362.522 274.1C363.925 276.794 364.774 279.741 365.019 282.768C365.265 285.796 364.902 288.841 363.951 291.726C363.154 294.186 361.977 296.505 360.462 298.6C360.467 298.665 360.467 298.731 360.462 298.797C360.462 299.325 360.524 299.833 360.576 300.414L360.638 301.005C360.674 301.54 360.674 302.077 360.638 302.612C361.526 305.438 361.85 308.411 361.591 311.363C361.395 313.45 360.978 315.511 360.348 317.511C360.03 318.748 359.822 320.011 359.727 321.285C359.633 322.124 359.54 322.985 359.385 323.845C358.95 325.82 358.304 327.742 357.459 329.579L357.304 329.952C356.488 331.938 355.561 333.876 354.529 335.758C353.485 337.648 352.301 339.457 350.987 341.17L350.615 341.626C350.161 342.112 349.809 342.683 349.579 343.306C349.402 344.259 349.495 345.244 349.848 346.147C350.386 347.969 351.278 349.666 352.472 351.143C353.666 352.62 355.139 353.846 356.807 354.752C357.625 355.198 358.494 355.582 359.344 355.944C361.414 356.836 363.568 357.769 365.111 359.749C366.996 362.165 367.596 365.4 367.928 368.241C368.118 370.142 367.897 372.062 367.281 373.871C366.664 375.68 365.667 377.334 364.355 378.723C362.388 380.713 359.53 382.673 356.724 382.673V382.673ZM348.067 371.175C348.324 371.177 348.579 371.194 348.834 371.227L349.289 371.299V371.755C349.196 375.312 351.671 379.614 354.694 381.149C357.718 382.683 361.29 380.413 363.672 377.81C364.884 376.532 365.807 375.007 366.378 373.34C366.95 371.672 367.157 369.902 366.985 368.147C366.664 365.441 366.105 362.383 364.376 360.164C362.999 358.391 361.062 357.562 359.012 356.681C358.153 356.307 357.252 355.913 356.392 355.447C354.605 354.477 353.027 353.164 351.747 351.582C350.468 350 349.513 348.182 348.937 346.23C348.522 345.135 348.428 343.944 348.668 342.798C348.923 342.025 349.343 341.317 349.9 340.724L350.252 340.289C351.532 338.615 352.684 336.847 353.7 335.001C354.717 333.157 355.63 331.256 356.434 329.309L356.589 328.936C357.403 327.165 358.027 325.312 358.453 323.41C358.598 322.591 358.691 321.741 358.774 320.922C358.886 319.592 359.108 318.275 359.437 316.982C360.043 315.049 360.446 313.058 360.638 311.041C360.895 308.194 360.578 305.324 359.706 302.602V302.498V302.394C359.747 301.877 359.747 301.357 359.706 300.839L359.654 300.269C359.592 299.709 359.54 299.139 359.53 298.558C359.538 298.517 359.538 298.475 359.53 298.434L359.437 298.175L359.602 297.947C361.116 295.885 362.293 293.596 363.092 291.166C364.005 288.41 364.355 285.498 364.122 282.604C363.889 279.71 363.077 276.892 361.735 274.318C359.502 270.301 356.172 267.004 352.137 264.811C343.17 259.896 332.152 260.01 324.645 260.529C314.642 261.39 304.733 263.125 295.031 265.713C293.063 266.2 291.106 266.75 289.149 267.216C287.192 267.683 285.101 268.253 283.061 268.782C278.188 269.877 273.436 271.453 268.875 273.489C265.101 275.167 261.777 277.714 259.172 280.922L258.862 281.327L258.458 281.026C254.834 278.362 249.139 278.88 244.593 279.305L243.558 279.388C240.595 279.504 237.682 280.183 234.974 281.389C233.653 282.07 232.484 283.011 231.537 284.157C230.59 285.303 229.885 286.629 229.465 288.056C228.689 290.928 228.299 293.892 228.305 296.868C228.305 297.459 228.305 298.05 228.233 298.641C228.046 302.197 227.85 305.899 228.823 309.6C229.541 312.761 231.246 315.612 233.69 317.739C236.231 319.829 239.189 321.349 242.367 322.197V322.197C246.1 322.969 249.946 323.011 253.695 322.321C255.603 322.132 257.488 321.746 259.317 321.171C259.783 321.015 260.249 320.839 260.715 320.673C261.181 320.507 261.947 320.217 262.569 320.009L262.89 319.906L263.118 320.154C264.244 321.371 265.452 322.511 266.731 323.566C272.344 328.179 279.343 332.057 288.145 335.437L288.445 335.551V335.872C288.518 336.928 288.712 337.972 289.025 338.983V339.148V339.304C288.978 339.431 288.978 339.571 289.025 339.698C289.097 339.853 289.18 340.009 289.263 340.164L289.429 340.476V340.631C289.291 341.918 289.531 343.218 290.119 344.371C290.708 345.523 291.619 346.479 292.742 347.121C292.799 347.147 292.861 347.16 292.923 347.16C292.986 347.16 293.048 347.147 293.105 347.121C293.145 347.105 293.181 347.08 293.209 347.048C293.238 347.015 293.259 346.977 293.27 346.935C293.452 345.995 293.542 345.04 293.54 344.084V343.897L293.954 343.379L294.295 343.472L294.979 343.638L295.414 343.731L295.528 343.949C295.883 344.682 296.314 345.377 296.812 346.022C298.431 348.016 300.662 349.419 303.159 350.014L305.344 350.626L303.107 351.02C302.993 351.02 302.88 351.02 302.859 351.268C302.85 351.358 302.87 351.448 302.914 351.526C302.959 351.604 303.026 351.666 303.107 351.704C304.188 351.962 305.323 351.856 306.338 351.403L306.69 351.279C307.726 351.175 308.854 351.113 310.107 351.082H310.325L310.49 351.237C311.039 351.889 311.461 352.638 311.733 353.446C311.889 353.851 312.073 354.246 312.282 354.628C313.126 355.909 314.155 357.059 315.336 358.039C317.314 359.749 319.24 361.222 321.259 360.434L321.746 360.247L321.932 360.734C321.975 360.861 322.038 360.98 322.118 361.087L322.564 361.688L321.839 361.896H321.673H321.549C321.479 361.912 321.415 361.95 321.367 362.003C321.319 362.057 321.288 362.125 321.28 362.196C321.271 362.26 321.278 362.325 321.302 362.385C321.326 362.445 321.364 362.498 321.414 362.538L321.746 362.725L321.798 362.787C322.513 363.476 323.344 364.034 324.252 364.436L324.438 364.508L324.531 364.685C324.555 364.729 324.587 364.769 324.626 364.801C324.666 364.833 324.711 364.857 324.759 364.871C324.815 364.877 324.872 364.871 324.926 364.853C324.979 364.835 325.028 364.806 325.07 364.767L325.204 364.643H325.38C325.66 364.64 325.937 364.588 326.198 364.488C326.405 364.405 326.447 364.342 326.488 364.259C326.513 364.185 326.513 364.105 326.488 364.031L325.805 361.75L327.368 363.534C327.474 363.655 327.588 363.77 327.71 363.876C329.108 365.078 331.759 365.949 333.591 365.338C333.951 365.183 334.298 365 334.627 364.788C335.776 364.094 337.205 363.243 338.251 363.534C338.433 363.583 338.603 363.669 338.751 363.787C338.899 363.905 339.021 364.051 339.111 364.218C339.364 364.82 339.464 365.475 339.4 366.126V366.706C339.395 367.399 339.436 368.092 339.525 368.78C339.579 369.471 339.845 370.128 340.286 370.663C340.727 371.197 341.321 371.582 341.989 371.766C343.148 371.938 344.331 371.843 345.448 371.486C346.307 371.286 347.185 371.182 348.067 371.175V371.175Z" fill="#010101" />
    <path d="M358.308 296.775C368.352 297.283 382.206 297.666 398.753 297.117C430.532 296.08 434.642 292.824 435.875 289.859C438.153 284.323 431.878 276.671 421.471 264.251C414.047 255.386 408.849 252.473 400.431 242.81C381.409 220.913 365.67 196.496 346.824 174.485C333.312 158.706 319.592 142.345 304.992 127.55C286.405 108.732 285.256 104.596 279.726 103.621C274.87 102.771 241.207 91.6046 208.124 181.784C196.806 212.65 178.25 245.36 176.708 263.691C176.397 267.433 178.136 271.664 181.139 275.448C196.537 294.856 232.985 290.139 237.893 289.32" fill="white" />
    <path d="M357.852 297.034C371.5 297.725 385.154 297.836 398.816 297.366C405.277 297.138 411.759 296.827 418.189 296.132C421.905 295.81 425.588 295.172 429.196 294.225C431.712 293.499 435.109 292.286 436.268 289.704C437.759 286.355 435.844 282.571 434.125 279.72C430.698 274.049 426.173 268.989 421.927 263.94C417.857 259.353 413.532 254.998 408.973 250.897C403.765 245.827 398.878 240.436 394.342 234.754C384.454 222.697 375.31 210.058 365.908 197.627C356.506 185.196 346.297 173.045 336.035 161.143C325.774 149.24 315.139 137.296 304.019 125.892C299.815 121.599 295.7 117.231 291.676 112.787C289.63 110.386 287.452 108.102 285.152 105.944C283.25 104.378 280.947 103.379 278.505 103.062C272.446 101.969 266.199 102.758 260.601 105.322C248.414 110.682 239.219 121.205 231.929 132.019C225.4 141.939 219.785 152.433 215.155 163.372C212.048 170.432 209.377 177.648 206.643 184.854C204.003 191.831 201.093 198.705 198.111 205.538C192.613 218.166 186.669 230.607 181.802 243.453C179.774 248.543 178.16 253.789 176.977 259.14C176.387 261.44 176.16 263.819 176.304 266.19C176.844 269.56 178.274 272.724 180.446 275.355C186.586 283.38 196.413 287.413 206.063 289.258C214.4 290.738 222.899 291.086 231.329 290.295C233.4 290.119 235.471 289.901 237.49 289.569C237.811 289.569 238.07 289.103 238.391 289.051C232.599 289.94 226.737 290.287 220.881 290.088C211.562 289.87 202.015 288.481 193.576 284.417C189.138 282.35 185.197 279.352 182.02 275.625C179.884 273.18 178.342 270.274 177.516 267.133C177.059 264.663 177.123 262.124 177.702 259.679C179.711 248.523 184.577 237.834 189.092 227.538C194.829 214.34 200.938 201.297 206.198 187.892C208.942 180.914 211.437 173.854 214.337 166.938C216.894 160.831 219.649 154.808 222.62 148.919C227.127 139.866 232.546 131.299 238.794 123.352C242.988 117.993 247.926 113.262 253.457 109.303C259.669 105 267.301 102.377 274.943 103.145C276.617 103.321 278.278 103.612 279.913 104.016C281.58 104.461 283.108 105.321 284.355 106.514C286.616 108.649 288.762 110.902 290.785 113.264C299.928 123.31 309.641 132.828 318.743 142.916C329.232 154.528 339.452 166.409 349.465 178.436C359.136 190.059 368.104 202.282 377.143 214.35C381.679 220.385 386.266 226.398 390.998 232.277C395.517 238.109 400.357 243.685 405.494 248.979C409.74 253.209 414.316 257.076 418.365 261.504C422.992 266.51 427.297 271.805 431.257 277.356C433.773 280.933 438.505 288.014 434.021 291.933C433.75 292.156 433.466 292.363 433.172 292.555C433.773 292.141 433.172 292.555 433.017 292.618L432.271 292.939C431.2 293.362 430.099 293.709 428.979 293.976C425.183 294.854 421.327 295.45 417.444 295.759C403.538 296.977 389.575 297.413 375.621 297.065C369.967 296.969 364.321 296.782 358.681 296.505C358.391 296.505 358.07 297.034 357.78 297.024L357.852 297.034Z" fill="#010101" />
    <path d="M223.18 210.607C228.605 218.839 233.876 227.196 239.271 235.418C243.682 242.157 248.217 248.823 253.219 255.117C258.563 261.863 264.376 268.224 270.614 274.152C272.25 275.718 273.897 277.262 275.678 278.662C276.774 279.575 277.99 280.332 279.292 280.912C280.959 281.58 282.789 281.728 284.541 281.337C287.855 280.642 290.754 278.289 293.001 275.832C296.718 271.736 299.535 266.801 302.206 261.991C306.483 254.308 310.356 246.439 314.249 238.538C318.846 229.228 323.423 219.897 327.979 210.545C330.847 204.677 333.726 198.809 336.429 192.868C337.949 189.717 339.267 186.472 340.374 183.153C340.966 181.613 341.183 179.953 341.005 178.311C340.653 176.84 339.875 175.506 338.769 174.475C337.075 172.937 334.934 171.982 332.66 171.749C329.379 171.384 326.067 171.408 322.792 171.821C317.904 172.257 313.048 172.941 308.181 173.563C301.409 174.434 294.637 175.232 287.845 175.885C278.829 176.749 269.786 177.347 260.715 177.679C255.289 177.873 249.864 177.987 244.438 178.021C239.488 178.021 234.539 178.021 229.6 178.311C225.623 178.571 221.44 178.975 217.743 180.551C215.227 181.588 212.649 183.247 211.531 185.859C210.868 187.599 210.868 189.522 211.531 191.261C212.549 193.984 213.898 196.571 215.548 198.964C218.002 202.883 220.612 206.709 223.169 210.566C223.169 210.566 224.06 210.037 224.06 210.048C221.481 206.139 218.882 202.282 216.356 198.311C214.733 195.943 213.408 193.383 212.411 190.691C211.773 188.979 211.773 187.094 212.411 185.382C212.952 184.108 213.816 182.997 214.917 182.158L215.351 181.837C215.351 181.837 216.014 181.432 215.652 181.629C216.075 181.402 216.511 181.198 216.956 181.017C217.759 180.684 218.582 180.403 219.421 180.178C223.577 179.218 227.83 178.745 232.095 178.768C237.169 178.591 242.263 178.664 247.347 178.602C257.184 178.47 267.018 178.052 276.848 177.347C284.441 176.787 291.983 176.051 299.473 175.139C305.054 174.475 310.625 173.708 316.206 173.065C320.067 172.522 323.957 172.21 327.855 172.132C330.45 172.011 333.04 172.456 335.445 173.439C337.229 174.289 338.684 175.702 339.587 177.461C340.129 178.551 340.32 179.783 340.136 180.986C339.737 183.326 339.041 185.604 338.065 187.767C336.263 192.194 334.202 196.517 332.142 200.83C328.569 208.295 324.894 215.719 321.259 223.142C316.693 232.473 312.157 241.804 307.467 251.001C304.334 257.427 300.878 263.69 297.112 269.766C294.813 273.343 292.225 277.107 288.683 279.585L288.124 279.948C287.762 280.186 288.269 279.875 288.259 279.875L287.99 280.02C287.653 280.194 287.307 280.349 286.954 280.487C286.285 280.739 285.591 280.917 284.883 281.016C282.983 281.29 281.046 280.949 279.354 280.041C277.98 279.26 276.692 278.336 275.512 277.283C273.679 275.728 271.95 274.069 270.231 272.4C267.125 269.352 264.018 266.179 261.15 262.965C255.928 257.081 251.07 250.884 246.602 244.407C241.694 237.357 237.086 230.089 232.437 222.862C229.693 218.611 226.949 214.381 224.153 210.162C224.06 210.068 223.18 210.618 223.18 210.607Z" fill="#010101" />
    <path d="M327.886 364.249C326.716 367.463 341.026 384.736 356.361 377.198C357.179 376.794 361.746 375.125 362.967 371.32C364.531 366.426 360.286 360.506 354.808 357.168C335.869 345.628 292.1 348.593 291.696 318.433C309.755 326.613 327.285 335.924 346.379 341.543C374.679 343.295 403.268 370.49 386.649 397.623C376.076 414.212 348.947 420.183 330.588 406.487C339.959 414.18 347.58 428.177 361.756 438.203C376.19 448.394 387.487 463.905 388.461 482.028C373.239 464.185 351.236 455.071 329.76 447.13C310.169 439.934 287.668 431.992 278.908 411.153C287.637 430.354 259.12 431.142 248 435.072C233.793 440.09 214.067 459.778 230.997 473.381C218.364 464.993 206.539 446.476 216.759 431.91C225.861 418.981 249.522 419.468 252.038 401.386C236.889 439.634 185.116 372.47 165.659 407.421C168.186 397.25 172.711 391.226 181.761 386.685C204.375 379.179 275.916 382.465 251.137 359.645C245.697 354.603 241.097 348.723 237.51 342.227C233.513 336.255 228.626 322.819 227.373 289.87" fill="white" />
    <path d="M327.441 364.508C327.099 365.544 327.917 366.872 328.424 367.711C329.475 369.416 330.754 370.968 332.225 372.325C335.927 376.034 340.723 378.451 345.903 379.22C350.666 379.769 355.222 378.183 359.209 375.746C361.373 374.45 363.278 372.636 363.672 369.982C364.127 366.872 362.533 363.844 360.627 361.532C357.386 357.592 352.758 355.311 348.078 353.518C343.772 351.974 339.39 350.656 334.948 349.568C325.732 347.173 316.196 345.13 307.643 340.817C303.813 338.997 300.382 336.435 297.547 333.28C294.788 330.032 293.011 326.066 292.421 321.844C292.251 320.645 292.157 319.436 292.142 318.226L291.251 318.744C306.379 325.597 321.176 333.259 336.812 338.899C338.772 339.59 340.74 340.261 342.714 340.91C343.698 341.221 344.702 341.605 345.706 341.833C346.493 341.999 347.342 341.989 348.14 342.082C351.351 342.431 354.523 343.08 357.614 344.021C363.799 345.893 369.609 348.834 374.782 352.709C384.257 359.853 391.754 370.811 391.049 383.118C390.314 395.839 381.513 406.487 369.874 411.018C358.66 415.372 345.541 414.854 335 408.944C333.617 408.166 332.286 407.3 331.013 406.352C330.899 406.27 330.205 406.943 330.123 406.871C334.472 410.468 338.065 414.896 341.678 419.219C345.773 424.298 350.219 429.083 354.984 433.537C359.965 437.995 365.66 441.51 370.444 446.217C375.087 450.722 379.013 455.915 382.082 461.613C385.526 468.039 387.543 475.133 387.995 482.411L388.896 481.893C376.543 467.492 359.509 458.565 342.165 451.577C326.83 445.356 310.283 441.002 296.553 431.453C288.998 426.409 283.027 419.323 279.333 411.018L278.432 411.536C279.654 414.242 280.503 417.301 279.84 420.276C279.255 422.584 277.904 424.624 276.009 426.062C273.634 427.799 270.964 429.092 268.129 429.877C265.199 430.841 262.186 431.557 259.183 432.241C253.664 433.485 248.238 434.553 243.226 437.301C236.92 440.743 231.028 445.45 227.207 451.619C225 454.896 223.894 458.793 224.049 462.743C224.412 467.264 227.104 470.975 230.531 473.764L231.422 473.246C220.032 465.615 208.838 449.815 215.03 435.642C219.907 424.465 232.809 421.707 242.253 415.715C247.575 412.345 251.572 407.669 252.473 401.283C252.473 401.49 251.655 401.583 251.572 401.801C250.418 404.982 248.556 407.857 246.125 410.209C244.041 412.005 241.442 413.094 238.701 413.32C232.488 414.025 226.11 411.785 220.394 409.546C213.581 406.86 207.016 403.605 200.192 400.94C194.186 398.587 187.611 396.358 181.057 396.907C178.185 397.183 175.409 398.087 172.925 399.556C170.442 401.025 168.311 403.024 166.684 405.409C166.146 406.176 165.649 406.975 165.193 407.794L166.094 407.275C167.062 402.865 168.911 398.696 171.53 395.02C172.755 393.388 174.178 391.915 175.765 390.635C177.584 389.001 179.691 387.722 181.978 386.861C187.232 385.378 192.601 384.338 198.028 383.75C211.21 381.988 224.546 381.148 237.604 378.567C242.315 377.633 247.223 376.545 251.448 374.181C254.026 372.74 256.977 370.718 256.625 367.359C256.336 365.531 255.527 363.825 254.295 362.444C253.482 361.44 252.596 360.498 251.645 359.624C249.513 357.648 247.501 355.546 245.618 353.331C242.114 349.151 239.06 344.612 236.506 339.791C234.281 335.323 232.661 330.577 231.691 325.68C229.832 316.833 228.662 307.855 228.191 298.827C227.994 295.789 227.849 292.752 227.725 289.714C227.725 289.869 226.824 290.066 226.835 290.232C227.11 300.516 228.082 310.769 229.744 320.921C230.624 326.698 232.184 332.35 234.394 337.759C235.083 339.38 235.907 340.941 236.858 342.424C238.07 344.311 239.126 346.291 240.389 348.147C243.432 352.54 246.95 356.584 250.878 360.205C252.629 361.719 254.077 363.552 255.144 365.607C259.183 374.368 244.096 376.939 238.722 378.048C225.747 380.64 212.473 381.49 199.374 383.232C193.902 383.813 188.487 384.836 183.179 386.291C181.825 386.76 180.532 387.39 179.327 388.167C177.685 389.094 176.126 390.163 174.668 391.36C171.518 394.029 169.036 397.398 167.42 401.2C166.518 403.347 165.788 405.562 165.235 407.825C165.297 407.607 166.011 407.524 166.136 407.306C167.733 404.269 170.034 401.659 172.845 399.696C175.355 398.209 178.213 397.415 181.129 397.395C187.767 397.135 194.342 399.468 200.41 401.915C207.192 404.642 213.757 407.897 220.591 410.5C226.234 412.656 232.582 414.75 238.701 413.745C244.344 412.822 248.776 408.903 251.324 403.895C251.758 403.045 252.142 402.164 252.504 401.272L251.603 401.791C251.174 404.498 250.185 407.086 248.7 409.389C247.215 411.692 245.266 413.659 242.978 415.165C238.028 418.669 232.229 420.753 226.949 423.698C222.465 426.207 218.189 429.141 215.465 433.63C211.541 440.121 211.789 447.876 214.616 454.75C217.968 462.505 223.511 469.11 230.562 473.754C230.676 473.837 231.36 473.153 231.453 473.236C228.345 471.117 226.145 467.907 225.29 464.241C224.435 460.575 224.986 456.721 226.835 453.443C230.272 446.321 237.065 440.328 244.096 436.855C249.273 434.315 255.093 433.485 260.663 432.148C265.841 430.914 271.07 429.411 275.574 426.466C277.854 425.112 279.603 423.02 280.534 420.536C281.569 417.332 280.689 413.921 279.364 410.956C279.364 410.956 278.442 411.433 278.463 411.474C285.007 426.87 299.607 435.6 314.415 441.759C322.222 445.004 330.226 447.7 338.106 450.768C346.865 454.07 355.365 458.02 363.537 462.588C372.763 467.733 381.045 474.415 388.026 482.349C388.337 482.196 388.638 482.023 388.927 481.831C388.171 468.809 382.041 456.844 373.167 447.461C370.937 445.107 368.55 442.908 366.022 440.877C363.402 438.804 360.596 436.917 358.008 434.771C352.948 430.379 348.284 425.55 344.07 420.339C339.928 415.455 335.973 410.323 331.034 406.238L330.143 406.757C340.363 414.315 353.876 416.171 365.96 412.511C376.864 409.204 386.473 401.625 390.325 390.655C392.388 384.785 392.537 378.41 390.749 372.449C388.854 366.559 385.552 361.221 381.13 356.898C376.456 352.234 370.953 348.486 364.904 345.846C361.844 344.486 358.665 343.41 355.409 342.631C353.835 342.258 352.25 341.958 350.656 341.729C349.862 341.612 349.065 341.519 348.264 341.45C347.234 341.363 346.217 341.165 345.23 340.859C328.849 335.809 313.493 328.096 298.002 320.89C296.056 319.978 294.102 319.079 292.142 318.194C291.826 318.332 291.527 318.506 291.251 318.713C291.232 323.096 292.418 327.4 294.679 331.154C296.903 334.536 299.863 337.372 303.335 339.449C311.07 344.28 320.203 346.54 328.932 348.78C337.215 350.853 346.038 352.688 353.555 356.96C358.215 359.614 364.262 365.254 362.595 371.319C361.891 373.901 359.675 375.643 357.345 376.7C355.002 377.858 352.462 378.562 349.859 378.774C344.629 379.075 339.566 376.949 335.476 373.808C333.708 372.46 332.108 370.904 330.713 369.173C329.69 368.014 328.906 366.665 328.404 365.202C328.262 364.807 328.236 364.378 328.331 363.969C328.259 364.207 327.524 364.238 327.441 364.487V364.508Z" fill="#010101" />
    <path d="M359.157 302.965C360.016 313.758 358.836 324.893 353.514 334.493C352.008 337.183 350.228 339.709 348.202 342.031C348.409 341.782 348.885 341.761 349.092 341.512C352.658 337.437 355.435 332.733 357.283 327.64C359.042 322.634 360.041 317.392 360.244 312.088C360.384 308.891 360.322 305.688 360.058 302.498C360.058 302.643 359.147 302.861 359.157 303.016V302.965Z" fill="#010101" />
    <path d="M303.884 306.5C303.879 304.59 303.246 302.736 302.082 301.223C301.772 301.371 301.474 301.544 301.192 301.741C300.042 303.597 300.249 306.075 300.664 308.117C301.037 310.295 301.929 312.35 303.263 314.11C303.572 313.96 303.87 313.787 304.153 313.592C304.554 311.576 304.475 309.495 303.925 307.516C303.915 307.174 303.905 306.842 303.884 306.5ZM301.399 303.317C301.596 303.213 301.813 303.079 302.01 302.954C302.493 303.961 302.795 305.046 302.9 306.158C302.745 306.23 302.621 306.303 302.621 306.334C302.766 306.894 302.9 307.464 303.035 308.034C303.035 308.999 303.035 309.973 303.035 310.937C302.5 309.834 302.073 308.681 301.761 307.495C301.498 306.617 301.362 305.706 301.357 304.789C301.354 304.42 301.41 304.052 301.523 303.701C301.571 303.556 301.641 303.42 301.73 303.296C301.937 302.944 302.393 302.83 301.399 303.317ZM302.01 302.933C301.78 303.045 301.558 303.173 301.347 303.317C301.403 302.965 301.49 302.618 301.606 302.28C301.751 302.488 301.885 302.705 302.01 302.933Z" fill="#010101" />
    <path d="M339.959 304.52C339.494 302.71 338.798 300.968 337.888 299.336L337.536 299.533C337.381 299.35 337.176 299.216 336.946 299.149C336.678 299.103 336.403 299.155 336.17 299.294C336.066 299.294 335.517 299.585 335.579 299.657L335.383 299.792C335.173 299.96 335.002 300.171 334.881 300.41C334.759 300.65 334.69 300.913 334.679 301.181C334.628 302.855 334.983 304.517 335.714 306.023C336.079 306.919 336.519 307.783 337.029 308.605C337.341 309.206 337.788 309.728 338.334 310.129C338.652 309.995 338.951 309.821 339.224 309.61C340.705 308.366 340.353 306.127 339.959 304.52ZM338.976 309.372C338.694 309.103 338.447 308.8 338.241 308.47C336.891 306.437 336.001 304.133 335.631 301.72C335.536 301.122 335.593 300.508 335.797 299.937C335.84 299.834 335.895 299.736 335.963 299.647H336.149C336.608 299.88 336.974 300.264 337.184 300.735C337.557 301.411 337.849 302.128 338.054 302.871C338.302 303.704 338.471 304.558 338.562 305.422C338.562 305.608 338.562 305.826 338.562 306.044C337.909 305.1 337.92 303.742 337.609 302.664C337.609 302.736 336.687 303.099 336.718 303.182C337.112 304.551 336.957 306.407 338.365 307.226C338.683 307.093 338.983 306.919 339.255 306.707C339.26 306.676 339.26 306.645 339.255 306.614C339.457 307.55 339.359 308.526 338.976 309.403V309.372Z" fill="#010101" />
    <path d="M293.26 330.201C293.313 332.109 293.662 333.998 294.295 335.799C294.939 337.427 295.904 338.908 297.132 340.154C297.764 340.797 298.479 341.357 299.058 342.041C299.433 342.509 299.724 343.039 299.918 343.606C300.494 345.186 301.278 346.681 302.248 348.054C303.263 349.587 304.668 350.821 306.317 351.631C307.051 351.983 307.88 352.085 308.678 351.921C309.234 351.716 309.759 351.437 310.241 351.092L310.573 350.874C310.697 350.791 310.821 350.719 310.935 350.625C311.049 350.532 310.428 350.76 310.718 350.781C311.008 350.802 311.091 350.677 311.246 350.656C311.629 350.656 311.577 350.656 311.639 351.061C311.811 351.96 312.111 352.829 312.53 353.642C313.446 355.472 314.7 357.112 316.226 358.474C317.749 359.832 319.747 361.138 321.828 360.278C323.5 359.522 324.933 358.32 325.97 356.805L325.08 357.323C324.739 358.599 324.772 359.947 325.176 361.205C325.58 362.462 326.338 363.577 327.358 364.415C328.431 365.166 329.643 365.695 330.923 365.973C332.203 366.251 333.525 366.271 334.813 366.032C336.298 365.805 337.727 365.302 339.027 364.549L338.893 364.622C338.189 366.058 337.964 367.683 338.251 369.256C338.484 369.974 338.889 370.623 339.43 371.147C339.972 371.671 340.633 372.054 341.357 372.263C342.223 372.578 343.143 372.715 344.062 372.667C344.982 372.619 345.882 372.386 346.711 371.983L347.922 371.444C348.121 371.35 348.325 371.267 348.533 371.195C348.653 371.136 348.778 371.088 348.906 371.05C349.165 371.05 349.102 371.05 349.061 371.309C348.958 372.284 348.512 373.176 348.388 374.15C348.15 375.996 349.879 378.639 351.991 378.069C352.312 377.976 352.571 377.634 352.882 377.551C351.111 378.038 349.413 376.037 349.258 374.44C349.28 373.476 349.466 372.522 349.807 371.62C349.87 371.392 349.918 371.16 349.952 370.926C349.963 370.784 349.963 370.642 349.952 370.501C349.819 370.532 349.691 370.577 349.568 370.635C349.103 370.812 348.647 371.009 348.191 371.216C346.619 372.1 344.779 372.384 343.014 372.014C342.224 371.876 341.477 371.556 340.832 371.079C340.187 370.602 339.661 369.982 339.297 369.267C338.613 367.618 339.121 365.721 339.763 364.135L339.638 364.207C335.496 366.55 328.331 366.416 326.239 361.356C325.699 359.911 325.598 358.338 325.949 356.836C325.949 357.033 325.183 357.178 325.059 357.354C324.501 358.16 323.839 358.888 323.092 359.521C322.757 359.759 322.379 359.928 321.979 360.019C321.58 360.109 321.166 360.12 320.762 360.05C319.022 359.791 317.469 358.412 316.289 357.188C314.948 355.829 313.87 354.233 313.11 352.481C312.947 352.1 312.809 351.709 312.695 351.31C312.641 351.122 312.596 350.932 312.561 350.739C312.551 350.63 312.53 350.523 312.499 350.418C312.416 350.19 312.571 350.242 312.292 350.169C311.774 350.034 311.049 350.574 310.625 350.822C310.366 350.968 310.117 351.123 309.869 351.289C309.739 351.363 309.614 351.447 309.496 351.538C309.983 351.092 309.92 351.341 309.703 351.393L309.33 351.486C308.575 351.571 307.81 351.441 307.125 351.113C305.565 350.325 304.229 349.155 303.242 347.712C302.284 346.415 301.51 344.992 300.943 343.482C300.759 342.9 300.497 342.346 300.166 341.833C299.681 341.237 299.14 340.689 298.551 340.195C297.158 338.914 296.05 337.352 295.3 335.613C294.598 333.723 294.22 331.729 294.181 329.713C294.181 329.859 293.28 330.066 293.28 330.232L293.26 330.201Z" fill="#010101" />
    <path d="M170.588 405.046C171.691 405.919 172.987 406.513 174.368 406.778C175.533 406.924 176.716 406.818 177.836 406.467C179.056 406.079 180.256 405.629 181.429 405.119L182.392 404.787L182.889 404.601C183.19 404.497 183.107 404.455 183.293 404.694C183.489 404.99 183.658 405.302 183.801 405.627C183.966 405.917 184.142 406.197 184.329 406.467C185.422 408.269 187.14 409.605 189.154 410.22C191.076 410.624 193.072 410.473 194.911 409.785C195.975 409.432 197.013 409.006 198.018 408.509C198.225 408.416 198.525 408.167 198.732 408.354C198.881 408.61 198.993 408.885 199.063 409.173C199.281 409.722 199.498 410.261 199.737 410.79C200.489 412.932 202.05 414.693 204.085 415.694C205.082 416.112 206.161 416.293 207.239 416.223C208.317 416.153 209.364 415.833 210.298 415.29C211.044 414.896 211.758 414.419 212.514 414.046C212.965 413.821 213.437 413.64 213.922 413.507C214.143 413.443 214.368 413.395 214.595 413.361C214.678 413.361 215.02 413.258 215.082 413.299C215.144 413.341 215.144 413.755 215.155 413.828C215.451 416.238 216.515 418.488 218.189 420.246C219.087 421.055 220.141 421.674 221.285 422.065C222.429 422.455 223.641 422.608 224.847 422.516C225.157 422.516 225.447 422.008 225.747 421.998C224.558 422.085 223.362 421.934 222.231 421.553C221.1 421.172 220.057 420.569 219.162 419.779C217.488 418.092 216.399 415.912 216.055 413.558C216.055 413.382 215.993 413.216 215.973 413.04C215.952 412.864 215.973 412.76 215.766 412.708C215.501 412.698 215.237 412.74 214.989 412.833C214.466 412.958 213.959 413.143 213.477 413.382C212.69 413.755 211.934 414.232 211.189 414.657C210.098 415.296 208.856 415.628 207.592 415.617C206.329 415.606 205.092 415.253 204.013 414.595C201.538 413.082 200.575 410.137 199.54 407.587C196.371 409.173 192.405 410.79 188.916 409.214C187.156 408.33 185.71 406.926 184.774 405.192C184.629 404.953 184.494 404.715 184.36 404.466C184.225 404.217 184.215 404.061 184.111 403.979C184.008 403.896 183.956 403.916 183.759 403.979C183.138 404.207 182.517 404.455 181.906 404.704C180.87 405.119 179.835 405.554 178.799 405.876C177.684 406.237 176.505 406.353 175.341 406.218C173.926 405.968 172.595 405.37 171.468 404.476C171.354 404.383 170.681 405.067 170.567 404.995L170.588 405.046Z" fill="#010101" />
    <path d="M391.795 156.995C392.172 155.363 392.877 153.826 393.866 152.475C394.267 151.964 394.734 151.507 395.253 151.117C395.326 151.065 395.408 151.023 395.481 150.961C395.823 150.692 395.077 151.21 395.108 151.168C395.139 151.127 395.46 150.992 395.595 150.94C395.862 150.826 396.14 150.736 396.423 150.671C397.546 150.452 398.705 150.502 399.804 150.818C400.904 151.133 401.913 151.704 402.75 152.485C403.769 153.387 404.601 154.481 405.198 155.705C405.795 156.929 406.146 158.259 406.229 159.618C406.509 163.61 404.997 167.529 403.558 171.178C401.891 175.419 399.902 179.794 399.871 184.449C399.871 184.273 400.772 184.107 400.772 183.931C400.772 179.587 402.543 175.481 404.117 171.489C405.691 167.498 407.378 163.496 407.13 159.245C407.066 157.804 406.702 156.392 406.062 155.099C405.422 153.807 404.52 152.662 403.413 151.739C402.509 150.944 401.416 150.394 400.239 150.144C399.063 149.893 397.841 149.95 396.692 150.308C395.486 150.761 394.392 151.468 393.482 152.382C392.204 153.838 391.32 155.597 390.915 157.493C390.966 157.265 391.743 157.213 391.805 156.974L391.795 156.995Z" fill="#010101" />
    <path d="M400.12 199.037C400.259 199.166 400.353 199.336 400.388 199.523C400.424 199.709 400.399 199.902 400.317 200.073L400.255 200.136C400.037 200.343 401.466 199.586 401.052 199.669C401.028 199.68 401.001 199.685 400.974 199.685C400.948 199.685 400.921 199.68 400.897 199.669C400.723 199.535 400.602 199.344 400.555 199.13C400.405 198.608 400.332 198.066 400.338 197.523L399.437 198.041C399.831 197.979 400.233 197.979 400.628 198.041C400.712 198.049 400.793 198.081 400.86 198.132C400.928 198.183 400.98 198.252 401.011 198.332C401.053 198.498 401.053 198.673 401.011 198.84C400.96 199.047 400.936 199.259 400.938 199.472C400.948 199.752 401.063 200.019 401.259 200.219C401.417 200.147 401.57 200.064 401.715 199.97C401.715 199.97 402.15 199.69 402.16 199.7C401.983 199.517 401.87 199.28 401.839 199.026C401.825 198.814 401.843 198.601 401.891 198.394C401.921 198.219 401.921 198.04 401.891 197.865C401.877 197.785 401.839 197.711 401.781 197.653C401.724 197.596 401.65 197.557 401.57 197.544C401.153 197.461 400.724 197.461 400.307 197.544C400.307 197.544 400.193 197.606 400.172 197.616L399.851 197.803L399.54 197.979L399.406 198.062C399.407 198.584 399.477 199.103 399.613 199.607C399.657 199.842 399.782 200.054 399.965 200.208C399.992 200.221 400.023 200.228 400.053 200.228C400.083 200.228 400.113 200.221 400.141 200.208C400.278 200.158 400.407 200.088 400.524 200.001L401.031 199.711L401.114 199.648C401.17 199.598 401.212 199.535 401.239 199.464C401.266 199.394 401.277 199.319 401.27 199.244C401.261 198.988 401.157 198.744 400.98 198.56C400.823 198.631 400.674 198.718 400.534 198.819C400.534 198.819 400.099 199.088 400.089 199.078L400.12 199.037Z" fill="#010101" />
  </g>
  <defs>
    <clipPath id="clip0_136_129">
      <rect width="642" height="560" fill="white" />
    </clipPath>
  </defs>
</svg>
