<svg width="543" height="560" viewBox="0 0 543 560" fill="none" xmlns="http://www.w3.org/2000/svg">
<g clip-path="url(#clip0_136_192)">
<path d="M163.377 20.1534C29.9277 76.7194 -28.4595 234.956 13.2933 365.239C48.8501 476.16 155.237 561.339 267.719 559.98C438.172 557.921 587.557 357.531 530.739 187.65C484.836 50.6221 312.529 -43.0763 163.377 20.1534Z" fill="white"/>
<path opacity="0.16" d="M163.377 20.1534C29.9277 76.7194 -28.4595 234.956 13.2933 365.239C48.8501 476.16 155.237 561.339 267.719 559.98C438.172 557.921 587.557 357.531 530.739 187.65C484.836 50.6221 312.529 -43.0763 163.377 20.1534Z" fill="currentColor"/>
<path opacity="0.8" d="M354.16 167.162C380.787 167.162 402.373 145.538 402.373 118.863C402.373 92.1875 380.787 70.563 354.16 70.563C327.534 70.563 305.948 92.1875 305.948 118.863C305.948 145.538 327.534 167.162 354.16 167.162Z" fill="currentColor"/>
<path opacity="0.3" d="M428.878 238.435C451.552 238.435 469.932 220.021 469.932 197.306C469.932 174.592 451.552 156.178 428.878 156.178C406.204 156.178 387.824 174.592 387.824 197.306C387.824 220.021 406.204 238.435 428.878 238.435Z" fill="currentColor"/>
<path opacity="0.16" d="M153.06 193.848C170.232 193.848 184.152 179.902 184.152 162.7C184.152 145.497 170.232 131.551 153.06 131.551C135.889 131.551 121.968 145.497 121.968 162.7C121.968 179.902 135.889 193.848 153.06 193.848Z" fill="currentColor"/>
<g opacity="0.6">
<path opacity="0.6" d="M77.6234 264.411C78.4059 264.409 79.1818 264.554 79.9115 264.837L128.681 283.388C129.472 283.689 130.197 284.144 130.814 284.727C131.43 285.309 131.926 286.007 132.273 286.781C132.619 287.555 132.811 288.391 132.835 289.239C132.86 290.087 132.718 290.932 132.416 291.725L113.899 340.583C113.43 341.814 112.597 342.872 111.511 343.617C110.426 344.362 109.14 344.758 107.824 344.751C107.042 344.753 106.266 344.608 105.536 344.325L56.7672 325.774C55.1852 325.157 53.9099 323.94 53.218 322.386C52.5262 320.833 52.4737 319.069 53.0718 317.478L71.5893 268.62C72.0587 267.389 72.8915 266.33 73.9769 265.585C75.0622 264.841 76.3484 264.445 77.6639 264.451L77.6234 264.411ZM77.6639 260.06C75.469 260.069 73.328 260.742 71.5214 261.99C69.7148 263.239 68.3269 265.006 67.5395 267.058L49.0221 315.926C48.0052 318.616 48.0949 321.6 49.2717 324.224C50.4485 326.848 52.6161 328.898 55.2992 329.923L104.078 348.474C105.303 348.946 106.604 349.187 107.915 349.184C110.11 349.175 112.251 348.502 114.058 347.253C115.865 346.004 117.252 344.238 118.04 342.185L136.557 293.318C137.574 290.627 137.484 287.643 136.308 285.019C135.131 282.395 132.963 280.346 130.28 279.321L81.501 260.77C80.2765 260.298 78.9757 260.058 77.6639 260.06Z" fill="currentColor"/>
<path opacity="0.6" d="M108.412 308.42L90.4004 286.299C90.146 285.988 89.8146 285.75 89.4394 285.608C89.0642 285.466 88.6584 285.425 88.2625 285.49C87.8667 285.555 87.4948 285.722 87.1841 285.977C86.8734 286.231 86.6349 286.562 86.4923 286.938L76.368 313.623C76.2334 313.997 76.1983 314.4 76.266 314.791C76.3337 315.183 76.5019 315.55 76.7541 315.857C77.0063 316.164 77.3339 316.4 77.7046 316.542C78.0753 316.684 78.4765 316.726 78.8687 316.666L106.994 312.102C107.386 312.036 107.755 311.869 108.063 311.617C108.371 311.365 108.608 311.037 108.751 310.666C108.894 310.294 108.938 309.892 108.879 309.498C108.819 309.104 108.658 308.732 108.412 308.42V308.42Z" fill="currentColor"/>
</g>
<g opacity="0.4">
<path opacity="0.4" d="M471.96 296.769L447.029 308.581C445.977 309.079 445.528 310.337 446.025 311.39C446.523 312.443 447.778 312.893 448.829 312.395L473.761 300.584C474.812 300.085 475.261 298.828 474.764 297.775C474.267 296.721 473.012 296.271 471.96 296.769Z" fill="currentColor"/>
<path opacity="0.4" d="M439.863 317.071C441.384 317.071 442.617 315.836 442.617 314.313C442.617 312.789 441.384 311.554 439.863 311.554C438.342 311.554 437.109 312.789 437.109 314.313C437.109 315.836 438.342 317.071 439.863 317.071Z" fill="currentColor"/>
<path opacity="0.4" d="M477.447 308.396L452.515 320.207C451.464 320.706 451.015 321.963 451.512 323.017C452.009 324.07 453.264 324.52 454.316 324.022L479.247 312.21C480.299 311.712 480.748 310.454 480.251 309.401C479.754 308.348 478.498 307.898 477.447 308.396Z" fill="currentColor"/>
<path opacity="0.4" d="M445.361 328.695C446.881 328.695 448.114 327.46 448.114 325.936C448.114 324.412 446.881 323.177 445.361 323.177C443.84 323.177 442.607 324.412 442.607 325.936C442.607 327.46 443.84 328.695 445.361 328.695Z" fill="currentColor"/>
<path opacity="0.4" d="M482.946 320.027L458.015 331.839C456.964 332.337 456.514 333.595 457.012 334.648C457.509 335.701 458.764 336.151 459.816 335.653L484.747 323.841C485.798 323.343 486.248 322.086 485.75 321.032C485.253 319.979 483.998 319.529 482.946 320.027Z" fill="currentColor"/>
<path opacity="0.4" d="M450.848 340.329C452.369 340.329 453.602 339.094 453.602 337.57C453.602 336.046 452.369 334.811 450.848 334.811C449.327 334.811 448.094 336.046 448.094 337.57C448.094 339.094 449.327 340.329 450.848 340.329Z" fill="currentColor"/>
<path opacity="0.4" d="M461.985 275.821C469.992 275.785 477.844 278.031 484.624 282.299C491.404 286.566 496.833 292.678 500.275 299.92C510.248 321.047 501.004 346.384 479.621 356.517C473.843 359.262 467.529 360.689 461.134 360.695C453.127 360.73 445.276 358.483 438.496 354.216C431.716 349.949 426.287 343.838 422.844 336.596C412.871 315.469 422.125 290.132 443.508 280.01C449.28 277.258 455.592 275.827 461.985 275.821ZM461.985 272.149C452.392 272.166 443.034 275.122 435.167 280.621C427.3 286.12 421.3 293.898 417.974 302.912C414.339 312.786 414.228 323.616 417.659 333.563C421.09 343.51 427.851 351.961 436.795 357.48C443.413 361.549 450.941 363.895 458.695 364.306C466.448 364.717 474.181 363.18 481.191 359.833C504.365 348.859 514.409 321.291 503.596 298.348C499.829 290.383 493.832 283.688 486.334 279.077C479.025 274.576 470.614 272.193 462.035 272.19L461.985 272.149Z" fill="currentColor"/>
</g>
<path d="M283.563 439.028C336.699 439.028 379.775 395.874 379.775 342.642C379.775 289.409 336.699 246.255 283.563 246.255C230.427 246.255 187.351 289.409 187.351 342.642C187.351 395.874 230.427 439.028 283.563 439.028Z" fill="white"/>
<path d="M269.612 512.664C325.007 512.664 369.914 499.626 369.914 483.544C369.914 467.462 325.007 454.424 269.612 454.424C214.217 454.424 169.31 467.462 169.31 483.544C169.31 499.626 214.217 512.664 269.612 512.664Z" fill="currentColor"/>
<path d="M270.017 351.465C290.974 351.465 307.963 334.446 307.963 313.45C307.963 292.455 290.974 275.436 270.017 275.436C249.06 275.436 232.071 292.455 232.071 313.45C232.071 334.446 249.06 351.465 270.017 351.465Z" fill="currentColor"/>
<path d="M203.611 254.826C188.639 267.064 177.626 283.474 171.964 301.983C166.302 320.491 166.245 340.266 171.801 358.806C177.357 377.347 188.276 393.82 203.177 406.144C218.079 418.468 236.293 426.088 255.518 428.041C274.742 429.994 294.113 426.193 311.18 417.117C328.248 408.041 342.246 394.099 351.405 377.053C360.563 360.008 364.47 340.624 362.632 321.354C360.795 302.084 353.294 283.792 341.08 268.793C324.682 248.703 301 235.95 275.228 233.331C249.456 230.713 223.7 238.443 203.611 254.826ZM204.067 392.158L204.117 392.219L204.067 392.158ZM342.77 369.946C342.679 369.855 342.335 369.642 341.302 368.83L339.844 367.674C336.292 365.302 332.539 363.249 328.627 361.538C314.766 355.503 301.746 355.107 292.179 354.894C290.103 354.894 287.613 354.793 284.292 354.965C267.486 355.837 255.286 360.625 247.358 363.82C236.734 368.089 226.71 373.729 217.542 380.596C212.802 384.138 208.31 388.001 204.097 392.158C202.072 390.089 200.101 387.905 198.184 385.606C188.304 373.484 181.875 358.913 179.575 343.434C177.274 327.954 179.189 312.14 185.117 297.66C191.044 283.18 200.764 270.572 213.251 261.167C225.738 251.763 240.527 245.91 256.059 244.228C271.59 242.546 287.287 245.096 301.491 251.609C315.696 258.123 327.882 268.358 336.762 281.234C345.641 294.11 350.886 309.149 351.942 324.763C352.998 340.377 349.826 355.988 342.76 369.946H342.77Z" fill="currentColor"/>
<path d="M300.106 246.864C300.106 245.768 300.532 244.622 301.848 244.835C302.821 245.115 303.723 245.603 304.49 246.265C306.09 247.351 307.528 248.598 309.228 249.562C310.929 250.525 312.58 251.377 314.291 252.189C317.733 253.842 321.125 255.526 324.506 257.26C328.364 259.289 332.353 261.013 336.109 263.214C337.95 264.321 339.722 265.54 341.414 266.865C342.973 268.042 344.745 269.005 346.203 270.314C346.329 270.263 346.471 270.263 346.598 270.314C350.951 271.795 355.112 273.722 359.314 275.558C363.515 277.393 367.849 279.016 372.151 280.629C374.591 281.552 377.021 282.516 379.421 283.56C379.775 283.652 380.129 283.743 380.484 283.854C383.369 284.757 385.87 286.36 388.654 287.496C389.97 288.033 391.317 288.51 392.623 289.108C393.959 289.732 395.257 290.433 396.511 291.208C397.784 291.913 398.988 292.738 400.105 293.673C400.854 294.342 401.573 295.032 402.302 295.701C402.565 295.894 402.828 296.086 403.081 296.289C403.972 296.979 404.823 297.699 405.643 298.47L405.936 298.744C406.837 299.281 407.556 300.113 408.447 300.691C408.558 300.761 408.644 300.865 408.692 300.987C408.739 301.11 408.746 301.244 408.71 301.371C409.531 302.121 410.351 302.872 411.14 303.653C411.207 303.718 411.256 303.798 411.284 303.886C411.313 303.975 411.319 304.069 411.302 304.16L411.92 304.556C411.995 304.601 412.058 304.663 412.106 304.737C412.153 304.811 412.183 304.895 412.193 304.982C412.576 305.131 412.922 305.363 413.206 305.661C413.29 305.749 413.347 305.86 413.37 305.979C413.393 306.099 413.381 306.223 413.335 306.336C413.288 306.449 413.211 306.546 413.11 306.615C413.01 306.684 412.892 306.723 412.77 306.726C410.401 306.726 408.366 305.225 406.453 304.018C406.354 303.956 406.275 303.866 406.224 303.76C406.174 303.654 406.155 303.536 406.169 303.42C405.764 303.095 405.369 302.75 404.995 302.405C404.518 302.216 404.082 301.933 403.714 301.575C403.346 301.216 403.052 300.788 402.848 300.316C402.783 300.18 402.765 300.027 402.798 299.88C402.532 299.576 402.281 299.257 402.049 298.926C401.249 297.77 400.834 296.371 399.75 295.427L399.457 295.224C399.021 296.157 398.951 297.192 398.141 297.943C397.844 298.205 397.501 298.408 397.128 298.541C397.001 298.731 396.859 298.911 396.703 299.079C395.944 299.789 394.931 299.636 393.959 299.565C393.767 299.613 393.569 299.63 393.372 299.616C392.854 299.817 392.291 299.877 391.742 299.789C390.596 299.541 389.489 299.138 388.452 298.592C387.35 298.059 386.281 297.46 385.252 296.796C384.199 296.216 383.232 295.493 382.377 294.646C382.296 294.547 382.243 294.428 382.225 294.301C382.037 294.161 381.841 294.033 381.638 293.916C381.544 293.907 381.451 293.883 381.365 293.845C381.05 293.67 380.771 293.436 380.545 293.155C380.332 292.922 380.14 292.668 379.907 292.455C379.804 292.353 379.742 292.215 379.735 292.07C379.471 291.837 379.198 291.603 378.955 291.36C377.828 290.17 376.811 288.88 375.918 287.506C375.871 287.427 375.847 287.338 375.847 287.247C375.847 287.156 375.871 287.067 375.918 286.988L375.503 286.846C374.662 287.415 373.774 287.91 372.85 288.327C372.654 288.58 372.408 288.788 372.128 288.94C371.847 289.092 371.538 289.184 371.22 289.21C371.182 289.282 371.131 289.346 371.068 289.398C371.006 289.451 370.933 289.49 370.855 289.514C368.757 290.069 366.534 289.92 364.528 289.088C363.565 288.738 362.631 288.314 361.733 287.82C360.96 287.476 360.248 287.007 359.628 286.431C358.171 285.402 356.815 284.237 355.578 282.952C355.495 282.877 355.438 282.777 355.416 282.668C355.163 282.445 354.91 282.232 354.667 281.998C354.091 281.243 353.311 280.669 352.419 280.345C352.389 280.351 352.358 280.351 352.328 280.345C351.959 280.791 351.56 281.211 351.133 281.603C350.973 281.712 350.8 281.801 350.617 281.866C350.619 281.963 350.592 282.058 350.539 282.139C350.487 282.221 350.412 282.285 350.323 282.323C350.271 282.339 350.22 282.359 350.171 282.384V282.384H350.111C349.858 282.485 349.604 282.587 349.351 282.668C349.378 282.823 349.35 282.982 349.273 283.119C349.195 283.256 349.073 283.362 348.926 283.418C348.371 283.622 347.803 283.789 347.225 283.915C346.888 284.079 346.531 284.195 346.162 284.26C345.154 284.285 344.148 284.162 343.175 283.895C342.163 283.712 341.039 283.662 339.986 283.428C338.92 283.142 337.885 282.748 336.898 282.252C334.874 281.379 332.936 280.319 331.107 279.087C329.477 277.951 328.07 276.328 326.207 275.639C326.207 275.639 326.207 275.639 326.136 275.588C326.099 275.659 326.048 275.721 325.985 275.77C325.922 275.819 325.849 275.854 325.772 275.872C325.286 276.004 325.367 276.886 325.387 277.322C325.523 277.911 325.425 278.529 325.114 279.047C324.456 279.838 323.139 279.351 322.36 279.047C319.726 277.961 317.287 276.45 315.141 274.574C312.386 272.265 309.842 269.716 307.538 266.957C305.194 264.268 303.439 261.117 302.384 257.706C301.878 255.911 301.534 254.065 301.048 252.26C300.475 250.516 300.158 248.699 300.106 246.864V246.864Z" fill="white"/>
<path d="M120.359 217.196C120.353 217.108 120.353 217.02 120.359 216.933C120.409 216.4 120.59 215.888 120.885 215.442C121.021 215.239 121.14 215.026 121.239 214.803C121.149 214.733 121.082 214.637 121.048 214.529C121.013 214.42 121.013 214.303 121.047 214.194C121.112 213.922 121.204 213.657 121.32 213.403C121.386 213.301 121.479 213.22 121.589 213.169C121.699 213.118 121.821 213.099 121.941 213.115C122.06 213.131 122.173 213.181 122.266 213.259C122.359 213.337 122.428 213.44 122.464 213.555C122.543 213.819 122.587 214.091 122.596 214.366C123.747 215.462 124.613 216.824 125.117 218.332C125.836 220.148 126.423 222.014 127.091 223.85C127.794 225.875 128.696 227.826 129.784 229.672C130.848 231.373 132.008 233.012 133.257 234.581C135.471 237.67 137.933 240.574 140.617 243.263C143.416 245.8 146.628 247.837 150.114 249.288C154.346 251.124 158.72 252.625 162.891 254.613C162.956 254.602 163.023 254.604 163.088 254.62C163.152 254.635 163.213 254.664 163.266 254.704C165.088 255.941 167.477 256.296 169.624 256.56C171.77 256.824 173.997 256.935 176.184 257.169C182.872 257.879 189.599 258.143 196.322 257.96C202.631 257.769 208.924 257.228 215.173 256.337C220.758 255.708 226.235 254.344 231.463 252.28C234.339 251.042 237.058 249.465 239.563 247.584C240.783 246.573 242.091 245.673 243.471 244.896C243.902 244.4 244.365 243.932 244.858 243.496C245.435 242.999 246.255 243.78 245.789 244.318C246.059 244.298 246.33 244.298 246.599 244.318C246.692 244.344 246.777 244.39 246.849 244.454C246.921 244.518 246.977 244.598 247.013 244.687C247.049 244.776 247.065 244.873 247.058 244.969C247.051 245.065 247.022 245.158 246.974 245.241C245.172 248.152 243.278 251.012 241.618 254.004C241.183 254.795 240.707 255.627 240.302 256.479C240.302 256.854 240.211 257.24 240.17 257.625C240.039 259.126 239.937 260.668 239.856 262.139C239.977 262.364 240.112 262.581 240.261 262.788C240.565 263.214 240.261 263.62 239.806 263.68C239.806 264.34 239.745 264.999 239.735 265.658C239.735 267.017 239.654 268.539 238.631 269.411C238.683 269.463 238.725 269.525 238.753 269.592C238.781 269.66 238.796 269.733 238.796 269.807C238.796 269.88 238.781 269.953 238.753 270.021C238.725 270.089 238.683 270.15 238.631 270.202C237.901 271.115 237.068 271.942 236.151 272.667C236.177 272.819 236.146 272.976 236.064 273.107C235.981 273.238 235.854 273.334 235.705 273.377C235.102 273.508 234.507 273.674 233.924 273.874C233.236 274.068 232.515 274.116 231.808 274.016C231.735 274.003 231.666 273.973 231.606 273.929C231.546 273.885 231.498 273.828 231.463 273.762H231.281C230.562 273.79 229.843 273.715 229.145 273.539C228.436 273.336 227.636 272.87 226.958 273.377C226.676 273.616 226.427 273.892 226.219 274.198C226.293 274.292 226.339 274.404 226.351 274.523C226.364 274.641 226.343 274.761 226.29 274.868C225.733 276.044 225.682 277.495 224.781 278.509C223.88 279.523 222.179 279.736 220.944 279.939H220.691C220.711 280.026 220.711 280.116 220.691 280.202C220.671 280.289 220.632 280.37 220.577 280.439C220.521 280.509 220.451 280.564 220.37 280.603C220.29 280.641 220.203 280.66 220.114 280.659C219.013 280.697 217.91 280.663 216.813 280.558C215.689 280.415 214.608 280.031 213.644 279.432C213.546 279.368 213.469 279.276 213.422 279.168C212.582 278.889 211.723 278.675 210.85 278.529C210.822 278.617 210.774 278.697 210.711 278.763C210.648 278.83 210.571 278.882 210.486 278.915C210.04 279.097 209.787 279.736 209.524 280.101C209.263 280.489 208.942 280.831 208.572 281.116C207.755 281.805 206.885 282.429 205.97 282.982C205.242 283.371 204.461 283.651 203.652 283.814C203.572 283.919 203.463 283.997 203.338 284.037C202.682 284.246 202.001 284.365 201.313 284.392C201.266 284.397 201.218 284.397 201.171 284.392H199.885C197.59 284.921 195.226 285.089 192.879 284.889C190.804 284.498 188.916 283.428 187.513 281.846L187.281 282.049C187.019 282.451 186.724 282.831 186.4 283.185C185.861 283.527 185.252 283.742 184.618 283.814C183.596 284 182.557 284.072 181.52 284.027C181.452 284.138 181.351 284.225 181.231 284.274C181.11 284.323 180.978 284.332 180.852 284.301C179.12 283.915 177.328 283.966 175.577 283.733C174.093 283.513 172.623 283.211 171.173 282.83C169.815 282.605 168.517 282.108 167.356 281.369C166.324 280.412 165.369 279.374 164.501 278.266C164.432 278.198 164.381 278.115 164.353 278.023C164.325 277.93 164.32 277.833 164.339 277.738C163.965 277.91 163.555 277.987 163.144 277.961C162.574 277.899 162.013 277.77 161.474 277.576C161.421 277.627 161.36 277.666 161.292 277.693C161.224 277.719 161.151 277.731 161.079 277.728C159.088 277.703 157.111 277.396 155.207 276.815C152.989 276.205 150.809 275.467 148.676 274.604C147.168 273.996 141.296 272.129 143.179 269.533C143.222 269.478 143.273 269.43 143.331 269.391C143.125 268.891 142.772 268.466 142.318 268.174L142.217 268.113C142.131 268.138 142.04 268.138 141.954 268.113C139.236 267.368 136.756 265.932 134.755 263.944C134.58 263.792 134.415 263.63 134.259 263.457C134.199 263.386 134.148 263.295 134.087 263.214L133.966 263.092C133.941 263.054 133.921 263.013 133.905 262.97C133.836 262.968 133.768 262.951 133.705 262.921C133.643 262.892 133.587 262.85 133.54 262.798C133.228 262.436 132.889 262.097 132.528 261.784C132.155 261.434 131.816 261.051 131.516 260.638C131.435 260.492 131.413 260.322 131.455 260.161C131.481 260.093 131.515 260.028 131.556 259.968C130.573 259.112 129.927 257.932 129.734 256.641C129.711 256.21 129.852 255.786 130.129 255.455C130.046 255.266 130.003 255.062 130.003 254.856C130.003 254.65 130.046 254.446 130.129 254.258C130.043 253.925 130.043 253.576 130.129 253.244C130.151 253.144 130.202 253.053 130.276 252.983C130.35 252.912 130.443 252.865 130.544 252.848C130.442 252.229 130.28 251.611 130.139 250.982C130.011 250.93 129.904 250.837 129.835 250.718C128.984 249.237 127.314 248.689 126.028 247.736C124.748 246.576 123.774 245.116 123.193 243.486C122.556 242.076 121.452 240.443 121.756 238.81C121.968 238.103 122.35 237.459 122.869 236.934C123.325 236.148 123.718 235.328 124.044 234.479L124.105 234.419C124.057 234.307 124.039 234.184 124.054 234.064C124.124 233.593 124.079 233.113 123.922 232.664C123.844 232.648 123.77 232.615 123.705 232.568C123.641 232.521 123.587 232.46 123.548 232.39C122.258 230.435 121.319 228.269 120.774 225.99C120.519 224.505 120.38 223.003 120.359 221.497C120.217 221.424 120.109 221.301 120.055 221.152C119.549 219.975 118.678 217.795 120.359 217.196Z" fill="white"/>
<path d="M307.538 153.591C314.442 154.727 324.192 156.188 335.957 157.456C361.794 160.225 363.525 159.657 364.426 158.47C369.296 152.202 351.093 136.156 321.367 93.9723C318.604 90.0674 281.994 38.0859 264.327 38.6134C263.74 38.6134 263.173 38.6844 263.173 38.6844C251.388 39.7696 243.774 52.093 240.767 56.7384C229.995 73.3928 195.886 119.349 190.652 135.04C190.147 136.502 190.147 138.092 190.652 139.554C193.689 148.236 216.368 147.435 225.945 146.796C223.809 158.409 222.351 168.46 225.945 180.449C227.788 186.677 231.463 191.525 235.31 196.809C237.963 200.461 243.106 203.706 244.908 207.52C236.718 211.871 228.497 215.878 221.268 221.831C210.992 230.291 202.032 244.612 189.052 248.811C173.37 253.882 154.164 246.215 142.561 235.626C137.631 231.132 131.627 225.483 127.688 220.026C125.552 217.095 124.469 213.433 121.614 211.192C122.889 217.987 123.841 224.377 126.676 230.798C130.361 239.074 132.093 248.72 136.598 256.52C144.313 269.878 162.152 273.428 176.194 274.777C195.957 276.643 214.667 272.809 229.013 258.497C234.637 252.957 240.807 248.002 247.429 243.709C245.091 249.734 239.532 253 238.317 259.938C236.232 272.008 241.79 284.017 251.125 291.674C262.656 301.137 276.729 305.6 287.572 316.281C294.541 323.324 300.381 331.406 304.885 340.238C307.011 344.244 308.52 349.488 311.425 352.744C316.194 347.449 311.314 339.152 309.4 333.696C305.533 322.599 304.885 311.382 297.332 301.746C286.499 287.962 271.93 275.983 270.239 257.757C274.917 270.943 290.549 276.257 300.147 285.224C308.601 292.939 315.88 301.854 321.752 311.686C327.827 322.153 331.016 335.318 339.47 344.072C350.526 332.296 340.017 302.263 334.6 290.102C330.226 280.254 324.091 273.336 316.224 266.145C310.443 260.851 302.384 255.647 301.645 247.28C308.216 252.98 311.182 259.826 319.494 263.792C331.378 269.4 343.756 273.888 356.469 277.201C378.114 282.739 398.991 288.358 413.256 307.091C408.133 287.881 398.302 275.568 379.694 267.22C364.062 260.212 343.955 259.532 329.963 249.359C322.046 243.608 317.895 236.173 312.387 228.637C308.803 223.748 304.095 219.762 300.542 214.732C305.27 211.425 317.753 201.8 321.074 186.697C323.099 177.761 321.864 166.99 321.651 165.073C321.274 161.656 320.672 158.267 319.849 154.93" fill="white"/>
<path d="M307.092 153.845C318.441 155.711 329.831 157.141 341.272 158.308C345.696 158.764 350.131 159.2 354.575 159.494C356.8 159.694 359.035 159.751 361.268 159.667C362.756 159.565 364.436 159.139 365.206 157.719C366.573 155.174 364.69 151.867 363.434 149.686C360.478 144.534 356.651 139.838 353.016 135.162C347.083 127.535 341.1 119.948 335.288 112.239C327.189 101.427 319.565 90.2298 311.273 79.5394C302.162 67.7839 292.503 55.9169 280.981 46.4538C276.932 43.0965 272.031 39.3539 266.665 38.512C259.781 37.4268 252.694 42.1026 248.108 46.7885C243.521 51.4744 240.312 57.1442 236.677 62.4894C232.283 68.9503 227.788 75.3504 223.333 81.7606C213.604 95.7778 203.621 109.815 195.268 124.725C193.782 127.3 192.43 129.951 191.219 132.667C189.953 135.608 188.961 138.895 191.219 141.674C193.244 144.199 196.767 145.305 199.814 146.015C203.896 146.886 208.054 147.345 212.227 147.384C216.013 147.485 219.81 147.384 223.586 147.171L224.69 147.11C224.861 147.089 225.035 147.089 225.206 147.11C225.621 147.272 225.348 147.171 225.358 147.668C225.189 149.379 224.891 151.074 224.467 152.739C223.949 155.84 223.588 158.964 223.384 162.101C222.96 168.373 223.645 174.67 225.409 180.703C227.17 186.555 230.724 191.505 234.278 196.394C237.244 200.451 242.084 203.22 244.402 207.774L245.263 207.267C236.657 211.831 227.747 216.172 220.255 222.481C213.087 228.566 207.428 236.184 200.219 242.208C196.224 245.723 191.419 248.187 186.238 249.379C181.388 250.341 176.402 250.383 171.537 249.501C161.782 247.744 152.643 243.5 145.001 237.178C140.39 233.348 136.072 229.178 132.082 224.702C130.033 222.535 128.221 220.155 126.676 217.602C125.319 215.229 124.155 212.754 122.009 210.969C121.704 211.118 121.41 211.287 121.128 211.476C122.363 218.038 123.426 224.661 126.099 230.808C128.67 236.741 130.311 242.979 132.568 249.014C134.522 254.238 137.003 259.157 141.123 263.031C144.906 266.408 149.322 268.997 154.113 270.649C163.802 274.188 174.676 275.487 184.962 275.456C195.997 275.456 207.043 273.184 216.732 267.727C221.348 265.143 225.598 261.95 229.367 258.234C235.014 252.712 241.185 247.756 247.794 243.436L246.933 243.933C245.404 247.716 242.529 250.576 240.362 253.974C238.123 257.689 237.093 262.01 237.416 266.338C237.74 275.466 242.175 284.098 248.776 290.275C255.812 296.847 264.722 301.056 272.902 305.966C277.012 308.356 280.907 311.098 284.545 314.161C288.302 317.49 291.715 321.191 294.73 325.206C298.095 329.649 301.108 334.35 303.741 339.264C306.181 343.757 307.568 349.052 310.939 352.977C311.244 352.834 311.535 352.664 311.81 352.47C316.396 347.084 312.134 339.68 310.069 334.152C307.446 327.154 306.323 319.709 303.781 312.69C302.49 309.009 300.68 305.532 298.405 302.365C296.38 299.586 294.072 296.989 291.825 294.393C287.339 289.23 282.713 284.149 278.865 278.489C274.542 272.17 271.404 265.171 270.634 257.483L269.764 257.99C274.401 270.669 288.19 275.801 297.849 283.854C304.063 289.188 309.656 295.207 314.523 301.797C319.219 308.078 323.167 314.885 326.288 322.082C329.75 329.882 333.031 338.017 338.994 344.285C339.297 344.14 339.589 343.97 339.865 343.778C344.066 339.203 344.927 332.621 344.704 326.667C344.317 319.402 342.976 312.22 340.715 305.306C338.936 299.204 336.654 293.26 333.891 287.536C329.993 279.696 324.303 273.113 317.966 267.18C311.891 261.48 302.992 256.175 302.04 247.077L301.169 247.584C307.102 252.807 311.101 260.029 318.31 263.741C326.835 267.963 335.689 271.481 344.785 274.259C360.569 279.331 377.183 281.937 391.944 289.869C400.045 294.148 407.147 300.101 412.78 307.335C413.082 307.181 413.376 307.012 413.661 306.828C410.138 293.774 403.537 282.059 392.461 274.006C386.477 269.749 379.872 266.444 372.88 264.208C365.368 261.743 357.613 260.151 350.029 257.94C342.598 255.769 335.187 252.949 329.052 248.101C322.532 242.949 318.198 235.879 313.4 229.226C310.71 225.742 307.837 222.404 304.794 219.225C304.055 218.393 303.326 217.551 302.627 216.689C302.425 216.446 300.855 214.752 300.936 214.468C301.068 213.991 302.88 213.058 303.295 212.734C307.866 209.278 311.875 205.135 315.181 200.451C320.244 193.158 322.41 184.943 322.582 176.108C322.743 168.906 321.957 161.714 320.244 154.717C320.244 154.808 319.343 155.133 319.373 155.224C320.843 161.284 321.628 167.49 321.712 173.725C321.843 181.697 320.76 189.537 316.963 196.637C313.899 202.203 309.831 207.152 304.966 211.232C304.146 211.922 303.316 212.602 302.475 213.261C302.111 213.545 300.187 214.58 300.106 214.995C300.025 215.411 301.584 216.953 301.797 217.217C302.496 218.079 303.225 218.921 303.964 219.752C305.503 221.477 307.102 223.14 308.641 224.824C314.108 230.96 317.956 238.344 323.605 244.338C329.254 250.333 336.179 254.055 343.773 256.712C351.366 259.37 359.172 260.972 366.866 263.133C374.105 265.078 381.043 268.006 387.49 271.835C393.763 275.591 399.203 280.592 403.476 286.532C407.769 292.867 410.918 299.908 412.78 307.335L413.661 306.828C403.597 293.733 389.13 286.36 373.66 281.552C365.56 279.037 357.279 277.231 349.169 274.787C340.013 272.018 331.056 268.63 322.36 264.644C318.165 262.834 314.377 260.195 311.223 256.885C308.185 253.578 305.442 249.968 302.04 246.975C301.735 247.119 301.444 247.288 301.169 247.483C302 255.505 309.056 260.445 314.635 265.354C321.135 271.054 327.159 277.475 331.461 285.021C334.604 290.833 337.148 296.95 339.055 303.278C341.413 310.119 342.962 317.213 343.671 324.415C344.228 331.19 343.823 339.051 338.994 344.315L339.865 343.808C334.61 338.28 331.421 331.272 328.384 324.364C325.336 317.044 321.536 310.062 317.044 303.531C312.116 296.68 306.487 290.364 300.248 284.686C295.55 280.396 289.992 277.191 284.798 273.529C278.865 269.36 273.196 264.472 270.624 257.473C270.624 257.544 269.743 257.879 269.753 257.98C271.14 271.987 280.344 282.739 289.212 292.922C293.991 298.399 298.952 303.765 301.848 310.53C304.885 317.548 306.049 325.145 308.398 332.387C310.423 338.473 316.002 347.003 310.929 352.967L311.8 352.46C308.763 348.971 307.548 344.417 305.472 340.38C303.22 335.977 300.659 331.741 297.808 327.701C292.222 319.599 285.097 312.678 276.84 307.335C268.741 302.152 259.923 298.054 252.339 292.05C245.252 286.39 239.947 278.337 238.611 269.229C237.902 264.431 238.084 259.086 240.464 254.745C242.651 250.769 246.093 247.645 247.814 243.415C247.743 243.578 247.115 243.801 246.953 243.912C241.637 247.381 236.597 251.257 231.878 255.505C226.998 259.948 222.544 264.512 216.692 267.677C206.911 273.012 195.673 275.01 184.628 274.888C174.868 274.777 164.652 273.509 155.419 270.223C150.933 268.707 146.751 266.407 143.067 263.427C139.214 260.034 136.243 255.752 134.411 250.951C131.748 244.592 130.169 237.837 127.486 231.477C124.661 224.814 123.315 217.988 121.978 210.898L121.097 211.405C122.856 213.057 124.286 215.03 125.309 217.217C126.526 219.381 127.954 221.419 129.571 223.302C133.218 227.503 137.13 231.463 141.285 235.159C148.512 241.87 157.284 246.685 166.819 249.176C175.708 251.418 185.438 251.296 193.618 246.793C200.847 242.807 206.466 236.792 212.065 230.848C215.61 226.899 219.477 223.252 223.627 219.945C230.056 215.066 237.295 211.486 244.392 207.723C244.473 207.723 245.263 207.236 245.252 207.226C243.994 205.039 242.359 203.092 240.423 201.475C238.429 199.701 236.612 197.738 234.996 195.613C231.615 190.967 228.213 186.231 226.462 180.683C224.621 174.667 223.867 168.372 224.234 162.091C224.386 159.15 224.741 156.218 225.176 153.307C225.409 151.806 225.662 150.265 225.925 148.804C226.16 148.057 226.303 147.284 226.35 146.502C226.249 146.4 225.449 146.562 225.338 146.573C217.704 147.039 209.827 147.222 202.285 145.781C199.065 145.173 195.491 144.25 192.99 141.998C190.318 139.605 190.449 136.318 191.695 133.194C193.993 127.423 197.324 122.037 200.564 116.733C204.998 109.511 209.675 102.452 214.454 95.433C223.08 82.7242 232.141 70.3095 240.565 57.4688C244.675 51.2107 249.09 44.2832 255.994 40.8449C259.141 39.1433 262.753 38.5065 266.291 39.0293C268.691 39.5745 270.982 40.5246 273.064 41.8388C278.724 45.1657 283.664 49.7299 288.251 54.3448C293.586 59.6698 298.577 65.3598 303.376 71.1817C309.785 78.9409 315.829 86.9841 321.6 95.1997C328.289 104.666 335.191 113.947 342.305 123.041C347.174 129.33 352.166 135.527 356.914 141.897C359.587 145.477 362.614 149.271 364.163 153.52C364.695 154.677 364.881 155.962 364.7 157.222C364.601 157.734 364.386 158.217 364.072 158.632C364.072 158.683 363.596 159.119 363.586 159.109C363.404 158.095 364.659 158.734 364.112 158.784C364.042 158.784 363.971 158.855 363.9 158.866C363.829 158.876 363.505 158.967 363.303 159.008C362.713 159.099 362.117 159.15 361.521 159.16C359.203 159.189 356.885 159.101 354.575 158.896C343.752 158.125 332.919 156.867 322.177 155.437C317.439 154.798 312.721 154.078 308.003 153.307C307.74 153.307 307.376 153.855 307.122 153.815L307.092 153.845Z" fill="#010101"/>
<path d="M235.898 271.419C235.966 271.883 235.921 272.356 235.766 272.799C235.684 272.995 235.575 273.18 235.442 273.346C235.391 273.397 235.351 273.458 235.3 273.498C235.251 273.551 235.197 273.599 235.138 273.64C234.966 273.782 235.037 273.742 235.371 273.529C235.371 273.529 234.227 273.864 234.126 273.874C233.627 273.947 233.122 273.974 232.617 273.955C231.785 273.925 230.958 273.813 230.147 273.62C229.31 273.291 228.423 273.109 227.525 273.083C226.991 273.196 226.504 273.469 226.128 273.864C225.687 274.491 225.329 275.172 225.065 275.892C224.511 277.093 223.735 278.177 222.777 279.087C222.534 279.3 222.28 279.473 222.037 279.655C221.582 279.99 222.797 279.3 221.956 279.655C221.816 279.726 221.67 279.787 221.521 279.838C220.908 280.076 220.269 280.239 219.618 280.325C218.048 280.562 216.445 280.391 214.96 279.828C213.586 279.159 212.152 278.619 210.678 278.215C210.359 278.33 210.065 278.502 209.807 278.722C209.013 280.162 207.987 281.461 206.77 282.566C206.486 282.799 206.173 282.992 205.879 283.215C205.585 283.438 206.304 283.023 206.041 283.124L205.747 283.266C205.545 283.367 205.332 283.459 205.12 283.54C204.387 283.819 203.632 284.033 202.862 284.179C201.19 284.496 199.499 284.696 197.8 284.777C196.056 284.925 194.301 284.853 192.576 284.564C190.761 284.321 189.114 283.374 187.989 281.927C187.685 282.076 187.39 282.246 187.108 282.434C186.929 282.636 186.736 282.826 186.531 283.002C186.451 283.075 186.367 283.143 186.278 283.205C186.116 283.337 185.65 283.814 186.207 283.306C185.714 283.621 185.163 283.835 184.587 283.935C183.498 284.205 182.378 284.325 181.256 284.29C179.047 284.201 176.848 283.923 174.686 283.459C172.481 283.162 170.329 282.551 168.297 281.643C167.353 281.16 166.489 280.534 165.736 279.787C165.352 279.408 164.997 279.001 164.673 278.57C164.538 278.347 164.393 278.13 164.237 277.921C164.015 277.698 164.167 277.819 163.924 277.789C163.681 277.758 163.144 277.789 162.759 277.789C162.375 277.789 161.686 277.708 161.15 277.637C159.722 277.464 158.315 277.201 156.918 276.896C153.726 276.248 150.604 275.297 147.593 274.056C146.364 273.566 145.198 272.929 144.12 272.16C143.377 271.7 142.834 270.975 142.602 270.131C142.559 269.752 142.645 269.37 142.845 269.046C142.946 268.884 143.148 268.731 143.219 268.559C143.29 268.387 143.331 268.559 143.219 268.437C143.108 268.316 142.905 268.366 142.855 268.346C142.612 268.285 142.359 268.214 142.116 268.133C139.895 267.388 137.81 266.289 135.94 264.877C134.008 263.487 132.333 261.771 130.989 259.806C130.381 258.891 129.907 257.894 129.582 256.844C129.292 255.687 129.274 254.479 129.531 253.314C129.692 252.76 129.729 252.176 129.642 251.605C129.555 251.034 129.344 250.489 129.025 250.008C128.21 249.192 127.31 248.464 126.342 247.837C125.482 247.116 124.74 246.264 124.145 245.312C123.386 244.236 122.728 243.092 122.181 241.894C121.623 240.792 121.395 239.552 121.523 238.324C121.765 237.433 122.155 236.589 122.677 235.828C123.26 234.966 123.512 233.921 123.386 232.887C123.254 232.509 123.044 232.163 122.768 231.873C122.379 231.398 122.023 230.897 121.705 230.372C120.369 228.059 120.338 225.158 119.731 222.602C119.277 221.111 119.072 219.555 119.123 217.998C119.326 216.788 119.785 215.636 120.47 214.62C121.144 213.701 121.5 212.586 121.482 211.445C121.482 211.567 120.581 211.821 120.601 211.952C120.623 213.119 120.268 214.261 119.589 215.208C118.857 216.296 118.402 217.546 118.263 218.849C118.286 220.41 118.525 221.959 118.971 223.454C119.295 224.844 119.478 226.254 119.761 227.653C119.988 229 120.484 230.287 121.219 231.437C121.715 232.167 122.555 232.836 122.606 233.78C122.697 235.93 120.652 237.38 120.632 239.5C120.632 242.056 122.373 244.571 123.801 246.529C124.472 247.442 125.29 248.237 126.22 248.882C127.212 249.43 128.038 250.236 128.61 251.215C129.116 252.412 128.61 253.791 128.519 255.018C128.42 256.185 128.63 257.357 129.126 258.416C130.118 260.551 131.566 262.442 133.368 263.954C135.178 265.578 137.227 266.912 139.443 267.91C139.939 268.133 140.455 268.346 140.972 268.518C141.47 268.625 141.961 268.767 142.44 268.944C142.44 268.944 142.035 269.411 141.994 269.482C141.885 269.647 141.803 269.828 141.751 270.02C141.235 272.048 144.404 273.519 145.801 274.168C148.802 275.515 151.938 276.535 155.156 277.211C156.624 277.556 158.112 277.85 159.611 278.063C160.656 278.248 161.718 278.333 162.78 278.316C162.928 278.302 163.077 278.302 163.225 278.316C163.377 278.367 163.589 278.793 163.691 278.925C163.792 279.057 164.075 279.442 164.288 279.696C164.997 280.543 165.842 281.267 166.789 281.836C168.802 282.925 170.999 283.633 173.268 283.925C177.318 284.666 182.036 285.812 185.863 283.621C186.67 283.2 187.405 282.652 188.04 281.998L187.159 282.505C189.336 285.639 193.973 285.548 197.364 285.325C199.265 285.236 201.153 284.968 203.004 284.524C204.394 284.133 205.711 283.517 206.902 282.698C208.475 281.524 209.771 280.018 210.698 278.286L209.827 278.793C211.245 279.174 212.622 279.694 213.938 280.345C215.383 280.923 216.95 281.125 218.494 280.933C220.855 280.656 223.024 279.497 224.569 277.687C225.345 276.641 225.991 275.503 226.492 274.3C226.644 273.995 226.796 273.701 226.978 273.407L227.1 273.285C227.282 272.971 226.148 273.61 226.502 273.63C226.634 273.63 226.786 273.63 226.938 273.63C227.895 273.784 228.842 273.997 229.772 274.269C230.77 274.485 231.792 274.557 232.81 274.482C233.806 274.377 234.762 274.029 235.594 273.468C236.038 273.224 236.395 272.849 236.617 272.392C236.838 271.936 236.912 271.423 236.829 270.922C236.829 271.044 235.938 271.277 235.948 271.429L235.898 271.419Z" fill="#010101"/>
<path d="M413.661 306.838C410.412 306.316 407.395 304.825 405.005 302.558C402.46 300.455 400.721 297.534 400.085 294.291C400.085 294.423 399.254 294.646 399.214 294.798C398.933 295.884 398.467 296.914 397.837 297.841C397.561 298.216 397.242 298.556 396.885 298.855C396.723 298.997 396.531 299.119 396.369 299.261C396.207 299.403 397.017 298.957 396.531 299.16L396.126 299.332C394.352 299.886 392.446 299.843 390.699 299.21C386.326 297.872 382.397 294.849 379.218 291.624C377.647 290.123 376.322 288.384 375.29 286.471C375.29 286.471 374.47 286.917 374.409 286.978C373.782 287.731 373.045 288.384 372.222 288.916C372.516 288.743 371.939 289.047 371.848 289.088L371.321 289.291C370.951 289.42 370.572 289.525 370.187 289.605C368.644 289.87 367.061 289.776 365.56 289.331C362.264 288.247 359.251 286.438 356.742 284.037C355.299 282.753 353.945 281.37 352.692 279.899C352.389 280.05 352.095 280.219 351.812 280.406C351.292 281.19 350.661 281.894 349.939 282.495C349.755 282.648 349.562 282.791 349.362 282.921C349.26 282.992 348.896 283.296 349.362 282.921C349.244 282.99 349.122 283.051 348.997 283.104C348.617 283.284 348.224 283.436 347.823 283.56C346.134 284.043 344.36 284.143 342.629 283.854C338.759 283.164 335.09 281.622 331.887 279.341C330.141 278.17 328.507 276.839 327.007 275.365C326.936 275.294 326.187 275.933 326.136 275.872C329.133 278.897 332.684 281.314 336.595 282.992C340.158 284.493 344.492 285.467 348.157 283.743C349.987 282.929 351.564 281.636 352.723 280L351.842 280.507C354.32 283.524 357.283 286.105 360.61 288.145C363.647 289.94 367.454 291.188 370.896 289.727C372.579 289.019 374.08 287.941 375.29 286.573L374.409 287.08C375.379 288.878 376.615 290.52 378.074 291.948C379.814 293.76 381.738 295.385 383.815 296.796C385.783 298.198 387.969 299.264 390.284 299.951C392.115 300.55 394.102 300.449 395.863 299.667C396.791 299.234 397.63 298.628 398.333 297.882C399.179 296.844 399.779 295.626 400.085 294.322L399.214 294.829C399.841 298.073 401.577 300.996 404.124 303.095C406.514 305.362 409.531 306.854 412.781 307.375C413.054 307.375 413.398 306.838 413.661 306.868V306.838Z" fill="#010101"/>
<path d="M227.555 89.3169C233.174 95.8793 237.082 103.669 242.236 110.617C244.372 113.477 246.832 116.043 249.14 118.731C251.449 121.419 253.767 124.401 255.914 127.362C258.951 131.501 261.725 135.791 264.337 140.193C264.337 140.193 265.157 139.757 265.208 139.686C269.045 134.503 273.125 129.543 277.225 124.522C279.25 122.058 281.275 119.593 283.3 117.118C285.132 114.846 286.985 112.594 288.625 110.191C291.321 106.034 293.519 101.574 295.176 96.9037C295.885 95.3188 296.735 93.8014 297.717 92.3699C299.145 89.9864 300.39 87.471 301.615 84.9759C301.666 84.8643 301.939 84.4789 301.898 84.3774C301.858 84.276 301.615 84.3774 301.433 84.3774H300.937C300.076 84.4586 299.226 84.5194 298.365 84.5803C296.867 84.6919 295.328 84.7831 293.85 84.8541C291.116 84.9961 288.372 85.057 285.629 85.0671C281.69 85.0671 277.762 84.9454 273.834 84.702C264.54 84.134 255.266 83.3327 245.971 82.856C243.066 82.7039 240.17 82.5619 237.264 82.5315C235.237 82.4656 233.207 82.5402 231.19 82.7546C229.893 82.8817 228.636 83.2716 227.494 83.9007C226.371 84.5499 225.571 85.3207 225.996 86.7508C226.345 87.7056 226.89 88.5764 227.596 89.3068C227.596 89.3068 228.436 88.7591 228.466 88.7997C227.454 87.6637 225.986 85.7568 227.191 84.2557C227.323 84.1077 227.469 83.9719 227.626 83.85C228.153 83.4139 226.745 84.2659 227.413 83.9819L227.808 83.8196C228.464 83.586 229.143 83.4228 229.833 83.3327C231.746 83.0792 233.675 82.9775 235.604 83.0285C238.297 83.0285 240.99 83.1603 243.704 83.2922C253.089 83.7486 262.444 84.5194 271.829 85.1381C281.004 85.7536 290.212 85.6891 299.377 84.9454L300.613 84.844C300.683 84.844 301.109 84.7831 301.119 84.7933C301.083 84.8832 301.042 84.9712 300.997 85.057C300.744 85.5743 300.491 86.0713 300.228 86.5987C299.62 87.826 298.993 89.0329 298.355 90.2399C297.717 91.4469 297.089 92.593 296.33 93.7087C295.915 94.3579 295.459 94.9867 295.085 95.6663C294.609 96.6148 294.196 97.5941 293.85 98.5975C293.404 99.7639 292.938 100.93 292.442 102.076C291.542 104.211 290.497 106.282 289.314 108.274C286.388 113.142 282.581 117.453 278.987 121.824C274.998 126.673 270.989 131.501 267.152 136.47C266.213 137.694 265.282 138.928 264.357 140.173L265.228 139.665C260.985 132.457 256.174 125.599 250.841 119.157C248.644 116.52 246.235 114.085 244.119 111.347C241.456 107.959 239.158 104.308 236.839 100.667C234.324 96.5182 231.519 92.5527 228.446 88.7997C228.446 88.7997 227.586 89.3575 227.555 89.3169Z" fill="#010101"/>
<path d="M264.327 187.904C264.306 186.511 263.873 185.155 263.082 184.009C262.776 184.156 262.482 184.326 262.201 184.516C261.706 185.14 261.359 185.868 261.188 186.646C260.992 187.098 260.85 187.571 260.763 188.056C260.763 187.732 260.763 187.407 260.713 187.042C260.713 187.164 259.822 187.407 259.842 187.549C259.896 189.095 259.869 190.642 259.761 192.184C259.761 193.523 259.68 195.481 260.905 196.353C261.1 196.526 261.341 196.637 261.599 196.671C261.857 196.705 262.12 196.662 262.353 196.546L262.292 196.596L262.555 196.444L262.849 196.282L263.072 196.16C263.038 196.165 263.004 196.165 262.97 196.16C263.262 195.956 263.502 195.685 263.669 195.369C263.683 195.362 263.699 195.358 263.714 195.358C263.73 195.358 263.746 195.362 263.76 195.369H263.689C263.819 195.103 263.921 194.825 263.993 194.537C264.208 193.656 264.337 192.756 264.378 191.85C264.448 191.383 264.499 190.906 264.529 190.47C264.588 189.61 264.519 188.745 264.327 187.904ZM261.938 195.247C262.044 195.374 262.167 195.487 262.302 195.582L262.241 195.663C262.123 195.538 262.021 195.398 261.938 195.247V195.247ZM262.464 195.897L262.606 195.755C262.69 195.805 262.778 195.849 262.869 195.886C262.803 196.022 262.726 196.151 262.636 196.272C262.453 196.268 262.273 196.223 262.11 196.14L262.464 195.897ZM262.798 194.73C261.974 193.571 261.522 192.187 261.502 190.764C261.459 190.255 261.442 189.744 261.452 189.233C261.549 188.291 261.718 187.359 261.958 186.444L262.049 186.139C262.673 186.645 263.126 187.333 263.345 188.107C263.461 188.974 263.522 189.848 263.527 190.724C263.527 191.332 263.527 191.941 263.466 192.549C263.344 193.31 263.119 194.05 262.798 194.75V194.73ZM262.748 185.46C262.681 185.403 262.61 185.352 262.535 185.308C262.535 185.308 262.413 185.308 262.292 185.409C262.346 185.249 262.41 185.093 262.484 184.942C262.588 185.106 262.676 185.279 262.748 185.46V185.46Z" fill="#010101"/>
<path d="M290.063 193.797C290.602 192.554 290.858 191.206 290.812 189.851C290.812 188.026 290.478 185.723 289.041 184.435C288.73 184.574 288.435 184.744 288.16 184.942C287.245 186.856 286.673 188.916 286.469 191.028C286.295 192.179 286.268 193.348 286.388 194.507C286.427 195.413 286.785 196.276 287.4 196.941C287.701 196.801 287.989 196.635 288.261 196.444V196.444C289.158 195.806 289.797 194.867 290.063 193.797V193.797ZM288.261 194.061C287.309 192.032 288.261 189.263 288.717 187.255C288.717 187.387 288.362 187.468 288.119 187.559C288.196 187.212 288.305 186.872 288.443 186.545C289.628 187.853 289.749 190.044 289.638 191.687C289.584 192.556 289.438 193.416 289.203 194.253C289.096 194.473 288.97 194.684 288.828 194.882C288.751 194.803 288.68 194.718 288.615 194.628C288.706 194.557 288.787 194.507 288.858 194.527C288.606 194.455 288.392 194.288 288.261 194.061ZM288.899 185.845C288.717 185.946 288.433 186.129 288.291 186.22C288.382 185.946 288.494 185.683 288.605 185.409L288.899 185.845ZM287.33 194.486L287.421 194.628C287.599 195.011 287.85 195.356 288.16 195.643C288.392 195.551 288.613 195.432 288.818 195.288C288.638 195.657 288.406 195.999 288.129 196.302C287.703 195.781 287.426 195.153 287.33 194.486V194.486Z" fill="#010101"/>
</g>
<defs>
<clipPath id="clip0_136_192">
<rect width="543" height="560" fill="white"/>
</clipPath>
</defs>
</svg>
