<svg width="700" height="560" viewBox="0 0 700 560" fill="none" xmlns="http://www.w3.org/2000/svg">
<g clip-path="url(#clip0_187_549)">
<path d="M111.003 89.2754C-30.4196 197.841 -37.1852 339.684 93.4391 458.714C232.825 585.741 511.679 601.52 621.832 458.714C712.979 340.544 740.072 156.577 617.277 56.8685C498.762 -39.3693 231.556 -3.27631 111.003 89.2754Z" fill="white"/>
<path opacity="0.16" d="M111.003 89.2754C-30.4196 197.841 -37.1852 339.684 93.4391 458.714C232.825 585.741 511.679 601.52 621.832 458.714C712.979 340.544 740.072 156.577 617.277 56.8685C498.762 -39.3693 231.556 -3.27631 111.003 89.2754Z" fill="currentColor"/>
<path opacity="0.16" d="M235.629 424.843C258.8 424.843 277.584 406.053 277.584 382.873C277.584 359.694 258.8 340.903 235.629 340.903C212.458 340.903 193.674 359.694 193.674 382.873C193.674 406.053 212.458 424.843 235.629 424.843Z" fill="currentColor"/>
<path d="M355.456 447.144C417.835 447.144 468.403 432.484 468.403 414.399C468.403 396.315 417.835 381.654 355.456 381.654C293.076 381.654 242.508 396.315 242.508 414.399C242.508 432.484 293.076 447.144 355.456 447.144Z" fill="currentColor"/>
<path opacity="0.16" d="M537.206 448.424C553.09 448.424 565.967 435.542 565.967 419.652C565.967 403.762 553.09 390.88 537.206 390.88C521.321 390.88 508.444 403.762 508.444 419.652C508.444 435.542 521.321 448.424 537.206 448.424Z" fill="currentColor"/>
<g opacity="0.6">
<path opacity="0.6" d="M116.069 313.687C124.605 313.687 131.525 306.765 131.525 298.226C131.525 289.687 124.605 282.765 116.069 282.765C107.533 282.765 100.614 289.687 100.614 298.226C100.614 306.765 107.533 313.687 116.069 313.687Z" fill="currentColor"/>
<path opacity="0.6" d="M90.1943 278.157C84.4536 283.544 80.4387 290.513 78.6574 298.183C76.8761 305.853 77.4085 313.879 80.1873 321.246C82.966 328.613 87.8662 334.99 94.2682 339.571C100.67 344.152 108.286 346.731 116.154 346.982C124.021 347.232 131.786 345.143 138.466 340.979C145.146 336.815 150.442 330.763 153.684 323.587C156.926 316.412 157.967 308.436 156.678 300.669C155.388 292.901 151.824 285.69 146.438 279.949C139.211 272.261 129.23 267.755 118.686 267.419C108.142 267.083 97.8958 270.945 90.1943 278.157V278.157ZM149.949 320.936L149.324 320.527L148.7 320.097C147.187 319.234 145.602 318.508 143.961 317.926C139.127 316.36 134.026 315.792 128.966 316.257C128.117 316.257 127.103 316.349 125.762 316.513C120.61 317.18 115.614 318.747 111.003 321.141C104.628 324.232 98.9265 328.554 94.2271 333.858C93.3215 333.07 92.4572 332.236 91.6375 331.36C87.2904 326.717 84.2765 320.986 82.9136 314.773C81.5507 308.559 81.8893 302.093 83.8938 296.056C85.8983 290.019 89.4943 284.635 94.3026 280.472C99.1109 276.308 104.953 273.521 111.213 272.402C117.473 271.284 123.919 271.876 129.87 274.117C135.822 276.358 141.059 280.164 145.028 285.133C148.998 290.103 151.553 296.052 152.424 302.354C153.296 308.655 152.451 315.075 149.979 320.936H149.949Z" fill="currentColor"/>
</g>
<g opacity="0.4">
<path opacity="0.4" d="M217.515 178.281L193.322 162.874C192.301 162.224 190.947 162.525 190.298 163.546C189.648 164.567 189.949 165.921 190.969 166.571L215.163 181.978C216.183 182.627 217.537 182.327 218.187 181.306C218.837 180.285 218.536 178.931 217.515 178.281Z" fill="currentColor"/>
<path opacity="0.4" d="M184.33 162.598C185.913 162.598 187.196 161.314 187.196 159.731C187.196 158.147 185.913 156.864 184.33 156.864C182.747 156.864 181.464 158.147 181.464 159.731C181.464 161.314 182.747 162.598 184.33 162.598Z" fill="currentColor"/>
<path opacity="0.4" d="M210.34 189.549L186.146 174.142C185.126 173.492 183.772 173.793 183.122 174.814C182.472 175.835 182.773 177.189 183.794 177.839L207.987 193.246C209.008 193.895 210.362 193.595 211.011 192.574C211.661 191.553 211.36 190.199 210.34 189.549Z" fill="currentColor"/>
<path opacity="0.4" d="M177.155 173.871C178.738 173.871 180.021 172.588 180.021 171.004C180.021 169.421 178.738 168.137 177.155 168.137C175.572 168.137 174.289 169.421 174.289 171.004C174.289 172.588 175.572 173.871 177.155 173.871Z" fill="currentColor"/>
<path opacity="0.4" d="M203.169 200.815L178.975 185.409C177.955 184.759 176.601 185.06 175.951 186.08C175.302 187.101 175.602 188.456 176.623 189.105L200.816 204.512C201.837 205.162 203.191 204.861 203.84 203.84C204.49 202.82 204.189 201.465 203.169 200.815Z" fill="currentColor"/>
<path opacity="0.4" d="M169.98 185.145C171.562 185.145 172.846 183.861 172.846 182.278C172.846 180.694 171.562 179.411 169.98 179.411C168.397 179.411 167.114 180.694 167.114 182.278C167.114 183.861 168.397 185.145 169.98 185.145Z" fill="currentColor"/>
<path opacity="0.4" d="M192.365 136.887C200.908 136.89 209.272 139.338 216.469 143.942C237.226 157.161 243.49 184.469 230.461 204.947C226.492 211.161 221.018 216.271 214.548 219.805C208.078 223.338 200.821 225.18 193.45 225.159C184.902 225.156 176.534 222.704 169.335 218.094C148.588 204.886 142.324 177.568 155.353 157.089C159.327 150.869 164.809 145.755 171.289 142.222C177.769 138.69 185.036 136.855 192.416 136.887H192.365ZM192.416 133.068C185.259 133.026 178.186 134.606 171.727 137.688C165.268 140.771 159.591 145.277 155.121 150.867C150.65 156.458 147.504 162.989 145.917 169.97C144.33 176.951 144.344 184.201 145.957 191.175C148.451 201.911 154.501 211.487 163.122 218.348C171.744 225.209 182.432 228.952 193.45 228.968C201.471 229.011 209.373 227.02 216.417 223.179C223.46 219.338 229.416 213.773 233.726 207.005C247.871 184.776 241.065 155.052 218.577 140.727C210.763 135.75 201.69 133.107 192.426 133.109L192.416 133.068Z" fill="currentColor"/>
</g>
<path d="M477.937 16.5036L403.19 38.3126C398.279 39.7456 395.459 44.89 396.892 49.803L418.693 124.577C420.125 129.49 425.267 132.311 430.179 130.878L504.925 109.069C509.836 107.636 512.656 102.492 511.224 97.5785L489.423 22.8048C487.99 17.8918 482.848 15.0707 477.937 16.5036Z" fill="white"/>
<path d="M397.196 59.4488C398.05 58.8134 399.01 58.335 400.031 58.0358L468.352 38.2947C469.462 37.9737 470.624 37.8745 471.772 38.0028C472.92 38.1311 474.031 38.4845 475.042 39.0426C476.054 39.6008 476.945 40.3528 477.666 41.2558C478.387 42.1588 478.922 43.1949 479.243 44.3051L498.977 112.631C499.299 113.74 499.399 114.902 499.271 116.05C499.143 117.199 498.79 118.31 498.232 119.321C497.674 120.333 496.921 121.224 496.018 121.943C495.115 122.663 494.079 123.197 492.968 123.515L424.647 143.267C422.408 143.912 420.004 143.641 417.963 142.514C415.923 141.387 414.414 139.496 413.767 137.256L394.064 68.9303C393.568 67.2154 393.605 65.3904 394.17 63.6971C394.735 62.0038 395.801 60.5223 397.226 59.4488H397.196ZM393.634 54.6774C391.247 56.4837 389.462 58.9701 388.514 61.81C387.566 64.6499 387.499 67.7103 388.322 70.589L408.055 138.935C409.147 142.695 411.684 145.869 415.11 147.762C418.537 149.654 422.574 150.111 426.336 149.031L494.668 129.28C496.531 128.743 498.27 127.843 499.785 126.633C501.301 125.423 502.563 123.926 503.499 122.228C504.435 120.529 505.028 118.663 505.242 116.735C505.457 114.807 505.289 112.856 504.749 110.993L484.985 42.6464C483.893 38.8933 481.361 35.7249 477.941 33.8333C474.522 31.9417 470.493 31.4805 466.735 32.5506L398.373 52.2917C396.65 52.7873 395.033 53.5961 393.603 54.6774H393.634Z" fill="currentColor"/>
<path d="M468.076 82.4663L427.656 72.4729C427.262 72.373 426.848 72.3793 426.457 72.4912C426.066 72.603 425.712 72.8165 425.43 73.1098C425.148 73.4032 424.949 73.7659 424.853 74.1612C424.757 74.5565 424.767 74.9703 424.882 75.3604L436.438 115.375C436.551 115.765 436.764 116.119 437.057 116.401C437.349 116.682 437.711 116.882 438.105 116.979C438.499 117.077 438.912 117.069 439.302 116.956C439.693 116.844 440.046 116.63 440.328 116.337L469.181 86.3163C469.463 86.0239 469.662 85.6627 469.76 85.2689C469.858 84.8751 469.85 84.4625 469.738 84.0725C469.626 83.6824 469.414 83.3287 469.122 83.0468C468.83 82.7649 468.469 82.5647 468.076 82.4663V82.4663Z" fill="currentColor"/>
<path opacity="0.8" d="M523.675 17.6934C519.13 24.4001 515.149 30.6562 515.967 39.1035C520.624 33.4105 528.035 30.2364 530.706 24.2055C533.47 17.9801 530.706 11.2632 528.925 4.18799C524.834 7.6533 520.371 10.6546 515.619 13.137C506.755 18.0416 505.691 29.4275 513.245 37.5369C515.824 26.4479 518.495 21.1543 523.716 17.6934H523.675Z" fill="currentColor"/>
<path opacity="0.8" d="M362.333 107.02C369.611 107.204 375.496 110.726 384.851 120.023C387.257 107.378 379.171 96.8522 367.451 97.4973C361.234 98.0064 354.98 97.8278 348.802 96.9648C351.423 105.033 352.896 113.348 359.447 117.72C365.803 121.989 375.046 120.515 383.142 123.228C378.72 114.423 370.931 110.747 362.323 106.979L362.333 107.02Z" fill="currentColor"/>
<path d="M540.142 231.274L492.984 344.494C491.706 347.564 493.157 351.089 496.225 352.367L609.403 399.543C612.471 400.822 615.995 399.37 617.274 396.301L664.431 283.081C665.71 280.012 664.259 276.487 661.191 275.208L548.012 228.033C544.944 226.754 541.421 228.205 540.142 231.274Z" fill="white"/>
<path d="M678.905 266.74C680.843 271.045 681.247 275.884 680.051 280.451C680.113 280.195 680.789 280.092 680.86 279.826C682.059 275.26 681.658 270.422 679.724 266.116C679.724 266.177 678.874 266.658 678.905 266.74Z" fill="#010101"/>
<path d="M683.879 255.979C688.992 263.094 691.323 271.836 690.43 280.553C690.43 280.328 691.218 280.164 691.238 279.928C692.14 271.211 689.809 262.465 684.688 255.354C684.688 255.354 683.869 255.969 683.879 255.979Z" fill="#010101"/>
<path d="M604.913 304.472L564.033 250.931C563.785 250.609 563.457 250.358 563.082 250.202C562.707 250.046 562.298 249.991 561.895 250.043C561.492 250.095 561.11 250.251 560.786 250.497C560.463 250.743 560.209 251.069 560.051 251.443L534.145 313.636C533.99 314.011 533.936 314.421 533.988 314.825C534.041 315.228 534.198 315.61 534.445 315.934C534.691 316.257 535.018 316.51 535.393 316.667C535.768 316.825 536.178 316.881 536.581 316.83L603.408 308.199C603.813 308.144 604.195 307.983 604.517 307.732C604.839 307.482 605.089 307.151 605.242 306.772C605.395 306.394 605.445 305.982 605.387 305.577C605.329 305.173 605.166 304.792 604.913 304.472V304.472Z" fill="currentColor"/>
<path d="M537.359 206.719C538.801 206.539 540.264 206.737 541.607 207.292L650.593 252.733C651.599 253.15 652.512 253.762 653.28 254.532C654.049 255.302 654.659 256.216 655.074 257.222C655.49 258.229 655.703 259.307 655.701 260.395C655.7 261.484 655.484 262.561 655.066 263.566L609.672 372.603C608.826 374.63 607.211 376.239 605.181 377.076C603.15 377.913 600.871 377.91 598.843 377.067L489.846 331.626C487.82 330.78 486.213 329.163 485.378 327.132C484.543 325.1 484.549 322.82 485.394 320.793L530.808 211.756C531.367 210.411 532.271 209.237 533.428 208.352C534.585 207.468 535.955 206.904 537.4 206.719H537.359ZM536.673 201.138C534.251 201.454 531.954 202.401 530.013 203.883C528.071 205.365 526.552 207.332 525.609 209.586L480.194 318.622C479.487 320.312 479.12 322.125 479.113 323.957C479.107 325.79 479.462 327.605 480.158 329.3C480.854 330.994 481.877 332.535 483.169 333.834C484.461 335.133 485.996 336.164 487.687 336.869L596.724 382.269C600.128 383.671 603.948 383.667 607.349 382.259C610.75 380.85 613.455 378.152 614.872 374.753L660.297 265.727C661.712 262.318 661.719 258.487 660.314 255.074C658.909 251.661 656.209 248.945 652.804 247.522L543.807 202.09C541.546 201.144 539.073 200.815 536.643 201.138H536.673Z" fill="currentColor"/>
<path opacity="0.8" fill-rule="evenodd" clip-rule="evenodd" d="M675.415 332.926C676.643 332.766 677.884 333.093 678.874 333.838L676.633 316.523C676.574 315.992 676.708 315.458 677.01 315.018C677.313 314.578 677.764 314.262 678.281 314.127L693.194 310.615C693.436 310.554 693.688 310.545 693.934 310.59C694.179 310.634 694.413 310.731 694.617 310.874C694.822 311.017 694.994 311.202 695.121 311.417C695.248 311.632 695.327 311.872 695.353 312.12L697.861 331.503C697.996 332.59 697.751 333.691 697.168 334.618C696.585 335.545 695.7 336.242 694.662 336.592C693.624 336.941 692.497 336.92 691.472 336.534C690.448 336.147 689.588 335.419 689.039 334.471C688.49 333.523 688.285 332.415 688.459 331.333C688.633 330.252 689.175 329.263 689.994 328.536C690.813 327.809 691.858 327.387 692.952 327.341C694.046 327.296 695.122 327.631 695.998 328.288L694.555 317.158L678.608 320.906L680.655 337.053C680.777 337.985 680.62 338.932 680.203 339.774C679.787 340.616 679.13 341.316 678.316 341.785C677.502 342.254 676.567 342.471 675.63 342.409C674.693 342.346 673.795 342.007 673.05 341.434C672.306 340.861 671.748 340.08 671.447 339.19C671.146 338.3 671.116 337.34 671.36 336.433C671.605 335.525 672.112 334.711 672.819 334.092C673.527 333.473 674.401 333.078 675.333 332.957L675.415 332.926Z" fill="currentColor"/>
<path opacity="0.8" fill-rule="evenodd" clip-rule="evenodd" d="M453.756 262.829C455.436 262.604 457.136 263.053 458.485 264.078L455.414 240.385C455.341 239.66 455.526 238.933 455.939 238.333C456.351 237.733 456.964 237.299 457.666 237.108L478.055 232.316C478.385 232.232 478.729 232.22 479.064 232.28C479.399 232.341 479.717 232.473 479.996 232.667C480.276 232.861 480.511 233.113 480.684 233.406C480.858 233.699 480.967 234.026 481.003 234.364L484.442 260.873C484.628 262.361 484.295 263.868 483.498 265.138C482.701 266.408 481.49 267.363 480.07 267.843C478.65 268.322 477.107 268.295 475.705 267.767C474.302 267.239 473.124 266.242 472.372 264.946C471.619 263.649 471.338 262.132 471.576 260.651C471.813 259.171 472.555 257.818 473.676 256.822C474.796 255.826 476.226 255.248 477.724 255.185C479.221 255.123 480.694 255.581 481.893 256.481L479.918 241.265L458.168 246.385L461.023 268.461C461.183 269.736 460.961 271.029 460.386 272.178C459.811 273.328 458.908 274.28 457.792 274.917C456.676 275.553 455.397 275.844 454.115 275.753C452.834 275.663 451.608 275.194 450.593 274.407C449.578 273.62 448.818 272.549 448.411 271.331C448.003 270.112 447.966 268.8 448.303 267.56C448.64 266.32 449.337 265.208 450.306 264.364C451.275 263.52 452.472 262.983 453.746 262.819L453.756 262.829Z" fill="currentColor"/>
<path d="M326.356 388.658C325.865 390.327 325.671 391.986 325.333 393.675C324.678 396.665 322.262 398.938 321.884 402.01C321.868 402.159 321.81 402.3 321.718 402.418C321.626 402.535 321.502 402.625 321.362 402.676C321.303 402.783 321.222 402.877 321.123 402.949C321.025 403.022 320.912 403.072 320.792 403.097C320.672 403.121 320.548 403.119 320.429 403.09C320.31 403.062 320.198 403.008 320.103 402.932C319.294 402.266 318.588 401.488 317.851 400.751C317.349 400.269 316.643 399.45 315.916 399.338C314.739 399.164 313.726 401.027 313.204 401.805C311.201 404.814 308.541 407.328 305.425 409.157C305.273 409.245 305.096 409.277 304.923 409.249C304.872 409.249 304.842 409.311 304.79 409.331C303.396 409.755 301.902 409.716 300.532 409.218C299.233 408.829 297.902 407.99 296.551 407.857C295.384 407.734 295.108 409.085 294.883 409.956C294.514 411.399 294.268 412.864 293.798 414.266C293.09 416.489 291.91 418.533 290.338 420.256C290.271 420.453 290.146 420.624 289.98 420.748L288.823 421.649C288.755 421.785 288.661 421.907 288.547 422.007C288.273 422.193 287.99 422.364 287.697 422.519C285.859 424.105 283.647 425.194 281.269 425.683C281.136 425.784 281.01 425.894 280.891 426.011C280.764 426.144 280.593 426.224 280.41 426.236C280.328 426.503 280.328 426.788 280.41 427.055C280.583 426.945 280.793 426.908 280.993 426.953C281.487 427.061 281.94 427.305 282.302 427.658C282.664 428.011 282.92 428.458 283.04 428.949C283.206 429.871 283.254 430.81 283.183 431.745C283.188 431.779 283.188 431.813 283.183 431.847C283.292 432.097 283.385 432.353 283.46 432.615C284.248 435.789 280.461 438.758 278.148 440.233C278.053 440.294 277.943 440.329 277.83 440.335C277.219 440.941 276.562 441.499 275.865 442.004C275.302 442.393 274.289 442.834 273.961 443.479C273.634 444.124 274.811 444.912 275.353 445.27C277.912 446.929 281.065 449.09 279.836 452.653C279.212 454.486 277.667 455.97 276.469 457.435C275.722 458.346 274.954 459.237 274.207 460.148C274.01 460.382 273.829 460.628 273.664 460.885C273.664 461.11 274.176 461.428 274.32 461.561C275.593 462.628 276.743 463.833 277.748 465.155C278.192 465.84 278.489 466.609 278.621 467.414C278.753 468.22 278.718 469.043 278.516 469.834C278.327 471.279 278.04 472.709 277.656 474.114C277.747 474.239 277.8 474.388 277.809 474.542C277.818 474.696 277.783 474.85 277.707 474.985C277.411 475.478 277.147 475.991 276.919 476.52C276.919 476.52 276.919 476.602 276.919 476.613C276.898 476.666 276.881 476.72 276.868 476.776C276.868 476.92 276.776 477.073 276.735 477.227C276.739 477.292 276.739 477.357 276.735 477.421V477.421C276.725 477.571 276.725 477.722 276.735 477.872C276.732 478.08 276.649 478.279 276.501 478.427C276.354 478.574 276.155 478.658 275.947 478.66H275.865C275.419 479.2 274.882 479.657 274.279 480.012C274.223 480.035 274.164 480.052 274.105 480.063C274.105 480.155 274.033 480.258 274.012 480.35C273.777 481.374 272.272 480.913 272.498 479.93C272.54 479.787 272.591 479.647 272.651 479.51C272.592 479.468 272.537 479.42 272.487 479.367C270.983 477.391 271.372 474.677 270.184 472.517C268.997 470.356 267.114 468.882 265.497 467.193C262.324 463.947 259.089 460.629 256.93 456.585C255.8 454.343 254.908 451.989 254.268 449.561C253.511 447.176 253.081 444.699 252.989 442.199C252.897 436.813 255.783 432.175 258.107 427.495C259.157 425.154 260.333 422.871 261.628 420.656C262.856 418.7 264.258 416.867 265.435 414.881C265.412 414.793 265.407 414.701 265.421 414.611C265.435 414.521 265.468 414.435 265.517 414.358C266.361 412.936 267.465 411.686 268.772 410.672C270.214 409.485 271.582 408.21 272.866 406.853C275.333 404.252 277.339 401.293 280.031 398.887C284.635 394.979 289.91 391.94 295.599 389.918C298.67 388.761 301.802 387.87 304.811 386.559C307.82 385.249 310.952 383.58 314.146 382.32C315.814 381.672 317.524 381.135 319.263 380.713C320.923 380.388 322.552 379.926 324.135 379.33C324.964 378.972 325.865 378.736 326.489 379.576C327.278 380.6 327.339 382.494 327.38 383.754C327.306 385.433 326.96 387.089 326.356 388.658V388.658Z" fill="white"/>
<path d="M493.224 300.345C492.856 301.226 492.467 302.096 492.119 302.987C491.965 303.378 491.791 303.761 491.597 304.134C491.692 304.224 491.761 304.338 491.796 304.465C491.83 304.591 491.828 304.725 491.791 304.851C491.554 305.406 491.207 305.907 490.771 306.324C490.334 306.741 489.818 307.066 489.253 307.277C488.199 307.72 487.106 308.063 485.988 308.301C485.862 308.327 485.732 308.323 485.608 308.291C485.484 308.259 485.369 308.2 485.271 308.117C484.709 308.293 484.237 308.677 483.951 309.192C483.893 309.328 483.865 309.475 483.869 309.622C483.941 309.766 483.992 309.909 484.053 310.052L484.135 310.257V310.318C484.186 310.431 484.248 310.533 484.309 310.646L484.37 310.708L484.442 310.759L484.534 310.81C484.37 310.718 484.534 310.81 484.626 310.81L484.985 310.892C485.274 310.938 485.556 311.02 485.824 311.138C486.117 311.331 486.356 311.596 486.517 311.908C486.679 312.22 486.757 312.568 486.745 312.919C486.772 313.26 486.772 313.602 486.745 313.943C487.507 314.825 487.928 315.951 487.932 317.117C488.089 318.883 487.908 320.662 487.4 322.36C487.4 322.472 487.328 322.585 487.287 322.698L487.41 322.831C487.463 322.921 487.498 323.021 487.512 323.124C487.526 323.228 487.519 323.334 487.492 323.435C487.249 323.97 486.972 324.49 486.663 324.991V325.094C486.829 325.199 486.947 325.364 486.995 325.555C487.042 325.745 487.015 325.946 486.919 326.117C485.947 327.463 484.632 328.524 483.111 329.189C482.845 329.302 482.559 329.384 482.272 329.476C482.208 329.578 482.119 329.662 482.013 329.719C481.908 329.777 481.789 329.806 481.668 329.804H481.586C481.532 329.886 481.462 329.956 481.379 330.009C481.296 330.062 481.203 330.096 481.105 330.111C481.053 330.192 480.984 330.262 480.903 330.315C480.822 330.368 480.73 330.403 480.634 330.418C480.578 330.597 480.456 330.749 480.293 330.844C480.13 330.939 479.938 330.969 479.754 330.93V330.93C479.733 330.984 479.706 331.036 479.672 331.083C479.658 331.15 479.637 331.215 479.611 331.278C479.616 331.346 479.616 331.415 479.611 331.483C479.668 332.036 479.914 332.553 480.307 332.947C480.638 333.404 480.926 333.891 481.167 334.401C481.687 335.456 482.079 336.57 482.334 337.718C482.769 339.898 482.769 342.143 482.334 344.323C481.965 346.309 481.382 348.5 479.703 349.77H479.621C479.566 349.917 479.461 350.041 479.324 350.118V350.118C479.27 350.304 479.145 350.462 478.976 350.558C478.72 350.691 478.485 350.814 478.219 350.927C478.113 350.972 478.004 351.006 477.891 351.029H477.789L477.441 351.244C477.338 351.385 477.195 351.491 477.032 351.552V351.552L476.929 351.603L476.755 351.685L476.356 351.93L476.172 352.074L476.049 352.156L475.742 352.401C475.384 352.689 475 352.943 474.596 353.159C474.676 353.281 474.718 353.423 474.718 353.569C474.769 353.897 474.851 354.219 474.964 354.531C475.028 354.869 475.066 355.211 475.077 355.555C475.091 356.242 475.163 356.927 475.292 357.603C475.558 358.934 476.018 360.214 476.213 361.565C476.407 362.879 476.407 364.214 476.213 365.528C475.942 366.904 475.562 368.257 475.077 369.572C475.033 369.714 474.948 369.839 474.831 369.931C474.806 370.013 474.771 370.092 474.729 370.166C473.207 372.134 471.239 373.71 468.987 374.764C467.707 375.45 466.418 376.125 465.199 376.914L464.094 377.61C463.122 378.214 462.528 379.535 461.371 379.832C461.371 380.416 461.484 381.122 461.494 381.429C461.523 382.608 461.444 383.787 461.259 384.952C460.87 387.593 458.772 388.986 456.786 390.512C454.637 392.15 451.955 393.89 449.161 393.931C446.366 393.972 444.145 392.283 441.505 392.017C441.397 392.008 441.292 391.976 441.197 391.924L441.054 391.976C440.141 392.164 439.338 392.7 438.813 393.471C438.913 393.588 438.975 393.733 438.991 393.886C439.008 394.04 438.978 394.195 438.905 394.331C437.939 396.183 436.559 397.788 434.872 399.02C434.042 399.651 433.134 400.171 432.17 400.566C431.128 400.936 430.045 401.18 428.946 401.293C426.991 401.611 424.995 402.317 423.173 401.13C422.692 400.785 422.279 400.354 421.955 399.86C421.729 399.748 421.52 399.606 421.331 399.44C420.69 398.828 420.126 398.14 419.652 397.392H419.539C419.038 397.526 418.552 397.707 418.086 397.935C418.089 398.068 418.06 398.2 418.001 398.319C417.942 398.439 417.855 398.542 417.748 398.621L417.114 399.071C417.114 399.071 417.114 399.071 417.114 399.143C417.028 399.3 416.912 399.437 416.771 399.546C416.63 399.656 416.468 399.734 416.295 399.778C415.923 400.058 415.529 400.308 415.118 400.525C414.493 400.791 413.854 401.02 413.204 401.211C411.885 401.718 410.511 402.061 409.109 402.235C407.599 402.368 406.079 402.338 404.575 402.143C403.107 401.798 401.571 401.873 400.143 402.358C400.007 402.416 399.858 402.437 399.712 402.42C399.565 402.403 399.425 402.347 399.306 402.259C399.187 402.172 399.093 402.054 399.034 401.919C398.974 401.783 398.951 401.635 398.966 401.488C398.924 401.408 398.896 401.321 398.884 401.232C398.434 399.051 397.747 396.926 396.837 394.894C396.099 392.859 395.12 390.92 393.92 389.119C392.804 387.47 391.505 385.955 390.501 384.225C389.7 383.023 389.23 381.632 389.14 380.19C389.324 374.375 403.613 382.167 405.824 383.262C406.477 383.592 407.163 383.853 407.871 384.04C409.77 384.658 411.723 385.09 413.705 385.33C417.506 385.897 421.378 385.779 425.138 384.982C428.884 384.071 432.241 382.228 435.711 380.631C437.414 379.796 439.164 379.061 440.952 378.429C442.771 377.937 444.54 377.272 446.233 376.443C446.349 376.377 446.479 376.342 446.612 376.34C447.298 375.317 448.076 374.426 448.854 373.504C449.785 372.388 450.604 371.18 451.433 369.992C453.159 367.65 454.709 365.182 456.069 362.61C457.369 359.999 458.813 357.224 459.068 354.285C459.324 351.347 459.662 348.224 459.672 345.183C459.667 345.036 459.707 344.891 459.788 344.768C459.868 344.645 459.986 344.55 460.123 344.497C460.123 341.742 460.051 338.937 460.235 336.183C460.42 333.428 460.849 330.797 461.259 328.114C461.615 325.469 462.179 322.857 462.948 320.302C463.5 318.479 463.777 316.513 465.199 315.121C465.288 315.033 465.397 314.97 465.517 314.936C466.979 312.697 468.697 310.636 470.634 308.793C472.753 306.796 474.831 304.8 476.878 302.731C477.781 301.79 478.791 300.959 479.887 300.253C481.038 299.597 482.252 299.059 483.511 298.646C484.952 298.092 486.425 297.624 487.922 297.243C488.57 297.067 489.23 296.94 489.898 296.864C490.716 296.861 491.533 296.806 492.344 296.7C492.531 296.658 492.727 296.687 492.894 296.781C493.06 296.876 493.185 297.03 493.245 297.212C493.351 297.228 493.451 297.273 493.534 297.342C493.617 297.41 493.679 297.5 493.715 297.601C493.85 298.066 493.876 298.555 493.79 299.031C493.705 299.507 493.511 299.957 493.224 300.345Z" fill="white"/>
<path d="M304.227 262.727C292.661 263.812 284.729 264.775 273.695 260.976C262.661 257.177 259.468 255.754 266.458 245.914C288.055 215.504 307.615 183.455 329.652 153.188C334.063 147.137 338.864 139.939 345.855 139.048C349.693 138.557 353.019 140.072 355.466 141.526C368.342 148.949 374.626 164.585 379.959 175.438C385.578 186.885 394.698 199.51 413.593 224.258C419.386 231.856 435.087 242.586 436.11 252.181C429.969 257.587 423.03 258.6 415.179 259.399C410.01 259.911 400.42 257.976 396.878 261.222C406.039 277.604 399.713 298.564 389.457 312.633C382.405 322.319 376.858 320.332 383.408 330.766C387.103 336.654 392.313 343.749 398.598 347.057C418.403 357.511 430.911 338.435 442.17 324.53C452.774 311.435 476.899 285.222 496.008 297.049C482.088 298.154 471.914 308.199 466.735 321.039C460.594 336.398 470.778 356.251 461.013 369.276C447.779 386.918 406.141 397.106 390.113 378.061C389.642 382.73 393.982 387.86 396.029 392.396C400.225 401.611 401.259 409.802 397.83 419.519C389.079 444.41 363.644 467.244 378.639 495.207C362.057 484.405 360 455.039 364.473 437.223C367.789 423.994 383.173 392.447 361.238 387.153C357.328 395.191 355.619 402.747 349.979 410.324C344.033 418.342 339.304 423.308 335.896 432.85C330.993 446.602 325.568 462.544 331.679 476.776C334.207 482.674 340.604 486.278 340.522 492.995C329.12 488.9 323.91 487.415 319.386 474.882C315.558 464.264 312.641 450.196 312.61 438.84C312.61 424.915 317.359 413.58 322.262 401.037C323.285 398.406 329.898 381.245 326.704 378.614C324.841 377.078 290.031 393.645 285.977 396.092C272.774 404.078 254.145 425.96 255.578 442.301C256.346 451.015 262.385 456.861 267.083 463.312C272.201 470.336 270.983 475.374 273.459 482.603C256.141 484.65 253.173 462.595 246.151 451.414C231.279 427.741 242.201 394.075 267.451 380.559C285.711 370.801 303.419 368.508 312.712 348.818C314.043 346.012 318.383 335.568 317.195 331.77C315.732 327.1 307.81 320.783 305.496 314.793C302.231 306.305 299.038 297.253 298.28 288.079C297.637 279.061 299.037 270.013 302.375 261.611" fill="white"/>
<path d="M304.667 262.471C298.987 263.003 293.265 263.669 287.544 263.382C281.929 262.98 276.407 261.73 271.167 259.675C268.639 258.754 264.391 257.627 263.367 254.719C262.221 251.463 265.568 247.501 267.267 245.095C282.62 223.408 296.95 201.015 311.812 179.021C318.905 168.557 325.977 157.97 333.726 147.976C336.899 143.881 340.768 139.468 346.325 139.222C351.494 138.997 356.438 142.294 360.205 145.498C367.615 151.877 372.293 160.755 376.479 169.438C379.36 175.641 382.61 181.665 386.213 187.479C390.921 194.861 396.111 201.926 401.341 208.981C404.957 213.821 408.598 218.64 412.262 223.439C415.02 226.874 418.046 230.085 421.31 233.043C424.865 236.246 428.18 239.706 431.228 243.395C432.546 245.023 433.663 246.804 434.555 248.699C434.923 249.512 435.211 250.359 435.415 251.228C435.564 251.627 435.637 252.051 435.629 252.477C435.455 252.969 434.217 253.644 433.808 253.931C429.058 257.412 423.009 258.375 417.288 258.999C412.743 259.501 408.229 258.877 403.675 259.112C401.852 259.127 400.051 259.513 398.383 260.249C397.973 260.453 396.52 261.088 396.397 261.518C396.274 261.948 397.134 262.921 397.308 263.269C397.595 263.863 397.861 264.457 398.106 265.061C398.637 266.339 399.089 267.649 399.458 268.983C400.164 271.541 400.596 274.166 400.747 276.816C401.392 287.546 397.892 298.318 392.508 307.533C389.961 311.912 386.788 315.896 383.091 319.359C381.875 320.286 380.893 321.485 380.225 322.861C379.859 324.312 380.053 325.847 380.768 327.162C383.133 332.076 386.236 336.599 389.969 340.575C393.502 344.742 398.145 347.82 403.357 349.452C420.676 354.49 432.958 336.254 442.17 324.796C447.302 318.274 453.005 312.223 459.212 306.714C466.213 300.632 474.719 294.632 484.319 294.294C488.283 294.166 492.197 295.202 495.578 297.273L496.459 296.761C485.896 297.714 476.674 303.99 470.87 312.714C467.309 317.81 465.094 323.724 464.432 329.906C463.859 336.346 464.739 342.797 465.036 349.227C465.322 355.309 465.159 361.739 462.149 367.207C459.877 371.354 456.131 374.681 452.303 377.364C443.245 383.712 431.771 387.194 420.788 387.921C409.98 388.637 398.004 386.426 390.635 377.804C390.328 377.952 390.034 378.123 389.754 378.316C389.478 382.525 392.18 386.272 394.166 389.764C396.488 393.799 398.12 398.194 398.997 402.767C400.624 411.614 397.851 419.939 394.074 427.853C387.472 441.686 377.533 454.475 374.463 469.834C372.692 478.567 374.043 487.645 378.28 495.483L379.161 494.971C371.924 490.179 367.718 482.203 365.435 474.012C363.062 465.143 362.351 455.913 363.337 446.786C364.043 439.618 366.162 432.953 368.393 426.123C370.737 418.956 373.132 411.43 373.316 403.802C373.566 400.165 372.796 396.53 371.095 393.306C369.048 389.846 365.578 387.88 361.771 386.917C361.447 387.037 361.146 387.21 360.88 387.429C357.39 394.679 355.179 402.542 350.645 409.249C346.551 415.28 341.505 420.635 338.158 427.198C336.478 430.726 335.045 434.366 333.869 438.093C332.538 441.994 331.3 445.936 330.358 449.949C328.485 457.946 327.789 466.455 330.358 474.38C331.566 478.097 333.644 480.923 336.039 483.944C338.25 486.729 340.133 489.606 340.215 493.282L341.095 492.77C337.001 491.326 332.743 490.026 329.079 487.65C325.719 485.373 323.089 482.173 321.505 478.435C319.092 472.867 317.26 467.065 316.039 461.12C314.552 454.833 313.627 448.425 313.275 441.973C312.631 428.498 316.827 416.13 321.679 403.771C324.33 396.993 327.503 389.784 328.086 382.473C328.209 380.968 328.393 378.03 326.233 378.378C323.974 378.85 321.777 379.578 319.683 380.548C312.518 383.374 305.507 386.62 298.557 389.907C294.258 391.955 289.846 393.911 285.763 396.358C277.482 401.314 270.409 408.788 264.831 416.59C259.253 424.393 253.787 434.447 255.486 444.328C256.51 450.103 259.99 454.864 263.511 459.38C265.486 461.694 267.243 464.186 268.762 466.824C269.962 469.297 270.797 471.932 271.239 474.646C271.688 477.443 272.324 480.207 273.142 482.92L274.033 482.408C256.888 484.261 253.726 462.953 247.073 451.793C242.394 444.232 239.939 435.506 239.99 426.614C240.181 417.588 242.645 408.756 247.155 400.935C252.05 392.214 259.338 385.076 268.158 380.364C276.643 375.941 285.773 372.879 294.135 368.21C301.382 364.115 307.646 358.934 311.801 351.623C313.711 348.153 315.268 344.499 316.448 340.718C317.533 337.39 318.915 333.397 317.155 330.09C314.852 325.769 310.942 322.441 308.188 318.417C306.783 316.174 305.659 313.767 304.841 311.25C303.726 308.24 302.671 305.219 301.771 302.147C298.301 290.526 297.738 278.72 301.157 267.027C301.709 265.133 302.344 263.269 303.04 261.426C302.948 261.672 302.242 261.692 302.149 261.938C298.393 272.024 296.827 282.621 298.649 293.301C299.845 299.597 301.627 305.767 303.971 311.731C304.789 314.249 305.913 316.656 307.318 318.899C308.813 321.079 310.563 323.076 312.252 325.103C314.749 328.083 317.544 331.073 317.042 335.199C316.38 339.226 315.179 343.146 313.47 346.851C309.646 356.095 302.702 363.704 293.849 368.354C285.333 372.951 276.08 375.992 267.595 380.641C260.627 384.405 254.567 389.647 249.836 395.999C239.222 410.334 235.619 430.29 243.234 446.837C244.852 450.369 247.083 453.564 248.71 457.076C250.338 460.588 251.679 464.09 253.275 467.54C256.182 473.827 260.184 480.943 267.472 482.653C269.351 483.061 271.285 483.147 273.193 482.909C273.501 482.759 273.799 482.588 274.084 482.397C272.385 477.278 272.323 471.708 269.99 466.813C267.492 461.694 263.112 457.598 260.092 452.776C257.199 448.411 255.858 443.199 256.285 437.98C256.881 433.25 258.356 428.672 260.635 424.485C265.449 415.353 272.032 407.271 280 400.709C285.118 396.429 290.829 393.716 296.807 390.87C303.613 387.624 310.471 384.46 317.451 381.654C319.792 380.626 322.204 379.768 324.667 379.084C326.438 378.644 327.134 379.084 327.318 381.132C327.646 384.624 326.397 388.422 325.404 391.73C324.483 394.801 323.408 397.873 322.242 400.945C317.861 412.31 313.112 423.655 312.477 435.994C311.842 448.332 314.422 461.039 318.26 472.67C319.724 477.094 321.413 481.701 324.596 485.213C327.161 487.822 330.292 489.805 333.746 491.009C335.906 491.879 338.106 492.637 340.307 493.415C340.619 493.279 340.915 493.107 341.187 492.903C341.116 486.268 334.985 482.51 332.446 476.909C329.017 469.342 329.13 460.68 330.655 452.683C332.147 444.617 334.533 436.743 337.769 429.205C340.676 422.56 345.261 417.02 349.58 411.276C352.322 407.626 354.614 403.659 356.407 399.46C358.209 395.272 359.765 390.982 361.74 386.876L360.85 387.388C377.687 391.627 372.109 411.962 368.342 423.891C366.244 430.567 363.797 437.069 362.805 444.042C361.49 453.053 361.788 462.227 363.685 471.134C365.732 480.493 370.02 489.985 378.25 495.442C378.554 495.29 378.848 495.119 379.13 494.93C375.311 487.902 373.82 479.842 374.872 471.913C375.896 464.407 378.966 457.332 382.395 450.646C385.998 443.632 390.133 436.905 393.654 429.87C397.482 422.294 400.942 414.153 400.246 405.481C399.763 400.305 398.249 395.277 395.793 390.695C393.746 386.702 390.266 382.576 390.573 377.804L389.693 378.316C396.172 385.893 406.305 388.556 415.947 388.556C426.525 388.497 436.933 385.895 446.295 380.968C453.879 376.996 461.914 371.395 464.616 362.855C468.516 350.507 463.112 337.257 465.978 324.745C467.698 317.976 471.164 311.776 476.029 306.765C481.142 301.306 488.088 297.927 495.537 297.273C495.701 297.273 496.305 296.69 496.418 296.761C481.668 287.843 464.688 300.949 454.289 310.902C448.294 316.879 442.704 323.248 437.554 329.967C431.75 337.278 425.077 346.206 415.722 348.981C405.486 352.053 395.844 346.206 389.509 338.517C387.772 336.389 386.159 334.164 384.678 331.851C383.157 329.807 381.959 327.542 381.126 325.134C380.184 321.643 383.122 319.666 385.343 317.526C393.019 310.134 398.219 299.516 400.522 289.184C401.76 283.877 402.027 278.389 401.31 272.986C400.925 270.258 400.221 267.584 399.212 265.02C398.741 263.812 398.004 262.675 397.564 261.467C397.329 260.812 397.318 260.832 398.045 260.443C398.522 260.234 399.019 260.076 399.529 259.972C403.961 258.948 408.659 259.819 413.153 259.706C418.337 259.649 423.473 258.692 428.332 256.88C429.8 256.28 431.22 255.568 432.579 254.75C433.142 254.412 433.695 254.064 434.237 253.726C434.78 253.388 435.169 253.051 435.619 252.702C436.254 252.19 436.561 252.037 436.418 251.228C435.701 247.132 432.825 243.528 430.133 240.487C426.888 236.832 423.265 233.555 419.754 230.156C416.242 226.659 413.008 222.893 410.082 218.893C403.756 210.568 397.441 202.223 391.505 193.622C387.586 188.085 384.044 182.29 380.901 176.277C376.714 168.004 373.163 159.383 367.503 151.939C362.057 144.771 351.801 135.177 342.139 140.174C339.072 141.845 336.371 144.115 334.197 146.85C330.389 151.427 327.032 156.434 323.603 161.277C308.025 183.25 293.552 205.971 278.434 228.251C274.667 233.815 270.85 239.34 266.981 244.828C265.169 247.388 261.423 251.556 262.426 255.068C263.275 258.037 267.544 259.235 270.061 260.187C275.362 262.28 280.949 263.557 286.633 263.976C292.354 264.262 298.076 263.597 303.756 263.064C304.074 263.064 304.34 262.573 304.647 262.552L304.667 262.471Z" fill="#010101"/>
<path d="M275.425 479.541C278.217 476.443 279.686 472.374 279.519 468.206C279.421 466.252 278.704 464.381 277.472 462.861C276.78 462.049 275.944 461.372 275.005 460.865C274.903 460.826 274.807 460.774 274.719 460.711C274.524 460.517 274.616 460.711 274.719 460.435C274.85 460.182 275.016 459.948 275.21 459.739C275.589 459.247 275.988 458.776 276.387 458.305C277.912 456.544 279.713 454.814 280.624 452.633C281.037 451.626 281.129 450.516 280.887 449.454C280.645 448.393 280.082 447.433 279.273 446.704C278.385 445.83 277.407 445.051 276.356 444.38C275.885 444.062 275.404 443.755 274.913 443.479C274.778 443.429 274.65 443.36 274.534 443.274C274.412 443.141 274.391 443.325 274.534 443.12C274.678 442.916 274.985 442.752 275.138 442.619C276.848 441.277 278.721 440.151 280.409 438.789C282.098 437.427 284.094 435.461 284.422 433.045C284.821 430.045 282.375 427.854 281.136 425.396L280.256 425.908C283.535 425.129 286.607 423.652 289.263 421.577C291.937 419.435 293.94 416.571 295.036 413.324C295.677 411.41 296.042 409.414 296.121 407.396L295.23 407.908C297.881 408.932 300.614 410.662 303.562 409.956C304.952 409.549 306.268 408.923 307.462 408.102C309.148 407.025 310.678 405.719 312.006 404.222C313.553 402.506 314.88 400.604 315.957 398.56L315.067 399.072C316.124 399.682 316.976 400.595 317.513 401.693C317.831 402.262 318.282 402.745 318.827 403.102C319.373 403.459 319.996 403.678 320.645 403.741C320.921 403.741 321.249 403.208 321.525 403.229C320.878 403.167 320.255 402.948 319.711 402.591C319.167 402.234 318.718 401.75 318.403 401.181C317.862 400.086 317.011 399.175 315.957 398.56C315.636 398.684 315.336 398.857 315.067 399.072C313.438 402.247 311.174 405.053 308.414 407.314C307.141 408.439 305.595 409.209 303.93 409.546C302.765 409.71 301.578 409.587 300.471 409.188C298.987 408.696 297.574 407.99 296.121 407.406C295.807 407.544 295.508 407.716 295.23 407.918C294.954 414.062 292.047 420.062 286.653 423.277C284.933 424.256 283.072 424.964 281.136 425.376C281.044 425.376 280.256 425.888 280.256 425.888C281.372 428.089 283.449 429.984 283.572 432.615C283.675 434.827 282.303 436.711 280.778 438.185C279.091 439.677 277.298 441.046 275.415 442.281C275.026 442.557 274.637 442.844 274.258 443.141C274.076 443.267 273.905 443.407 273.746 443.561L273.552 443.735C273.552 443.796 273.992 443.96 274.064 444.001C275.102 444.6 276.088 445.285 277.011 446.049C278.772 447.482 280.471 449.336 280.154 451.772C279.857 454.035 278.107 455.868 276.704 457.547C275.916 458.448 275.118 459.329 274.391 460.281C274.217 460.506 274.043 460.732 273.89 460.967C273.736 461.203 273.685 461.141 273.89 461.315C273.978 461.378 274.075 461.43 274.176 461.469C274.682 461.741 275.158 462.063 275.599 462.431C277.101 463.705 278.123 465.453 278.495 467.387C279.396 471.851 277.554 476.807 274.596 480.145C274.811 479.899 275.261 479.869 275.476 479.633L275.425 479.541Z" fill="#010101"/>
<path d="M302.63 263.054L325.261 262.215C325.558 262.215 325.844 261.713 326.141 261.703L303.521 262.542C303.214 262.542 302.927 263.044 302.63 263.054Z" fill="#010101"/>
<path d="M372.927 262.235L401.586 259.849L402.467 259.337L397.421 259.808C397.103 259.808 396.837 260.29 396.53 260.32L401.586 259.849C401.893 259.849 402.16 259.358 402.467 259.337L373.807 261.723C373.5 261.723 373.224 262.215 372.917 262.235H372.927Z" fill="#010101"/>
<path d="M494.023 296.557C493.306 299.188 493.357 302.127 491.924 304.523C491.564 305.12 491.127 305.667 490.625 306.151C490.334 306.416 490.026 306.663 489.703 306.888C489.488 307.031 489.509 307.031 489.765 306.888L489.448 307.042L489.018 307.216C487.73 307.644 486.403 307.946 485.057 308.117C484.744 308.259 484.446 308.431 484.166 308.629C484.893 311.342 487.155 313.329 487.861 316.052C488.493 318.962 488.265 321.993 487.206 324.776C486.851 326.011 486.177 327.131 485.251 328.022C485.159 328.114 484.637 328.585 484.545 328.544C484.637 328.544 485.138 328.227 484.637 328.472L484.258 328.646L482.825 329.271C482.138 329.585 481.477 329.955 480.85 330.377C480.462 330.64 480.117 330.962 479.826 331.329C479.826 331.38 479.55 331.646 479.57 331.708C479.637 331.769 479.709 331.824 479.785 331.872C479.998 332.035 480.2 332.213 480.389 332.404C481.774 334.033 482.609 336.058 482.774 338.189C483.073 340.425 482.997 342.695 482.549 344.906C482.392 345.991 482.023 347.034 481.463 347.975C480.902 348.917 480.162 349.739 479.284 350.394C478.393 351.019 477.4 351.48 476.469 352.022C476.09 352.237 475.722 352.452 475.364 352.688C475.169 352.811 474.995 352.934 474.811 353.067L474.422 353.364C474.166 353.568 474.217 353.517 474.258 353.783C474.369 354.141 474.52 354.484 474.709 354.807C474.872 355.186 475.026 355.555 475.179 355.934C475.466 356.64 475.732 357.357 475.967 358.084C476.464 359.517 476.78 361.006 476.909 362.517C477.142 365.623 476.187 368.701 474.238 371.129C472.539 373.176 470.195 374.344 467.871 375.572C466.054 376.542 464.307 377.637 462.641 378.849C462.186 379.28 461.884 379.848 461.781 380.467C461.466 381.81 461.298 383.183 461.28 384.562C460.973 387.225 458.823 389.088 456.786 390.603C454.749 392.119 452.16 393.614 449.519 393.675C446.878 393.737 444.504 392.139 441.873 391.873C441.277 391.797 440.672 391.917 440.151 392.217C439.63 392.516 439.221 392.978 438.987 393.532C438.076 395.787 436.582 397.759 434.657 399.245C432.336 400.906 429.51 401.706 426.663 401.508C425.629 401.487 424.62 401.182 423.746 400.628C423.112 400.118 422.542 399.533 422.047 398.887C421.412 398.129 420.671 397.467 419.847 396.921C419.529 397.052 419.23 397.225 418.956 397.433C418.441 398.208 417.81 398.899 417.083 399.481C416.335 400.067 415.494 400.523 414.596 400.832C412.958 401.495 411.235 401.922 409.478 402.102C407.824 402.157 406.168 402.088 404.524 401.897C403.357 401.815 401.791 401.549 400.696 402.112C400.43 402.245 400.062 402.491 399.847 402.604C400.956 402.258 402.133 402.188 403.276 402.399C404.78 402.501 406.346 402.686 407.82 402.665C409.286 402.607 410.736 402.345 412.129 401.887C413.521 401.491 414.858 400.923 416.111 400.198C417.589 399.423 418.871 398.319 419.857 396.972L418.966 397.484C419.824 398.05 420.593 398.74 421.249 399.532C421.762 400.216 422.376 400.816 423.071 401.314C425.179 402.614 428.26 402.163 430.481 401.457C432.758 400.715 434.852 399.497 436.623 397.884C437.657 396.937 438.528 395.827 439.202 394.597C439.499 393.853 439.841 393.128 440.225 392.426C440.287 392.334 440.399 392.252 440.451 392.16C440.502 392.068 439.929 392.569 439.857 392.498L440.072 392.436C440.483 392.385 440.899 392.385 441.31 392.436C442.653 392.677 443.969 393.048 445.241 393.542C446.601 394.085 448.073 394.289 449.529 394.136C450.656 393.959 451.75 393.614 452.774 393.112C454.905 392.112 456.902 390.849 458.721 389.354C459.602 388.646 460.399 387.839 461.095 386.948C461.93 385.689 462.346 384.198 462.283 382.689C462.314 381.442 462.567 380.211 463.03 379.054C463.286 378.429 463.91 378.163 464.422 377.764C466.576 376.329 468.815 375.027 471.126 373.862C473.437 372.626 475.331 370.735 476.571 368.425C477.927 365.622 478.236 362.426 477.441 359.415C477.053 357.871 476.54 356.36 475.906 354.9C475.763 354.562 475.619 354.224 475.466 353.876C475.36 353.679 475.271 353.473 475.2 353.261C475.2 353.005 475.067 353.179 475.2 352.944C475.706 352.44 476.303 352.037 476.96 351.756C478.721 350.804 480.676 349.872 481.914 348.234C483.111 346.361 483.759 344.19 483.787 341.968C484.018 339.634 483.782 337.277 483.091 335.036C482.782 334.042 482.296 333.113 481.658 332.291C481.362 331.923 480.911 331.667 480.635 331.268C480.492 331.083 480.481 331.268 480.553 331.012C480.627 330.879 480.72 330.758 480.829 330.653C481.013 330.435 481.219 330.236 481.443 330.059L481.658 329.896C482.354 329.404 481.116 330.141 481.658 329.896L482.395 329.547C482.876 329.343 483.368 329.148 483.828 328.913C484.585 328.561 485.305 328.136 485.978 327.643C486.981 326.789 487.714 325.661 488.086 324.397C488.605 322.991 488.949 321.526 489.11 320.035C489.283 318.512 489.193 316.971 488.844 315.479C488.405 314.107 487.755 312.812 486.919 311.639C486.152 310.541 485.555 309.332 485.149 308.055L484.258 308.567C487.011 308.107 489.816 307.462 491.822 305.373C494.289 302.813 494.125 299.229 494.995 296.004C494.934 296.229 494.176 296.28 494.115 296.516L494.023 296.557Z" fill="#010101"/>
<path d="M357.595 283.082C357.39 282.253 357.011 281.034 356.09 280.768C355.6 280.722 355.107 280.79 354.649 280.968C354.19 281.145 353.78 281.428 353.449 281.792C352.709 282.748 352.345 283.943 352.426 285.15C352.41 286.58 352.585 288.006 352.948 289.389C352.948 289.645 353.009 289.901 353.05 290.147C353.214 291.214 353.539 292.249 354.012 293.219C354.125 293.454 354.493 294.325 354.739 294.325C354.984 294.325 355.22 294.069 355.353 293.997L355.599 293.813C355.556 293.777 355.518 293.735 355.486 293.69C355.353 293.854 355.199 293.987 355.056 294.14C354.913 294.294 355.128 293.618 355.373 293.536C355.281 293.393 355.189 293.25 355.107 293.106C355.312 293 355.507 292.877 355.691 292.738C356.112 292.18 356.415 291.543 356.581 290.864C356.43 291.839 356.081 292.772 355.558 293.608C355.598 293.666 355.626 293.733 355.64 293.802C356.37 293.268 356.9 292.504 357.144 291.632C357.584 290.249 357.832 288.812 357.881 287.362C357.995 285.929 357.898 284.487 357.595 283.082V283.082ZM355.087 288.888C355.087 289.052 355.087 289.215 355.015 289.369C354.851 288.66 354.728 287.942 354.647 287.219C354.56 286.416 354.56 285.605 354.647 284.802C354.675 284.495 354.74 284.193 354.841 283.901C355.02 285.557 355.102 287.222 355.087 288.888V288.888ZM354.575 281.085C354.636 281.085 354.688 281.014 354.575 281.085V281.085ZM353.603 282.693C353.72 282.212 353.944 281.765 354.258 281.382L354.319 281.311C354.493 281.263 354.671 281.235 354.851 281.229C355.711 281.229 356.192 282.079 356.469 282.795C356.571 283.065 356.653 283.343 356.714 283.625C356.607 283.454 356.454 283.316 356.274 283.226C356.093 283.136 355.892 283.097 355.691 283.113C355.629 282.713 355.568 282.324 355.486 281.925L355.087 282.161C354.851 282.263 354.585 282.376 354.596 282.437C354.647 282.652 354.667 282.877 354.708 283.092C354.562 283.173 354.425 283.269 354.299 283.379C354.207 283.524 354.125 283.674 354.053 283.83C354.053 283.83 353.971 283.881 353.951 283.922C353.717 284.341 353.529 284.784 353.388 285.243C353.325 284.387 353.398 283.526 353.603 282.693V282.693ZM354.831 291.662L355.066 291.54C355.087 291.593 355.104 291.648 355.118 291.703L355.486 291.488L355.67 291.407C355.582 291.739 355.469 292.064 355.332 292.379C355.14 292.159 354.972 291.919 354.831 291.662V291.662Z" fill="#010101"/>
<path d="M355.568 293.618C355.517 293.536 355.466 293.526 355.404 293.547L355.466 293.649C355.502 293.648 355.537 293.637 355.568 293.618V293.618Z" fill="#010101"/>
<path d="M381.105 280.44C381.177 280.614 381.228 280.788 381.29 280.962C382.866 281.679 382.856 284.096 382.815 285.57C382.725 287.204 382.433 288.821 381.945 290.383C381.759 291.307 381.26 292.139 380.532 292.738C380.329 292.872 380.117 292.992 379.897 293.096L379.775 293.178C379.578 293.274 379.358 293.313 379.14 293.29C379.045 293.306 378.948 293.306 378.853 293.29C377.584 293.26 377.441 291.202 377.38 290.311C377.27 288.389 377.439 286.461 377.881 284.587V284.485C377.91 283.852 378.02 283.226 378.209 282.621C378.262 282.535 378.346 282.473 378.444 282.447C378.671 281.743 379.098 281.121 379.672 280.655C379.958 280.458 380.26 280.283 380.573 280.133C380.645 280.074 380.729 280.032 380.819 280.01C381.013 280.01 381.034 280.266 381.105 280.44Z" fill="#010101"/>
<path d="M380.757 207.005C372.761 219.791 364.026 232.099 354.596 243.866C351.955 247.129 349.253 250.348 346.489 253.522L347.38 253.01C342.027 246.703 338.495 239.054 334.954 231.661C331.259 223.931 327.574 216.036 322.201 209.299C319.34 205.622 315.85 202.481 311.893 200.022L311.013 200.534C316.397 199.374 321.883 198.76 327.39 198.701C333.132 198.548 338.884 198.701 344.626 198.988C350.112 199.213 355.599 199.398 361.095 199.408C366.867 199.293 372.64 199.532 378.383 200.125C379.161 200.227 379.938 200.34 380.716 200.473L381.74 200.657C382.159 200.684 382.573 200.77 382.968 200.913C383.193 201.046 383.122 200.78 383.122 201.159C383.106 201.371 383.065 201.581 382.999 201.783C382.907 202.162 382.794 202.541 382.682 202.91C382.449 203.608 382.175 204.291 381.863 204.957C380.394 207.757 378.767 210.472 376.991 213.087C377.144 212.842 377.717 212.842 377.881 212.575C379.335 210.179 380.952 207.906 382.282 205.408C382.926 204.234 383.444 202.995 383.828 201.712C383.955 201.383 384.034 201.039 384.063 200.688C384.063 200.411 384.227 200.596 383.9 200.442C383.738 200.384 383.569 200.346 383.398 200.329C382.712 200.186 382.016 200.063 381.351 199.951C375.628 199.154 369.851 198.811 364.074 198.927C358.546 198.927 353.03 198.814 347.502 198.578C341.975 198.343 336.141 198.097 330.46 198.169C324.229 198.131 318.012 198.759 311.914 200.043C311.76 200.043 311.126 200.616 311.034 200.555C318.321 204.957 323.439 211.879 327.533 219.118C331.781 226.634 335.077 234.651 339.161 242.259C341.233 246.261 343.716 250.035 346.571 253.522C346.877 253.367 347.174 253.196 347.462 253.01C357.329 241.66 366.461 229.69 374.8 217.173C377.154 213.651 379.461 210.094 381.719 206.504C381.566 206.76 381.003 206.76 380.839 207.016L380.757 207.005Z" fill="#010101"/>
<path d="M378.516 44.5815C376.159 46.7772 374.29 49.4444 373.031 52.4098C371.772 55.3751 371.151 58.5723 371.208 61.7936C371.208 61.5171 371.791 61.2202 371.781 60.9437C371.684 58.1533 372.132 55.3708 373.101 52.7524C374.127 49.9679 375.789 47.4612 377.953 45.4314C378.198 45.2061 378.28 44.8068 378.516 44.5815V44.5815Z" fill="#010101"/>
<path d="M365.056 66.9845C362.744 62.1888 361.993 56.789 362.907 51.5439C363.358 48.9137 364.236 46.3751 365.507 44.0283C366.939 41.4898 368.847 39.251 371.126 37.4343C373.477 35.502 376.157 34.0105 379.038 33.0315C379.304 32.9496 379.355 32.2636 379.601 32.1816C374.157 34.0766 369.497 37.7292 366.356 42.5641C363.215 47.2113 361.686 52.7623 362.006 58.3632C362.207 61.6527 363.052 64.8706 364.493 67.8344C364.422 67.6808 365.138 67.1381 365.056 66.9743V66.9845Z" fill="#010101"/>
</g>
<defs>
<clipPath id="clip0_187_549">
<rect width="700" height="560" fill="white"/>
</clipPath>
</defs>
</svg>
