<svg width="620" height="560" viewBox="0 0 620 560" fill="none" xmlns="http://www.w3.org/2000/svg">
<g clip-path="url(#clip0_136_333)">
<path d="M188.581 20.1536C54.8555 76.7195 -3.65249 234.956 38.1969 365.239C73.8171 476.15 180.424 561.349 293.138 559.98C463.955 557.951 613.639 357.531 556.673 187.681C510.704 50.6223 338.041 -43.0762 188.581 20.1536Z" fill="white"/>
<path opacity="0.9" d="M188.581 20.1536C54.8555 76.7195 -3.65249 234.956 38.1969 365.239C73.8171 476.15 180.424 561.349 293.138 559.98C463.955 557.951 613.639 357.531 556.673 187.681C510.704 50.6223 338.041 -43.0762 188.581 20.1536Z" fill="currentColor"/>
<path d="M294.498 473.614C363.478 473.614 419.397 455.736 419.397 433.682C419.397 411.629 363.478 393.75 294.498 393.75C225.518 393.75 169.599 411.629 169.599 433.682C169.599 455.736 225.518 473.614 294.498 473.614Z" fill="currentColor"/>
<path opacity="0.16" d="M115.312 393.913C132.205 393.913 145.9 380.222 145.9 363.333C145.9 346.444 132.205 332.752 115.312 332.752C98.4184 332.752 84.7236 346.444 84.7236 363.333C84.7236 380.222 98.4184 393.913 115.312 393.913Z" fill="currentColor"/>
<path opacity="0.2" d="M388.524 134.716C409.508 134.716 426.519 117.709 426.519 96.7311C426.519 75.7528 409.508 58.7466 388.524 58.7466C367.541 58.7466 350.53 75.7528 350.53 96.7311C350.53 117.709 367.541 134.716 388.524 134.716Z" fill="white"/>
<g opacity="0.9">
<path opacity="0.9" d="M614.988 271.835C614.988 271.835 622.09 266.328 619.391 257.544C619.391 257.544 613.608 258.558 612.482 260.282C612.482 260.282 614.207 268.529 604.833 274.148C604.833 274.148 612.299 273.61 614.988 271.835Z" fill="currentColor"/>
<g opacity="0.3">
<path opacity="0.3" d="M588.702 278.62C588.702 278.62 600.988 283.864 614.988 271.835C614.988 271.835 601.343 276.308 595.134 270.537C595.134 270.537 589.706 273.508 588.702 278.62Z" fill="currentColor"/>
</g>
</g>
<path d="M166.2 72.47C166.2 72.47 171.73 62.7634 164.466 53.9189C164.466 53.9189 158.267 57.8036 157.81 60.3596C157.81 60.3596 163.725 69.0417 155.599 79.9756C155.599 79.9553 163.948 75.7765 166.2 72.47Z" fill="white"/>
<g opacity="0.3">
<path opacity="0.3" d="M139.143 92.7552C139.143 92.7552 155.801 92.9479 166.2 72.4697C166.2 72.4697 152.606 84.1237 142.714 80.4318C142.755 80.4115 137.865 86.416 139.143 92.7552Z" fill="white"/>
</g>
<path d="M98.2575 48.9186C98.2575 48.9186 96.3806 51.0587 96.8777 56.1402C97.9195 56.9216 99.0857 57.5217 100.327 57.9152C101.656 58.1282 103.898 58.4325 104 57.6616C104.103 55.7544 104.468 53.8705 105.085 52.0628C105.978 49.9126 103.361 50.8964 101.758 49.6184C100.155 48.3404 98.917 47.7623 98.2575 48.9186Z" fill="currentColor"/>
<path d="M443.847 358.555C443.847 358.555 445.136 360.27 448.92 360.685C449.655 360.037 450.276 359.269 450.756 358.413C451.121 357.47 451.689 355.857 451.142 355.665C449.749 355.3 448.414 354.744 447.175 354.011C445.724 352.997 446.049 355.097 444.862 356.04C443.675 356.983 443.056 357.896 443.847 358.555Z" fill="white"/>
<path d="M372.515 110.637C372.515 110.637 374.392 113.152 380.023 113.761C381.1 112.808 382.011 111.684 382.721 110.434C383.259 109.045 384.091 106.671 383.279 106.377C381.233 105.843 379.273 105.024 377.456 103.943C375.325 102.492 375.802 105.545 374.057 106.986C372.312 108.426 371.409 109.663 372.515 110.637Z" fill="white"/>
<path d="M335.302 65.2078C335.302 65.2078 338.407 65.7251 342.901 62.2867C343.023 60.8501 342.903 59.4032 342.546 58.0065C341.978 56.6372 340.953 54.345 340.172 54.6999C338.321 55.7267 336.332 56.4848 334.267 56.9516C331.721 57.3675 334.186 59.254 333.912 61.4956C333.638 63.7371 333.831 65.2585 335.302 65.2078Z" fill="white"/>
<path d="M82.0149 82.5214C82.0149 82.5214 83.5367 84.9151 88.5687 85.8584C89.6094 85.0812 90.5086 84.1308 91.2268 83.0488C91.8153 81.8317 92.7283 79.7626 92.0283 79.4482C90.2245 78.819 88.5172 77.9417 86.9556 76.8415C85.1396 75.3809 85.3527 78.1702 83.6787 79.3467C82.0047 80.5233 81.0917 81.5984 82.0149 82.5214Z" fill="currentColor"/>
<path d="M351.383 143.905C351.383 143.905 354.477 144.422 358.982 140.984C359.104 139.551 358.984 138.107 358.626 136.714C358.058 135.334 357.034 133.042 356.242 133.397C354.394 134.423 352.409 135.181 350.348 135.649C347.801 136.075 350.257 137.951 349.993 140.203C349.729 142.455 349.902 143.956 351.383 143.905Z" fill="white"/>
<path d="M115.687 147.404C115.687 147.404 117.29 150.001 122.677 151.096C123.803 150.27 124.784 149.262 125.579 148.114C126.228 146.816 127.243 144.605 126.492 144.26C124.559 143.561 122.735 142.591 121.074 141.379C119.147 139.787 119.329 142.779 117.513 144.016C115.697 145.254 114.713 146.359 115.687 147.404Z" fill="white"/>
<path d="M72.316 344.153C72.316 344.153 80.4322 347.977 87.0571 341.607C87.0571 341.607 83.5671 336.891 81.4874 336.688C81.4874 336.688 74.9132 341.962 65.6607 336.14C65.6505 336.181 69.5159 342.56 72.316 344.153Z" fill="white"/>
<g opacity="0.3">
<path opacity="0.3" d="M54.3584 323.786C54.3584 323.786 55.2512 337.124 72.3156 344.153C72.3156 344.153 62.1703 334.01 64.4834 325.896C64.4834 325.865 59.3803 322.366 54.3584 323.786Z" fill="white"/>
</g>
<path d="M149.319 145.872C149.798 147.39 150.71 148.735 151.942 149.742C153.175 150.75 154.675 151.375 156.258 151.542C156.258 151.542 157.029 148.114 156.258 147.09C156.258 147.09 151.287 146.187 150.293 139.716C150.333 139.716 148.943 143.976 149.319 145.872Z" fill="white"/>
<g opacity="0.3">
<path opacity="0.3" d="M151.49 129.746C151.49 129.746 145.809 135.385 149.319 145.873C149.319 145.873 149.917 137.292 154.523 135.152C154.523 135.152 154.107 131.46 151.49 129.746Z" fill="white"/>
</g>
<path d="M1.59296 208.514C1.59296 208.514 3.83507 208.89 7.09171 206.394C7.17236 205.358 7.0763 204.315 6.80765 203.311C6.40183 202.297 5.65108 200.654 5.08295 200.917C3.74223 201.658 2.30461 202.208 0.811765 202.55C-1.03468 202.855 0.740753 204.214 0.547992 205.847C0.355231 207.48 0.517555 208.555 1.59296 208.514Z" fill="currentColor"/>
<path d="M423.78 127.372C423.78 127.372 412.62 124.624 411.139 112.929C411.139 112.929 418.423 111.042 420.665 112.523C420.665 112.523 422.968 123.092 436.898 124.755C436.898 124.755 427.838 128.042 423.78 127.372Z" fill="white"/>
<g opacity="0.3">
<path opacity="0.3" d="M458.142 121.56C458.142 121.56 446.485 134.137 423.78 127.372C423.78 127.372 442.123 125.465 446.363 115.455C446.363 115.455 454.287 116.083 458.142 121.56Z" fill="white"/>
</g>
<path d="M561.461 91.3353C561.461 91.3353 563.49 93.3639 563.348 98.6685C562.331 99.5322 561.175 100.218 559.93 100.697C558.58 101.011 556.287 101.478 556.135 100.697C555.905 98.7414 555.407 96.8267 554.654 95.007C553.639 92.8567 556.338 93.6986 557.9 92.2786C559.463 90.8586 560.741 90.1892 561.461 91.3353Z" fill="currentColor"/>
<path d="M580.383 124.776C580.383 124.776 578.983 127.332 573.88 128.65C572.76 127.915 571.772 126.996 570.958 125.932C570.268 124.725 569.193 122.656 569.893 122.291C571.72 121.524 573.428 120.499 574.965 119.248C576.741 117.635 576.7 120.506 578.506 121.601C580.312 122.696 581.265 123.721 580.383 124.776Z" fill="currentColor"/>
<path d="M515.585 142.718C515.585 142.718 516.396 145.761 513.393 150.559C511.979 150.816 510.532 150.837 509.112 150.62C507.681 150.183 505.307 149.372 505.581 148.591C506.43 146.653 506.997 144.604 507.265 142.505C507.448 139.929 509.548 142.191 511.76 141.714C513.971 141.238 515.493 141.248 515.585 142.718Z" fill="white"/>
<path d="M490.617 166.797C491.411 168.23 491.77 169.864 491.649 171.498C491.529 173.132 490.934 174.696 489.937 175.997C489.937 175.997 486.833 174.141 486.579 172.873C486.579 172.873 489.43 168.521 485.291 163.186C485.291 163.156 489.47 165.144 490.617 166.797Z" fill="white"/>
<g opacity="0.3">
<path opacity="0.3" d="M477.033 156.969C477.033 156.969 485.271 156.715 490.617 166.767C490.617 166.767 483.769 161.138 478.909 163.054C478.909 163.054 476.454 160.133 477.033 156.969Z" fill="white"/>
</g>
<path d="M519.663 78.7888C519.663 78.7888 528.57 86.0814 538.807 80.2291C538.807 80.2291 535.936 73.2712 533.41 72.3685C533.41 72.3685 523.579 76.8718 513.88 66.7393C513.88 66.7393 516.68 75.9286 519.663 78.7888Z" fill="currentColor"/>
<g opacity="0.3">
<path opacity="0.3" d="M503.674 47.8332C503.674 47.8332 500.63 64.7005 519.663 78.7888C519.663 78.7888 510.177 62.9864 515.605 53.5841C515.625 53.5841 510.37 47.6303 503.674 47.8332Z" fill="currentColor"/>
</g>
<path d="M514.438 7.01867C514.438 7.01867 513.88 10.1122 517.279 14.6359C518.709 14.7786 520.154 14.6757 521.55 14.3316C522.94 13.7839 525.232 12.7696 524.888 11.9886C523.886 10.1287 523.149 8.13854 522.696 6.0754C522.301 3.51943 520.393 5.95368 518.151 5.66969C515.909 5.38569 514.397 5.52769 514.438 7.01867Z" fill="currentColor"/>
<path d="M319.09 36.7169C319.09 36.7169 320.44 38.7454 324.792 39.4858C325.674 38.7782 326.432 37.928 327.034 36.9704C327.521 35.9561 328.272 34.1102 327.653 33.8566C326.088 33.3467 324.602 32.6194 323.24 31.6962C321.647 30.4689 321.88 32.8728 320.46 33.9175C319.04 34.9622 318.269 35.9561 319.09 36.7169Z" fill="white"/>
<path d="M109.427 290.569C130.809 290.569 148.142 273.24 148.142 251.864C148.142 230.488 130.809 213.16 109.427 213.16C88.046 213.16 70.7129 230.488 70.7129 251.864C70.7129 273.24 88.046 290.569 109.427 290.569Z" fill="currentColor"/>
<path d="M105.146 250.525C113.618 250.525 120.486 243.659 120.486 235.189C120.486 226.72 113.618 219.854 105.146 219.854C96.674 219.854 89.8062 226.72 89.8062 235.189C89.8062 243.659 96.674 250.525 105.146 250.525Z" fill="white"/>
<path d="M92.6875 205.167C85.0916 206.99 78.2069 211.023 72.904 216.757C67.6011 222.492 64.1181 229.669 62.8955 237.382C61.6729 245.096 62.7656 252.998 66.0354 260.091C69.3052 267.183 74.6052 273.147 81.2653 277.228C87.9254 281.309 95.6464 283.324 103.452 283.018C111.257 282.712 118.797 280.099 125.117 275.509C131.437 270.919 136.254 264.559 138.958 257.232C141.662 249.905 142.133 241.942 140.31 234.348C137.848 224.175 131.454 215.392 122.528 209.922C113.602 204.453 102.872 202.743 92.6875 205.167V205.167ZM123.194 271.389L122.86 270.72L122.525 270.05C121.639 268.562 120.62 267.156 119.481 265.851C116.093 262.137 111.986 259.149 107.408 257.067C106.658 256.682 105.765 256.226 104.517 255.708C99.7478 253.753 94.6728 252.647 89.5221 252.442C84.9012 252.137 80.2602 252.431 75.7144 253.315C73.3691 253.774 71.0575 254.391 68.7953 255.161C68.4097 254.055 68.0749 252.909 67.7807 251.743C66.3059 245.604 66.5163 239.181 68.3898 233.151C70.2632 227.122 73.7303 221.711 78.4248 217.488C83.1193 213.265 88.8672 210.388 95.0617 209.16C101.256 207.932 107.667 208.399 113.618 210.511C119.569 212.624 124.839 216.303 128.872 221.162C132.905 226.02 135.551 231.877 136.531 238.114C137.511 244.351 136.788 250.737 134.439 256.597C132.089 262.457 128.201 267.575 123.184 271.409L123.194 271.389Z" fill="white"/>
<path d="M478.128 298.084C497.694 298.084 513.556 282.227 513.556 262.666C513.556 243.105 497.694 227.248 478.128 227.248C458.562 227.248 442.701 243.105 442.701 262.666C442.701 282.227 458.562 298.084 478.128 298.084Z" fill="currentColor"/>
<path d="M474.888 241.884L456.286 251.475C455.504 251.878 455.197 252.838 455.6 253.62L455.605 253.629C456.008 254.411 456.969 254.717 457.751 254.314L476.352 244.724C477.134 244.321 477.441 243.36 477.038 242.579L477.033 242.57C476.63 241.788 475.67 241.481 474.888 241.884Z" fill="white"/>
<path d="M451.01 258.132C452.164 258.132 453.1 257.197 453.1 256.043C453.1 254.889 452.164 253.954 451.01 253.954C449.856 253.954 448.92 254.889 448.92 256.043C448.92 257.197 449.856 258.132 451.01 258.132Z" fill="white"/>
<path d="M479.356 250.55L460.755 260.14C459.973 260.543 459.666 261.504 460.069 262.285L460.074 262.294C460.477 263.076 461.437 263.383 462.219 262.98L480.821 253.389C481.603 252.986 481.91 252.026 481.507 251.244L481.502 251.235C481.099 250.454 480.138 250.147 479.356 250.55Z" fill="white"/>
<path d="M455.474 266.784C456.628 266.784 457.564 265.849 457.564 264.695C457.564 263.541 456.628 262.605 455.474 262.605C454.319 262.605 453.384 263.541 453.384 264.695C453.384 265.849 454.319 266.784 455.474 266.784Z" fill="white"/>
<path d="M483.81 259.196L465.209 268.786C464.427 269.189 464.12 270.15 464.523 270.931L464.528 270.94C464.931 271.722 465.891 272.029 466.673 271.626L485.275 262.035C486.057 261.632 486.364 260.672 485.961 259.89L485.956 259.881C485.553 259.1 484.592 258.793 483.81 259.196Z" fill="white"/>
<path d="M459.938 275.446C461.092 275.446 462.028 274.51 462.028 273.356C462.028 272.203 461.092 271.267 459.938 271.267C458.783 271.267 457.848 272.203 457.848 273.356C457.848 274.51 458.783 275.446 459.938 275.446Z" fill="white"/>
<path d="M467.891 226.335C475.118 226.298 482.144 228.709 487.824 233.177C493.503 237.644 497.501 243.904 499.165 250.934C500.83 257.965 500.062 265.352 496.988 271.89C493.913 278.429 488.714 283.733 482.237 286.938C477.597 289.341 472.448 290.596 467.222 290.599C460 290.629 452.98 288.214 447.306 283.746C441.632 279.279 437.637 273.023 435.973 265.997C434.308 258.971 435.072 251.588 438.14 245.051C441.207 238.514 446.398 233.208 452.866 229.997C457.51 227.594 462.662 226.338 467.891 226.335ZM467.891 222.278C462.018 222.29 456.232 223.698 451.01 226.386C433.103 235.616 425.951 257.524 435.071 275.203C438.115 281.094 442.729 286.028 448.403 289.462C454.077 292.895 460.59 294.693 467.222 294.656C474.979 294.638 482.533 292.179 488.814 287.628C495.094 283.076 499.782 276.664 502.213 269.3C503.991 263.894 504.456 258.143 503.57 252.523C502.685 246.902 500.474 241.572 497.12 236.975C493.767 232.378 489.367 228.644 484.284 226.083C479.202 223.522 473.583 222.207 467.891 222.247V222.278Z" fill="white"/>
<path d="M253.724 80.1999L209.961 97.5666C205.248 99.4369 202.944 104.773 204.815 109.485L222.186 153.236C224.057 157.948 229.394 160.252 234.107 158.381L277.87 141.015C282.583 139.144 284.887 133.809 283.016 129.097L265.645 85.345C263.774 80.6331 258.437 78.3296 253.724 80.1999Z" fill="currentColor"/>
<path d="M204.377 112.584C204.909 112.092 205.529 111.703 206.204 111.438L251.076 93.6276C252.548 93.0454 254.191 93.0708 255.644 93.6983C257.097 94.3259 258.242 95.5042 258.827 96.9747L276.673 141.836C277.121 142.961 277.217 144.197 276.947 145.378C276.677 146.559 276.054 147.63 275.161 148.449C274.625 148.933 274.006 149.318 273.335 149.585L228.452 167.396C227.724 167.686 226.946 167.829 226.162 167.819C225.379 167.808 224.605 167.643 223.885 167.333C223.165 167.023 222.514 166.574 221.967 166.012C221.421 165.451 220.991 164.787 220.701 164.059L202.886 119.187C202.44 118.062 202.346 116.828 202.618 115.649C202.89 114.469 203.514 113.401 204.408 112.584H204.377ZM201.669 109.542C200.174 110.918 199.13 112.714 198.673 114.694C198.217 116.674 198.37 118.746 199.112 120.638L216.937 165.499C217.92 167.968 219.842 169.947 222.283 171C224.723 172.054 227.482 172.096 229.954 171.118L274.826 153.307C275.947 152.855 276.978 152.206 277.87 151.39C279.364 150.013 280.407 148.217 280.862 146.237C281.316 144.256 281.161 142.185 280.416 140.294L262.601 95.4229C261.617 92.9553 259.694 90.9784 257.254 89.9252C254.814 88.8721 252.057 88.8284 249.585 89.8038L204.702 107.625C203.578 108.071 202.546 108.721 201.658 109.542H201.669Z" fill="white"/>
<path d="M252.547 123.295L227.052 119.563C226.654 119.504 226.247 119.551 225.873 119.699C225.498 119.848 225.17 120.092 224.92 120.408C224.67 120.723 224.508 121.099 224.449 121.497C224.391 121.896 224.438 122.302 224.587 122.676L234.062 146.613C234.213 146.987 234.458 147.314 234.774 147.563C235.09 147.812 235.466 147.974 235.865 148.033C236.263 148.091 236.669 148.044 237.044 147.897C237.418 147.749 237.748 147.506 237.999 147.191L253.978 126.987C254.227 126.674 254.391 126.301 254.451 125.905C254.512 125.509 254.467 125.104 254.323 124.731C254.178 124.357 253.938 124.028 253.626 123.776C253.315 123.524 252.943 123.358 252.547 123.295V123.295Z" fill="white"/>
<path d="M284.921 385.058C284.581 388.9 283.55 392.649 281.877 396.124C279.716 401.094 275.658 405.516 271.773 409.208C267.37 413.407 261.627 416.967 259.081 422.668C259.201 422.815 259.28 422.992 259.31 423.18C259.34 423.368 259.32 423.56 259.252 423.738C259.184 423.916 259.071 424.072 258.923 424.193C258.776 424.313 258.599 424.392 258.411 424.422C257.324 424.721 256.295 425.201 255.368 425.842C254.339 426.471 253.199 426.894 252.01 427.09C249.504 427.331 246.986 426.785 244.806 425.528C244.681 425.463 244.57 425.374 244.482 425.264C243.779 425.455 243.146 425.842 242.656 426.38C242.743 426.481 242.803 426.604 242.83 426.735C242.857 426.867 242.849 427.003 242.808 427.13C242.716 427.452 242.58 427.76 242.402 428.043C242.319 428.284 242.158 428.491 241.945 428.632V428.632C242.033 428.771 242.085 428.93 242.098 429.094C242.11 429.259 242.082 429.424 242.016 429.575C240.566 432.668 237.106 433.825 233.9 434.129C231.093 434.399 228.261 434.102 225.571 433.257C224.312 432.772 223.001 432.431 221.665 432.242C220.816 432.513 220.002 432.884 219.24 433.348C218.5 433.854 217.857 434.489 217.343 435.224C216.872 435.941 216.32 436.601 215.7 437.192C215.071 437.697 214.303 437.998 213.498 438.054C211.25 438.987 208.764 439.185 206.396 438.622C202.833 438.13 199.479 436.647 196.718 434.342C196.579 434.21 196.48 434.041 196.434 433.855C194.771 433.943 193.142 434.364 191.645 435.092C191.27 435.468 190.925 435.894 190.57 436.299C190.084 436.859 189.495 437.321 188.835 437.659C187.1 438.541 185.061 438.44 183.184 438.49C182.945 438.513 182.705 438.45 182.509 438.312C182.312 438.175 182.17 437.972 182.108 437.74C176.884 436.675 173.495 431.908 170.553 427.769C169.365 427.788 168.186 427.571 167.083 427.13C165.542 426.583 163.909 426.338 162.274 426.41C159.52 426.297 156.793 425.83 154.158 425.021C149.572 423.875 145.585 421.745 143.648 417.221C142.808 415.091 142.265 412.856 142.034 410.578C141.69 408.093 141.74 405.384 140.482 403.143C139.346 401.114 137.52 399.552 136.343 397.534C135.164 395.49 134.532 393.177 134.507 390.818C134.482 388.459 135.065 386.133 136.201 384.064C137.276 382.107 138.778 380.312 139.397 378.131C139.432 377.99 139.498 377.858 139.589 377.744C139.68 377.63 139.794 377.537 139.924 377.472C140.066 376.234 140.442 374.987 140.016 373.81C139.361 372.383 138.871 370.886 138.555 369.347C138.129 366.152 137.895 362.917 139.072 359.854C140.168 357.024 142.116 354.64 143.962 352.247C146.133 349.376 148.02 346.435 150.77 344.051C151.419 343.483 152.251 344.051 152.393 344.772C153.245 348.697 151.855 352.784 151.378 356.669C150.749 361.74 151.277 366.883 151.52 371.984C151.521 374.238 151.711 376.487 152.088 378.709C152.607 380.94 153.386 383.102 154.412 385.15C156.435 389.204 159.009 392.958 162.061 396.307C162.127 396.389 162.179 396.481 162.213 396.581C162.396 396.535 162.588 396.542 162.767 396.599C162.946 396.656 163.106 396.762 163.228 396.905C164.73 398.548 165.764 400.445 167.408 401.976C168.899 403.344 170.46 404.634 172.085 405.841C175.138 408.156 178.379 410.212 181.774 411.987C185.24 413.834 188.965 415.15 192.822 415.892C196.897 416.504 201.02 416.742 205.138 416.602C212.686 416.521 220.245 415.913 227.783 415.497C235.321 415.081 241.469 410.973 247.566 406.946C250.731 404.857 253.826 402.697 256.94 400.546C260.055 398.396 262.875 396.428 265.198 393.517C266.325 392.108 267.359 390.606 268.597 389.288C269.835 387.969 270.89 386.986 272.067 385.88C274.096 383.953 276.287 381.6 278.783 380.261C279.508 379.774 280.37 379.534 281.241 379.576C282.113 379.618 282.948 379.94 283.622 380.494C284.86 381.681 284.992 383.517 284.921 385.058Z" fill="white"/>
<path d="M310.152 322.539C308.032 322.782 305.911 323.086 303.801 323.421C298.789 326.038 292.58 326.302 287.082 326.271C285.783 326.271 284.484 326.21 283.186 326.149C281.887 326.089 280.477 326.251 279.128 326.251C268.506 326.251 257.823 325.561 247.251 326.322C246.125 326.403 245.638 324.709 246.774 324.344C248.682 323.735 250.609 323.208 252.537 322.711C252.498 322.571 252.49 322.423 252.513 322.279C252.536 322.136 252.589 321.998 252.67 321.877C252.751 321.756 252.857 321.653 252.981 321.577C253.105 321.5 253.244 321.451 253.389 321.433C255.995 321.041 258.627 320.851 261.262 320.865C263.159 320.541 265.056 320.246 266.974 320.013C291.596 316.97 316.473 320.419 341.146 317.985C341.415 317.958 341.684 318.039 341.893 318.21C342.102 318.381 342.235 318.628 342.262 318.897C342.289 319.166 342.208 319.435 342.037 319.644C341.865 319.854 341.618 319.986 341.349 320.013C334.768 320.689 328.173 321.274 321.566 321.768C317.802 322.072 313.997 322.305 310.152 322.539Z" fill="white"/>
<path d="M445.176 342.418C443.147 346.374 436.877 349.062 433.133 345.968L433.032 345.847C430.871 346.303 429.38 348.25 427.675 349.569C426.818 350.267 425.817 350.766 424.743 351.03C424.182 351.143 423.608 351.17 423.039 351.111C422.552 351.05 422.024 350.675 421.547 350.675C420.34 350.675 419.072 352.926 418.504 353.839C417.613 355.339 416.566 356.739 415.379 358.018C414.943 358.434 414.496 358.85 414.02 359.235C414.051 359.371 414.047 359.513 414.006 359.647C413.965 359.78 413.889 359.901 413.786 359.996C413.252 360.503 412.608 360.881 411.904 361.099C411.201 361.317 410.456 361.37 409.728 361.253C408.911 361.309 408.093 361.152 407.354 360.797C407.201 360.726 407.072 360.613 406.979 360.472C406.77 360.519 406.563 360.577 406.36 360.645C405.786 360.863 405.311 361.281 405.021 361.821C405.289 361.92 405.509 362.119 405.634 362.376C405.758 362.633 405.779 362.929 405.69 363.201C404.617 366.074 403.056 368.74 401.074 371.082C399.268 373.323 396.509 374.317 393.77 374.855C393.666 374.875 393.559 374.875 393.455 374.855C393.252 375.201 393.095 375.573 392.988 375.96C392.745 376.975 392.988 377.918 392.684 378.902C392.153 380.451 391.222 381.833 389.985 382.908C389.803 383.081 389.61 383.223 389.417 383.385C389.371 383.456 389.317 383.52 389.255 383.578C387.733 384.876 386.12 386.052 384.517 387.239C384.454 387.399 384.349 387.54 384.213 387.645C383.726 388.017 383.214 388.356 382.681 388.659C382.265 388.973 381.849 389.278 381.443 389.602C381.342 389.684 381.224 389.742 381.098 389.773C380.972 389.805 380.84 389.809 380.713 389.785C380.103 390.319 379.603 390.966 379.242 391.692C378.678 393.103 377.856 394.397 376.817 395.505C376.754 395.726 376.608 395.915 376.411 396.033C373.124 398.061 369.796 399.248 366.093 398.731C365.547 398.665 365.007 398.553 364.48 398.396C364.286 398.333 364.114 398.217 363.983 398.061C362.673 398.418 361.434 398.998 360.321 399.776C358.91 400.617 357.662 401.692 356.262 402.534C355.67 402.924 354.995 403.171 354.291 403.256C353.586 403.34 352.872 403.26 352.204 403.021C350.713 402.413 349.729 401.124 347.953 401.378C346.831 401.593 345.756 402.005 344.778 402.595C344.806 402.861 344.729 403.128 344.561 403.337C344.394 403.546 344.151 403.68 343.885 403.711H343.672C343.614 403.878 343.508 404.024 343.367 404.13C343.226 404.237 343.057 404.299 342.881 404.309C342.717 404.332 342.551 404.31 342.399 404.246C342.247 404.181 342.116 404.077 342.018 403.944C341.192 404.247 340.306 404.352 339.431 404.248C339.013 404.201 338.61 404.064 338.249 403.847C337.889 403.63 337.579 403.338 337.341 402.991C337.226 402.956 337.119 402.897 337.027 402.818C335.109 401.236 334.288 398.325 334.064 395.921C333.993 395.171 333.953 394.41 333.912 393.659C333.346 392.164 332.951 390.609 332.735 389.024C332.723 388.804 332.783 388.586 332.906 388.403C333.028 388.22 333.207 388.082 333.415 388.01C333.182 387.239 333.882 386.265 334.765 386.752C340.347 389.836 346.556 391.619 352.925 391.966C355.754 392.082 358.586 391.868 361.366 391.327C362.344 390.788 363.361 390.323 364.409 389.937C366.114 389.207 367.737 388.193 369.37 387.31C370.378 386.762 371.372 386.174 372.353 385.545C372.635 385.129 372.977 384.757 373.367 384.44C374.382 383.182 375.396 381.843 376.888 381.336C377.436 380.629 378.022 379.952 378.643 379.307C378.969 378.76 379.335 378.238 379.739 377.746C380.621 376.731 381.768 375.869 382.691 374.906C383.32 373.962 383.898 372.978 384.497 372.025C385.404 370.608 386.404 369.253 387.49 367.968C387.764 367.633 388.078 367.319 388.362 366.954C388.311 366.807 388.293 366.651 388.311 366.497C388.526 365.42 389.12 364.455 389.985 363.779C390.574 362.765 391.132 361.75 391.812 360.736C393.12 359.018 394.659 357.488 396.387 356.192C399.289 353.839 402.15 351.516 405.163 349.437C406.798 348.223 408.52 347.131 410.317 346.171C414.108 344.053 418.106 342.327 422.247 341.019C426.029 339.845 429.965 339.24 433.925 339.223C435.142 339.223 436.38 339.284 437.607 339.386C438.084 339.335 438.551 339.254 439.028 339.213C439.215 339.185 439.407 339.216 439.576 339.301C439.745 339.387 439.883 339.523 439.971 339.69C441.512 339.933 443.02 340.351 444.466 340.938C444.522 340.971 444.576 341.009 444.628 341.049C444.765 341.088 444.891 341.158 444.997 341.254C445.102 341.349 445.185 341.467 445.237 341.6C445.29 341.732 445.312 341.874 445.302 342.016C445.291 342.158 445.248 342.296 445.176 342.418V342.418Z" fill="white"/>
<path d="M246.095 324.577C239.389 328.573 240.677 340.237 242.95 346.465C246.399 355.969 251.725 355.127 259.689 358.951C258.736 363.586 261.85 367.065 258.989 371.649C257.031 374.794 246.166 377.887 242.757 379.662C229.203 386.671 216.379 396.164 200.278 396.347C177.634 396.601 159.849 373.293 159.048 352.459C158.608 343.641 159.532 334.808 161.787 326.271C157.201 335.612 150.719 344.467 147.239 354.143C139.64 375.21 138.991 394.897 157.536 409.979C181.134 429.199 209.714 428.479 236.71 417.322C247.342 412.963 257.079 406.681 265.432 398.791C270.149 394.187 273.284 387.746 278.976 384.683C279.534 391.834 271.113 399.025 267.024 404.573C258.086 416.744 259.273 425.923 259.375 440.377C259.456 452.01 253.927 461.443 243.68 467.944C238.222 471.403 223.602 478.402 217.982 474.973C221.208 501.091 260.237 481.272 269.865 469.628C286.574 449.454 273.578 402.514 305.191 394.856C304.177 404.634 300.037 412.454 305.029 422.394C309.087 430.508 320.744 438.733 330.037 439.707C339.33 440.681 401.399 413.093 398.639 441.928C404.148 434.271 402.089 420.213 393.8 415.821C386.516 411.977 375.914 415.709 368.376 416.146C345.985 417.454 331.407 408.539 333.365 384.845C353.706 397.595 370.466 392.209 384.994 371.081C395.028 356.476 407.02 344.203 424.622 339.832C435.193 337.215 441.757 341.627 451.415 341.475C447.266 330.419 426.701 330.693 417.256 331.738C402.19 333.411 388.951 342.327 378.704 353.038C369.573 362.521 364.693 368.333 351.109 368.465C344.433 368.526 333.233 368.029 333.344 358.971C353.909 354.833 345.935 329.963 350.967 317" fill="white"/>
<path d="M245.76 324.699C240.687 327.874 240.221 334.608 240.911 340.004C241.601 345.4 243.548 351.81 248.641 354.772C251.107 356.001 253.66 357.045 256.281 357.896C257.011 358.18 257.742 358.484 258.462 358.819L258.848 358.992C259.274 359.042 259.375 359.265 259.142 359.661C259.138 360.139 259.104 360.617 259.04 361.091C259.04 362.886 259.537 364.621 259.71 366.396C259.992 368.367 259.533 370.373 258.421 372.025C257.355 373.221 256.025 374.152 254.536 374.743C251.584 376.173 248.449 377.228 245.405 378.445C238.953 381.001 233.078 385.018 226.961 388.243C219.098 392.391 210.728 395.769 201.719 396.094C187.516 396.611 175.027 387.837 167.499 376.275C163.342 369.99 160.684 362.834 159.728 355.36C159.27 350.724 159.243 346.055 159.647 341.414C159.986 336.215 160.849 331.063 162.224 326.038C162.224 326.17 161.422 326.261 161.311 326.484C157.486 334.213 152.575 341.353 148.913 349.173C145.722 356.041 143.529 363.33 142.4 370.818C141.291 377.309 141.6 383.962 143.303 390.322C145.291 396.921 148.999 402.872 154.047 407.565C165.341 418.12 179.975 424.389 195.409 425.284C210.353 426.207 225.398 422.475 238.973 416.409C246.803 412.96 254.144 408.492 260.806 403.123C264.136 400.445 267.164 397.411 269.835 394.075C272.594 390.596 275.263 386.843 279.219 384.632L278.519 384.926C278.753 389.105 276.338 392.828 273.873 396.002C271.407 399.177 268.486 402.088 266.112 405.435C261.523 411.93 258.998 419.656 258.868 427.607C258.574 435.782 259.882 444.17 256.971 452.01C254.12 459.638 248.144 465.49 241.124 469.395C237.237 471.6 233.112 473.356 228.828 474.629C225.662 475.531 221.493 476.525 218.439 474.771C218.1 474.83 217.784 474.981 217.526 475.207C220.468 497.744 249.108 485.147 260.532 477.651C263.904 475.549 266.994 473.023 269.723 470.135C272.567 466.798 274.728 462.935 276.084 458.765C279.554 448.988 280.416 438.48 282.222 428.337C283.906 418.854 286.28 408.376 293.382 401.348C295.259 399.472 297.445 397.935 299.845 396.804C300.555 396.479 301.275 396.195 302.006 395.941C302.692 395.612 303.424 395.386 304.177 395.272C304.836 395.272 304.643 395.515 304.643 396.175C304.613 396.611 304.552 397.045 304.461 397.473C304.288 398.579 304.085 399.674 303.872 400.78C303.122 404.634 302.188 408.498 302.188 412.444C302.17 416.519 303.268 420.521 305.364 424.017C308.986 430.011 315.124 434.707 321.434 437.577C325.066 439.231 328.881 440.397 332.858 439.687C340.264 438.379 347.477 435.833 354.731 433.896C363.557 431.522 372.688 429.189 381.87 429.007C388.048 428.885 396.073 430.021 397.919 437.04C398.315 438.724 398.418 440.463 398.224 442.182C398.224 442.182 399.035 441.888 399.127 441.756C403.185 435.985 403.185 427.627 399.898 421.471C399.106 419.875 398.005 418.452 396.659 417.286C395.313 416.119 393.748 415.232 392.055 414.675C387.855 413.357 383.28 413.864 379.009 414.503C374.693 415.289 370.332 415.797 365.952 416.024C362.211 416.129 358.47 415.833 354.792 415.142C348.867 413.965 343.094 411.358 339.198 406.612C334.176 400.526 333.274 392.25 333.872 384.612L332.959 385.058C340.061 389.481 348.329 392.716 356.851 391.702C363.821 390.87 370.202 387.29 375.366 382.675C382.641 376.163 387.328 367.461 393.628 360.178C400.233 352.541 408.186 345.867 417.662 342.144C423.145 339.793 429.138 338.882 435.072 339.497C440.418 340.167 445.562 341.729 451 341.688C451.101 341.688 451.923 341.333 451.882 341.242C448.971 333.787 439.556 331.91 432.474 331.282C423.929 330.399 415.294 331.293 407.111 333.909C397.118 337.327 388.221 343.483 380.733 350.806C377.101 354.336 373.814 358.231 369.979 361.558C365.979 365.164 360.94 367.411 355.583 367.978C348.38 368.759 333.933 368.992 333.882 358.718L333 359.174C339.28 357.856 344.403 354.255 346.767 348.149C349.283 341.658 349.07 334.406 349.567 327.559C349.681 323.88 350.334 320.237 351.505 316.747C351.444 316.919 350.703 316.93 350.592 317.193C348.563 322.62 348.623 328.705 348.268 334.436C347.903 340.339 347.447 346.83 344.21 351.952C343.046 353.728 341.53 355.246 339.755 356.411C337.98 357.577 335.985 358.365 333.892 358.728C333.761 358.728 333 359.012 333.01 359.174C333.01 367.978 343.601 368.698 350.257 368.668C354.58 368.772 358.879 367.989 362.888 366.365C366.279 364.828 369.383 362.726 372.069 360.148C375.965 356.557 379.394 352.5 383.29 348.9C387.839 344.567 392.922 340.831 398.417 337.783C407.547 332.915 417.561 331.211 427.838 331.515C435.792 331.758 447.591 333.067 450.969 341.658L451.852 341.211C447.033 341.211 442.427 340.045 437.709 339.274C432.943 338.448 428.052 338.698 423.394 340.004C415.495 342.284 408.163 346.199 401.876 351.496C394.49 357.643 388.941 365.219 383.351 372.948C377.761 380.677 370.629 388.162 361.224 390.556C351.616 393.03 341.948 389.643 333.832 384.582C333.489 384.635 333.171 384.791 332.918 385.028C332.381 391.874 333.01 399.177 336.835 405.09C340.122 410.162 345.417 413.346 351.18 414.929C358.372 416.735 365.864 416.998 373.165 415.699C381.078 414.452 391.315 412.038 397.199 419.199C402.272 425.335 402.769 435.559 398.214 442.091L399.117 441.665C400.709 423.824 376.523 428.479 366.002 430.802C357.774 432.597 349.709 435.021 341.593 437.253C338.761 438.101 335.882 438.778 332.969 439.281C328.728 439.91 324.366 438.155 320.663 436.238C313.926 432.77 307.342 427.211 304.552 420.01C301.285 411.561 304.694 403.133 305.668 394.653H305.587C301.134 395.688 296.994 397.775 293.514 400.739C290.017 403.979 287.319 407.986 285.631 412.444C281.573 422.424 280.67 433.429 278.864 443.957C277.221 453.512 275.09 464.243 268.039 471.342C264.745 474.561 261.049 477.339 257.042 479.609C252.147 482.58 246.861 484.854 241.337 486.364C236.487 487.642 230.887 488.392 226.119 486.364C221.351 484.335 219.088 479.659 218.439 474.72L217.526 475.156C220.052 476.617 223.329 476.17 226.027 475.521C229.581 474.667 233.036 473.444 236.335 471.87C242.909 468.827 249.199 464.983 253.643 459.161C256.105 455.943 257.886 452.257 258.878 448.329C260.004 443.835 259.821 439.281 259.761 434.697C259.629 425.903 259.913 417.282 264.225 409.34C266.751 404.725 270.312 400.993 273.609 396.956C276.5 393.436 279.696 389.197 279.432 384.389C279.19 384.472 278.953 384.571 278.722 384.683C272.787 388 269.693 394.278 264.985 398.883C258.81 404.833 251.784 409.83 244.137 413.712C230.096 420.994 213.833 425.426 197.945 424.869C182.71 424.299 168.126 418.549 156.603 408.569C151.404 404.181 147.403 398.544 144.977 392.189C142.928 386.212 142.235 379.854 142.948 373.577C143.789 365.669 145.842 357.938 149.035 350.654C152.728 342.063 158.166 334.375 162.305 326.007L161.392 326.454C158.964 335.366 158.059 344.625 158.713 353.839C159.27 360.747 161.323 367.45 164.73 373.485C171.415 385.565 183.366 395.657 197.6 396.509C214.005 397.524 228.036 387.503 241.864 380.21C246.937 377.522 252.852 376.396 257.671 373.11C260.319 371.325 261.049 368.353 260.623 365.27C260.228 363.427 260.045 361.545 260.075 359.661C260.146 358.941 260.39 358.758 259.649 358.413C259.284 358.251 258.908 358.079 258.533 357.927C257.772 357.602 257.001 357.298 256.23 357.014C253.694 356.06 251.005 355.279 248.753 353.727C246.258 351.825 244.414 349.196 243.477 346.202C241.519 340.795 240.545 333.675 243.102 328.31C243.84 326.705 245.027 325.348 246.521 324.405C246.846 324.202 245.963 324.587 245.841 324.658L245.76 324.699Z" fill="#010101"/>
<path d="M340.253 403.965C340.626 404.247 341.065 404.431 341.528 404.498C341.991 404.566 342.463 404.515 342.901 404.35C343.725 404.034 344.49 403.582 345.164 403.011C345.945 402.372 346.706 401.449 347.731 401.388C348.22 401.374 348.708 401.456 349.166 401.63C349.624 401.804 350.043 402.066 350.399 402.403C350.984 403.016 351.729 403.455 352.55 403.67C353.803 403.841 355.078 403.621 356.202 403.042C357.211 402.549 358.143 401.913 358.971 401.155C360.067 400.141 361.122 398.924 362.593 398.528C363.757 398.315 364.957 398.438 366.053 398.883C367.222 399.21 368.451 399.266 369.644 399.045C372.188 398.445 374.596 397.376 376.746 395.891C377.775 395.237 378.73 394.476 379.597 393.619C380.338 392.713 380.875 391.658 381.169 390.525C381.332 390.059 381.514 389.41 382.001 389.176C382.526 388.996 383.038 388.779 383.533 388.527C384.396 387.969 385.187 387.239 386.009 386.621C389.651 383.902 395.657 379.815 394.125 374.449L393.232 374.896C395.913 374.608 398.443 373.511 400.486 371.751C402.86 369.852 404.722 367.391 405.904 364.591C406.54 363.129 406.858 361.549 406.837 359.955L405.924 360.402C406.408 360.906 406.996 361.298 407.649 361.548C408.301 361.799 409.001 361.903 409.698 361.852C411.073 361.638 412.378 361.099 413.503 360.28C416.343 358.383 418.443 355.422 420.249 352.582C421.081 351.229 421.866 349.877 422.603 348.524L421.7 348.95C421.7 349.863 421.913 351.111 422.877 351.506C423.726 351.708 424.62 351.574 425.373 351.131C427.622 350.02 429.661 348.527 431.399 346.719C432.15 346.009 432.88 345.269 433.57 344.498L432.677 344.924C437.659 349.6 444.74 344.417 447.814 339.974C447.743 340.086 447.083 340.147 446.921 340.38C445.477 342.555 443.523 344.345 441.23 345.593C439.999 346.233 438.598 346.469 437.225 346.269C435.852 346.069 434.577 345.442 433.58 344.477C433.489 344.386 432.768 344.812 432.687 344.904C431.475 346.251 430.174 347.515 428.792 348.687C427.933 349.456 426.998 350.136 426.002 350.715C425.676 350.934 425.306 351.078 424.919 351.138C424.531 351.197 424.136 351.171 423.759 351.06C422.816 350.644 422.654 349.417 422.613 348.514C422.299 348.628 421.997 348.771 421.71 348.94C420.473 351.317 419.055 353.596 417.469 355.756C416.564 357.017 415.546 358.191 414.426 359.266C413.467 360.326 412.207 361.069 410.814 361.396C410.091 361.482 409.358 361.398 408.673 361.152C407.988 360.905 407.37 360.502 406.868 359.976C406.527 360.034 406.21 360.189 405.954 360.422C406.056 363.647 404.493 366.771 402.535 369.246C400.577 371.721 397.595 374.317 394.135 374.459C394.034 374.459 393.212 374.804 393.242 374.906C394.602 379.622 389.965 383.365 386.678 385.88C385.836 386.529 384.974 387.158 384.122 387.807C383.787 388.061 383.462 388.365 383.107 388.608C382.667 388.826 382.212 389.016 381.748 389.176C381.313 389.368 380.941 389.677 380.672 390.069C380.422 390.556 380.218 391.065 380.064 391.59C379.89 392.155 379.662 392.702 379.384 393.223C379.075 393.701 378.696 394.128 378.258 394.491C376.204 396.416 373.71 397.809 370.994 398.548C369.745 398.863 368.438 398.863 367.189 398.548C366.238 398.194 365.232 398.012 364.217 398.011C361.944 398.254 360.108 399.826 358.505 401.307C357.531 402.393 356.212 403.11 354.771 403.336C354.271 403.397 353.763 403.356 353.279 403.217C352.794 403.078 352.342 402.842 351.951 402.524C351.279 401.824 350.436 401.31 349.506 401.033C348.541 400.888 347.555 401.101 346.736 401.632C345.866 402.174 345.047 402.795 344.291 403.488C343.931 403.848 343.458 404.074 342.952 404.127C342.333 404.125 341.731 403.922 341.238 403.549C341.045 403.427 340.406 404.056 340.324 403.995L340.253 403.965Z" fill="#010101"/>
<path d="M153.996 340.867C148.728 345.262 144.312 350.587 140.969 356.578C139.29 359.411 138.174 362.541 137.682 365.797C137.418 367.403 137.579 369.05 138.149 370.575C138.829 372.177 139.904 373.719 139.62 375.545C139.195 377.261 138.51 378.903 137.591 380.413C136.798 382.074 136.209 383.824 135.836 385.626C134.929 388.94 134.873 392.428 135.673 395.769C136.164 397.433 136.877 399.023 137.794 400.496C138.808 402.179 140.188 403.66 140.837 405.567C141.295 407.256 141.517 409 141.497 410.75C141.543 412.646 141.917 414.52 142.603 416.288C143.854 419.304 146.055 421.829 148.872 423.479C151.557 424.992 154.516 425.954 157.577 426.309C159.161 426.525 160.757 426.641 162.356 426.654C164.06 426.546 165.772 426.703 167.428 427.12C169.965 427.972 171.304 430.244 172.876 432.192C175.108 434.991 178.172 437.517 181.733 438.328C183.541 438.726 185.42 438.67 187.201 438.166C188.684 437.65 190.06 436.866 191.26 435.853C191.958 435.278 192.694 434.75 193.461 434.271C194.364 433.798 195.416 433.696 196.393 433.987C197.925 434.433 199.021 435.721 200.238 436.665C203.556 439.231 207.918 439.657 211.915 438.774C213.531 438.491 215.067 437.865 216.42 436.938C217.444 436.027 218.366 435.007 219.169 433.896C219.653 433.216 220.367 432.733 221.178 432.537C222.117 432.474 223.056 432.652 223.907 433.054C225.462 433.805 227.11 434.348 228.807 434.667C231.723 434.984 234.672 434.533 237.36 433.358C240.029 432.355 242.308 430.525 243.863 428.135C244.577 426.925 245.007 425.569 245.121 424.169L244.208 424.615C246.237 425.954 248.58 427.496 251.137 427.485C253.694 427.475 255.987 426.126 258.056 424.919C258.594 424.605 257.701 424.98 257.559 425.071C255.601 426.207 253.501 427.293 251.127 426.978C248.753 426.664 246.947 425.355 245.121 424.169C244.78 424.227 244.463 424.382 244.208 424.615C244.056 426.075 243.585 427.483 242.83 428.741C242.074 429.999 241.052 431.077 239.835 431.898C237.224 433.619 234.133 434.464 231.009 434.312C229.377 434.27 227.77 433.904 226.281 433.236C224.82 432.608 223.136 431.695 221.493 432.222C220.264 432.627 219.172 433.364 218.337 434.352C217.536 435.492 216.599 436.531 215.547 437.446C214.434 438.077 213.2 438.464 211.925 438.582C210.921 438.763 209.902 438.852 208.882 438.845C206.717 438.825 204.59 438.279 202.683 437.253C201.222 436.452 200.127 435.224 198.757 434.291C198.173 433.885 197.501 433.622 196.796 433.523C196.091 433.424 195.372 433.493 194.699 433.723C193.301 434.286 192.002 435.071 190.854 436.046C190.087 436.734 189.222 437.305 188.287 437.74C187.304 438.058 186.277 438.218 185.243 438.216C181.449 438.287 177.949 436.137 175.372 433.5C174.384 432.439 173.462 431.318 172.612 430.143C171.93 429.164 171.098 428.298 170.147 427.577C167.621 425.822 164.435 426.349 161.544 426.197C155.457 425.863 148.842 424.037 145.169 418.773C144.164 417.341 143.425 415.74 142.988 414.046C142.625 412.308 142.438 410.538 142.43 408.762C142.402 407.021 141.993 405.308 141.233 403.741C140.704 402.859 140.128 402.006 139.508 401.185C139.008 400.446 138.547 399.681 138.129 398.893C136.587 396.015 135.904 392.755 136.16 389.501C136.336 387.679 136.675 385.876 137.175 384.115C137.377 383.225 137.641 382.351 137.966 381.498C138.281 380.697 138.687 379.936 139.072 379.176C139.792 377.766 140.716 376.133 140.726 374.551C140.726 372.725 139.529 371.224 138.971 369.55C138.566 368.069 138.504 366.515 138.788 365.006C139.028 363.428 139.44 361.881 140.016 360.391C142.471 353.951 146.985 348.22 151.845 343.392C152.86 342.378 153.874 341.414 154.99 340.501C154.872 340.522 154.756 340.556 154.645 340.603C154.452 340.678 154.271 340.781 154.107 340.907L153.996 340.867Z" fill="#010101"/>
<path d="M166.231 315.347C166.16 315.479 166.059 315.611 165.988 315.743C164.18 319.078 162.764 322.611 161.767 326.271C162.335 325.115 162.893 323.948 163.39 322.772C164.395 320.408 165.267 317.863 166.231 315.347Z" fill="white"/>
<path d="M165.795 315.55C164.808 317.186 163.97 318.907 163.289 320.692C162.528 322.59 161.868 324.527 161.311 326.494L161.798 326.311C161.909 326.311 162.163 326.18 162.224 326.048C163.969 322.498 165.267 318.816 166.688 315.124C166.688 315.124 166.261 315.276 166.211 315.307C166.16 315.337 165.825 315.449 165.774 315.57C164.364 319.252 163.056 322.944 161.311 326.494L162.224 326.048C162.771 324.151 163.39 322.265 164.121 320.429C164.814 318.595 165.67 316.826 166.677 315.144C166.677 315.094 166.363 315.236 166.332 315.246C166.302 315.256 165.876 315.408 165.795 315.55Z" fill="#010101"/>
<path d="M174.804 302.943C170.36 305.783 168.108 310.489 166.231 315.347C168.818 311.006 173.414 307.781 174.804 302.943Z" fill="white"/>
<path d="M174.469 303.065C169.995 305.976 167.641 310.753 165.774 315.571L166.2 315.429C166.322 315.368 166.606 315.276 166.677 315.145C169.275 310.844 173.779 307.68 175.26 302.72C175.21 302.882 174.428 302.902 174.347 303.166C172.866 308.106 168.372 311.28 165.795 315.55L166.687 315.124C168.503 310.438 170.746 305.641 175.139 302.821C175.311 302.71 175.25 302.73 175.139 302.75C174.898 302.813 174.671 302.92 174.469 303.065V303.065Z" fill="#010101"/>
<path d="M275.07 338.767C275.312 338.212 275.662 337.71 276.099 337.29C276.536 336.871 277.052 336.542 277.616 336.322C278.639 336.039 279.709 335.967 280.761 336.109C282.848 336.375 284.847 337.114 286.605 338.27C286.777 338.381 287.467 337.783 287.518 337.824C286.548 337.007 285.403 336.424 284.172 336.119C282.94 335.815 281.655 335.798 280.416 336.069C279.224 336.335 278.096 336.835 277.098 337.54C276.1 338.245 275.252 339.141 274.603 340.177C274.603 340.238 274.918 340.085 274.948 340.075C274.978 340.065 275.405 339.913 275.496 339.771C276.034 338.853 276.748 338.05 277.596 337.408C278.55 336.748 279.673 336.375 280.832 336.333C282.929 336.227 284.988 336.919 286.595 338.27L287.508 337.824C285.35 336.362 282.8 335.587 280.193 335.602C278.951 335.619 277.736 335.962 276.668 336.595C275.599 337.229 274.716 338.132 274.106 339.213C274.106 339.213 274.532 339.071 274.583 339.041C274.634 339.01 274.958 338.899 275.019 338.767H275.07Z" fill="#010101"/>
<path d="M310.538 336.394C313.642 333.706 318.39 334.446 321.211 337.175L322.124 336.738C318.522 333.767 312.902 334.598 309.138 336.738C308.671 337.002 309.229 336.789 309.412 336.738C311.337 335.795 313.387 335.129 315.499 334.761C317.355 334.456 319.75 334.406 320.896 336.191C320.957 336.282 321.83 335.775 321.809 335.745C320.135 333.128 315.986 334.233 313.612 334.984C312.262 335.369 310.951 335.878 309.696 336.505C309.29 336.728 309.797 336.505 309.98 336.454C310.162 336.404 310.467 336.221 310.71 336.13C311.186 335.944 311.674 335.792 312.171 335.674C313.149 335.442 314.149 335.316 315.154 335.298C317.34 335.194 319.493 335.858 321.241 337.175C321.383 337.296 322.124 336.708 322.154 336.738C321.299 335.901 320.28 335.25 319.161 334.826C318.041 334.402 316.847 334.214 315.651 334.274C313.44 334.444 311.343 335.327 309.676 336.789C309.676 336.789 309.99 336.708 310.02 336.698C310.217 336.623 310.401 336.52 310.568 336.394H310.538Z" fill="#010101"/>
<path d="M260.907 321.646C253.805 322.011 242.716 322.772 229.183 324.608C207.735 327.529 198.341 330.693 195.591 326.768C191.594 321.058 205.067 305.154 209.907 299.525C226.139 280.639 252.852 250.221 292.368 208.129C296.963 200.907 304.735 191.139 316.361 186.068C320.166 184.395 322.834 183.776 325.34 184.587C330.575 186.291 333.081 193.635 337.24 202.073C344.981 217.795 353.696 233.293 361.031 249.105C366.043 259.887 368.133 272.007 373.013 282.86C375.945 289.321 382.569 298.997 378.298 306.442C371.623 318.076 341.603 317.782 330.26 318.096" fill="white"/>
<path d="M261.343 321.423C253.734 321.808 246.135 322.427 238.547 323.279C229.568 324.293 220.671 325.713 211.753 327.153C209.004 327.589 206.244 328.046 203.464 328.269C201.684 328.519 199.873 328.426 198.128 327.995C193.958 326.656 195.399 321.575 196.718 318.613C199.274 312.872 203.332 307.76 207.299 302.943C210.343 299.2 213.589 295.549 216.765 291.887C225.01 282.373 233.332 272.934 241.732 263.569C253.102 250.87 264.58 238.273 276.166 225.777C279.507 222.179 282.851 218.582 286.199 214.985L291.566 209.244C292.234 208.567 292.839 207.83 293.372 207.043C293.818 206.374 294.265 205.704 294.721 205.015C299.109 198.488 304.789 192.93 311.41 188.685C313.647 187.284 316.028 186.128 318.512 185.236C320.329 184.492 322.318 184.27 324.254 184.597C327.531 185.328 329.662 188.249 331.255 190.987C333.476 194.811 335.16 198.929 337.119 202.885C339.391 207.489 341.735 212.013 344.098 216.608C348.806 225.675 353.584 234.692 358.038 243.882C360.273 248.337 362.238 252.923 363.922 257.615C365.475 262.128 366.783 266.743 368.224 271.257C369.527 275.646 371.141 279.937 373.053 284.097C374.872 287.506 376.505 291.01 377.943 294.595C379.161 298.044 379.871 301.959 378.42 305.458C377.34 307.813 375.571 309.786 373.347 311.118C370.773 312.664 367.978 313.81 365.059 314.515C361.981 315.333 358.853 315.95 355.695 316.361C349.602 317.132 343.472 317.569 337.332 317.67L330.697 317.822C330.412 317.822 329.986 318.278 329.834 318.278C341.623 317.964 353.767 318.035 365.191 314.688C369.868 313.319 375.234 311.209 378.177 307.091C382.843 300.559 378.288 292.171 375.133 286.035C370.862 277.626 368.508 268.579 365.607 259.664C362.441 249.937 357.724 240.839 353.057 231.761C348.268 222.399 343.297 213.129 338.62 203.716C336.591 199.578 334.765 195.288 332.533 191.251C330.95 188.391 328.881 185.236 325.573 184.273C322.053 183.258 318.198 185.074 315.083 186.565C311.497 188.318 308.137 190.501 305.08 193.066C302.053 195.612 299.284 198.449 296.811 201.536C295.695 202.925 294.64 204.355 293.626 205.816C293.199 206.445 292.773 207.074 292.357 207.713C291.652 208.693 290.857 209.607 289.983 210.441C276.977 224.323 264.082 238.313 251.299 252.412C241.661 263.061 232.104 273.789 222.629 284.594C219.017 288.726 215.419 292.871 211.834 297.029C208.233 301.198 204.631 305.387 201.405 309.86C199.494 312.421 197.798 315.135 196.332 317.974C195.318 320.094 194.171 322.64 194.465 325.074C194.922 328.847 199.041 328.949 202.013 328.756C204.763 328.583 207.502 328.137 210.221 327.742C214.279 327.103 218.337 326.413 222.395 325.794C231.803 324.361 241.272 323.272 250.802 322.528C254.049 322.278 257.302 322.072 260.562 321.909C260.846 321.909 261.272 321.463 261.424 321.453L261.343 321.423Z" fill="#010101"/>
<path d="M124.736 377.766C123.915 368.645 124.431 359.453 126.268 350.482C126.786 347.936 127.415 345.41 128.145 342.925C128.074 343.148 127.334 343.189 127.263 343.432C124.69 352.22 123.415 361.337 123.478 370.493C123.478 373.09 123.631 375.686 123.864 378.263C123.864 378.131 124.757 377.908 124.736 377.755V377.766Z" fill="#010101"/>
<path d="M116.681 387.117L116.863 368.465C116.863 368.637 115.981 368.8 115.981 368.972L115.798 387.624C115.798 387.462 116.681 387.3 116.681 387.117Z" fill="#010101"/>
<path d="M409.455 323.046C418.328 320.832 427.478 319.926 436.614 320.358C439.231 320.48 441.828 320.723 444.425 321.058C444.699 321.058 445.044 320.52 445.308 320.551C436.24 319.362 427.046 319.498 418.017 320.957C415.44 321.372 412.874 321.9 410.337 322.539C410.023 322.61 409.769 322.965 409.455 323.046Z" fill="#010101"/>
<path d="M398.974 316.514L417.439 313.836C417.753 313.786 418.007 313.37 418.311 313.329L399.847 316.007C399.542 316.007 399.278 316.463 398.974 316.514Z" fill="#010101"/>
<path d="M266.892 255.241C272.574 257.199 280.609 254.907 286.747 255.505C292.712 256.093 298.759 256.945 304.765 256.763C308.955 256.641 313.084 255.809 317.284 255.951C323.967 256.315 330.67 255.91 337.26 254.744C339.969 254.207 345.377 252.259 347.659 254.531C334.866 271.307 319.75 286.42 305.982 302.405C303.953 304.799 300.697 309.221 297.146 309.576C293.26 309.951 289.516 304.738 287.214 302.385C281.836 296.898 278.346 288.591 274.765 281.927C271.945 276.683 270.433 270.963 268.019 265.567C267.207 263.741 264.427 259.552 265.087 257.402C265.227 257.004 265.453 256.641 265.748 256.338C266.043 256.035 266.4 255.8 266.794 255.649C267.188 255.498 267.611 255.434 268.033 255.461C268.454 255.489 268.865 255.608 269.236 255.809" fill="white"/>
<path d="M266.436 255.465C269.632 256.54 273.112 256.337 276.419 256.094C279.948 255.685 283.506 255.59 287.051 255.81C291.241 256.236 295.421 256.763 299.642 256.946C301.777 257.062 303.918 257.062 306.054 256.946C308.144 256.804 310.213 256.54 312.303 256.367C316.493 256.023 320.714 256.367 324.924 256.266C329.014 256.196 333.088 255.754 337.098 254.947C339.736 254.379 342.617 253.274 345.346 253.862C345.925 253.946 346.469 254.188 346.919 254.562C347.091 254.745 347.102 254.816 346.97 255.049C346.821 255.284 346.651 255.504 346.462 255.708L345.529 256.925C344.291 258.508 343.037 260.076 341.765 261.631C336.611 267.93 331.214 274.026 325.756 280.061C320.298 286.096 314.829 292.029 309.473 298.105C308.12 299.626 306.767 301.158 305.414 302.699C304.491 303.785 303.598 304.9 302.635 305.945C301.55 307.313 300.161 308.407 298.577 309.14C297.894 309.357 297.173 309.426 296.461 309.344C295.749 309.262 295.063 309.03 294.447 308.663C291.85 307.264 289.994 304.819 288.025 302.699C286.929 301.557 285.893 300.359 284.921 299.109C283.85 297.689 282.861 296.209 281.958 294.676C280.153 291.634 278.58 288.489 276.977 285.345C276.176 283.753 275.313 282.191 274.512 280.598C273.629 278.823 272.878 276.998 272.158 275.142C270.974 271.594 269.599 268.114 268.039 264.715C267.42 263.518 266.751 262.352 266.203 261.114C265.574 259.997 265.285 258.721 265.371 257.443C265.433 257.107 265.568 256.788 265.766 256.51C265.964 256.231 266.221 255.999 266.517 255.83C266.872 255.71 267.248 255.67 267.62 255.712C267.992 255.754 268.35 255.877 268.668 256.073C268.881 256.185 269.48 255.566 269.581 255.627C268.846 255.311 268.031 255.23 267.248 255.395C266.466 255.56 265.753 255.964 265.209 256.55C263.88 257.848 264.529 259.765 265.158 261.246C265.858 262.899 266.822 264.411 267.552 266.044C268.648 268.529 269.581 271.115 270.515 273.63C271.432 276.232 272.499 278.779 273.71 281.258C274.796 283.408 275.942 285.548 277.038 287.698C279.093 292.068 281.57 296.226 284.434 300.113C285.702 301.736 287.163 303.156 288.543 304.718C289.866 306.335 291.426 307.744 293.169 308.897C293.89 309.377 294.715 309.678 295.576 309.777C296.437 309.876 297.309 309.769 298.12 309.465C299.884 308.741 301.474 307.652 302.787 306.27C304.268 304.779 305.556 303.115 306.936 301.523C308.732 299.433 310.558 297.364 312.394 295.305C316.108 291.147 319.871 287.039 323.615 282.911C331.102 274.665 338.559 266.378 345.458 257.635C346.31 256.55 347.162 255.465 347.994 254.369C346.645 253.061 344.494 253.193 342.78 253.446C340.852 253.72 338.985 254.308 337.078 254.674C331.201 255.656 325.237 256.023 319.283 255.769C317.751 255.769 316.239 255.678 314.718 255.769C313.196 255.86 311.776 256.002 310.315 256.154C307.33 256.48 304.327 256.609 301.326 256.54C298.282 256.438 295.31 256.154 292.307 255.83C289.597 255.45 286.866 255.237 284.13 255.191C281.269 255.252 278.428 255.607 275.567 255.759C272.793 256.041 269.99 255.793 267.309 255.029C267.197 255.029 266.933 255.15 266.832 255.201C266.73 255.252 266.426 255.475 266.396 255.475L266.436 255.465Z" fill="#010101"/>
</g>
<defs>
<clipPath id="clip0_136_333">
<rect width="620" height="560" fill="white"/>
</clipPath>
</defs>
</svg>
