<svg width="642" height="560" viewBox="0 0 642 560" fill="none" xmlns="http://www.w3.org/2000/svg">
<g clip-path="url(#clip0_136_163)">
<path d="M0.310662 264.671C-7.31038 383.622 127.984 497.751 242.361 537.17C348.093 573.603 541.332 582.447 615.451 439.608C685.862 303.893 606.339 113.02 492.116 39.2736C306.488 -80.6205 11.0588 96.8568 0.310662 264.671Z" fill="white"/>
<path opacity="0.16" d="M0.310662 264.671C-7.31038 383.622 127.984 497.751 242.361 537.17C348.093 573.603 541.332 582.447 615.451 439.608C685.862 303.893 606.339 113.02 492.116 39.2736C306.488 -80.6205 11.0588 96.8568 0.310662 264.671Z" fill="currentColor"/>
<g opacity="0.6">
<path opacity="0.6" d="M93.0678 241.727C94.129 241.719 95.1824 241.909 96.1742 242.287L161.409 267.087C163.546 267.9 165.273 269.53 166.211 271.618C167.149 273.706 167.221 276.081 166.41 278.222L141.642 343.539C141.243 344.602 140.638 345.574 139.862 346.402C139.087 347.229 138.155 347.895 137.122 348.36C136.088 348.825 134.973 349.082 133.84 349.114C132.707 349.146 131.579 348.953 130.521 348.547L65.2862 323.747C64.2271 323.346 63.2575 322.739 62.4331 321.962C61.6087 321.184 60.9456 320.252 60.482 319.217C60.0183 318.183 59.7631 317.067 59.7311 315.933C59.699 314.8 59.8907 313.671 60.2952 312.612L85.0532 247.294C85.675 245.657 86.7796 244.247 88.2203 243.253C89.661 242.258 91.3697 241.726 93.1195 241.727H93.0678ZM93.1195 235.848C90.1862 235.858 87.324 236.753 84.9075 238.418C82.4909 240.083 80.6326 242.44 79.5756 245.179L54.8072 310.497C53.4606 314.087 53.5879 318.066 55.1614 321.562C56.7349 325.059 59.6267 327.79 63.2049 329.159L128.439 353.949C130.091 354.585 131.847 354.908 133.617 354.903C136.55 354.895 139.413 353.999 141.83 352.334C144.247 350.669 146.105 348.312 147.161 345.571L171.929 280.254C173.292 276.657 173.173 272.666 171.598 269.157C170.023 265.648 167.122 262.908 163.531 261.54L98.2969 236.75C96.645 236.114 94.8894 235.791 93.1195 235.796V235.848Z" fill="currentColor"/>
<path opacity="0.6" d="M135.035 301.498L109.376 270.011C109.116 269.693 108.777 269.449 108.393 269.304C108.009 269.158 107.594 269.116 107.189 269.181C106.783 269.246 106.402 269.416 106.083 269.674C105.764 269.933 105.518 270.27 105.369 270.653L90.9658 308.652C90.8282 309.034 90.7922 309.445 90.8615 309.846C90.9307 310.246 91.1027 310.622 91.3607 310.936C91.6187 311.249 91.9537 311.49 92.3328 311.635C92.712 311.78 93.1223 311.824 93.5234 311.762L133.596 305.261C133.995 305.19 134.368 305.017 134.68 304.758C134.992 304.5 135.232 304.165 135.377 303.786C135.521 303.408 135.566 302.998 135.506 302.597C135.446 302.196 135.284 301.818 135.035 301.498V301.498Z" fill="currentColor"/>
</g>
<path opacity="0.16" d="M227.233 388.495C242.731 388.495 255.294 375.915 255.294 360.398C255.294 344.88 242.731 332.301 227.233 332.301C211.736 332.301 199.172 344.88 199.172 360.398C199.172 375.915 211.736 388.495 227.233 388.495Z" fill="currentColor"/>
<path opacity="0.3" d="M259.654 246.766C286.686 246.766 308.6 224.824 308.6 197.757C308.6 170.69 286.686 148.748 259.654 148.748C232.621 148.748 210.707 170.69 210.707 197.757C210.707 224.824 232.621 246.766 259.654 246.766Z" fill="currentColor"/>
<g opacity="0.6">
<path opacity="0.6" d="M455.16 117.914C463.727 117.914 470.672 110.961 470.672 102.383C470.672 93.8056 463.727 86.8521 455.16 86.8521C446.594 86.8521 439.649 93.8056 439.649 102.383C439.649 110.961 446.594 117.914 455.16 117.914Z" fill="currentColor"/>
<path opacity="0.6" d="M429.18 82.2174C423.428 87.6364 419.409 94.6411 417.631 102.346C415.854 110.052 416.397 118.112 419.192 125.508C421.988 132.904 426.911 139.305 433.338 143.901C439.765 148.497 447.409 151.082 455.304 151.329C463.198 151.577 470.988 149.476 477.69 145.292C484.393 141.108 489.706 135.028 492.958 127.822C496.211 120.615 497.257 112.605 495.964 104.804C494.672 97.0021 491.099 89.7592 485.696 83.9903C482.102 80.1579 477.789 77.0721 473.003 74.9089C468.217 72.7457 463.053 71.5475 457.805 71.3829C452.557 71.2183 447.328 72.0904 442.416 73.9494C437.505 75.8084 433.007 78.6178 429.18 82.2174V82.2174ZM489.155 125.223C489.155 125.223 488.968 125.109 488.533 124.809L487.902 124.384C486.386 123.513 484.796 122.781 483.149 122.196C478.297 120.615 473.174 120.04 468.093 120.506C467.244 120.506 466.229 120.599 464.873 120.755C459.706 121.455 454.699 123.047 450.076 125.462C445.867 127.509 441.941 130.095 438.396 133.155C436.553 134.727 434.823 136.428 433.219 138.245C432.31 137.455 431.442 136.617 430.62 135.736C426.25 131.074 423.218 125.317 421.845 119.073C420.471 112.829 420.807 106.33 422.817 100.261C424.826 94.192 428.435 88.7789 433.262 84.5932C438.089 80.4074 443.955 77.6042 450.241 76.4795C456.527 75.3547 463 75.9502 468.976 78.2031C474.952 80.4559 480.209 84.2825 484.194 89.2789C488.178 94.2753 490.741 100.256 491.612 106.59C492.484 112.924 491.631 119.376 489.144 125.265L489.155 125.223Z" fill="currentColor"/>
</g>
<path d="M522.818 370.993C564.513 370.993 598.314 337.15 598.314 295.401C598.314 253.653 564.513 219.809 522.818 219.809C481.122 219.809 447.322 253.653 447.322 295.401C447.322 337.15 481.122 370.993 522.818 370.993Z" fill="white"/>
<path d="M543.144 254.251H491.474C490.165 254.251 489.103 255.314 489.103 256.626V259.352C489.103 260.664 490.165 261.727 491.474 261.727H543.144C544.454 261.727 545.515 260.664 545.515 259.352V256.626C545.515 255.314 544.454 254.251 543.144 254.251Z" fill="currentColor"/>
<path d="M477.009 262.877C479.702 262.877 481.886 260.691 481.886 257.994C481.886 255.297 479.702 253.111 477.009 253.111C474.315 253.111 472.132 255.297 472.132 257.994C472.132 260.691 474.315 262.877 477.009 262.877Z" fill="currentColor"/>
<path d="M543.144 277.071H491.474C490.165 277.071 489.103 278.134 489.103 279.446V282.172C489.103 283.484 490.165 284.547 491.474 284.547H543.144C544.454 284.547 545.515 283.484 545.515 282.172V279.446C545.515 278.134 544.454 277.071 543.144 277.071Z" fill="currentColor"/>
<path d="M477.009 285.687C479.702 285.687 481.886 283.501 481.886 280.804C481.886 278.107 479.702 275.92 477.009 275.92C474.315 275.92 472.132 278.107 472.132 280.804C472.132 283.501 474.315 285.687 477.009 285.687Z" fill="currentColor"/>
<path d="M543.144 299.891H491.474C490.165 299.891 489.103 300.954 489.103 302.265V304.992C489.103 306.303 490.165 307.366 491.474 307.366H543.144C544.454 307.366 545.515 306.303 545.515 304.992V302.265C545.515 300.954 544.454 299.891 543.144 299.891Z" fill="currentColor"/>
<path d="M477.009 308.506C479.702 308.506 481.886 306.32 481.886 303.623C481.886 300.926 479.702 298.74 477.009 298.74C474.315 298.74 472.132 300.926 472.132 303.623C472.132 306.32 474.315 308.506 477.009 308.506Z" fill="currentColor"/>
<path d="M508.818 210.281C548.259 210.281 580.265 241.862 580.265 280.783C580.265 319.704 548.29 351.284 508.818 351.284C469.346 351.284 437.371 319.714 437.371 280.783C437.371 241.851 469.346 210.281 508.818 210.281ZM508.818 204.34C466.167 204.34 431.469 238.648 431.469 280.814C431.469 322.98 466.167 357.287 508.818 357.287C551.469 357.287 586.136 322.98 586.136 280.814C586.136 238.648 551.438 204.34 508.787 204.34H508.818Z" fill="currentColor"/>
<path d="M325.52 450.018C390.382 450.018 442.963 434.76 442.963 415.939C442.963 397.117 390.382 381.859 325.52 381.859C260.658 381.859 208.077 397.117 208.077 415.939C208.077 434.76 260.658 450.018 325.52 450.018Z" fill="currentColor"/>
<path d="M296.568 366.577C296.207 368.548 295.673 370.484 294.973 372.362C293.889 375.836 292.005 379.007 289.475 381.621C286.607 384.586 284.298 387.987 281.036 390.527C277.677 392.959 274.178 395.192 270.557 397.214C266.902 399.391 262.884 400.853 259.239 403.03C259.042 403.154 258.805 403.199 258.577 403.155C258.512 403.391 258.365 403.597 258.163 403.735C256.93 404.534 255.709 405.311 254.487 406.079C254.409 406.227 254.291 406.349 254.145 406.431C253.948 406.535 253.772 406.649 253.586 406.763C253.503 406.942 253.375 407.096 253.213 407.209C252.887 407.429 252.541 407.617 252.178 407.769C251.09 408.401 250.107 409.137 248.937 409.687C248.78 409.756 248.611 409.791 248.44 409.79V409.79C248.334 409.852 248.218 409.894 248.098 409.915C248.088 410.052 248.042 410.184 247.966 410.298C247.89 410.413 247.786 410.506 247.663 410.568C246.57 411.144 245.373 411.496 244.142 411.605C243.332 411.979 242.475 412.244 241.595 412.393C239.893 412.571 238.176 412.546 236.48 412.32C235.062 412.224 233.681 411.825 232.431 411.149C231.18 410.472 230.089 409.535 229.232 408.401C227.306 409.085 225.897 410.557 224.324 411.802L223.868 412.133C223.804 412.32 223.68 412.48 223.516 412.59C223.485 412.816 223.372 413.023 223.198 413.17C223.024 413.317 222.801 413.395 222.574 413.388C222.494 413.395 222.415 413.395 222.335 413.388V413.388C222.272 413.508 222.182 413.612 222.072 413.693C221.963 413.773 221.837 413.829 221.704 413.854C221.23 414.247 220.736 414.614 220.223 414.953C219.151 415.695 217.927 416.187 216.64 416.395C215.912 416.851 215.091 417.138 214.238 417.234C213.307 417.254 212.377 417.149 211.473 416.923C210.33 416.908 209.195 416.737 208.098 416.415C207.918 416.355 207.759 416.247 207.637 416.103C207.514 415.958 207.434 415.783 207.404 415.596C207.187 415.513 206.959 415.461 206.741 415.368C205.799 414.974 204.577 414.238 203.635 414.881C202.758 415.613 201.944 416.418 201.202 417.286C197.681 420.677 193.953 424.077 189.211 425.581C185.069 426.918 180.327 426.742 177.997 422.605C177.748 422.169 177.386 421.288 176.847 421.133C176.847 421.133 176.847 421.133 176.847 421.081L176.723 421.205C176.61 421.378 176.523 421.567 176.464 421.765C175.998 422.802 175.522 423.839 174.963 424.876C173.933 426.911 172.355 428.617 170.407 429.8L170.086 429.966C168.015 431.096 166.068 432.662 163.666 433.004C163.458 433.03 163.248 433.002 163.055 432.921V432.921C162.938 432.985 162.805 433.014 162.672 433.004H162.351C161.896 433.078 161.435 433.116 160.974 433.118H160.559C158.891 433.447 157.196 433.627 155.496 433.657C155.267 433.605 155.063 433.476 154.917 433.293C154.77 433.109 154.691 432.881 154.691 432.646C154.691 432.411 154.77 432.183 154.917 432C155.063 431.816 155.267 431.688 155.496 431.635C155.817 431.635 156.138 431.635 156.469 431.635C156.435 431.553 156.414 431.465 156.407 431.376C156.407 431.101 156.516 430.837 156.711 430.643C156.905 430.449 157.168 430.339 157.443 430.339C157.339 430.339 157.443 430.339 157.567 430.339C157.628 430.256 157.702 430.183 157.784 430.122C159.089 429.24 159.141 427.83 159.855 426.534C160.57 425.238 161.636 424.222 162.465 423.03C164.339 420.303 165.747 417.255 167.715 414.591C170.624 410.64 175.626 408.764 180.14 407.209C183.19 406.285 186.306 405.592 189.459 405.135C192.618 404.554 195.755 403.808 198.861 402.989C205.157 401.351 211.349 399.391 217.614 397.639C223.506 396.001 229.107 393.492 234.989 391.885C234.985 391.674 235.052 391.468 235.18 391.301C235.308 391.133 235.489 391.014 235.693 390.962C240.472 389.449 245.117 387.538 249.579 385.249C254.197 383.051 258.784 380.812 263.309 378.427C267.264 376.354 271.178 374.135 274.927 371.678C278.675 369.221 282.361 366.494 286.172 364.047C288.543 362.523 292.706 359.983 295.439 362.15C296.651 363.342 296.775 365.053 296.568 366.577Z" fill="white"/>
<path d="M516.45 346.194C516.142 347.904 515.692 349.587 515.104 351.222C514.368 352.995 513.033 354.332 512.277 356.157C512.016 356.629 511.866 357.154 511.837 357.693C511.808 358.232 511.902 358.77 512.111 359.267C512.467 359.888 512.771 360.536 513.022 361.206C513.208 361.153 513.406 361.153 513.592 361.206C513.846 361.283 514.061 361.456 514.192 361.687C514.323 361.919 514.36 362.192 514.296 362.45C513.985 364.721 514.161 367.074 512.577 368.93C511.842 369.78 510.858 370.382 510.081 371.19C509.305 371.999 508.798 372.549 508.104 373.181C507.779 373.501 507.433 373.799 507.068 374.073C505.95 374.923 504.625 375.566 504.148 376.986C504.104 377.116 504.035 377.237 503.945 377.34C503.854 377.443 503.744 377.527 503.62 377.587C503.61 379.116 503.506 380.643 503.31 382.16C503.475 382.615 503.507 383.107 503.403 383.58C503.497 383.919 503.497 384.278 503.403 384.617C503.319 384.844 503.157 385.035 502.947 385.156C502.61 386.081 502.201 386.979 501.725 387.841C500.889 389.266 499.806 390.53 498.526 391.574C498.49 391.766 498.405 391.944 498.277 392.092C496.786 393.813 494.684 394.632 492.665 395.565C492.584 395.708 492.466 395.825 492.324 395.906C492.182 395.986 492.021 396.026 491.857 396.022H491.764L491.64 396.084C491.559 396.205 491.449 396.305 491.321 396.376C491.194 396.446 491.051 396.485 490.905 396.488C490.749 396.581 490.584 396.654 490.439 396.747C490.254 396.853 490.037 396.89 489.828 396.851C489.752 397.005 489.634 397.134 489.487 397.222C489.34 397.31 489.171 397.354 488.999 397.349H488.886C488.748 397.504 488.564 397.612 488.362 397.657C488.159 397.701 487.947 397.681 487.757 397.597C487.429 397.861 487.083 398.1 486.721 398.313C486.656 398.346 486.586 398.371 486.514 398.385C486.704 398.448 486.868 398.571 486.982 398.736C487.096 398.9 487.154 399.098 487.146 399.298C487.112 400.217 486.812 401.106 486.283 401.857C485.753 402.608 485.017 403.189 484.164 403.528C482.026 404.559 479.788 405.369 477.485 405.944C474.7 406.69 471.852 407.343 469.025 407.924C467.775 408.202 466.51 408.402 465.235 408.525C463.884 408.57 462.541 408.758 461.228 409.085C461.068 409.124 460.901 409.124 460.742 409.085C460.719 409.307 460.611 409.511 460.441 409.655C458.947 411.148 457.282 412.46 455.481 413.564C453.823 414.34 452.056 414.857 450.242 415.098C448.347 415.43 446.473 415.866 444.588 416.239C442.455 416.654 440.633 416.104 438.541 415.783C438.401 415.77 438.267 415.719 438.152 415.638C438.038 415.556 437.947 415.445 437.889 415.316C437.248 415.31 436.611 415.201 436.004 414.995C435.27 414.688 434.574 414.295 433.933 413.823C433.461 413.432 432.915 413.139 432.328 412.963C432.178 412.943 432.031 412.901 431.893 412.838C431.444 413.142 430.977 413.419 430.496 413.668C430.472 413.867 430.384 414.053 430.246 414.199C430.108 414.345 429.927 414.442 429.729 414.476C429.734 414.552 429.734 414.629 429.729 414.704C429.73 414.722 429.73 414.739 429.729 414.756C429.68 414.956 429.563 415.133 429.399 415.258C429.236 415.382 429.034 415.447 428.828 415.441C426.423 415.719 424 415.816 421.58 415.731C421.454 415.792 421.316 415.824 421.176 415.824C419.791 415.829 418.407 415.735 417.034 415.544C415.629 415.454 414.279 414.965 413.141 414.134V414.134C412.953 414.081 412.782 413.981 412.644 413.844C411.277 413.563 410.018 412.902 409.01 411.936C408.884 411.816 408.767 411.688 408.658 411.553C408.311 411.551 407.966 411.53 407.622 411.49C407.516 411.506 407.407 411.506 407.301 411.49H407.197L406.452 411.366C406.326 411.333 406.207 411.274 406.104 411.194C406.001 411.114 405.915 411.014 405.851 410.899C405.766 410.744 405.72 410.569 405.717 410.391C405.722 410.194 405.783 410.003 405.893 409.84C406.003 409.676 406.158 409.547 406.338 409.469L406.038 409.303H406.1C405.858 409.217 405.656 409.045 405.533 408.819C405.411 408.593 405.376 408.329 405.437 408.079C405.463 408.01 405.498 407.944 405.541 407.882C405.191 407.636 404.792 407.469 404.371 407.395C404.251 407.373 404.135 407.331 404.029 407.271C403.955 407.482 403.803 407.656 403.604 407.758C398.427 410.454 388.487 411.055 387.141 403.611C387.11 403.376 387.15 403.138 387.254 402.927C386.638 402.252 385.922 401.675 385.132 401.216C383.713 400.459 382.087 400.739 380.555 400.915C378.795 401.266 376.973 401.115 375.295 400.48C374.615 400.121 374.005 399.643 373.493 399.07C372.702 398.672 371.873 398.355 371.018 398.126C370.777 398.056 370.571 397.895 370.446 397.676C370.32 397.458 370.284 397.199 370.345 396.955V396.955C370.12 396.815 369.957 396.594 369.89 396.337C369.822 396.081 369.856 395.808 369.983 395.576V395.524C369.921 395.41 369.848 395.317 369.786 395.202C369.72 395.063 369.685 394.911 369.685 394.757C369.685 394.602 369.72 394.45 369.786 394.311C369.76 394.271 369.735 394.229 369.714 394.186C368.15 388.266 369.714 381.413 366.607 375.908C364.132 371.47 359.773 368.443 357.971 363.58C357.917 363.365 357.933 363.139 358.017 362.933C358.101 362.728 358.248 362.555 358.437 362.44C363.615 360.159 369.745 361.051 375.088 362.347C381.166 363.809 386.892 366.359 392.836 368.287C405.47 372.254 418.424 375.116 431.552 376.841C438.199 377.774 444.868 378.5 451.547 379.132C456.861 379.713 462.232 379.496 467.482 378.489C472.805 377.447 477.927 375.557 482.652 372.891C487.497 370.228 491.5 366.259 494.208 361.434C495.564 358.977 496.683 356.396 497.904 353.876C499.24 351.118 500.887 348.568 502.398 345.914C505.588 340.273 508.156 334.312 511.542 328.786C511.688 328.565 511.913 328.408 512.171 328.348C512.429 328.289 512.701 328.33 512.929 328.464C513.048 328.35 513.196 328.269 513.358 328.231C513.519 328.194 513.687 328.2 513.845 328.25C514.003 328.3 514.144 328.391 514.255 328.515C514.365 328.638 514.44 328.789 514.472 328.952C514.711 329.992 515.033 331.011 515.435 332C515.797 333.037 516.015 334.073 516.388 335.11C517.048 336.943 517.344 338.887 517.257 340.833C517.156 342.641 516.886 344.436 516.45 346.194V346.194Z" fill="white"/>
<path d="M505.308 337.277C500.327 343.737 492.831 350.445 486.669 355.753C472.173 368.194 448.533 376.872 429.615 370.175C413.938 364.628 403.553 346.889 391.303 336.241C382.709 328.745 372.841 323.592 363.014 318.004C365.333 313.431 371.722 309.709 375.077 305.324C379.934 299.01 384.572 293.245 387.026 285.728C391.759 271.265 390.33 258.99 388.124 244.786C396.687 246.963 406.628 243.241 415.046 241.437C423.465 239.633 434.565 241.717 431.479 231.701C427.71 219.416 414.684 206.549 407.591 195.963C394.461 176.41 387.006 154.036 373.162 134.669C367.415 126.633 357.557 108.251 345.111 111.859C337.728 113.933 329.341 124.518 324.256 129.702C314.575 139.541 306.094 150.562 296.837 160.806C286.327 172.418 274.834 185.772 266.208 198.752C257.303 212.148 248.388 225.615 236.573 236.719C231.106 241.903 221.341 246.61 219.125 254.241C236.987 257.082 255.512 253.609 273.684 251.514C273.198 254.801 272.556 259.591 272.017 265.397C271.603 269.803 270.36 283.136 270.982 290.062C271.396 294.759 273.757 309.025 295.025 324.878C290.521 330.881 284.671 335.567 280.125 341.383C273.156 350.362 267.844 359.257 258.018 365.986C240.632 377.878 216.133 378.013 196.863 386.006C173.917 395.514 161.533 410.164 154.626 433.357C172.674 411.003 198.25 404.938 224.779 398.946C240.371 395.357 255.596 390.324 270.257 383.912C280.508 379.371 284.36 371.149 292.55 364.441C291.36 374.591 281.378 380.646 274.15 386.888C264.334 395.358 256.63 403.57 250.956 415.389C243.956 429.997 230.122 466.192 243.169 480.893C253.762 470.525 258.09 454.631 265.856 442.097C273.348 430.312 282.527 419.693 293.099 410.578C305.09 400.003 324.308 393.99 330.459 378.189C327.756 400.304 309.615 414.373 295.957 430.765C286.441 442.169 285.261 455.855 280.156 469.229C277.66 475.792 271.427 485.725 277.05 492.329C280.705 488.462 282.724 482.137 285.458 477.347C291.556 466.617 298.401 457.12 307.358 448.784C320.902 436.166 338.184 431.221 352.556 420.117C364.184 411.118 371.35 396.696 369.237 381.942C368.015 373.451 361.368 369.283 358.727 361.87C366.637 367.339 373.978 373.591 380.638 380.532C397.568 398.448 420.244 403.746 444.371 402.17C461.508 401.04 483.346 397.349 493.203 381.362C498.95 372.031 501.383 360.346 506.167 350.403C509.864 342.71 511.231 334.955 513.022 326.733C509.45 329.367 508.01 333.794 505.308 337.277Z" fill="white"/>
<path d="M504.863 337.536C499.478 344.431 492.851 350.341 486.224 356.012C479.269 361.923 471.218 366.405 462.533 369.2C448.161 373.855 432.287 373.606 419.841 364.265C407.86 355.266 399.908 342.057 388.041 332.902C380.793 327.303 372.675 322.928 364.712 318.387C364.293 318.194 363.891 317.965 363.511 317.703C363.459 317.454 364.143 316.604 364.288 316.396C364.751 315.733 365.26 315.103 365.81 314.509C367.218 313.021 368.708 311.613 370.273 310.29C373.26 307.6 375.969 304.616 378.36 301.384C381.266 297.74 383.778 293.799 385.856 289.627C387.935 284.95 389.33 279.999 389.998 274.925C391.479 264.764 390.174 254.552 388.611 244.485L387.72 245.003C394.399 246.589 401.244 245.003 407.746 243.324C410.701 242.478 413.698 241.786 416.724 241.25C418.95 240.918 421.197 240.783 423.434 240.504C425.991 240.192 428.683 239.674 430.765 238.036C434.503 235.112 431.262 229.006 429.646 225.781C424.076 214.667 414.953 205.896 408.057 195.662C400.177 183.978 394.306 171.122 387.907 158.618C384.666 152.294 381.28 146.031 377.448 140.039C374.684 135.726 371.722 131.516 368.823 127.286C364.153 120.454 357.019 110.045 347.451 111.133C344.22 111.496 341.166 113.373 338.587 115.28C333.99 118.691 330.159 123.056 326.276 127.245C321.74 132.149 317.112 136.939 312.742 141.998C307.917 147.587 303.216 153.289 298.308 158.815C288.605 169.753 278.841 180.588 270.236 192.469C261.952 203.936 254.704 216.129 245.499 226.963C241.482 231.891 236.937 236.362 231.945 240.296C227.699 243.5 222.864 246.61 220.068 251.265C219.726 251.822 219.428 252.404 219.177 253.007C219.025 253.292 218.91 253.595 218.836 253.909C218.836 254.625 218.225 254.117 219.405 254.479C221.289 254.9 223.212 255.119 225.142 255.133C228.876 255.424 232.622 255.514 236.366 255.402C243.956 255.216 251.494 254.365 259.022 253.422C262.791 252.955 266.56 252.458 270.34 251.991C271.297 251.787 272.271 251.673 273.249 251.649C273.394 251.836 273.063 252.893 273.022 253.183C272.814 254.666 272.618 256.159 272.431 257.652C271.8 262.753 271.323 267.875 270.94 273.007C270.371 280.555 269.48 288.559 271.644 295.972C274.254 304.909 280.301 312.56 287.031 318.781C288.184 319.838 289.365 320.875 290.573 321.891C291.298 322.493 292.043 323.094 292.799 323.685C293.215 323.95 293.606 324.252 293.969 324.587C294.549 325.219 294.539 324.805 294.176 325.562C293.472 326.992 291.836 328.402 290.759 329.564C289.682 330.725 288.357 332.104 287.135 333.358C282.542 338.14 278.283 343.232 274.388 348.599C270.578 353.783 266.612 358.791 261.735 362.958C255.895 367.925 248.978 371.149 241.74 373.513C229.718 377.453 217.117 379.174 205.043 382.844C195.923 385.593 187.314 389.82 179.56 395.358C171.316 401.371 164.63 409.274 160.062 418.406C157.661 423.245 155.689 428.286 154.171 433.47C154.243 433.253 154.916 433.139 155.072 432.952C162.286 424.117 171.373 416.999 181.673 412.113C190.57 408.034 199.848 404.846 209.371 402.595C219.84 399.93 230.412 397.836 240.756 394.715C246.541 392.96 252.264 391.017 257.924 388.889C262.899 387.19 267.744 385.132 272.421 382.73C280.777 378.106 285.82 370.029 293.027 364.068L292.136 364.586C290.852 374.228 282.217 380.003 275.289 385.716C267.285 392.331 259.757 399.816 254.28 408.691C250.014 415.575 246.897 423.268 244.163 430.878C241.028 439.194 238.873 447.847 237.743 456.663C236.832 464.885 237.049 474.455 242.755 481.038C243.068 480.888 243.369 480.715 243.656 480.52C250.303 473.915 254.435 465.414 258.401 457.047C262.543 448.379 266.902 440.116 272.721 432.454C278.892 424.376 285.869 416.949 293.545 410.288C299.706 404.897 307.006 401.04 313.757 396.509C320.881 391.74 327.643 386.068 330.904 377.899L330.003 378.417C327.819 395.451 316.201 408.245 305.018 420.345C299.012 426.845 292.809 433.211 289.071 441.36C285.209 449.769 283.48 458.986 280.384 467.633C277.764 474.994 270.63 485.134 276.604 492.515C276.916 492.363 277.217 492.19 277.505 491.997C281.274 487.85 282.972 482.355 285.623 477.482C288.574 472.107 291.906 466.951 295.595 462.055C299.189 457.247 303.194 452.762 307.565 448.649C313.216 443.559 319.477 439.192 326.203 435.648C334.911 430.847 343.951 426.493 351.955 420.521C360.767 413.948 367.404 404.43 369.403 393.502C370.438 387.707 370.49 381.154 367.808 375.784C365.302 370.765 361.119 366.815 359.141 361.507L358.241 362.025C365.007 366.71 371.37 371.953 377.262 377.702C382.553 382.886 387.617 387.987 393.985 391.895C405.913 399.153 419.809 402.263 433.654 402.533C446.235 402.802 459.613 401.496 471.531 397.286C475.833 395.777 479.925 393.725 483.708 391.18C488.875 387.599 493.03 382.742 495.771 377.08C499.665 369.324 501.86 360.875 505.267 352.922C507.221 348.732 508.895 344.417 510.278 340.004C511.552 335.504 512.453 330.911 513.447 326.339C513.447 326.484 512.691 326.744 512.546 326.858C509.036 329.605 507.493 333.908 504.873 337.391C505.059 337.142 505.577 337.132 505.774 336.873C508.383 333.389 509.916 329.087 513.447 326.339L512.546 326.858C510.899 334.436 509.439 342.129 506.333 349.242C503.289 356.022 500.918 362.979 498.256 369.905C495.875 376.126 493.079 382.346 488.326 387.147C483.509 391.807 477.652 395.251 471.241 397.193C459.851 400.998 447.198 402.211 435.196 402.025C422.119 401.817 408.958 399.173 397.423 392.818C390.526 389.013 384.914 383.974 379.426 378.407C373.207 372.171 366.435 366.515 359.193 361.507C358.881 361.659 358.58 361.832 358.292 362.025C360.032 366.681 363.47 370.268 365.955 374.467C368.802 379.205 369.475 384.555 369.061 390.019C368.243 400.998 362.558 411.211 354.368 418.416C345.049 426.617 333.317 431.48 322.683 437.669C313.04 443.208 304.488 450.464 297.448 459.079C293.185 464.376 289.342 469.999 285.955 475.896C282.765 481.36 280.87 487.871 276.563 492.598L277.464 492.08C272.173 485.507 277.329 476.798 280.042 470.307C283.552 461.899 285.219 452.848 288.471 444.388C290.11 440.021 292.347 435.904 295.118 432.154C297.686 428.743 300.658 425.601 303.537 422.46C309.18 416.312 314.999 410.277 319.939 403.528C325.509 395.928 329.651 387.427 330.863 378.002C330.863 378.21 330.045 378.313 329.962 378.521C323.873 393.793 306.902 399.557 294.86 409.033C287.232 415.214 280.314 422.224 274.233 429.935C268.109 437.63 262.916 446.024 258.763 454.942C254.352 464.201 250.086 473.812 242.713 481.142L243.614 480.623C238.613 474.859 237.867 466.72 238.323 459.4C238.872 450.629 241.129 441.982 243.904 433.678C246.31 426.211 249.345 418.962 252.975 412.009C258.08 402.543 265.401 394.705 273.394 387.655C280.902 381.071 291.546 375.027 292.985 364.172C292.985 364.306 292.219 364.586 292.095 364.69C288.274 367.862 285.116 371.647 281.74 375.234C280.112 377.001 278.354 378.644 276.48 380.148C273.675 382.193 270.61 383.856 267.368 385.094C256.321 389.746 244.962 393.615 233.374 396.675C214.29 401.734 194.606 404.741 177.158 414.539C168.366 419.386 160.57 425.855 154.181 433.605L155.082 433.087C158.064 423.144 162.413 413.564 169.092 405.56C176.506 396.664 186.301 390.35 196.956 386.037C217.469 377.743 241.481 378.251 259.83 364.752C270.257 357.08 276.107 345.458 284.857 336.209C287.176 333.752 289.61 331.399 291.888 328.9C292.923 327.77 293.959 326.609 294.88 325.396L295.077 325.136C295.595 324.815 295.636 324.566 295.181 324.38C295.005 324.027 294.321 323.737 293.99 323.478C293.234 322.897 292.488 322.296 291.743 321.684C287.075 317.926 282.9 313.592 279.317 308.786C275.455 303.519 272.39 297.382 271.562 290.85C271.17 286.713 271.146 282.55 271.489 278.408C271.717 273.857 272.1 269.305 272.525 264.764C272.835 261.509 273.205 258.26 273.633 255.019C273.933 253.924 274.09 252.795 274.098 251.659C273.964 250.913 274.15 251.431 273.436 251.328C272.948 251.332 272.461 251.391 271.986 251.504L269.066 251.856C261.642 252.789 254.228 253.826 246.773 254.459C239.409 255.176 231.996 255.224 224.624 254.604C224.013 254.604 219.809 254.438 219.602 253.971C219.302 253.297 220.886 250.996 221.238 250.446C222.699 248.313 224.468 246.409 226.488 244.796C230.723 241.219 235.32 238.243 239.265 234.314C244.125 229.406 248.624 224.153 252.726 218.596C261.093 207.471 268.258 195.486 276.822 184.527C285.603 173.34 295.346 163.004 304.583 152.2C313.146 142.185 321.854 132.367 330.925 122.787C334.704 118.785 339.209 113.694 344.655 112.129C348.859 110.926 353.011 112.377 356.428 114.855C363.946 120.329 368.709 129.163 373.897 136.628C381.735 147.97 387.617 160.474 393.83 172.749C399.701 184.361 406.089 195.403 414.176 205.605C418.091 210.54 422.087 215.444 425.505 220.753C427.083 223.187 428.468 225.742 429.646 228.394C430.589 230.55 431.717 233.09 431.469 235.517C431.075 239.612 426.561 239.799 423.185 240.161C421.011 240.389 418.826 240.545 416.672 240.918C413.566 241.437 410.594 242.318 407.581 243.075C401.368 244.62 394.875 246.009 388.518 244.506C388.207 244.653 387.909 244.826 387.627 245.024C389.077 254.417 390.34 263.925 389.263 273.432C388.757 278.352 387.615 283.186 385.867 287.812C384.176 291.923 381.962 295.798 379.281 299.341C376.88 302.907 374.126 306.221 371.06 309.232C369.6 310.58 368.067 311.855 366.628 313.213C365.344 314.426 363.604 315.94 362.879 317.589C362.507 318.449 362.424 317.869 363.118 318.625C363.58 318.971 364.085 319.257 364.619 319.476L367.632 321.166C369.703 322.348 371.774 323.529 373.845 324.753C378.008 327.148 382.035 329.771 385.908 332.612C398.727 342.171 407.011 356.582 420.079 365.789C433.478 375.172 450.708 374.083 465.37 368.371C472.032 365.796 478.305 362.306 484.008 358.003C487.778 355.12 491.257 351.875 494.777 348.672C498.694 345.115 502.325 341.257 505.639 337.132C505.567 337.267 505.059 337.288 504.863 337.536Z" fill="#010101"/>
<path d="M326.617 274.945C326.804 276.785 326.887 278.633 326.866 280.482C326.959 282.058 326.99 284.484 328.45 285.479C328.646 285.643 328.872 285.767 329.115 285.844C329.358 285.92 329.615 285.948 329.869 285.925C330.24 285.821 330.591 285.652 330.904 285.427C331.258 285.178 331.552 284.854 331.765 284.477C331.978 284.101 332.105 283.682 332.136 283.25C332.469 281.193 332.51 279.099 332.261 277.029C332.054 274.894 331.764 272.125 330.19 270.487C329.493 270.757 328.908 271.256 328.532 271.902C328.156 272.548 328.01 273.303 328.119 274.043C327.819 275.514 327.663 277.011 327.653 278.512C327.609 279.97 327.738 281.428 328.036 282.856C328.16 283.882 328.662 284.825 329.444 285.5C329.763 285.368 330.063 285.194 330.335 284.982C332.023 283.302 332.478 280.482 332.457 278.211C332.437 275.941 331.867 273.141 329.631 272.105C329.306 272.231 329.002 272.406 328.73 272.623C327.477 274.437 327.591 277.258 327.891 279.341C328.16 281.249 328.844 284.183 330.997 284.795C331.236 284.857 331.67 284.214 331.898 284.277C329.745 283.665 329.051 280.731 328.792 278.823C328.502 276.75 328.378 273.919 329.641 272.105L328.74 272.623C330.977 273.66 331.557 276.501 331.577 278.73C331.598 280.959 331.132 283.82 329.455 285.5L330.345 284.982C329.563 284.307 329.061 283.364 328.937 282.338C328.642 280.909 328.517 279.451 328.564 277.994C328.575 276.493 328.731 274.996 329.03 273.525C329.174 272.434 329.575 271.393 330.2 270.487L329.31 271.006C330.563 272.343 330.925 274.458 331.184 276.19C331.475 278.177 331.555 280.189 331.422 282.193C331.395 283.152 331.203 284.099 330.852 284.992C330.77 285.168 330.635 285.324 330.552 285.49C330.469 285.656 330.107 285.821 330.645 285.49C331.184 285.158 330.821 285.417 330.645 285.386C330.105 285.323 329.591 285.119 329.154 284.795C327.932 283.82 327.87 281.685 327.777 280.233C327.643 278.305 327.829 276.293 327.508 274.386C327.508 274.489 326.586 274.78 326.607 274.904L326.617 274.945Z" fill="#010101"/>
<path d="M360.684 273.038C360.167 275.993 358.965 280.295 361.72 282.607C362.032 282.463 362.331 282.29 362.61 282.089C364.309 280.513 364.505 277.683 364.371 275.516C364.236 273.349 363.656 270.529 361.813 269.067C361.494 269.204 361.191 269.378 360.912 269.585C359.933 272 359.393 274.57 359.318 277.175C359.191 278.6 359.247 280.035 359.483 281.446C359.597 282.525 360.084 283.53 360.86 284.287C361.178 284.147 361.48 283.973 361.761 283.769C363.687 282.41 364.091 279.445 364.112 277.268C364.132 275.091 363.801 272.136 361.927 270.715C361.612 270.856 361.314 271.029 361.036 271.234C360.44 271.819 360.073 272.599 360.001 273.432C359.782 274.579 359.692 275.748 359.732 276.915C359.73 278.04 359.88 279.159 360.177 280.243C360.363 280.855 360.684 281.778 361.42 281.892C361.689 281.944 362.062 281.332 362.32 281.374C361.585 281.26 361.285 280.337 361.078 279.725C360.781 278.641 360.631 277.521 360.633 276.397C360.587 275.229 360.678 274.06 360.902 272.913C360.978 272.081 361.344 271.303 361.937 270.715L361.047 271.234C362.911 272.654 363.252 275.619 363.232 277.786C363.211 279.953 362.797 282.97 360.871 284.287L361.772 283.769C360.996 283.01 360.506 282.006 360.384 280.928C360.153 279.516 360.097 278.081 360.218 276.656C360.297 274.051 360.841 271.481 361.823 269.067L360.923 269.585C362.766 271.047 363.346 273.815 363.49 276.034C363.635 278.253 363.428 281.031 361.73 282.607L362.621 282.089C359.908 279.818 361.109 275.474 361.637 272.519C361.637 272.727 360.778 272.81 360.736 273.038H360.684Z" fill="#010101"/>
<path d="M372.188 397.525C371.515 402.574 378.733 401.372 381.611 400.739C382.27 400.48 382.991 400.422 383.682 400.573C384.21 400.812 384.428 401.527 384.645 402.014C385.68 404.43 386.851 406.825 389.139 408.297C390.37 409.04 391.736 409.531 393.158 409.742C394.579 409.954 396.029 409.882 397.423 409.531C398.76 409.103 400.073 408.605 401.357 408.038C402.029 407.782 402.722 407.584 403.428 407.447C403.718 407.395 403.646 407.385 403.832 407.582C403.954 407.747 404.058 407.924 404.143 408.111C404.34 408.443 404.536 408.764 404.743 409.085C405.913 411.028 407.579 412.624 409.569 413.709C411.921 414.747 414.431 415.382 416.993 415.586C419.908 416.071 422.879 416.106 425.805 415.69C428.258 415.324 430.493 414.074 432.09 412.175L431.2 412.693C434.234 416.229 439.483 416.053 443.625 415.545C445.872 415.275 448.129 414.943 450.345 414.508C452.384 414.135 454.349 413.435 456.165 412.434C458.199 411.321 459.95 409.753 461.28 407.852L460.379 408.37C462.035 408.567 463.712 408.504 465.349 408.183C467.991 407.841 470.611 407.353 473.198 406.721C475.887 406.106 478.525 405.284 481.088 404.264C483.035 403.548 484.853 402.522 486.473 401.226C487.798 400.076 488.233 398.572 486.928 397.204L486.038 397.722C488.435 397.188 490.734 396.282 492.851 395.037C495.084 393.82 497.169 392.349 499.064 390.651C501.102 388.885 502.716 386.68 503.786 384.202C504.312 382.866 504.48 381.415 504.273 379.993C504.107 378.604 503.775 377.007 504.573 375.742C505.376 374.737 506.368 373.899 507.493 373.275C508.582 372.562 509.544 371.672 510.34 370.641C512.101 368.35 514.161 365.592 514.482 362.627C514.751 360.004 512.608 358.241 512.328 355.732C512.292 355.254 512.367 354.775 512.547 354.33C512.726 353.886 513.006 353.49 513.364 353.171C514.382 351.995 515.14 350.618 515.59 349.128C516.098 347.417 516.346 345.655 516.74 343.944C517.331 341.987 517.771 339.987 518.055 337.962C518.142 336.258 517.716 334.568 516.833 333.11C516.108 331.731 515.217 330.269 515.466 328.651C515.466 328.859 514.607 328.952 514.575 329.17C514.151 331.907 516.729 334.053 517.112 336.655C517.261 338.406 517.057 340.169 516.512 341.839C516.118 343.363 515.735 344.877 515.476 346.422C515.232 347.959 514.83 349.467 514.275 350.922C513.709 352.099 512.977 353.188 512.101 354.156C510.579 356.023 512.039 358.303 512.97 360.045C514.254 362.534 513.312 365.126 512.007 367.406C510.779 369.834 509.029 371.958 506.882 373.627C505.771 374.259 504.765 375.06 503.9 376.001C503.555 376.565 503.326 377.192 503.227 377.845C503.127 378.499 503.159 379.165 503.32 379.806C503.587 381.211 503.53 382.657 503.154 384.037C502.79 385.156 502.274 386.219 501.622 387.199C499.915 389.706 497.743 391.86 495.223 393.544C492.74 395.317 489.921 396.563 486.939 397.204C486.825 397.204 486.079 397.764 486.048 397.722C486.283 397.93 486.474 398.183 486.61 398.465C486.747 398.748 486.826 399.055 486.844 399.368C486.861 399.681 486.816 399.995 486.711 400.291C486.607 400.587 486.445 400.859 486.235 401.092C485.67 401.726 485.01 402.268 484.278 402.699C484.081 402.813 484.35 402.647 484.371 402.637L484.174 402.74L483.874 402.896C483.598 403.041 483.318 403.176 483.035 403.3C482.497 403.549 482 403.767 481.399 403.984C476.63 405.774 471.667 406.996 466.613 407.623C464.861 407.979 463.065 408.056 461.29 407.852C460.961 407.967 460.655 408.143 460.389 408.37C459.788 409.26 459.094 410.084 458.318 410.827C457.641 411.476 456.874 412.025 456.04 412.455C454.116 413.309 452.08 413.885 449.993 414.166C446.038 414.819 441.865 415.659 437.847 415.057C435.63 414.811 433.578 413.768 432.069 412.123C431.757 412.267 431.459 412.441 431.179 412.641C430.844 413.096 430.455 413.507 430.019 413.865L429.491 414.259C429.605 414.176 429.885 414.062 429.325 414.321C429.004 414.466 428.683 414.591 428.352 414.705C427.149 415.08 425.904 415.303 424.645 415.368C422.165 415.467 419.682 415.321 417.231 414.933C414.756 414.72 412.341 414.052 410.107 412.963C408.214 411.842 406.636 410.258 405.52 408.36C405.344 408.09 405.178 407.81 405.013 407.541C404.847 407.271 404.878 407.302 404.816 407.188C404.65 406.898 404.712 406.887 404.402 406.867C403.726 406.92 403.065 407.1 402.455 407.395C401.14 407.883 399.887 408.525 398.531 408.899C395.829 409.634 392.95 409.315 390.475 408.007C388.155 406.701 386.84 404.451 385.805 402.087C385.605 401.398 385.274 400.754 384.831 400.19C384.631 400.044 384.398 399.948 384.153 399.912C383.908 399.876 383.657 399.9 383.423 399.982C381.218 400.345 379.178 401.019 376.9 400.76C375.873 400.71 374.882 400.368 374.042 399.775C373.647 399.432 373.352 398.99 373.186 398.494C373.02 397.998 372.99 397.466 373.1 396.955C373.1 397.162 372.23 397.266 372.199 397.473L372.188 397.525Z" fill="#010101"/>
<path d="M160.86 433.211C164.33 432.804 167.62 431.444 170.366 429.282C173.399 427.084 176.123 423.88 176.734 420.075L175.833 420.594C176.06 421.75 176.537 422.842 177.231 423.793C177.925 424.744 178.819 425.531 179.85 426.099C181.859 426.903 184.083 426.987 186.146 426.337C188.546 425.658 190.837 424.639 192.949 423.31C195.191 421.995 197.293 420.457 199.224 418.717C201.106 417.135 202.703 415.241 203.946 413.118L203.055 413.637C204.382 415.271 206.162 416.476 208.17 417.1C210.017 417.582 211.957 417.582 213.803 417.1C217.433 416.087 220.809 414.32 223.713 411.916C225.504 410.518 227.177 408.975 228.714 407.302L227.813 407.82C229.002 409.641 230.723 411.05 232.742 411.853C234.729 412.573 236.858 412.811 238.955 412.548C243.314 411.922 247.485 410.358 251.184 407.966C253.201 406.775 255.095 405.386 256.837 403.818C256.589 404.046 256.195 404.119 255.936 404.337C252.772 407.219 249.056 409.428 245.012 410.827C241.44 412.061 237.34 412.724 233.705 411.356C231.655 410.558 229.905 409.137 228.704 407.292C228.704 407.292 227.865 407.748 227.803 407.81C225.327 410.643 222.394 413.04 219.126 414.902C216.081 416.498 212.468 417.566 209.061 416.581C207.032 415.964 205.23 414.759 203.884 413.118C203.572 413.264 203.274 413.438 202.993 413.637C202.017 415.328 200.796 416.866 199.369 418.199C197.592 419.943 195.646 421.505 193.56 422.864C191.49 424.239 189.205 425.255 186.798 425.871C184.867 426.432 182.808 426.367 180.917 425.684C178.577 424.699 177.303 422.439 176.671 420.075C176.671 420.179 175.791 420.459 175.771 420.594C175.121 423.748 173.406 426.582 170.914 428.618C168.375 430.944 165.146 432.375 161.719 432.693C161.409 432.693 161.129 433.191 160.829 433.211H160.86Z" fill="#010101"/>
<path d="M390.247 181.448C382.502 189.971 377.024 200.214 369.879 209.203C366.949 212.894 363.594 216.181 360.456 219.685C357.319 223.189 354.13 227.005 351.137 230.83C346.995 236.201 343.123 241.779 339.499 247.512L340.399 246.994C334.187 238.057 327.415 229.503 320.726 220.898C319.069 218.752 317.412 216.606 315.766 214.439C314.357 212.583 312.929 210.737 311.686 208.768C310.744 207.275 309.874 205.73 308.921 204.247C307.492 202.028 305.96 199.872 304.438 197.726C300.296 191.93 295.812 186.435 291.411 180.847C290.31 179.569 289.346 178.179 288.533 176.7C288.285 176.286 288.127 175.825 288.07 175.346C288.012 174.867 288.057 174.381 288.202 173.921C288.435 173.441 288.792 173.033 289.237 172.739C288.523 173.33 288.471 173.133 288.947 172.947L289.403 172.791C289.743 172.7 290.089 172.634 290.438 172.594C292.507 172.408 294.59 172.446 296.651 172.708C304.407 173.361 312.11 174.201 319.897 174.408C324.647 174.533 329.392 174.481 334.135 174.253C339.022 174.025 343.899 173.745 348.776 173.548C358.096 173.164 367.415 172.791 376.734 172.791C380.501 172.661 384.272 172.911 387.99 173.538C389.843 173.921 392.742 174.74 392.691 177.135C392.691 178.825 391.365 180.308 390.288 181.49C390.506 181.241 390.961 181.21 391.189 180.971C392.297 179.748 393.716 178.141 393.581 176.368C393.523 175.893 393.35 175.438 393.078 175.045C392.805 174.651 392.442 174.329 392.017 174.108C390.942 173.529 389.776 173.14 388.569 172.957C386.859 172.653 385.129 172.469 383.392 172.407C378.629 172.148 373.845 172.293 369.082 172.407C364.319 172.521 359.255 172.667 354.347 172.843C348.673 173.05 342.957 173.33 337.324 173.62C333.576 173.817 329.827 173.963 326.079 173.963C317.536 173.963 309.056 173.299 300.565 172.47C298.077 172.171 295.574 172.001 293.068 171.962C292.247 171.953 291.428 172.033 290.625 172.2C289.889 172.383 289.189 172.688 288.554 173.102C288.118 173.33 287.755 173.674 287.504 174.097C287.253 174.521 287.126 175.005 287.135 175.497C287.314 176.706 287.815 177.845 288.585 178.794C289.817 180.608 291.235 182.298 292.613 183.978C294.808 186.694 296.982 189.421 299.095 192.2C302.087 196.15 305.018 200.183 307.741 204.33C308.776 205.875 309.667 207.44 310.64 209.037C311.862 210.997 313.26 212.842 314.658 214.677C321.326 223.469 328.253 232.064 334.798 240.949C336.392 243.127 337.959 245.318 339.499 247.523C339.499 247.523 340.358 247.077 340.399 247.004C346.311 237.59 352.962 228.662 360.291 220.307C363.304 216.906 366.576 213.734 369.475 210.25C373.131 205.854 376.309 201.106 379.509 196.388C383.001 190.968 386.876 185.805 391.106 180.94C390.93 181.116 390.433 181.148 390.247 181.448Z" fill="#010101"/>
</g>
<defs>
<clipPath id="clip0_136_163">
<rect width="642" height="560" fill="white"/>
</clipPath>
</defs>
</svg>
