<svg width="278" height="202" viewBox="0 0 278 202" fill="none" xmlns="http://www.w3.org/2000/svg">
  <path d="M154.004 185.78C207.06 179.326 249.514 169.528 248.829 163.895C248.144 158.262 204.579 158.927 151.523 165.381C98.4671 171.835 56.0125 181.633 56.6977 187.266C57.3829 192.899 100.948 192.233 154.004 185.78Z" fill="url(#paint0_radial_2530_45010)" fill-opacity="0.1" />
  <rect x="50.5752" y="22.3535" width="167" height="167" rx="24" transform="rotate(-7.69207 50.5752 22.3535)" fill="var(--bg)" />
  <path d="M106.941 75.79L175.903 66.4757C179.902 65.9355 184.024 69.0292 184.689 73.9578L190.119 114.161C190.785 119.09 187.632 123.166 183.632 123.706L114.671 133.02C110.671 133.561 106.55 130.467 105.884 125.538L100.454 85.335C99.7885 80.4063 102.941 76.3302 106.941 75.79Z" stroke="var(--bg-secondary-450)" stroke-width="6" />
  <path d="M115.966 52.623L137.514 70.5249" stroke="var(--bg-secondary-450)" stroke-width="6" stroke-linecap="round" stroke-linejoin="round" />
  <path d="M161.057 46.5332L145.03 69.5102" stroke="var(--bg-secondary-450)" stroke-width="6" stroke-linecap="round" stroke-linejoin="round" />
  <g clip-path="url(#clip0_2530_45010)">
    <rect y="8.43359" width="74" height="74" rx="37" fill="var(--bg-secondary-450)" />
    <path d="M36.9997 51.8372C44.8237 51.8372 51.1663 45.4946 51.1663 37.6706C51.1663 29.8465 44.8237 23.5039 36.9997 23.5039C29.1756 23.5039 22.833 29.8465 22.833 37.6706C22.833 45.4946 29.1756 51.8372 36.9997 51.8372Z" stroke="var(--secondary-icon-color)" stroke-width="4" stroke-linecap="round" stroke-linejoin="round" />
    <path d="M59.6663 74.5046C59.6663 68.493 57.2783 62.7276 53.0274 58.4768C48.7766 54.226 43.0112 51.8379 36.9997 51.8379C30.9881 51.8379 25.2227 54.226 20.9719 58.4768C16.7211 62.7276 14.333 68.493 14.333 74.5046" stroke="var(--secondary-icon-color)" stroke-width="4" stroke-linecap="round" stroke-linejoin="round" />
  </g>
  <g clip-path="url(#clip1_2530_45010)">
    <rect x="96" y="157.424" width="44" height="44" rx="22" fill="var(--secondary-icon-color)" />
    <path d="M118 184.837C123.062 184.837 127.166 180.733 127.166 175.671C127.166 170.608 123.062 166.504 118 166.504C112.937 166.504 108.833 170.608 108.833 175.671C108.833 180.733 112.937 184.837 118 184.837Z" stroke="var(--bg-secondary-350)" stroke-width="3" stroke-linecap="round" stroke-linejoin="round" />
    <path d="M132.666 199.505C132.666 195.615 131.121 191.884 128.371 189.134C125.62 186.383 121.89 184.838 118 184.838C114.11 184.838 110.379 186.383 107.629 189.134C104.878 191.884 103.333 195.615 103.333 199.505" stroke="var(--bg-secondary-350)" stroke-width="3" stroke-linecap="round" stroke-linejoin="round" />
  </g>
  <g clip-path="url(#clip2_2530_45010)">
    <rect x="218" y="77.4258" width="60" height="60" rx="30" fill="var(--fg-300)" />
    <path d="M248 115.504C254.904 115.504 260.5 109.907 260.5 103.004C260.5 96.1003 254.904 90.5039 248 90.5039C241.096 90.5039 235.5 96.1003 235.5 103.004C235.5 109.907 241.096 115.504 248 115.504Z" stroke="var(--bg-secondary-500)" stroke-width="4" stroke-linecap="round" stroke-linejoin="round" />
    <path d="M268 135.504C268 130.2 265.893 125.112 262.142 121.362C258.391 117.611 253.304 115.504 248 115.504C242.696 115.504 237.609 117.611 233.858 121.362C230.107 125.112 228 130.2 228 135.504" stroke="var(--bg-secondary-500)" stroke-width="4" stroke-linecap="round" stroke-linejoin="round" />
  </g>
  <circle cx="219" cy="135.43" r="16" fill="var(--bg-secondary-500)" />
  <g clip-path="url(#clip3_2530_45010)">
    <path d="M222.334 138.763L219 135.43L215.667 138.763" stroke="var(--fg-200)" stroke-width="2" stroke-linecap="round" stroke-linejoin="round" />
    <path d="M219 135.43V142.93" stroke="var(--fg-200)" stroke-width="2" stroke-linecap="round" stroke-linejoin="round" />
    <path d="M225.992 140.755C226.805 140.311 227.447 139.61 227.817 138.762C228.187 137.913 228.264 136.966 228.035 136.069C227.807 135.171 227.286 134.376 226.556 133.807C225.825 133.239 224.926 132.93 224 132.93H222.95C222.698 131.954 222.228 131.048 221.575 130.28C220.922 129.513 220.104 128.903 219.182 128.497C218.26 128.091 217.257 127.899 216.25 127.936C215.243 127.973 214.258 128.238 213.368 128.711C212.478 129.184 211.707 129.852 211.112 130.666C210.518 131.48 210.116 132.418 209.936 133.409C209.756 134.401 209.804 135.42 210.075 136.391C210.345 137.361 210.833 138.258 211.5 139.013" stroke="var(--fg-200)" stroke-width="2" stroke-linecap="round" stroke-linejoin="round" />
    <path d="M222.334 138.763L219 135.43L215.667 138.763" stroke="var(--fg-200)" stroke-width="2" stroke-linecap="round" stroke-linejoin="round" />
  </g>
  <circle cx="61" cy="76.4336" r="16" fill="var(--secondary-icon-color)" />
  <path d="M60.8525 73.166C62.5743 73.1661 63.9697 74.5614 63.9697 76.2832C63.9696 78.0049 62.5742 79.4003 60.8525 79.4004C59.1307 79.4004 57.7355 78.005 57.7354 76.2832C57.7354 74.5613 59.1307 73.166 60.8525 73.166ZM60.8525 73.9736C59.5774 73.9736 58.543 75.0081 58.543 76.2832C58.5431 77.5586 59.5778 78.5908 60.8525 78.5908C62.1275 78.5907 63.1601 77.5582 63.1602 76.2832C63.1602 75.0085 62.128 73.9737 60.8525 73.9736Z" fill="black" stroke="var(--bg)" />
  <path d="M60.8516 66.7402C60.076 66.7405 59.4473 67.3692 59.4473 68.1445V68.2988C59.4472 69.0559 58.994 69.7395 58.2969 70.0352L58.2891 70.0391L58.2803 70.043C58.2589 70.0529 58.2373 70.0585 58.2139 70.0605L58.1484 70.0664L58.0869 70.0879C57.4516 70.3169 56.7454 70.1822 56.2402 69.7451L56.1416 69.6543C55.888 69.3698 55.5309 69.2009 55.1514 69.1846L55.1494 69.1836C54.7556 69.1682 54.3723 69.3204 54.0947 69.6016C53.5506 70.1489 53.5508 71.0335 54.0938 71.5811L54.1035 71.5898C54.6841 72.1443 54.8562 73.004 54.5342 73.7412L54.5293 73.751L54.5254 73.7607C54.2489 74.4732 53.5683 74.9483 52.8037 74.9609H52.7129C51.9379 74.961 51.3088 75.5893 51.3086 76.3643C51.3086 77.14 51.9374 77.7695 52.7129 77.7695H52.8633C53.5773 77.7747 54.224 78.1797 54.5449 78.8096L54.6045 78.9385C54.8987 79.6412 54.7469 80.451 54.2188 80.998C53.9309 81.2694 53.7631 81.6432 53.75 82.0361V82.0605C53.7562 82.4282 53.9053 82.7795 54.1689 83.0391V83.04C54.7164 83.5857 55.6017 83.5846 56.1494 83.04L56.1504 83.0391C56.5239 82.6655 57.0279 82.4521 57.5557 82.4443C57.8088 82.443 58.0594 82.4979 58.29 82.6055L58.3057 82.6133L58.3232 82.6201C59.0318 82.8902 59.5054 83.5638 59.5205 84.3223H59.5195V84.4229C59.5196 85.1978 60.1488 85.8261 60.9238 85.8262C61.7003 85.8262 62.328 85.1975 62.3281 84.4229V84.2715C62.3321 83.5135 62.7851 82.8298 63.4814 82.5303L63.4873 82.5273C64.1921 82.2136 65.0171 82.3665 65.5615 82.9121C65.8323 83.201 66.2085 83.3729 66.6064 83.3848H66.6221C67.1904 83.3832 67.7022 83.0388 67.917 82.5137C68.1326 81.9878 68.0099 81.3832 67.6055 80.9834L67.6016 80.9795L67.498 80.8711C67.0047 80.3141 66.8724 79.5161 67.1709 78.8242L67.1699 78.8232C67.4717 78.1329 68.1553 77.6875 68.9092 77.6875V77.6865C69.288 77.7086 69.6591 77.5787 69.9395 77.3223C70.2321 77.0544 70.3961 76.6752 70.3945 76.2812C70.3932 75.5066 69.7658 74.879 68.9912 74.8789H68.8369C68.0825 74.8789 67.401 74.4287 67.1035 73.7363C67.0885 73.6974 67.0766 73.6568 67.0703 73.6143L67.0635 73.5654L67.0459 73.5186L67.0059 73.3906C66.8248 72.7469 67.0034 72.0505 67.4814 71.5732L67.4805 71.5723C67.7617 71.319 67.9302 70.9648 67.9453 70.5869L67.9443 70.5859C67.9607 70.1941 67.8132 69.8157 67.5381 69.5391H67.5391C67.2769 69.2723 66.9179 69.1197 66.542 69.1182L66.5342 69.1191C66.162 69.1238 65.8093 69.2761 65.5508 69.5391H65.5498L65.5459 69.5439C64.9903 70.1249 64.1316 70.2966 63.3945 69.9746C62.7003 69.6714 62.2527 68.985 62.2559 68.2275L62.2549 68.2266C62.2743 67.8976 62.1798 67.5722 61.9844 67.3086L61.8896 67.1953C61.6222 66.9036 61.2446 66.7391 60.8516 66.7402ZM58.7109 84.417C58.7057 83.9671 58.4415 83.5634 58.0352 83.376L58.0342 83.375L57.8779 83.3164C57.5087 83.2082 57.1039 83.2896 56.8037 83.542L56.7832 83.5596L56.7637 83.5801C56.3516 84.0133 55.7828 84.2602 55.1846 84.2676C54.5877 84.2738 54.0124 84.0404 53.5908 83.6172H53.5918C52.7345 82.7542 52.7345 81.3601 53.5918 80.4971L53.5898 80.4951C53.9284 80.182 54.0411 79.6959 53.875 79.2676L53.8711 79.2578L53.8662 79.2471C53.6929 78.8535 53.3081 78.5962 52.8779 78.5869H52.7129C51.4911 78.5869 50.5002 77.5965 50.5 76.374C50.5 75.1522 51.4911 74.1602 52.7129 74.1602V74.1592C53.1638 74.1725 53.5723 73.9103 53.7529 73.5L53.7539 73.501C53.7563 73.4963 53.7574 73.491 53.7598 73.4863C53.765 73.4741 53.7726 73.4627 53.7773 73.4502L53.7754 73.4492C53.9589 73.0462 53.8902 72.5704 53.5889 72.2393L53.5791 72.2275L53.5684 72.2178L53.4141 72.0518C52.6936 71.1913 52.7275 69.9074 53.5283 69.0859C54.3816 68.2099 55.784 68.1919 56.6592 69.0459L56.6602 69.0439C56.97 69.3745 57.4485 69.4896 57.876 69.3271L57.877 69.3281L58.0488 69.2646L58.1025 69.2451L58.1504 69.2139C58.4234 69.0356 58.5983 68.7453 58.6328 68.4268L58.6387 68.2891V68.1445C58.6387 66.9227 59.6291 65.9319 60.8516 65.9316C62.0734 65.9316 63.0654 66.9227 63.0654 68.1445H63.0664C63.045 68.5949 63.2941 69.0146 63.7002 69.21L63.707 69.2139L63.7129 69.2158C64.1165 69.3958 64.5912 69.3205 64.918 69.0176L64.9414 68.9941C65.3569 68.5542 65.9345 68.3038 66.54 68.3008C67.1231 68.3018 67.6825 68.5325 68.0957 68.9424C68.5121 69.3574 68.7461 69.9218 68.7461 70.5098C68.7461 71.0978 68.5115 71.661 68.0947 72.0762L68.0957 72.0771C67.7964 72.3522 67.6737 72.7654 67.7686 73.1533L67.8242 73.3232C67.8341 73.3479 67.8434 73.377 67.8506 73.4111L67.8721 73.5127L67.9316 73.5967C68.1338 73.8834 68.461 74.056 68.8115 74.0615H68.9912C70.213 74.0616 71.204 75.0519 71.2041 76.2744C71.2041 77.4962 70.213 78.4872 68.9912 78.4873V78.4893C68.5448 78.4707 68.1249 78.7142 67.9268 79.1211L67.9209 79.1318C67.7332 79.5426 67.8211 80.0251 68.1396 80.3438L68.1436 80.3486C69.0198 81.2046 69.0366 82.6089 68.1807 83.4854H68.1797C67.3248 84.3612 65.9205 84.3776 65.0439 83.5215H65.043C64.748 83.1971 64.2884 83.0775 63.873 83.2227C63.4366 83.3738 63.1422 83.7836 63.1367 84.2451V84.4229C63.1366 85.6446 62.1456 86.6357 60.9238 86.6357C59.7021 86.6356 58.7111 85.6446 58.7109 84.4229V84.417Z" fill="black" stroke="var(--bg)" />
  <path d="M45 97C55.5 115 81.5 115.5 88 109.5C94.5 103.5 70 92.5 68 119C66.4 140.2 80.6667 156.5 88 162" stroke="var(--bg-secondary-500)" stroke-linecap="round" stroke-dasharray="4 4" />
  <path d="M251 146.5C253.5 162 253 202 209 184.5C165 167 167 162 148 165" stroke="var(--bg-secondary-500)" stroke-linecap="round" stroke-dasharray="4 4" />
  <path d="M239.5 70.5002C223.5 57 193 63.5011 172.5 82.0005" stroke="var(--bg-secondary-500)" stroke-linecap="round" stroke-dasharray="4 4" />
  <path d="M170.286 79C170.286 80.3609 167.185 83.4258 166.259 85.8156C166.03 86.4039 166.577 86.8845 167.196 86.7608L176 85" stroke="var(--bg-secondary-500)" stroke-linecap="round" />
  <defs>
    <radialGradient id="paint0_radial_2530_45010" cx="0" cy="0" r="1" gradientUnits="userSpaceOnUse" gradientTransform="translate(152.764 175.58) rotate(-6.93547) scale(96.7739 10.2746)">
      <stop />
      <stop offset="1" stop-opacity="0" />
    </radialGradient>
    <clipPath id="clip0_2530_45010">
      <rect y="8.43359" width="74" height="74" rx="37" fill="var(--bg)" />
    </clipPath>
    <clipPath id="clip1_2530_45010">
      <rect x="96" y="157.424" width="44" height="44" rx="22" fill="var(--bg)" />
    </clipPath>
    <clipPath id="clip2_2530_45010">
      <rect x="218" y="77.4258" width="60" height="60" rx="30" fill="var(--bg)" />
    </clipPath>
    <clipPath id="clip3_2530_45010">
      <rect width="20" height="20" fill="var(--bg)" transform="translate(209 125.43)" />
    </clipPath>
  </defs>
</svg>
