<?xml version="1.0" encoding="UTF-8"?>
<svg width="24px" height="24px" viewBox="0 0 24 24" version="1.1" xmlns="http://www.w3.org/2000/svg" xmlns:xlink="http://www.w3.org/1999/xlink">
    <defs></defs>
    <g id="Page-1" stroke="none" stroke-width="1" fill="none" fill-rule="evenodd">
        <g id="Artboard-4" transform="translate(-180.000000, -115.000000)" fill="#000">
            <g id="4" transform="translate(180.000000, 115.000000)">
                <path d="M10,19 C10.5522847,19 11,19.4477153 11,20 C11,20.5522847 10.5522847,21 10,21 C9.99404288,21 9.98809793,20.9999479 9.98216558,20.9998442 C5.01980239,20.990358 1,16.9646166 1,12 C1,7.02943725 5.02943725,3 10,3 C14.9705627,3 19,7.02943725 19,12 L17,12 C17,8.13400675 13.8659932,5 10,5 C6.13400675,5 3,8.13400675 3,12 C3,15.8659932 6.13400675,19 10,19 Z M14,12 L22,12 L18,16 L14,12 Z" id="Combined-Shape" transform="translate(11.500000, 12.000000) scale(-1, 1) translate(-11.500000, -12.000000) "></path>
            </g>
        </g>
    </g>
</svg>
