<svg id="Слой_1" data-name="Слой 1" xmlns="http://www.w3.org/2000/svg" xmlns:xlink="http://www.w3.org/1999/xlink" viewBox="0 0 554.77 78.78"><defs><style>.cls-1{fill:url(#Безымянный_градиент_7);}.cls-2{fill:url(#Безымянный_градиент_7-2);}.cls-3{fill:url(#Безымянный_градиент_7-3);}.cls-4{fill:url(#Безымянный_градиент_7-4);}.cls-5{fill:#fff;}</style><linearGradient id="Безымянный_градиент_7" x1="13.3" y1="40.16" x2="13.3" y2="0.45" gradientUnits="userSpaceOnUse"><stop offset="0" stop-color="#e6e6e6"/><stop offset="1" stop-color="#989898"/></linearGradient><linearGradient id="Безымянный_градиент_7-2" x1="39.42" y1="13.3" x2="78.46" y2="13.3" xlink:href="#Безымянный_градиент_7"/><linearGradient id="Безымянный_градиент_7-3" x1="65.72" y1="39.05" x2="66.31" y2="79.41" xlink:href="#Безымянный_градиент_7"/><linearGradient id="Безымянный_градиент_7-4" x1="39.57" y1="65.5" x2="0.07" y2="65.5" xlink:href="#Безымянный_градиент_7"/></defs><title>logo</title><path class="cls-1" d="M16.46,52.23l-.11-.2h0A26.23,26.23,0,0,1,26.6,16.46L19.94,6.51a32,32,0,0,0-7.56,5.85A38.22,38.22,0,0,0,6,58H6a6,6,0,0,1,.77,3A6,6,0,0,1,5,65.16l-5,5,8.43,8.43,5.2-5.22a18,18,0,0,0,2.71-3.59,17.93,17.93,0,0,0,.12-17.59Z"/><path class="cls-2" d="M66.57,12.38A38.22,38.22,0,0,0,21,6h0a6,6,0,0,1-3,.77A6,6,0,0,1,13.77,5l-5-5L.3,8.43l5.22,5.2A17.86,17.86,0,0,0,18,18.71a17.84,17.84,0,0,0,8.89-2.36h0A26.23,26.23,0,0,1,62.46,26.6l10.14-6.38A34.35,34.35,0,0,0,66.57,12.38Z"/><path class="cls-3" d="M66.58,66.49a38.22,38.22,0,0,0,6.35-45.6h0a6,6,0,0,1,1-7.2l5-5L70.53.22l-5.2,5.22a17.93,17.93,0,0,0-2.72,21.39h0A26.23,26.23,0,0,1,52.37,62.38l6.86,9.85A30.6,30.6,0,0,0,66.58,66.49Z"/><path class="cls-4" d="M73.48,65.16a17.93,17.93,0,0,0-21.39-2.72h0A26.34,26.34,0,0,1,16.46,52.23h0a17.93,17.93,0,0,1-.12,17.59A38.24,38.24,0,0,0,58,72.76h0a6,6,0,0,1,7.2,1l5,5,8.43-8.43Z"/><path class="cls-5" d="M137.54,7.13c3.59,0,10.09.29,14.84,4.07,2,1.55,5.82,5.53,5.82,13.39a14.6,14.6,0,0,1-6.4,12.71c9,2.23,12.32,10.09,12.32,16.3a17.88,17.88,0,0,1-6.6,14c-5.14,4.07-11.06,4.27-15.52,4.27H118.9V7.13ZM126.08,35.55h12.43c3.78,0,12.71-.78,12.71-10.77,0-10.67-10.48-10.86-12.51-10.86H126.08Zm0,29.49h15.25c4.17,0,8.25-.29,11.35-2.72a10.9,10.9,0,0,0,4.27-8.92,10.48,10.48,0,0,0-5.53-9.51c-2.42-1.36-5.82-1.94-11-1.94H126.08Z"/><path class="cls-5" d="M277.47,19.78a15.6,15.6,0,0,0-3.78-4.85,11.64,11.64,0,0,0-7.27-2.23c-6.4,0-10.86,4-10.86,10A6.78,6.78,0,0,0,258,28.32a21.13,21.13,0,0,0,6.79,4.07L271,35.11c3.78,1.65,7.27,3.4,10,6.11A15.57,15.57,0,0,1,285.62,53c0,11.93-8.83,19.88-20.47,19.88-4.27,0-9.6-.87-14.06-5.24a23.45,23.45,0,0,1-6-11.45l7-1.94a15.27,15.27,0,0,0,3.88,8.25,12.37,12.37,0,0,0,9.31,3.59c8.83,0,13-6.3,13-12.8a9.65,9.65,0,0,0-3.2-7.57c-1.84-1.75-4.37-2.91-7.76-4.46l-5.82-2.72a28.66,28.66,0,0,1-8.63-5.33,13.44,13.44,0,0,1-4.46-10.57c0-10,7.66-16.68,18.14-16.68a17.53,17.53,0,0,1,10.38,2.91A19.57,19.57,0,0,1,283.2,16Z"/><path class="cls-5" d="M321,13.92V71.83H313.8V13.92H294.09V7.13H340.7v6.79Z"/><path class="cls-5" d="M416.4,39.38c0-19.3,15-33.46,33.66-33.46s33.66,14.16,33.66,33.46-14.94,33.46-33.66,33.46S416.4,58.58,416.4,39.38Zm7.37,0a26.29,26.29,0,1,0,52.57,0,26.29,26.29,0,1,0-52.57,0Z"/><path class="cls-5" d="M226.5,71.85h8L206.77,7.14h-5.58v0L173.53,71.85h8l7.62-18.27h29.78ZM192,46.7l12-28.84L216,46.7Z"/><polygon class="cls-5" points="547.59 7.13 547.59 60.55 504.09 7.13 504.09 7.13 504.09 7.13 504.09 7.13 504.09 7.13 496.91 7.13 496.91 71.93 504.09 71.93 504.09 18.51 547.59 71.92 547.59 71.93 554.77 71.93 554.77 7.13 547.59 7.13"/><path class="cls-5" d="M409.93,8.59l-5.57-4.53L380.05,33.92,355.74,4.06l-5.57,4.53,26.19,32.17v31h7.38v-31ZM380.17,38.36h-.23l.11-.09Z"/></svg>