<svg xmlns="http://www.w3.org/2000/svg" xmlns:xlink="http://www.w3.org/1999/xlink" viewBox="0 0 52.23 62.1">
  <defs/>
  <defs>
    <radialGradient id="d" cx="56.46" cy="167.69" r="20.58" fx="56.46" fy="167.69" gradientTransform="matrix(.50168 0 0 .29088 123.92 38.05)" gradientUnits="userSpaceOnUse" xlink:href="#a"/>
    <radialGradient id="c" cx="56.46" cy="167.69" r="20.58" fx="56.46" fy="167.69" gradientTransform="matrix(1.20299 0 0 .16716 41.85 125.73)" gradientUnits="userSpaceOnUse" xlink:href="#b"/>
    <linearGradient id="a">
      <stop offset="0" stop-color="red"/>
      <stop offset="1" stop-color="red" stop-opacity="0"/>
    </linearGradient>
    <linearGradient id="b">
      <stop offset="0" stop-color="#838383"/>
      <stop offset="1" stop-color="#bfbfbf" stop-opacity="0"/>
    </linearGradient>
  </defs>
  <g transform="translate(-85.01 -95.1)">
    <ellipse cx="109.77" cy="153.77" fill="url(#c)" color="#000" opacity=".79" overflow="visible" paint-order="markers stroke fill" rx="24.76" ry="3.44" style="isolation:auto;mix-blend-mode:normal;solid-color:#000;solid-opacity:1;marker:none"/>
    <path fill="#ffb370" fill-rule="evenodd" d="M106.81 153.03c.3-.59-1-.87-1.1-1.57-.12-.7-.05-1.99 1.36-3.2 1.4-1.23-.19-2.6-.63-2.56-.43.03-1.57 2.23-2.1 3.51-.54 1.3-.34 2.4.2 3 .5.56 2.27.82 2.27.82z"/>
    <path fill="#ffb370" fill-rule="evenodd" d="M110.25 140.6c-.8-.45-.73-2.12-.68-2.64.06-.52 2.52-1.16 2.91-1.18.4-.02 2.69 1.45 2.9 1.8.2.33 1.77 3.93.15 5.99s-4.05 3.44-6.35 3.24c-1.1-.09-3.23-.87-2.66-2.3.21-.56 2.36.23 3.36-.98 1.13-1.36 1.19-2.22.37-3.93z"/>
    <path fill="#fffdfb" fill-opacity=".46" fill-rule="evenodd" d="M115.35 140.9c.01.23.06.48.14.72.04.13.11.25.2.28.03.02.08.03.1 0 .1-.07.14-.24.14-.41 0-.21-.03-.45-.1-.67-.04-.15-.14-.27-.24-.3-.1-.03-.2.03-.22.18a.83.83 0 00-.02.2z"/>
    <path fill="#ffb370" fill-rule="evenodd" d="M96.76 148.42c.25-.7 2.02-.39 2.86-1 .83-.63 2.05-1.9 1.66-3.73-.4-1.83 2.82-2.42 3.3-2.19.47.24-.45 2.88-1.13 4.37a5.17 5.17 0 01-3.25 2.8c-1.15.31-3.44-.25-3.44-.25z"/>
    <path fill="#ffb370" fill-rule="evenodd" d="M104.9 138.84c.78-.13 1.3-1.55 1.45-2.01.14-.46-1.54-1.8-1.84-1.94-.3-.15-2.59.35-2.87.58-.28.22-2.76 2.73-2.23 5 .53 2.26 1.92 4.2 3.78 4.79.88.27 2.8.3 2.87-1.09.03-.53-1.91-.56-2.26-1.9-.4-1.52-.14-2.26 1.1-3.43z"/>
    <path fill="#fffdfb" fill-opacity=".46" fill-rule="evenodd" d="M101.31 138.01c-.1.22-.26.42-.47.6-.1.09-.26.15-.4.13-.06 0-.12-.03-.15-.07-.1-.12-.1-.3-.05-.46.08-.2.22-.4.4-.56a.56.56 0 01.47-.12c.16.03.29.14.26.3 0 .06-.03.13-.06.18z"/>
    <path fill="#fd9c50" d="M130.78 124.86c-3.03 10.81-10.88 15-18.46 12.9-6.72-1.84-11.03-12.08-7.82-20.04 2.53-6.26 8.28-8.97 15.76-6.58 7.28 2.32 11.87 8.93 10.52 13.72z" color="#000" overflow="visible" paint-order="markers stroke fill" style="isolation:auto;mix-blend-mode:normal;solid-color:#000;solid-opacity:1;marker:none"/>
    <path fill="#fd9c50" fill-rule="evenodd" d="M126.84 95.5c1.1-.68 3-.55 3.11.85.07.83 6.94 34.13 7.2 35.04.34 1.25-.25 2.6-1.54 2.56-1.18-.27-37.89-17.82-38.88-18.19-1-.36-2.42-3.02-.54-3.65 1.88-.63 29.07-15.32 30.65-16.6z"/>
    <path fill="#ffddc2" fill-rule="evenodd" d="M119.7 101.59c-.56.31-.98.56-1.32.7-.52.21-1.2-.49-.49-.87.38-.22.86-.49 1.4-.73.56-.25.98.59.42.9z"/>
    <path fill="#fd9c50" fill-rule="evenodd" d="M106 137.43c-.07.9 1.5 1.88 2 2.16.52.29 2.6-1.2 2.87-1.48.26-.29.6-3.52.42-3.89-.19-.36-2.85-3.68-5.73-3.72-2.87-.05-5.37 1.28-6.6 3.16-.57.9-1.37 2.57.3 3.04.63.17 1.18-1.43 2.9-1.43 1.94-.01 2.77.47 3.83 2.16z"/>
    <path fill="#fd9c50" fill-rule="evenodd" d="M93.77 129.26c.76.14.64 2.05 1.38 2.81.74.76 2.21 1.8 4.06 1.06 1.86-.75 2.39 2.53 2.2 3.07-.18.54-2.59.05-4.21-.4a4.98 4.98 0 01-3.3-2.88c-.44-1.16-.13-3.66-.13-3.66z"/>
    <path fill="#cb6e3b" d="M109.82 138.71c-.08-.45.14-.76-.3-1.53-1.02-1.84-3.83-2.34-4.37-2.48-.54-.14-1.66-.85-3.39-.22-1.1.33-1.51 1.17-1.85 1.66-.26.29-.73.39-.92.44.13.05.79.5 1.09.11l.07.06a.26.26 0 00.08.05l.01.01c.25.12.65-.02.94-.33.2-.16.31-.35.37-.56.02-.18.06-.26-.07-.43-.03-.02-.02-.04-.05-.06v-.03c.14-.06.3-.08.43-.1v.12l.09.36v.03l.03.08c.12.28.56.45 1.05.42.48-.04.86-.28.9-.56a.33.33 0 00-.02-.18l-.01-.07c.22.08.42.18.61.31l-.12.12-.02.01a.35.35 0 00-.06.07h-.01v.01c-.18.26-.05.77.31 1.2.4.48.96.7 1.23.48a.36.36 0 00.07-.07l.05-.03c.03.9 1.5 1.86 1.99 2.14.23.14.1.14.67-.2 0 0 2.31-.95 2.06-.92z" color="#000" overflow="visible" paint-order="markers stroke fill" style="isolation:auto;mix-blend-mode:normal;solid-color:#000;solid-opacity:1;marker:none"/>
    <path fill="#ffddc2" fill-opacity=".6" fill-rule="evenodd" d="M104.79 131.95c-.26.04-.54.02-.82-.05-.15-.04-.3-.13-.36-.26-.03-.06-.05-.12-.02-.17.05-.16.2-.26.4-.3.22-.06.48-.05.73 0 .19.04.34.18.4.33.06.15.03.32-.13.4a.61.61 0 01-.2.05z"/>
    <path fill="#fd9c50" fill-rule="evenodd" d="M109.48 139.52c-.55-.69.21-2.32.48-2.83.27-.5 2.83-.42 3.2-.33.38.09 1.76.81 2.5 2.9.84 1.65-.33 4.51-2.7 6.1-2.37 1.58-5.19 1.84-7.25.98-.97-.4-2.56-1.34-1.43-2.61.43-.49 1.77.51 3.21-.4 1.62-1.04 2.04-1.87 1.99-3.8z"/>
    <path fill="#fd9c50" fill-rule="evenodd" d="M108.76 153.16c.13-.77-1.71-1.28-2.18-2.24-.48-.95-.97-2.69.35-4.18 1.33-1.5-1.59-3.1-2.16-3.1-.56 0-.9 2.43-1.03 4.1a4.98 4.98 0 001.63 4.07c.93.81 3.4 1.35 3.4 1.35z"/>
    <path fill="#cb6e3b" d="M109.87 137.93c.06.23.23.45.22.7.1.83.22 1.65.25 2.48 0 .44-.11.9-.44 1.21a7.94 7.94 0 01-2.04 1.75c-.64.28-1.37.2-2.02 0-.4-.13-.79-.39-1.23-.35-.21 0-.32.27-.54.28.2-.26.32-.78.68-.8.18.05.22-.18.32-.28.1-.11.26-.1.4-.14.4-.05.86.09 1.1.43.07.14-.04.48.23.34.16-.04.34-.02.47-.13.04-.17-.17-.3-.16-.5a.6.6 0 01.16-.55c.31-.38.81-.61 1.3-.55.17.04.28.19.35.33.1-.16.27-.3.3-.51-.07-.1-.3-.05-.39-.18-.25-.22-.3-.59-.28-.9.01-.3.05-.6.04-.9.02-.31.02-.63.14-.92.06-.1.39 0 .22-.17-.15-.23-.24-.57-.04-.8.08-.17.26-.3.24-.5-.03-.11-.25-.27-.03-.35.14-.05.13.06.33.18.2.26.29.55.42.83z" color="#000" overflow="visible" paint-order="markers stroke fill" style="isolation:auto;mix-blend-mode:normal;solid-color:#000;solid-opacity:1;marker:none"/>
    <path fill="#ffddc2" fill-opacity=".6" fill-rule="evenodd" d="M113.81 141.08c-.14.2-.24.48-.29.76-.03.15 0 .33.08.43.04.06.1.1.15.1.17.02.33-.09.44-.24.15-.18.25-.42.3-.67a.56.56 0 00-.13-.5c-.11-.11-.28-.16-.4-.04-.06.04-.12.1-.15.16z"/>
    <g fill="#4e3b3a" fill-rule="evenodd" stroke="#2f2828" stroke-width=".38">
      <path d="M127.44 153.53c.03-.83.79-.95.86-.27.07.69.13 1.2.12 1.6-.02.6-.82.87-.9 0-.06-.45-.05-.87-.08-1.33zM134.85 151.74c.11-.82.88-.87.88-.18 0 .7.02 1.4-.1 1.79-.12.44-.8.55-.8-.32 0-.46 0-.82.02-1.29z" transform="matrix(.77397 .55143 -.50696 .83007 96.6 -72.44)"/>
    </g>
    <g fill="#d35034" fill-opacity=".44" fill-rule="evenodd" stroke-width="1.04">
      <path d="M113.3 129.22c-.2-.47.97-.97 1.3-1.02.33-.05-.91 1.6-1.3 1.02zM113.86 130.04c-.17-.56 1.24-1.5 1.63-1.64.39-.14-1.27 2.34-1.63 1.64zM114.72 130.4c-.17-.58 1.24-1.5 1.63-1.65.39-.14-1.27 2.33-1.63 1.64z"/>
    </g>
    <g fill="#d35034" fill-opacity=".44" fill-rule="evenodd" stroke-width="1.04">
      <path d="M120.83 133.09c-.18-.57 1.23-1.5 1.62-1.65.4-.14-1.27 2.34-1.62 1.65z"/>
      <path d="M121.6 133.4c-.17-.57 1.24-1.5 1.63-1.64.39-.14-1.27 2.33-1.63 1.64zM122.57 133.52c-.15-.45.97-1.1 1.28-1.2.31-.08-.96 1.75-1.28 1.2z"/>
    </g>
    <g fill-rule="evenodd" stroke-width="1.04" opacity=".7">
      <path fill="#fff" d="M115.36 105.91c2.8-.68 17.06 7.47 17.3 8.7.24 1.22-9 10.99-10.2 10.47-1.22-.51-9.46-17.4-7.1-19.17z"/>
      <path fill="#f1680d" d="M132.84 114.62c-2.94 3.95-5.73 7.2-10.39 10.44 7.76 3.64 12.04 5.48 12.54 5.6.98.21.78-1.34.5-2.4-.09-.36-1.35-6.88-2.65-13.64z"/>
      <path fill="#211f20" d="M129.42 98.16c-.25-.2-.63-.22-1.16.1-.7.58-6.9 4.25-12.94 7.72 4.1 1.64 10.73 4.46 17.57 8.86-1.47-7.6-3-15.6-3.08-15.96-.06-.3-.19-.56-.39-.72z"/>
      <path fill="#737373" d="M115.4 105.93c-5.61 3.23-11.09 6.3-11.86 6.57-1.59.55-1.01 3.23-.18 3.53.4.15 11.42 5.47 18.98 9-2.17-7.13-5.34-14.88-6.95-19.1z"/>
    </g>
    <ellipse cx="152.24" cy="86.83" fill="url(#d)" color="#000" opacity=".58" overflow="visible" paint-order="markers stroke fill" rx="10.32" ry="5.99" transform="rotate(18.31)" style="isolation:auto;mix-blend-mode:normal;solid-color:#000;solid-opacity:1;marker:none"/>
    <path fill="#91332b" fill-rule="evenodd" stroke="#5d0000" stroke-linecap="round" stroke-linejoin="bevel" stroke-width=".36" d="M117.08 134.57c-.66-.2-.76-1-.4-1.55.48-1.04 2.7-.75 1.66.95-.8.9-1.26.6-1.26.6z"/>
    <path fill="none" stroke="#000" stroke-linecap="round" stroke-width=".57" d="M117.07 122.13c1.53.12 1 4.45 1.85 4.73M127.66 126.08c-1.9-1.18-3.76 2.8-4.93 2.33"/>
  </g>
</svg>
