<svg xmlns="http://www.w3.org/2000/svg" xmlns:xlink="http://www.w3.org/1999/xlink" width="220.2" height="155.4" viewBox="0 0 58.3 41.1">
  <defs>
    <radialGradient id="b" cx="56.5" cy="167.7" r="20.6" fx="56.5" fy="167.7" gradientTransform="matrix(1.20299 0 0 .16716 42.3 128.9)" gradientUnits="userSpaceOnUse" xlink:href="#a"/>
    <linearGradient id="a">
      <stop offset="0" stop-color="#838383"/>
      <stop offset="1" stop-color="#bfbfbf" stop-opacity="0"/>
    </linearGradient>
  </defs>
  <g transform="translate(-76.7 -119.2)">
    <path fill="#ffb370" fill-rule="evenodd" d="M117.6 153.3c.4.7-.4 2-.7 2.5-.3.4-2.5-.3-2.8-.5a8.7 8.7 0 01-1.3-2.8c0-.3.5-4 2.7-5 2.2-.8 4.7-.8 6.4.4.8.6 2 2.2 1 3.2-.5.3-1.8-1.4-3.1-.8-1.5.5-2 1.2-2.2 3z"/>
    <ellipse cx="110.2" cy="156.9" fill="url(#b)" color="#000" opacity=".8" overflow="visible" paint-order="markers stroke fill" rx="24.8" ry="3.4" style="isolation:auto;mix-blend-mode:normal;solid-color:#000;solid-opacity:1;marker:none"/>
    <path fill="#ffb370" fill-rule="evenodd" d="M127.6 143.6c-.8.1-.9 2-1.7 2.7-.9.7-2.5 1.7-4.3 1-1.7-.8-3.1 2.3-3 2.8.1.6 3 .2 4.8-.2 1.7-.4 3-1.6 3.6-2.7.6-1.2.6-3.6.6-3.6z"/>
    <path fill="#fffdfb" fill-opacity=".5" fill-rule="evenodd" d="M115 150.9l.2-.8-.1-.4h-.2c-.2-.1-.3 0-.4.2l-.2.6c0 .2 0 .4.2.5.1.1.3.2.4 0l.1-.1z"/>
    <path fill="#cb6e3b" fill-rule="evenodd" d="M96.5 153.5c.7-.4 1.4 1.6 2.3 1.8 1 .2 2.5.1 3.6-2 1-2.2 3.3.4 3.4 1 .1.7-2.3 2.4-3.7 3.2-1.4.8-2.9.5-3.8-.4-.9-.8-1.8-3.6-1.8-3.6z" paint-order="markers stroke fill" style="marker:none"/>
    <path fill="#cb6e3b" fill-rule="evenodd" d="M106.5 155.1c0 .7 1.9 1.6 2.5 1.8.6.2 2.7-1 2.9-1.2.2-.2-.1-2.3-.4-2.6-.2-.3-3.3-3.1-6.4-3.2-3.2-.1-6 .7-7 2.2-.6.7-1 2.4 1 2.8.7.1 1-1.6 2.9-1.6 2.1 0 3 .4 4.5 1.8z" paint-order="markers stroke fill" style="marker:none"/>
    <path fill="#fd9c50" d="M107.1 126.5c9.7 6.2 11.3 15.2 6.8 22.2-4 6.3-15.5 7.7-22.3 2.2-5.4-4.4-6.2-11-1.5-17.7 4.7-6.7 12.7-9.4 17-6.7z" color="#000" overflow="visible" paint-order="markers stroke fill" style="isolation:auto;mix-blend-mode:normal;solid-color:#000;solid-opacity:1;marker:none"/>
    <path fill="#fd9c50" fill-rule="evenodd" d="M76.8 122.1c-.3-1.3.4-3.2 1.8-2.9.9.2 36 2.8 37 2.8 1.4 0 2.5 1 2 2.3-.6 1.1-29.8 32.9-30.5 33.8-.6.9-3.7 1.5-3.7-.5S77.5 124 76.8 122z"/>
    <path fill="#ffddc2" fill-rule="evenodd" d="M80.5 131l.3 1.5c0 .6-.9 1.1-1 .3-.1-.5-.3-1-.3-1.7 0-.6.9-.8 1-.1z"/>
    <path fill="#fd9c50" fill-rule="evenodd" d="M109.3 153.5c.6.8 2.5 1 3 .9.7 0 1.4-2.7 1.4-3 0-.5-1.8-3.4-2.2-3.6-.4-.2-4.7-1.2-7.1.6a7.9 7.9 0 00-3.2 6.8c0 1.1.5 3 2.2 2.4.6-.3 0-2 1.4-3 1.6-1.3 2.6-1.8 4.5-1z"/>
    <path fill="#fd9c50" fill-rule="evenodd" d="M95.7 148.5c.8.2.6 2.5 1.3 3.5.8 1 2.3 2.3 4.3 1.6 2-.7 2.5 3.3 2.2 3.9-.2.6-2.7-.2-4.5-1a6 6 0 01-3.3-3.7c-.5-1.4 0-4.3 0-4.3z"/>
    <path fill="#ffddc2" fill-opacity=".6" fill-rule="evenodd" d="M106 149.8a2 2 0 01-.6.6h-.5-.1v-.5c0-.2.3-.4.5-.6h.5c.2 0 .3.1.3.3l-.1.2z"/>
    <path fill="#fd9c50" fill-rule="evenodd" d="M129.2 156.2c-.2-.8-2.2-.6-3-1.4-1-.7-2.2-2.2-1.5-4.1.6-2-2.9-2.4-3.4-2.2-.6.2.1 2.7.7 4.4.7 1.7 2 2.8 3.4 3.3 1.2.4 3.8 0 3.8 0z"/>
    <path fill="#fd9c50" fill-rule="evenodd" d="M117.2 152.7c.2 1-1.3 2.1-1.8 2.5-.4.4-2.8-1-3.1-1.2-.3-.3-1.1-3.6-1-4 .1-.4 2.4-4.2 5.3-4.7a8 8 0 017.2 2.5c.7.9 1.8 2.5.2 3.2-.6.3-1.4-1.3-3.2-1-2 .2-2.8.8-3.6 2.7z"/>
    <path fill="#cb6e3b" d="M115 154.5c.2-.4-2 .8-1.3.3 1.6-1.2 3.4-4 4-4.3.2-.6 1.9-1.2 2.9-1 1.1.2 1.4 2.5 1.5 3 0 .5.2 1 .3 1.2 0 0-.7-.3-.8-.8h-.1c-.3 0-.6-.3-.6-.7v-.6c0-.2.2-.3.3-.3 0-.2-.3-.8-.6-.8v.5c0 .3-.5.6-1 .6-.4 0-.8-.2-.9-.5a.3.3 0 010-.1c-.2 0-.4.1-.5.3h.1v.1c.3.3.3.8 0 1.2-.4.5-.9.8-1.2.6 0 .8-1.1 1.6-1.6 1.9-.2.2-.2.4-.7.4-.2 0 .2-.6.3-1z" color="#000" overflow="visible" paint-order="markers stroke fill" style="isolation:auto;mix-blend-mode:normal;solid-color:#000;solid-opacity:1;marker:none"/>
    <path fill="#ffddc2" fill-opacity=".6" fill-rule="evenodd" d="M115.9 148.6l.6-.6v-.5-.1h-.5c-.2 0-.4.3-.6.5-.1.1-.2.3-.1.5 0 .2.2.3.4.2h.2z"/>
    <g fill="#d35034" fill-opacity=".4" fill-rule="evenodd">
      <path d="M106.7 146.5c-.6 0-.7-1.3-.6-1.6 0-.4 1.3 1.4.6 1.6zM107.7 146.1c-.6 0-1.1-1.6-1.1-2 0-.5 1.9 1.9 1 2zM108.3 145.4c-.6 0-1-1.7-1.1-2.1 0-.4 2 2 1.1 2z"/>
    </g>
    <g fill="#d35034" fill-opacity=".4" fill-rule="evenodd">
      <path d="M113 140.2c-.7 0-1.2-1.7-1.2-2.1 0-.4 2 2 1.1 2zM113.5 139.5c-.6 0-1.1-1.7-1.1-2.1 0-.4 1.9 2 1.1 2.1zM114 138.6c-.6 0-.9-1.3-.8-1.7 0-.3 1.4 1.5.7 1.7z"/>
    </g>
    <path fill="#cb6e3b" d="M116 154.7c-.3-.6-1.9 0-2.6-.8-1.8-1.8-3.7-2.1-4.3-2-.6 0-2.1-.3-3.7 1.3a7 7 0 00-2.1 3c0 .6-.3 1.3-.5 1.5.2 0 1.4-.1 1.5-.7h.2c.4 0 .7-.3 1-.8v-.8c0-.3-.1-.4-.3-.5.1-.3.3-.5.6-.7v.1l.3.4v.2c.3.2.8.2 1.3 0 .5-.3.8-.8.8-1.2a.5.5 0 00-.1-.2h.7v.2l-.1.2c-.1.4.2 1 .8 1.3.6.4 1.3.4 1.5 0v-.1c.4 1 2.7 1.2 3.4 1.3.3 0-.2.4.2-.3 0 0 .3-1 .6-1.2z" color="#000" overflow="visible" paint-order="markers stroke fill" style="isolation:auto;mix-blend-mode:normal;solid-color:#000;solid-opacity:1;marker:none"/>
    <path fill="#cb6e3b" d="M115 155.7a.8 1.3 83.5 01-1.1 1 .8 1.3 83.5 01-1.5-.7.8 1.3 83.5 011.3-1 .8 1.3 83.5 011.4.7z" color="#000" overflow="visible" paint-order="markers stroke fill" style="isolation:auto;mix-blend-mode:normal;solid-color:#000;solid-opacity:1;marker:none"/>
    <ellipse cx="-50.7" cy="186.8" fill="#cb6e3b" color="#000" overflow="visible" paint-order="markers stroke fill" rx="1.3" ry=".8" style="isolation:auto;mix-blend-mode:normal;solid-color:#000;solid-opacity:1;marker:none" transform="matrix(.61718 -.78682 .79104 .61176 0 0)"/>
    <path fill="none" stroke="#000" stroke-linecap="round" stroke-width=".6" d="M102 142.1a8 8 0 014.3.4M103.9 144.6c.1-1.6.3-3.1.6-4.6M108 135.6c1.6-.3 2.9 0 4.2.3M109.5 137.9c.4-1.3.8-2.6.6-4.2"/>
    <path fill="#91332b" fill-rule="evenodd" stroke="#5d0000" stroke-linecap="round" stroke-linejoin="bevel" stroke-width=".4" d="M112.4 144.7c-.7 0-1-.7-.9-1.4.2-1.1 2.4-1.5 1.9.4-.5 1.1-1 1-1 1z"/>
    <g fill-rule="evenodd" opacity=".7">
      <path fill="#fff" d="M84 136.8c.2-3 12.8-15 14.1-15 1.3.2 8 12.2 7.2 13.3-1 1-20.3 4.6-21.3 1.7z"/>
      <path fill="#f1680d" d="M98.2 121.7c3 4 5.3 7.8 7 13.4a214 214 0 009.6-11c.5-1-1-1.2-2.2-1.2l-14.4-1.2z"/>
      <path fill="#211f20" d="M80.8 120.5c-.3.2-.4.6-.3 1.2.4.8 2 8.1 3.6 15.1 3-3.6 7.8-9.5 14.3-15l-16.8-1.5c-.3 0-.6 0-.8.2z"/>
      <path fill="#737373" d="M84 136.8c1.5 6.5 2.8 12.9 2.8 13.7 0 1.8 2.9 2 3.4 1.2l15-16.5c-7.8.1-16.5 1.1-21.2 1.6z"/>
    </g>
  </g>
</svg>
