<svg xmlns="http://www.w3.org/2000/svg" xmlns:xlink="http://www.w3.org/1999/xlink" width="206.3" height="224.6" viewBox="0 0 55.71 62.61">
  <defs/>
  <defs>
    <radialGradient id="b" cx="56.46" cy="167.69" r="20.58" fx="56.46" fy="167.69" gradientTransform="matrix(1.20299 0 0 .16716 30.28 144.89)" gradientUnits="userSpaceOnUse" xlink:href="#a"/>
    <linearGradient id="a">
      <stop offset="0" stop-color="#838383"/>
      <stop offset="1" stop-color="#bfbfbf" stop-opacity="0"/>
    </linearGradient>
  </defs>
  <g transform="translate(-73.44 -113.75)">
    <path fill="#ffb370" fill-rule="evenodd" d="M107.56 164c-.13.83-1.58 1.4-2.05 1.56-.47.16-1.84-1.62-1.99-1.93-.15-.31.35-2.75.58-3.05.22-.3 2.78-2.95 5.1-2.42 2.31.54 4.31 2 4.92 3.96.28.93.33 2.97-1.1 3.06-.54.03-.58-2.03-1.96-2.38-1.55-.4-2.3-.13-3.5 1.2z"/>
    <ellipse cx="98.2" cy="172.92" fill="url(#b)" color="#000" opacity=".79" overflow="visible" paint-order="markers stroke fill" rx="24.76" ry="3.44" style="isolation:auto;mix-blend-mode:normal;solid-color:#000;solid-opacity:1;marker:none"/>
    <path fill="#ffb370" fill-rule="evenodd" d="M113.75 154.83c-.37.7 1.06 1.88 1.15 2.98.1 1.1-.07 2.97-1.74 3.94-1.67.98.05 3.94.55 4.15.5.21 1.91-2.38 2.6-3.97.68-1.59.53-3.34-.05-4.55-.54-1.13-2.51-2.55-2.51-2.55z"/>
    <path fill="#fffdfb" fill-opacity=".46" fill-rule="evenodd" d="M106.84 160.53c.22-.1.43-.29.6-.5.1-.12.16-.29.14-.43 0-.07-.03-.13-.08-.17-.12-.1-.3-.1-.47-.04-.2.08-.4.24-.56.43a.6.6 0 00-.13.5c.03.17.15.3.31.27.06 0 .14-.03.19-.06z"/>
    <path fill="#ffb370" fill-rule="evenodd" d="M94.62 155.8c.5.61-.65 2.07-.5 3.16.14 1.1.7 2.89 2.53 3.49 1.84.6.78 3.86.34 4.17-.44.31-2.37-1.92-3.38-3.33a5.66 5.66 0 01-.91-4.46c.29-1.22 1.92-3.02 1.92-3.02z"/>
    <path fill="#ffb370" fill-rule="evenodd" d="M102.3 164.28c.3.78 1.83 1.04 2.32 1.1.5.05 1.46-1.98 1.54-2.31.09-.34-.92-2.62-1.2-2.86-.29-.25-3.35-2.3-5.5-1.29-2.15 1.02-3.8 2.86-3.97 4.9-.09.98.3 2.98 1.71 2.77.54-.09.15-2.1 1.42-2.75 1.43-.71 2.23-.6 3.67.44z"/>
    <path fill="#fffdfb" fill-opacity=".46" fill-rule="evenodd" d="M96.13 160.75c-.12.21-.31.4-.54.57a.59.59 0 01-.43.11c-.08 0-.14-.04-.17-.09-.1-.13-.08-.3 0-.47.09-.2.25-.38.45-.54a.6.6 0 01.51-.09c.17.05.3.17.25.33a.53.53 0 01-.07.18z"/>
    <path fill="#fd9c50" d="M119.3 139.98c2.33 11.27-3.09 18.72-11.25 20.32-7.25 1.43-16.24-5.91-17.02-14.65-.62-6.89 3.52-12.02 11.74-13.3 8-1.25 15.5 2.65 16.54 7.63z" color="#000" overflow="visible" paint-order="markers stroke fill" style="isolation:auto;mix-blend-mode:normal;solid-color:#000;solid-opacity:1;marker:none"/>
    <path fill="#fd9c50" fill-rule="evenodd" d="M101.48 115.04c.72-1.13 2.58-1.9 3.36-.67.45.73 22.94 27.91 23.61 28.63.93.98 1.02 2.48-.22 3.04-1.25.3-44.38 1.29-45.5 1.42-1.1.12-3.73-1.64-2.25-3.09 1.47-1.44 20.13-27.43 21-29.33z"/>
    <g fill-rule="evenodd" opacity=".7">
      <path fill="#fff" d="M95.12 129.78c2.34-1.92 19.73-1.09 20.54-.08.82 1-3.23 14.19-4.62 14.28-1.4.09-17.3-11.49-15.92-14.2z"/>
      <path fill="#f1680d" d="M115.84 129.63c-.88 4.96-1.97 9.22-4.81 14.34 9.08-.28 14-.58 14.53-.71 1.04-.26.1-1.58-.66-2.41-.26-.3-4.59-5.66-9.06-11.22z"/>
      <path fill="#211f20" d="M104.7 116.2c-.34-.06-.7.1-1.04.64-.39.84-4.5 7.06-8.54 13.02 4.68-.4 12.29-.9 20.87-.05l-10.57-13.13c-.2-.24-.45-.43-.72-.48z"/>
      <path fill="#737373" d="M95.17 129.78c-3.75 5.54-7.46 10.88-8.06 11.48-1.23 1.24.6 3.42 1.52 3.3.46-.05 13.43-.3 22.27-.57-5.48-5.5-12.18-11.1-15.73-14.2z"/>
    </g>
    <path fill="#ffddc2" fill-rule="evenodd" d="M97.66 123.9c-.39.54-.67.96-.92 1.25-.39.43-1.37.11-.88-.57.25-.38.58-.84.98-1.32.4-.48 1.2.09.82.64z"/>
    <path fill="#fd9c50" fill-rule="evenodd" d="M101.4 163.18c.3.9 2.17 1.24 2.77 1.32.6.07 1.98-2.2 2.1-2.59.14-.38-.82-3.7-1.14-3.98-.33-.29-4.16-2.48-6.9-1.4-2.73 1.1-4.55 3.4-4.96 5.73-.2 1.1-.27 3.06 1.49 2.86.67-.07.55-1.86 2.17-2.55 1.83-.78 2.8-.63 4.48.6z"/>
    <path fill="#fd9c50" fill-rule="evenodd" d="M92.95 154.55c.52.63-.82 2.1-.72 3.22.1 1.12.58 2.97 2.54 3.63 1.96.66.25 3.67-.25 3.98-.5.3-2.08-1.73-3.09-3.2a5.45 5.45 0 01-.74-4.58c.4-1.24 2.26-3.05 2.26-3.05z"/>
    <path fill="#ffddc2" fill-opacity=".6" fill-rule="evenodd" d="M97.66 158.37c-.16.2-.4.39-.66.53-.14.08-.32.11-.45.06-.07-.02-.13-.06-.15-.12-.08-.15-.04-.34.07-.5.13-.2.33-.38.56-.52a.6.6 0 01.53-.02c.17.07.27.22.2.38a.61.61 0 01-.1.19z"/>
    <path fill="#fd9c50" fill-rule="evenodd" d="M116.78 155.51c-.58.58.6 2.17.4 3.27-.21 1.11-.89 2.9-2.9 3.36-2.01.46-.62 3.63-.16 3.99.46.35 2.25-1.51 3.4-2.87a5.45 5.45 0 001.2-4.49c-.26-1.27-1.94-3.26-1.94-3.26z"/>
    <path fill="#fd9c50" fill-rule="evenodd" d="M107.55 163.24c-.38.87-2.28 1.02-2.88 1.03-.6.02-1.74-2.39-1.84-2.78-.09-.4 1.2-3.6 1.55-3.85.35-.25 4.39-2.05 7-.68 2.61 1.36 4.19 3.83 4.36 6.19.08 1.12-.04 3.07-1.77 2.7-.66-.15-.36-1.91-1.9-2.77-1.74-.95-2.72-.9-4.52.16z"/>
    <path fill="#cb6e3b" d="M104.92 163.46c.31-.28-2.27-.52-1.37-.56 2.14-.1 5.5-1.52 6.21-1.5.67.12 2.37.55 3.06 1.15.83.85.83 2.02.9 2.65.08.4.43.84.57.98-.15-.02-.93-.04-1-.55l-.1.01-.02.01a.4.4 0 01-.08 0h-.01c-.28 0-.57-.33-.68-.76a1.2 1.2 0 010-.67c.07-.18.18-.3.33-.33h.08a1.98 1.98 0 00-.5-.62.38.38 0 01-.05.1l-.26.3-.01.03a.41.41 0 01-.06.06h-.01c-.25.2-.73.15-1.15-.12-.41-.28-.64-.68-.54-.97a.35.35 0 01.12-.16l.04-.05a2.75 2.75 0 00-.7-.02l.04.18.02.02.02.1c.04.34-.33.75-.87.97-.61.26-1.22.2-1.36-.14a.37.37 0 01-.02-.1l-.02-.06c-.48.83-2.01.85-2.6.87-.27.01-.42.2-.84-.08-.17-.11.52-.44.86-.74z" color="#000" overflow="visible" paint-order="markers stroke fill" style="isolation:auto;mix-blend-mode:normal;solid-color:#000;solid-opacity:1;marker:none"/>
    <path fill="#ffddc2" fill-opacity=".6" fill-rule="evenodd" d="M108.89 159.14c.26.02.55-.03.84-.13.15-.05.3-.16.35-.29.03-.07.04-.13.01-.19-.05-.16-.23-.26-.42-.29-.23-.03-.5 0-.76.07a.6.6 0 00-.38.37c-.06.17-.02.35.15.4.06.03.15.05.21.06z"/>
    <g fill="#d35034" fill-opacity=".44" fill-rule="evenodd">
      <path d="M104.58 153.41c-.42-.33.44-1.32.73-1.52.3-.2-.1 1.89-.73 1.52zM105.5 153.91c-.44-.44.45-1.94.75-2.25.3-.3-.08 2.72-.75 2.25zM106.48 153.83c-.44-.44.45-1.94.75-2.25.3-.31-.08 2.72-.75 2.25z"/>
    </g>
    <g fill="#d35034" fill-opacity=".44" fill-rule="evenodd">
      <path d="M113.4 153.54c-.44-.44.45-1.94.75-2.26.3-.3-.09 2.72-.75 2.26z"/>
      <path d="M114.28 153.46c-.44-.43.45-1.94.75-2.25.3-.3-.08 2.72-.75 2.25zM115.26 153.12c-.37-.34.38-1.45.63-1.68.25-.23-.07 2.04-.63 1.68z"/>
    </g>
    <path fill="none" stroke="#762c2c" stroke-linecap="round" stroke-width=".67" d="M112.12 154.25c-.72 1.53-3.32 1.63-4.01.18"/>
    <path fill="#cb6e3b" d="M105.89 163c-.26-.41-1.69.01-2.4-.57-1.71-1.4-3.4-1.68-3.97-1.6-.56.08-1.9-.18-3.28 1.12-.91.77-1.04 1.93-1.16 2.55-.13.39-.52.8-.68.92.15 0 .93.05 1.06-.44l.09.02h.02l.08.02h.01c.28.02.6-.28.76-.7.08-.22.1-.46.06-.66-.05-.18-.15-.31-.29-.36a.37.37 0 00-.08-.01c.14-.22.32-.42.55-.56l.05.1.23.33v.02l.06.07v.01c.23.22.72.21 1.16-.02.44-.22.71-.6.64-.9a.35.35 0 00-.1-.17l-.04-.06c.24-.01.47.01.7.06l-.06.17-.02.02a.37.37 0 00-.03.09v.01c-.07.33.26.77.77 1.05.58.32 1.19.31 1.36 0a.37.37 0 00.03-.1l.03-.06c.39.88 2.48.97 3.06 1.05.27.04-.18.37.22-.2 0 0 .2-.87.45-.96z" color="#000" overflow="visible" paint-order="markers stroke fill" style="isolation:auto;mix-blend-mode:normal;solid-color:#000;solid-opacity:1;marker:none"/>
    <ellipse cx="124.37" cy="149.18" fill="#cb6e3b" color="#000" overflow="visible" paint-order="markers stroke fill" rx="1.31" ry=".8" style="isolation:auto;mix-blend-mode:normal;solid-color:#000;solid-opacity:1;marker:none" transform="rotate(7.68)"/>
    <ellipse cx="55.93" cy="187.21" fill="#cb6e3b" color="#000" overflow="visible" paint-order="markers stroke fill" rx="1.31" ry=".8" style="isolation:auto;mix-blend-mode:normal;solid-color:#000;solid-opacity:1;marker:none" transform="rotate(-16.26)"/>
    <path fill="none" stroke="#000" stroke-linecap="round" stroke-width=".57" d="M104.42 150.09c-.09-2.23 3.08-2.6 3.4-.35M113.12 149.6c.03-2.23 3-2.16 2.95 0"/>
    <path fill="#d6d6d6" fill-rule="evenodd" stroke="#a0a0a0" stroke-width=".26" d="M78.86 161.22c-2.41-.48 2.07-4.28 2.49-1.72 1.57-1.7 4 1.45 3.17 2.9-.95 1.91-2.12 2.61-2.96 1.45-.75 1.25-2.14 1.82-3.32-.08-1.1-1.77-.5-2.6.62-2.55z"/>
    <path fill="none" stroke="#acacac" stroke-linecap="round" stroke-width=".67" d="M86.94 160.24c2.07.04 2.49.01 2.49.01M86.27 161.71c2.62.05 3.15.02 3.15.02M86.83 163.14c2.07.05 2.48.01 2.48.01"/>
    <path fill="none" stroke="#9f9f9f" stroke-linecap="round" stroke-width=".26" d="M79.26 162.54c-.43-.26-.57-.76-.47-1.32.1-.55.92-.95 1.3-.8M82.63 162.8c-.07.5-.49.83-1.04.95-.55.11-1.23-.5-1.23-.9"/>
  </g>
</svg>
