<svg xmlns="http://www.w3.org/2000/svg" xmlns:xlink="http://www.w3.org/1999/xlink" viewBox="0 0 50.23 56.61">
  <defs/>
  <defs>
    <radialGradient id="d" cx="56.46" cy="167.69" r="20.58" fx="56.46" fy="167.69" gradientTransform="matrix(.50325 -.00448 .00318 .29116 63.1 89.6)" gradientUnits="userSpaceOnUse" xlink:href="#a"/>
    <radialGradient id="c" cx="56.46" cy="167.69" r="20.58" fx="56.46" fy="167.69" gradientTransform="matrix(1.20299 0 0 .16716 33.78 117.7)" gradientUnits="userSpaceOnUse" xlink:href="#b"/>
    <linearGradient id="a">
      <stop offset="0" stop-color="#00fffb"/>
      <stop offset="1" stop-color="#00ffe2" stop-opacity="0"/>
    </linearGradient>
    <linearGradient id="b">
      <stop offset="0" stop-color="#838383"/>
      <stop offset="1" stop-color="#bfbfbf" stop-opacity="0"/>
    </linearGradient>
  </defs>
  <g transform="translate(-76.94 -92.56)">
    <ellipse cx="101.69" cy="145.73" fill="url(#c)" color="#000" opacity=".79" overflow="visible" paint-order="markers stroke fill" rx="24.76" ry="3.44" style="isolation:auto;mix-blend-mode:normal;solid-color:#000;solid-opacity:1;marker:none"/>
    <path fill="#ffb370" fill-rule="evenodd" d="M117.7 137.76c-.66.03-.9 1.87-1.66 2.5-.77.63-2.19 1.44-3.6.49-1.42-.96-2.84 2.03-2.78 2.56.05.54 2.53.45 3.98.24a4.72 4.72 0 003.28-2.33c.6-1.04.79-3.46.79-3.46z"/>
    <path fill="#fffdfb" fill-opacity=".46" fill-rule="evenodd" d="M103.76 139.13c.22-.1.43-.28.6-.5.1-.12.17-.28.15-.42-.01-.08-.04-.14-.08-.17-.13-.11-.3-.11-.47-.04-.2.08-.4.23-.57.42a.6.6 0 00-.13.5c.04.17.16.3.31.27.07 0 .14-.03.2-.06z"/>
    <path fill="#ffb370" fill-rule="evenodd" d="M84.23 141.98c.57-.48 1.84.74 2.85.65 1-.1 2.66-.55 3.29-2.36.63-1.8 3.55-.6 3.81-.14.26.46-1.86 2.28-3.19 3.21a4.78 4.78 0 01-4.1.7c-1.1-.35-2.66-2.06-2.66-2.06z"/>
    <path fill="#fffdfb" fill-opacity=".46" fill-rule="evenodd" d="M93.05 139.36c-.12.2-.3.4-.54.57a.59.59 0 01-.43.1c-.07 0-.13-.03-.16-.08-.1-.13-.1-.31-.01-.47.1-.2.26-.39.46-.54a.6.6 0 01.5-.1c.17.05.3.18.26.33a.53.53 0 01-.08.19z"/>
    <path fill="#fd9c50" d="M116.23 118.59c2.32 11.27-3.1 18.71-11.26 20.32-7.24 1.42-16.24-5.92-17.02-14.66-.62-6.88 3.53-12.01 11.74-13.3 8-1.25 15.51 2.65 16.54 7.64z" color="#000" overflow="visible" paint-order="markers stroke fill" style="isolation:auto;mix-blend-mode:normal;solid-color:#000;solid-opacity:1;marker:none"/>
    <path fill="#fd9c50" fill-rule="evenodd" d="M92.43 94c.44-1.17 2.11-2.06 3.18-.9.63.68 29.58 25.82 30.42 26.48 1.16.9 1.61 2.37.51 3.02-1.17.38-43.96 4.49-45.04 4.7-1.08.2-4.11-1.35-2.99-2.88 1.13-1.53 13.5-28.49 13.92-30.42z"/>
    <g fill-rule="evenodd" opacity=".7">
      <path fill="#fff" d="M89.62 108.98c1.87-2.06 19.4-2.5 20.46-1.58 1.06.93.19 14.22-1.18 14.41-1.37.19-20-10.06-19.28-12.83z"/>
      <path fill="#f1680d" d="M110.25 107.33c.3 4.95.24 9.22-1.37 14.47 9-.94 13.84-1.6 14.33-1.76.98-.32-.28-1.56-1.24-2.32-.33-.27-5.93-5.24-11.72-10.4z"/>
      <path fill="#211f20" d="M95.92 94.9c-.36-.03-.69.15-.9.7-.18.87-2.79 7.3-5.38 13.46 4.56-.74 12.04-1.79 20.8-1.57-6.53-5.8-13.38-11.9-13.7-12.17a1.64 1.64 0 00-.82-.41z"/>
      <path fill="#737373" d="M89.66 108.98c-2.4 5.73-4.82 11.26-5.27 11.9-.94 1.3 1.4 3.31 2.3 3.14.45-.09 13.32-1.28 22.07-2.2-6.78-5.01-14.81-10.04-19.1-12.84z"/>
    </g>
    <path fill="#ffddc2" fill-rule="evenodd" d="M90.74 103c-.25.56-.43 1-.62 1.3-.28.45-1.34.2-1.01-.5.16-.39.37-.87.66-1.37.29-.5 1.22 0 .97.57z"/>
    <path fill="#fd9c50" fill-rule="evenodd" d="M98.33 141.78c.3.9 2.17 1.25 2.77 1.32.6.08 1.97-2.2 2.1-2.59.13-.38-.83-3.69-1.15-3.98-.33-.28-4.16-2.48-6.9-1.39-2.73 1.1-4.55 3.4-4.96 5.72-.19 1.1-.27 3.06 1.5 2.87.66-.08.54-1.87 2.17-2.56 1.82-.77 2.8-.62 4.47.61z"/>
    <path fill="#fd9c50" fill-rule="evenodd" d="M82.69 142.57c.68-.46 2 1.01 3.13 1.02 1.13 0 3.45-.51 4.3-2.4.83-1.9 2.34.22 2.6.75.26.52-1.02 1.98-2.57 2.85a5.45 5.45 0 01-4.63.3c-1.2-.5-2.83-2.52-2.83-2.52z"/>
    <path fill="#ffddc2" fill-opacity=".6" fill-rule="evenodd" d="M94.58 136.97c-.16.21-.39.4-.65.54-.14.07-.32.1-.46.06-.07-.03-.13-.06-.15-.12-.08-.15-.03-.34.08-.5.13-.2.33-.38.56-.52a.6.6 0 01.53-.03c.16.07.27.22.2.38a.61.61 0 01-.11.2z"/>
    <path fill="#fd9c50" fill-rule="evenodd" d="M120.27 140.45c-.8-.17-1.48 1.7-2.52 2.13-1.04.44-2.9.86-4.4-.56-1.48-1.43-3.36 1.48-3.4 2.06-.05.58 2.5 1.05 4.26 1.26 1.77.2 3.42-.5 4.4-1.48.92-.92 1.66-3.41 1.66-3.41z"/>
    <path fill="#fd9c50" fill-rule="evenodd" d="M104.47 141.84c-.38.87-2.28 1.02-2.88 1.04-.6.01-1.74-2.4-1.83-2.79-.1-.4 1.2-3.59 1.55-3.84.35-.25 4.38-2.05 7-.69 2.6 1.36 4.18 3.84 4.35 6.2.08 1.11-.04 3.07-1.77 2.7-.66-.15-.36-1.92-1.9-2.77-1.74-.96-2.72-.9-4.52.15z"/>
    <path fill="#cb6e3b" d="M101.84 142.06c.32-.28-2.26-.52-1.37-.56 2.15-.1 5.5-1.51 6.22-1.49.66.11 2.37.54 3.05 1.14.83.85.83 2.02.9 2.65.09.4.43.84.57.99-.14-.02-.92-.05-1-.55h-.1l-.02.01a.4.4 0 01-.07.01H110c-.28-.01-.57-.34-.68-.77a1.2 1.2 0 01.01-.66c.06-.18.18-.3.32-.33h.09v-.01a1.98 1.98 0 00-.5-.61.38.38 0 01-.05.1l-.27.3v.02a.41.41 0 01-.07.06v.01h-.01c-.24.2-.73.14-1.14-.13-.42-.27-.65-.68-.54-.96a.35.35 0 01.11-.16l.04-.06a2.75 2.75 0 00-.7-.01l.05.17.01.03.02.09v.01c.04.33-.33.74-.87.97-.6.25-1.21.19-1.35-.15a.37.37 0 01-.03-.1l-.02-.06c-.47.84-2 .85-2.6.88-.27 0-.42.2-.84-.08-.17-.12.52-.45.86-.75z" color="#000" overflow="visible" paint-order="markers stroke fill" style="isolation:auto;mix-blend-mode:normal;solid-color:#000;solid-opacity:1;marker:none"/>
    <path fill="#ffddc2" fill-opacity=".6" fill-rule="evenodd" d="M105.81 137.74c.27.02.56-.02.84-.12.15-.05.3-.16.35-.3.03-.06.05-.13.02-.18-.06-.17-.23-.26-.43-.3-.23-.03-.5 0-.75.07a.6.6 0 00-.39.38c-.05.16-.01.34.15.4.07.03.15.05.21.05z"/>
    <ellipse cx="92.04" cy="138.17" fill="url(#d)" color="#000" opacity=".58" overflow="visible" paint-order="markers stroke fill" rx="11.45" ry="5.99" style="isolation:auto;mix-blend-mode:normal;solid-color:#000;solid-opacity:1;marker:none" transform="matrix(.99646 -.08404 .10332 .99465 0 0)"/>
    <path fill="#cb6e3b" d="M102.81 141.6c-.25-.4-1.69.02-2.4-.56-1.7-1.4-3.4-1.68-3.96-1.6-.57.07-1.91-.18-3.29 1.12-.91.76-1.03 1.93-1.16 2.54-.13.39-.51.8-.67.93.15 0 .92.05 1.05-.45l.1.02.01.01.08.01h.01c.29.02.6-.27.76-.69.08-.23.1-.47.06-.66-.04-.19-.15-.32-.29-.36a.37.37 0 00-.08-.02c.14-.22.32-.41.56-.56 0 .04.02.07.04.1l.23.33v.03l.06.07h.01c.22.23.71.22 1.16-.01.44-.23.7-.61.63-.9a.35.35 0 00-.1-.18l-.03-.05c.24-.02.47 0 .7.05l-.07.17-.01.02a.37.37 0 00-.04.1c-.07.33.26.78.77 1.06.58.31 1.19.3 1.36-.01a.37.37 0 00.04-.1l.03-.06c.38.88 2.47.98 3.05 1.06.27.04-.17.36.23-.2 0 0 .2-.88.45-.96z" color="#000" overflow="visible" paint-order="markers stroke fill" style="isolation:auto;mix-blend-mode:normal;solid-color:#000;solid-opacity:1;marker:none"/>
    <ellipse cx="118.47" cy="127.89" fill="#cb6e3b" color="#000" overflow="visible" paint-order="markers stroke fill" rx="1.31" ry=".8" style="isolation:auto;mix-blend-mode:normal;solid-color:#000;solid-opacity:1;marker:none" transform="rotate(7.68)"/>
    <ellipse cx="58.96" cy="165.81" fill="#cb6e3b" color="#000" overflow="visible" paint-order="markers stroke fill" rx="1.31" ry=".8" style="isolation:auto;mix-blend-mode:normal;solid-color:#000;solid-opacity:1;marker:none" transform="rotate(-16.26)"/>
    <path fill="#4e3b3a" fill-rule="evenodd" stroke="#2f2828" stroke-width=".37" d="M102.44 127.1c.02-.84.79-.83.86-.13.07.7.13 1.22.12 1.6-.02.62-.83.75-.9-.13-.06-.47-.06-.88-.08-1.35zM109.85 126.58c.1-.8.88-.71.88-.03 0 .7.02 1.41-.1 1.77-.12.43-.8.41-.8-.45 0-.46 0-.83.02-1.29z"/>
    <path fill="#91332b" fill-rule="evenodd" stroke="#5d0000" stroke-linecap="round" stroke-linejoin="bevel" stroke-width=".36" d="M106.75 136.1c-.9 0-1.32-1.55-1.1-2.89.18-2.43 3-3.3 2.4.85-.63 2.36-1.3 2.04-1.3 2.04z"/>
  </g>
</svg>
