<svg xmlns="http://www.w3.org/2000/svg" xmlns:xlink="http://www.w3.org/1999/xlink" width="206.3" height="224.6" viewBox="0 0 54.6 59.4">
  <defs>
    <radialGradient id="b" cx="56.5" cy="167.7" r="20.6" fx="56.5" fy="167.7" gradientTransform="matrix(1.20299 0 0 .16716 -95.6 147)" gradientUnits="userSpaceOnUse" xlink:href="#a"/>
    <linearGradient id="a">
      <stop offset="0" stop-color="#838383"/>
      <stop offset="1" stop-color="#bfbfbf" stop-opacity="0"/>
    </linearGradient>
  </defs>
  <g transform="translate(57.5 -119.1)">
    <ellipse cx="-27.7" cy="175.1" fill="url(#b)" color="#000" opacity=".8" overflow="visible" paint-order="markers stroke fill" rx="24.8" ry="3.4" style="isolation:auto;mix-blend-mode:normal;solid-color:#000;solid-opacity:1;marker:none"/>
    <path fill="#ffb370" fill-rule="evenodd" d="M-46.6 172c.7-.4 1.8 1.1 3 1.3 1 .2 2.9.1 4-1.5 1-1.6 3.9.3 4 .8.2.6-2.4 1.8-4 2.4-1.7.6-3.4.3-4.6-.4-1.1-.6-2.4-2.6-2.4-2.6z"/>
    <path fill="#cb6e3b" fill-rule="evenodd" d="M-39.9 162c-.4 1.1 5 5.4 9.2 4.8 4-.6 6.1-2.4 6.7-3.2a14 14 0 001.4-4.6c0-.9-6.4-.5-8.8 0-2.3.5-6.6 1.3-8.5 3z"/>
    <path fill="#ffb370" fill-rule="evenodd" d="M-36.7 166.5c.8 0 1.5-1.4 1.7-1.9.2-.5-1.5-2-1.8-2.1-.3-.2-2.8.2-3.1.4-.3.2-3.1 2.5-2.7 4.9.3 2.3 1.7 4.4 3.6 5.2.9.3 3 .5 3.1-1 0-.5-2-.6-2.2-2-.3-1.6 0-2.4 1.4-3.5z"/>
    <path fill="#fd9c50" d="M-19.8 144.4c2.3 11.3-3.1 18.7-11.3 20.4-7.2 1.4-16.6-5.9-17.4-14.6-.6-6.9 4-12.1 12.2-13.4 8-1.3 15.5 2.6 16.5 7.6z" color="#000" overflow="visible" paint-order="markers stroke fill" style="isolation:auto;mix-blend-mode:normal;solid-color:#000;solid-opacity:1;marker:none"/>
    <path fill="#fd9c50" fill-rule="evenodd" d="M-43.1 120.9c.4-1.3 2-2.4 3.1-1.4.6.6 28.5 22.3 29.3 22.8 1 .8 1.5 2.2.4 3-1.1.6-43 11-44.1 11.3-1 .4-4-.8-2.9-2.5 1.2-1.8 13.7-31.2 14.2-33.2z"/>
    <path fill="#4e3b3a" fill-rule="evenodd" stroke="#2f2828" stroke-width=".4" d="M-34 153.4c0-.8.7-1 .8-.3l.1 1.6c0 .6-.8 1-.9 0v-1.3zM-26.7 151.6c.2-.8 1-.8 1-.2 0 .7 0 1.5-.2 1.8 0 .5-.8.6-.8-.3v-1.3z"/>
    <path fill="#91332b" fill-rule="evenodd" stroke="#5d0000" stroke-linecap="round" stroke-linejoin="bevel" stroke-width=".4" d="M-29.2 161c-.5-.1-.4-.8-.2-1.5.4-1.3 1.5-1.8 1 .1-.5 1.5-.8 1.5-.8 1.5z"/>
    <path fill="#fd9c50" fill-rule="evenodd" d="M-32.1 167.4c1 0 1.7-1.7 1.9-2.2.2-.5-1.6-2.2-2-2.4a13 13 0 00-4 .1c-.4.3-3.4 3.2-3 5.9a7.3 7.3 0 004.3 5.7c1 .4 2.9.9 3-.7.2-.6-1.6-1-1.8-2.5-.3-1.8 0-2.7 1.6-3.9zM-22.6 164.9c0 .8-1.6 1.6-2.1 1.8-.5.3-2.4-1.1-2.6-1.4-.2-.2 0-2.5.2-2.9.2-.3 2.7-3.2 5.5-3.2 2.7 0 5.2 1 6.2 2.6.4.8.8 2.7-.8 3-.6.2-1-1.7-2.6-1.7-1.8 0-2.7.3-3.8 1.8z"/>
    <path fill="#fd9c50" fill-rule="evenodd" d="M-8.2 164.4c-.7.1-1.3-1.5-2.2-2-1-.3-3.6 0-5 1.4-1.6 1.2-1.6-2-1.6-2.4 0-.5 1.7-1.2 3.4-1.3a5 5 0 014 1.3c.9.8 1.4 3 1.4 3zM-42.3 173.3c.7-.3 1.8 1.2 2.8 1.3 1.1.2 3 .2 4.1-1.4 1-1.6 3.6.5 3.7 1 .2.6-2.1 1.5-3.7 2.1-1.7.6-3.4.3-4.6-.3-1-.7-2.3-2.7-2.3-2.7zM-20.7 172.3c-.6-.3-1.4 1-2.2 1.2-.8.2-2.3.1-3-1.3-1-1.5-3 .2-3.2.7-.1.5 2 1.6 3.2 2.2 1.2.5 2.5.2 3.4-.4.8-.5 1.8-2.4 1.8-2.4z"/>
    <path fill="#cb6e3b" d="M-27.6 166.2h-.3l-.3.3a1.1.6 47.7 00.1 1.3 1.1.6 47.7 001.2.5 1.1.6 47.7 00.1 0l.3-.3.2-.2c0-.2 0-.6-.4-1-.3-.4-.7-.6-1-.6zm.9 2.5a.6 1 17.5 00-.8.7.6 1 17.5 00.2 1 .6 1 17.5 00.1.1l.4.2h.2c.3 0 .5-.4.6-.7.2-.5.1-1-.2-1.1l-.3-.1a.6 1 17.5 00-.1 0 .6 1 17.5 00-.1-.1zm-.9 2.3a.5.9 62.2 00-.6.2.5.9 62.2 00-.6.8l.2.4.2.1c.2.1.5 0 .9-.1.4-.2.6-.6.5-.8l-.2-.3a.5.9 62.2 000-.1.5.9 62.2 00-.4-.2zM-31 164.7l-1.3.6c-1.9 1.3-2.7 2.7-2.8 3.2 0 .6-.3 1.7.6 3.3.5 1 1.6 1.3 2.2 1.6.3.1.6.6.7.8 0-.2.3-.9-.2-1v-.2h.1c0-.3-.1-.7-.5-.9l-.6-.2c-.2 0-.3 0-.4.2-.2-.1-.4-.3-.4-.6l.4-.1h.1c.3-.2.4-.6.3-1-.1-.5-.4-.8-.7-.8a.4.4 0 00-.2 0c0-.2 0-.4.2-.6l.1.1h.1c.3.2.8 0 1.2-.4.4-.4.6-1 .3-1.2h-.1c.9-.2 1.6-1.7 1.9-2.2 0-.3.2-.2-.3-.7zM-23 164.4l.1.3.3.2c.3.3.9.1 1.2-.4.4-.4.5-1 .3-1.2v-.1l-.3-.3-.3-.1c-.2 0-.6.2-.9.6-.3.3-.4.7-.4 1zm2.3-1.4c0 .3.4.6.8.6.5 0 1 0 1-.4l.1-.5v-.2c-.1-.2-.4-.4-.8-.5-.5 0-1 .1-1 .5v.3a.4.4 0 00-.1.2zm2.4.7l.2.4c.3.2.6.4.7.3h.1l.2-.2.1-.2c0-.1 0-.4-.2-.6-.2-.3-.6-.4-.7-.3l-.2.2c-.2.1-.2.2-.2.4z" color="#000" overflow="visible" paint-order="markers stroke fill" style="isolation:auto;mix-blend-mode:normal;solid-color:#000;solid-opacity:1;marker:none"/>
    <path fill="#cb6e3b" fill-rule="evenodd" d="M-25.3 164c-.2.2-1.2 1.4-.3 2.5.3.2.7.3.8.2.5-.2 2.1-1 2.1-1.8 1.2-1.5 2-1.9 3.8-1.8 1.7 0 2 1.9 2.6 1.8l-.5-1.2c-1.9-1.9-2.1-1.6-4.3-1.7-1.7.1-3 .8-4.2 2z"/>
    <path fill="#fd9c50" fill-rule="evenodd" d="M-29.1 166.9c-.8-.1-1.4-1.8-1.6-2.3-.2-.5 1.8-1.7 2.1-2 .3 0 2.6.3 2.9.6.3.2 3 2.8 2.7 5.2-.2 2.5-1.4 4.7-3.2 5.4-.8.3-2.7.5-3-1 0-.6 2-.7 2.1-2.2.2-1.7-.7-2.5-2-3.7z"/>
    <path fill="#ffddc2" fill-rule="evenodd" d="M-44.5 129.9l-.6 1.4c-.3.5-1.3.4-1-.4l.7-1.5c.3-.5 1.2-.2 1 .5z"/>
    <path fill="#ffddc2" fill-opacity=".6" fill-rule="evenodd" d="M-25.3 165.5l-.9-.7-.2-.5v-.2c.2-.2.5-.2.7 0 .3 0 .5.2.8.5l.2.6c0 .2-.2.4-.4.4l-.2-.1zM-21.2 160.4l-.8.1c-.1 0-.3 0-.3-.2l-.1-.2c0-.1.1-.3.3-.3.2-.1.4-.2.7-.1l.4.2c.1.2.1.4 0 .4l-.2.1zM-36.2 165.4l-.4.7-.4.2h-.1c-.2-.2-.2-.3-.2-.5l.3-.6.5-.3c.2 0 .3.1.3.3v.2z"/>
    <path fill="#fffdfb" fill-opacity=".5" fill-rule="evenodd" d="M-40.4 165.4l-.6.6-.4.1h-.2v-.5l.5-.6h.5c.1 0 .3.1.2.3v.1z"/>
    <g fill="#d35034" fill-opacity=".4" fill-rule="evenodd">
      <path d="M-35.3 158.6c-.4-.3.5-1.4.8-1.7.3-.3-.1 2-.8 1.7zM-34.4 159c-.4-.5.6-2.1.9-2.5.3-.4-.2 2.7-.9 2.4zM-33.4 158.6c-.4-.3.6-2 .9-2.4.3-.4-.3 2.8-.9 2.4z"/>
    </g>
    <g fill="#d35034" fill-opacity=".4" fill-rule="evenodd">
      <path d="M-27 157c-.3-.3.6-2 1-2.4.2-.3-.3 2.8-1 2.4z"/>
      <path d="M-26 156.8c-.5-.4.5-2 .8-2.4.3-.4-.2 2.7-.8 2.4zM-25 156.3c-.4-.3.4-1.6.7-1.9.2-.2-.2 2.1-.8 1.9z"/>
    </g>
    <g fill-rule="evenodd" opacity=".7">
      <path fill="#fff" d="M-45.8 136.8c1.8-2.4 19-5.5 20-4.7 1 .8 0 14.6-1.4 15-1.3.4-19.4-7.4-18.6-10.3z"/>
      <path fill="#f1680d" d="M-25.7 132c.3 5 .2 9.4-1.5 15a214 214 0 0014-3.9c1-.5-.2-1.6-1.2-2.2l-11.3-9z"/>
      <path fill="#211f20" d="M-39.6 121.4c-.3 0-.6.2-.8.8-.2 1-2.8 8-5.4 14.7 4.4-1.5 11.7-3.7 20.3-4.8l-13.2-10.4-.9-.3z"/>
      <path fill="#737373" d="M-45.8 136.8c-2.4 6.2-4.8 12.2-5.3 13-1 1.4 1.4 3.2 2.2 2.8l21.6-5.5c-6.6-4.1-14.4-8.1-18.5-10.3z"/>
    </g>
  </g>
</svg>
