<?xml version="1.0" encoding="iso-8859-1"?>
<!-- Generator: Adobe Illustrator 18.1.1, SVG Export Plug-In . SVG Version: 6.00 Build 0)  -->
<svg version="1.1" id="Capa_1" xmlns="http://www.w3.org/2000/svg" xmlns:xlink="http://www.w3.org/1999/xlink" x="0px" y="0px"
	 viewBox="0 0 179.006 179.006" style="enable-background:new 0 0 179.006 179.006;" xml:space="preserve">
<g>
	<g>
		<path style="fill:#010002;" d="M120.334,78.118c-1.486-1.014-4.29-2.106-8.419-3.264V61.841c2.458,0.09,4.248,1.032,5.37,2.834
			c0.603,0.979,0.973,2.142,1.092,3.503h4.684c-0.101-3.025-1.086-5.454-2.983-7.292c-1.891-1.844-4.618-2.882-8.163-3.133v-3.503
			h-2.542v3.556c-3.58,0.036-6.361,1.14-8.348,3.318s-2.977,4.612-2.977,7.321c0,3.031,0.919,5.4,2.763,7.107
			c1.856,1.712,4.702,2.93,8.574,3.664v14.559c-3.013-0.257-5.078-1.378-6.188-3.395c-0.621-1.116-1.02-2.894-1.152-5.34h-4.732
			c0,3.067,0.507,5.49,1.528,7.297c1.856,3.33,5.364,5.155,10.555,5.501v5.185h2.542v-5.185c3.222-0.358,5.692-1.092,7.399-2.184
			c3.085-1.993,4.618-5.364,4.618-10.102C123.938,82.271,122.739,79.795,120.334,78.118z M109.373,74.347
			c-1.993-0.388-3.58-1.086-4.756-2.082c-1.17-1.002-1.76-2.381-1.76-4.147c0-1.456,0.495-2.858,1.492-4.189
			c1.002-1.343,2.667-2.053,5.024-2.136C109.373,61.793,109.373,74.347,109.373,74.347z M118.216,90.577
			c-1.158,2.088-3.264,3.192-6.313,3.347V79.867c2.226,0.609,3.813,1.247,4.756,1.921c1.635,1.158,2.464,2.852,2.464,5.084
			C119.135,88.262,118.824,89.503,118.216,90.577z"/>
		<path style="fill:#010002;" d="M42.228,37.09v53.129c14.589,0.352,26.362,12.298,26.362,26.97c0,1.014-0.072,2.011-0.179,3.001
			h110.596V37.09H42.228L42.228,37.09z M110.62,109.361c-16.97,0-30.717-13.76-30.717-30.717c0-16.964,13.76-30.717,30.717-30.717
			s30.706,13.76,30.706,30.717C141.343,95.601,127.59,109.361,110.62,109.361z"/>
		<path style="fill:#010002;" d="M42.633,118.174v11.313c2.452-0.125,4.141-1.014,5.084-2.691c0.489-0.865,0.734-1.862,0.734-2.983
			c0-1.796-0.662-3.151-1.981-4.093C45.7,119.176,44.417,118.651,42.633,118.174z"/>
		<path style="fill:#010002;" d="M35.342,108.734c0,1.42,0.471,2.53,1.42,3.335c0.949,0.806,2.22,1.366,3.831,1.677v-10.102
			c-1.886,0.072-3.246,0.638-4.046,1.713C35.742,106.425,35.342,107.547,35.342,108.734z"/>
		<path style="fill:#010002;" d="M41.589,92.475c-13.646,0-24.721,11.063-24.721,24.721s11.063,24.721,24.721,24.721
			s24.733-11.063,24.733-24.721S55.241,92.475,41.589,92.475z M48.588,130.883c-1.366,0.889-3.353,1.474-5.955,1.76v4.171h-2.041
			v-4.171c-4.171-0.268-7.011-1.748-8.497-4.427c-0.817-1.438-1.223-3.395-1.223-5.865h3.813c0.119,1.969,0.418,3.401,0.919,4.308
			c0.895,1.617,2.572,2.53,4.988,2.733v-11.725c-3.109-0.585-5.406-1.575-6.886-2.942c-1.486-1.366-2.226-3.282-2.226-5.722
			c0-2.178,0.8-4.141,2.387-5.889c1.611-1.748,3.849-2.631,6.725-2.667v-2.858h2.047v2.822c2.858,0.191,5.048,1.038,6.575,2.518
			c1.528,1.48,2.327,3.437,2.393,5.859h-3.771c-0.101-1.098-0.382-2.029-0.871-2.822c-0.901-1.444-2.351-2.202-4.332-2.273v10.466
			c3.335,0.931,5.591,1.814,6.784,2.619c1.933,1.354,2.888,3.347,2.888,5.979C52.306,126.563,51.07,129.266,48.588,130.883z"/>
		<path style="fill:#010002;" d="M22.543,80.427c0-1.283-0.471-2.25-1.414-2.912c-0.543-0.388-1.456-0.764-2.733-1.11v8.079
			c1.754-0.084,2.96-0.722,3.622-1.921C22.376,81.949,22.543,81.245,22.543,80.427z"/>
		<path style="fill:#010002;" d="M16.94,66.023c-1.354,0.054-2.321,0.459-2.882,1.229c-0.573,0.77-0.865,1.575-0.865,2.411
			c0,1.014,0.34,1.808,1.014,2.375c0.674,0.579,1.587,0.973,2.733,1.199V66.023z"/>
		<path style="fill:#010002;" d="M35.306,75.708c0-9.756-7.9-17.656-17.65-17.656C7.9,58.052,0,65.952,0,75.708
			c0,9.75,7.9,17.65,17.656,17.65C27.406,93.358,35.306,85.463,35.306,75.708z M10.872,83.578C10.281,82.546,10,81.149,10,79.389
			h2.715c0.095,1.402,0.31,2.423,0.662,3.073c0.632,1.158,1.832,1.808,3.562,1.951v-8.366c-2.22-0.418-3.855-1.122-4.923-2.112
			c-1.062-0.979-1.593-2.345-1.593-4.087c0-1.557,0.573-2.954,1.718-4.207c1.128-1.247,2.739-1.88,4.797-1.903v-2.041h1.456v2.011
			c2.041,0.143,3.604,0.74,4.696,1.802c1.092,1.056,1.653,2.452,1.707,4.189h-2.685c-0.072-0.776-0.28-1.444-0.627-2.011
			c-0.632-1.038-1.665-1.581-3.091-1.623v7.482c2.369,0.662,3.992,1.295,4.845,1.874c1.378,0.961,2.076,2.381,2.076,4.266
			c0,2.727-0.883,4.66-2.649,5.806c-0.985,0.632-2.399,1.056-4.26,1.259v2.983h-1.462v-2.983
			C13.962,86.549,11.94,85.499,10.872,83.578z"/>
	</g>
</g>
<g>
</g>
<g>
</g>
<g>
</g>
<g>
</g>
<g>
</g>
<g>
</g>
<g>
</g>
<g>
</g>
<g>
</g>
<g>
</g>
<g>
</g>
<g>
</g>
<g>
</g>
<g>
</g>
<g>
</g>
</svg>
