<svg width="24px" height="24px" viewBox="0 0 24 24" version="1.1" xmlns="http://www.w3.org/2000/svg" xmlns:xlink="http://www.w3.org/1999/xlink">
  <defs/>
  <g stroke="none" stroke-width="1" fill="none" fill-rule="evenodd" stroke-linecap="round">
    <g transform="translate(-796.000000, -1046.000000)" stroke="#000000" stroke-width="2">
      <g transform="translate(48.000000, 1046.000000)">
        <g transform="translate(760.000000, 12.000000) scale(1, -1) translate(-760.000000, -12.000000) translate(748.000000, 0.000000)">
          <path d="M2,14 C2,14 5,7 12,7 C19,7 22,14 22,14" id="Path-80" stroke-linejoin="round"/>
          <path d="M12,7 L12,5"/>
          <path d="M18,8.5 L19,7"/>
          <path d="M21,12 L22.5,11"/>
          <path d="M1.5,12 L3,11" transform="translate(2.250000, 11.500000) scale(1, -1) translate(-2.250000, -11.500000) "/>
          <path d="M5,8.5 L6,7" transform="translate(5.500000, 7.750000) scale(-1, 1) translate(-5.500000, -7.750000) "/>
        </g>
      </g>
    </g>
  </g>
</svg>