<!-- by Aaron Jin - free for commercial use -->
<svg xmlns="http://www.w3.org/2000/svg" viewBox="0 0 200 200" style="transform:scale(1.2)">
  <path stroke="#000000" fill="#000000" stroke-width="3" d="M92.63,155H42.09a17.8,17.8,0,0,1-17.78-17.78V29.31a5,5,0,0,1,5-5h88.32a5,5,0,0,1,4.9,6L97.53,151A5,5,0,0,1,92.63,155ZM34.31,34.31V137.22A7.79,7.79,0,0,0,42.09,145H88.56L111.49,34.31Z"/>
  <path stroke="#000000" fill="#000000" stroke-width="3" d="M170.69,175.69H75a5,5,0,0,1-4.9-6L74.39,149a5,5,0,0,1,9.8,2l-3,14.67h84.55V62.78A7.79,7.79,0,0,0,157.91,55H113.35a5,5,0,0,1,0-10h44.56a17.8,17.8,0,0,1,17.78,17.78V170.69A5,5,0,0,1,170.69,175.69Z"/>
  <path stroke="#000000" fill="#000000" stroke-width="3" d="M50,92h0a5,5,0,0,1-5-5l0-24.49a17.49,17.49,0,0,1,35,0V87a5,5,0,0,1-10,0V62.49a7.49,7.49,0,0,0-15,0L55,87A5,5,0,0,1,50,92Z"/>
  <path stroke="#000000" fill="#000000" stroke-width="3" d="M75,76H50a5,5,0,0,1,0-10H75a5,5,0,0,1,0,10Z"/>
  <path stroke="#000000" fill="#000000" stroke-width="3" d="M120.21,155a5,5,0,0,1-3.54-8.54l21.26-21.26H120.21a5,5,0,0,1,0-10H150a5,5,0,0,1,3.54,8.54l-29.8,29.79A5,5,0,0,1,120.21,155Z"/>
  <path stroke="#000000" fill="#000000" stroke-width="3" d="M150,155a5,5,0,0,1-3.54-1.47l-14.89-14.89a5,5,0,0,1,7.07-7.07l14.9,14.89A5,5,0,0,1,150,155Z"/>
  <path stroke="#000000" fill="#000000" stroke-width="3" d="M142.55,110.31H128a5,5,0,1,1,0-10h14.6a5,5,0,0,1,0,10Z"/>
</svg>