<svg height="300px" width="300px" fill="#fff" xmlns="http://www.w3.org/2000/svg" data-name="Layer 1" viewBox="0 0 100 100" x="0px" y="0px"><title>Artboard 633</title><circle cx="50" cy="6" r="4"/><circle cx="50" cy="94" r="4"/><circle cx="6" cy="50" r="4"/><circle cx="94" cy="50" r="4"/><circle cx="18" cy="18" r="4"/><circle cx="82" cy="82" r="4"/><circle cx="18" cy="82" r="4"/><circle cx="82" cy="18" r="4"/><path d="M82,50A32,32,0,1,0,50,82,32,32,0,0,0,82,50ZM50,26a23.67,23.67,0,0,1,5.87.76c4.36,9.93.57,19-4.66,24.29s-14.4,9.24-24.45,4.83A23.75,23.75,0,0,1,26,50,24,24,0,0,1,50,26Zm0,48a23.94,23.94,0,0,1-18.26-8.47,29.38,29.38,0,0,0,3.74.26,30.07,30.07,0,0,0,21.41-9.11,29.82,29.82,0,0,0,8.61-25A24,24,0,0,1,50,74Z"/></svg>