<svg xmlns="http://www.w3.org/2000/svg" viewBox="0 0 24 24">
  <defs/>
  <defs>
    <linearGradient id="a" x1="50%" x2="50%" y1="0%" y2="97.33%">
      <stop stop-color="#000" offset="0%"/>
      <stop stop-color="#000" offset="100%" stop-opacity=".25"/>
    </linearGradient>
    <linearGradient id="b" x1="50%" x2="50%" y1="0%" y2="97.86%">
      <stop stop-color="#000" offset="0%"/>
      <stop stop-color="#000" offset="100%" stop-opacity=".25"/>
    </linearGradient>
  </defs>
  <g fill="none" fill-rule="evenodd">
    <circle cx="12" cy="10" r="3" fill="#000"/>
    <path fill="url(#a)" fill-rule="nonzero" d="M16.39 13.85A5.68 5.68 0 0018 10c0-3.26-2.74-6-6-6s-6 2.74-6 6c0 1.42.58 2.7 1.62 3.85a.5.5 0 00.74-.67A4.7 4.7 0 017 10c0-2.7 2.3-5 5-5s5 2.3 5 5a4.7 4.7 0 01-1.36 3.18.5.5 0 10.75.67z"/>
    <path fill="url(#b)" fill-rule="nonzero" d="M17.57 18.3A9.99 9.99 0 0012 0a10 10 0 00-5.56 18.31 1 1 0 101.11-1.66 7.99 7.99 0 118.9 0 1 1 0 101.12 1.66z"/>
    <path fill="#000" d="M9.33 15.98A1.64 1.64 0 0111 14h2c1.1 0 1.85.88 1.67 1.98l-1 6.04c-.1.54-.61.98-1.17.98h-1c-.55 0-1.07-.43-1.16-.98l-1.01-6.04z"/>
  </g>
</svg>
